<svg xmlns="http://www.w3.org/2000/svg" xmlns:xlink="http://www.w3.org/1999/xlink" width="238.014" height="242.031" viewBox="0 0 238.014 242.031">
  <defs>
    <clipPath id="clip-path">
      <rect id="Rectángulo_455881" data-name="Rectángulo 455881" width="146.092" height="29.438" fill="#2cbe91"/>
    </clipPath>
  </defs>
  <g id="Grupo_1187591" data-name="Grupo 1187591" transform="translate(-323.334 -1319)">
    <g id="Grupo_1187493" data-name="Grupo 1187493" transform="translate(-761.674 -975.317)">
      <path id="Trazado_1085278" data-name="Trazado 1085278" d="M227.911,21V0h-6.826c-.042,5.856-4.478,10.568-9.907,10.523-5.371-.045-9.715-4.73-9.756-10.523h-8.329c0,5.857-4.4,10.6-9.832,10.6S173.427,5.857,173.427,0h-8.3c0,5.857-4.4,10.6-9.833,10.6S145.457,5.857,145.457,0h-8.031c0,5.857-4.4,10.606-9.833,10.606S117.76,5.857,117.76,0h-8.528c0,5.857-4.4,10.6-9.833,10.6S89.567,5.857,89.567,0H81.324c0,5.857-4.4,10.6-9.833,10.6S61.659,5.857,61.659,0H53.795c0,5.858-4.4,10.608-9.828,10.611S34.131,5.868,34.128.011V0H25.7c0,5.857-4.4,10.6-9.833,10.6S6.034,5.857,6.034,0H0V21.067c5.431,0,9.833,4.749,9.833,10.606S5.431,42.279,0,42.279v9.2c5.431,0,9.833,4.748,9.833,10.606S5.431,72.688,0,72.688v8.663H.022c5.43.007,9.828,4.76,9.822,10.617S5.43,102.568,0,102.561v8.954c5.431,0,9.833,4.748,9.833,10.606S5.431,132.727,0,132.727v8.528H.022c5.43.006,9.828,4.76,9.822,10.617S5.43,162.471,0,162.465v20.969H6c0-5.857,4.4-10.6,9.833-10.6s9.833,4.748,9.833,10.6h8.427v-.024c.006-5.857,4.413-10.6,9.844-10.593s9.828,4.76,9.821,10.617h7.868v-.024c.006-5.857,4.413-10.6,9.844-10.593s9.828,4.76,9.821,10.617h8.237v-.024c.006-5.857,4.413-10.6,9.843-10.593s9.828,4.76,9.822,10.617h8.53v-.024c.006-5.857,4.413-10.6,9.844-10.593s9.828,4.76,9.821,10.617h8.032c0-5.858,4.4-10.606,9.834-10.606s9.834,4.749,9.834,10.606h8.3v-.024c.006-5.857,4.413-10.6,9.844-10.593s9.828,4.76,9.821,10.617h8.331v-.024c.006-5.857,4.413-10.6,9.843-10.593s9.828,4.76,9.821,10.617h6.859V162.4h-.022c-5.431-.007-9.828-4.76-9.822-10.617s4.413-10.6,9.844-10.593V132.66c-5.431,0-9.833-4.748-9.833-10.605s4.4-10.606,9.833-10.606v-8.954h-.022c-5.431-.007-9.828-4.76-9.822-10.617s4.413-10.6,9.844-10.593V72.622c-5.431,0-9.834-4.749-9.834-10.606s4.4-10.606,9.834-10.606v-9.2c-5.431,0-9.836-4.743-9.839-10.6S222.468,21.005,227.9,21h.01" transform="translate(1102.987 2522.228) rotate(-90)" fill="#bbd6fc"/>
      <g id="Grupo_1184022" data-name="Grupo 1184022" transform="translate(1085.007 2441.934)">
        <g id="Grupo_1183846" data-name="Grupo 1183846" transform="translate(0 0)">
          <rect id="Rectángulo_455879" data-name="Rectángulo 455879" width="48.633" height="46.697" transform="translate(0.366)" fill="#2cbe91"/>
          <path id="Trazado_1000145" data-name="Trazado 1000145" d="M49.366,0h-1.3a2.13,2.13,0,0,1-2.13,2.13A2.13,2.13,0,0,1,43.806,0H41.981V0a2.13,2.13,0,0,1-2.132,2.128A2.13,2.13,0,0,1,37.721,0h-1.7V0a2.13,2.13,0,0,1-2.132,2.128A2.13,2.13,0,0,1,31.758,0H29.974V0a2.13,2.13,0,0,1-2.132,2.128A2.13,2.13,0,0,1,25.714,0H23.867V0a2.13,2.13,0,0,1-2.132,2.128A2.13,2.13,0,0,1,19.607,0h-1.74a2.13,2.13,0,0,1-2.13,2.13A2.13,2.13,0,0,1,13.607,0h-1.8V0A2.13,2.13,0,0,1,9.677,2.132,2.13,2.13,0,0,1,7.55,0h-1.8V0A2.13,2.13,0,0,1,3.613,2.132,2.13,2.13,0,0,1,1.485,0H0" transform="translate(0 46.234)" fill="#2cbe91"/>
        </g>
        <path id="Trazado_1000133" data-name="Trazado 1000133" d="M18.858,31.243c-.077.105-.149.215-.225.322a5.431,5.431,0,0,1-1.911,1.769,3.848,3.848,0,0,1-1.046.379,5.656,5.656,0,0,1-2.113.038c-.27-.052-.534-.133-.824-.2a.236.236,0,0,0-.076.031,3.764,3.764,0,0,1-2.349.789,5.7,5.7,0,0,1-1.911-.3A6.588,6.588,0,0,1,6.317,33.03c-.14-.109-.278-.223-.425-.342a3.153,3.153,0,0,1-2.252-.071,6.2,6.2,0,0,1-1.745-.925A5.609,5.609,0,0,1,.295,29.9a1.532,1.532,0,0,0-.177-.016,2.912,2.912,0,0,1-1.539-.438,5.938,5.938,0,0,1-2.19-2.191,5.283,5.283,0,0,1-.432-1.026c-.041-.124-.089-.245-.13-.357-.1-.053-.187-.1-.275-.14a5.469,5.469,0,0,1-2.32-2.44,6.107,6.107,0,0,1-.689-2.7c0-.132-.014-.262-.02-.356A5.861,5.861,0,0,1-9.2,16.8a5.744,5.744,0,0,1,.842-3.7,3.388,3.388,0,0,1-.314-1.043,4.684,4.684,0,0,1,.131-1.923,4.782,4.782,0,0,1,.38-1A3.335,3.335,0,0,1-6.871,7.768,2.914,2.914,0,0,1-4.3,7.576a5.769,5.769,0,0,1,1.22.6,5.022,5.022,0,0,0,.81.386A20.292,20.292,0,0,1-.16,9.645q1.376.787,2.737,1.6c.609.364,1.2.756,1.8,1.126,1.984,1.224,3.9,2.547,5.849,3.826,1.637,1.076,3.235,2.208,4.822,3.353q1.605,1.161,3.157,2.4a32.9,32.9,0,0,1,3.029,2.712,1.672,1.672,0,0,1,.164.19.725.725,0,0,0,.3.25.745.745,0,0,1,.21.137A4.642,4.642,0,0,1,22.954,26.5a2.7,2.7,0,0,1,.292.8,2.152,2.152,0,0,1-.059.856,3.937,3.937,0,0,1-1,1.883,3.79,3.79,0,0,1-1.256.825c-.2.081-.406.148-.611.217a3.037,3.037,0,0,1-1.169.161c-.095-.006-.19,0-.3-.008" transform="translate(40.449 39.05) rotate(146)" fill="#1b5b5b"/>
      </g>
      <g id="Grupo_1184023" data-name="Grupo 1184023" transform="translate(1176.929 2468.471)">
        <g id="Grupo_1183367" data-name="Grupo 1183367" transform="translate(0 0)" clip-path="url(#clip-path)">
          <path id="Trazado_1000146" data-name="Trazado 1000146" d="M178.8.178a1.43,1.43,0,0,1,1.525.114,4.265,4.265,0,0,1,1.192,1.344,9.734,9.734,0,0,1,.993,1.887,5.45,5.45,0,0,1,.372,2.083,3.786,3.786,0,0,1,.014.464,5.893,5.893,0,0,1-.142,1.04c-.042.192-.084.4-.142.591a2.7,2.7,0,0,1-.156.582c-.026.063-.1.022-.1-.031,0-.013,0-.027,0-.04a.093.093,0,0,1-.119-.1,3.552,3.552,0,0,1,.173-.862c.049-.327.115-.652.153-.957.015-.124.022-.246.03-.369,0-.047,0-.094,0-.141A3.179,3.179,0,0,0,181.8,3.86a6.469,6.469,0,0,0-1.433-1.236,4.988,4.988,0,0,1-1.5-1.092C178.62,1.193,178.4.488,178.8.178" transform="translate(-110.35 0)" fill="#ff6a7d"/>
          <path id="Trazado_1000147" data-name="Trazado 1000147" d="M178.187.149a.133.133,0,0,1,.257.04,4.5,4.5,0,0,0,2.928,3.6,7.5,7.5,0,0,1,3.343,2.163,9.107,9.107,0,0,1,1.744,4.088,5.163,5.163,0,0,1,.022,2.371,5.217,5.217,0,0,1-.46,1.457.146.146,0,1,1-.265-.125c.016-.035.026-.07.041-.1a.141.141,0,0,1-.019-.157,4.609,4.609,0,0,0,.378-1.1,7.163,7.163,0,0,0-.209-2.823,5.258,5.258,0,0,0-.413-.895,7.243,7.243,0,0,0-3.642-2.814,7.683,7.683,0,0,1-3.319-2.208,3.36,3.36,0,0,1-.386-3.492" transform="translate(-113.768 -0.037)" fill="#ffe1cb"/>
          <path id="Trazado_1000148" data-name="Trazado 1000148" d="M178.073,12.209a18.472,18.472,0,0,1,4.534,2.483,4.9,4.9,0,0,1,1.278,1.264,2.278,2.278,0,0,1,.324,1.8" transform="translate(-111.525 -7.181)" fill="none" stroke="#12263f" stroke-linecap="round" stroke-linejoin="round" stroke-width="0.75"/>
          <path id="Trazado_1000149" data-name="Trazado 1000149" d="M178.8,24.318a9.486,9.486,0,0,1,2.421-5.542A.273.273,0,0,1,181.7,19a20.613,20.613,0,0,0-.046,4.531,2.976,2.976,0,0,0,2.046,2.252,3.519,3.519,0,0,0,2.947-.8,6.641,6.641,0,0,0,.708-.652,5.089,5.089,0,0,1,1.743-2.98c1.408-.916,3.359-.313,4.668.542a6.625,6.625,0,0,1,1.846,1.793,4.324,4.324,0,0,1,.908,2.279c0,.857-.453,1.175-1.169.944a4.467,4.467,0,0,1-1.939-1.606,4.9,4.9,0,0,0-2.446-1.966,2.491,2.491,0,0,0-2.163.437.66.66,0,0,0-.129-.007.716.716,0,0,0-.441.173,2.545,2.545,0,0,0-.61.916,8.521,8.521,0,0,0-.419,1.252c-.049.177-.091.357-.135.535a5.177,5.177,0,0,1-2.164,2.692,3.934,3.934,0,0,1-4.057-.211,5.54,5.54,0,0,1-2.05-4.809" transform="translate(-124.068 -10.981)" fill="#2079f3"/>
          <path id="Trazado_1000150" data-name="Trazado 1000150" d="M193.616,30.826a2.872,2.872,0,0,0,3.282,1.316,12.327,12.327,0,0,0,3.379-1.744,2.284,2.284,0,0,1,1.92-.444" transform="translate(-135.845 -17.568)" fill="none" stroke="#15260d" stroke-linecap="round" stroke-linejoin="round" stroke-width="0.75"/>
          <path id="Trazado_1000151" data-name="Trazado 1000151" d="M200.751,31.474a3.286,3.286,0,0,0,1.442,2.625,3.761,3.761,0,0,0,2.8.5,6.636,6.636,0,0,0,2.646-1.26" transform="translate(-144.229 -18.512)" fill="none" stroke="#12263f" stroke-linecap="round" stroke-linejoin="round" stroke-width="0.75"/>
          <path id="Trazado_1000152" data-name="Trazado 1000152" d="M202.649,39.062a3.07,3.07,0,0,0,2.74,1.416,7.124,7.124,0,0,0,3.018-.946" transform="translate(-145.775 -22.974)" fill="none" stroke="#12263f" stroke-linecap="round" stroke-linejoin="round" stroke-width="0.75"/>
          <path id="Trazado_1000153" data-name="Trazado 1000153" d="M181.446,27.088a8.6,8.6,0,0,1,5.315,3.867" transform="translate(-115.397 -15.932)" fill="none" stroke="#15260d" stroke-linecap="round" stroke-linejoin="round" stroke-width="0.75"/>
          <path id="Trazado_1000154" data-name="Trazado 1000154" d="M179.209,10.4c-.027-.113-.057-.225-.077-.338a.127.127,0,0,1,.164-.142v0c.025-.124.177-.1.174.028s0,.27.006.4a4.216,4.216,0,0,0,1.243,1.993c.924.753,1.93.46,2.954.19a7.432,7.432,0,0,1,4.928.361,7.344,7.344,0,0,1,3.564,3.411,8.191,8.191,0,0,1,.806,2.52,8.681,8.681,0,0,1,.107,1.315v.01a3.2,3.2,0,0,1-.208,1.2.211.211,0,0,1-.052.072c-.018.035-.032.072-.052.1-.077.127-.22.027-.228-.1a.2.2,0,0,1-.064-.143c-.026-.49.08-.976.068-1.47a7.5,7.5,0,0,0-.144-1.287,7.389,7.389,0,0,0-.223-.832,5.358,5.358,0,0,0-1.045-1.544,5.943,5.943,0,0,0-4.976-1.553,20.4,20.4,0,0,1-2.93.446,4.062,4.062,0,0,1-2.112-.668,4.285,4.285,0,0,1-1.532-1.792,4.809,4.809,0,0,1-.373-1.213,2.857,2.857,0,0,1,0-.974" transform="translate(-120.76 -5.783)" fill="#ffe76d"/>
          <path id="Trazado_1000155" data-name="Trazado 1000155" d="M194.958,13.6a6.394,6.394,0,0,0,6.7,1.924" transform="translate(-135.86 -8.001)" fill="none" stroke="#12263f" stroke-linecap="round" stroke-linejoin="round" stroke-width="0.75"/>
          <path id="Trazado_1000156" data-name="Trazado 1000156" d="M169.629.178A1.43,1.43,0,0,0,168.1.292a4.269,4.269,0,0,0-1.192,1.344,9.735,9.735,0,0,0-.993,1.887,5.452,5.452,0,0,0-.372,2.083,3.786,3.786,0,0,0-.014.464,5.886,5.886,0,0,0,.142,1.04c.042.192.084.4.142.591a2.7,2.7,0,0,0,.156.582c.026.063.1.022.1-.031,0-.013,0-.027,0-.04a.093.093,0,0,0,.119-.1,3.556,3.556,0,0,0-.173-.862c-.049-.327-.115-.652-.153-.957-.015-.124-.022-.246-.03-.369,0-.047,0-.094,0-.141a3.179,3.179,0,0,1,.785-1.925,6.468,6.468,0,0,1,1.433-1.236,4.988,4.988,0,0,0,1.5-1.092c.245-.339.468-1.044.067-1.355" transform="translate(-91.931 0)" fill="#ff6a7d"/>
          <path id="Trazado_1000157" data-name="Trazado 1000157" d="M163.92.149a.132.132,0,0,0-.257.04,4.5,4.5,0,0,1-2.928,3.6,7.5,7.5,0,0,0-3.342,2.163,9.1,9.1,0,0,0-1.744,4.088,5.163,5.163,0,0,0-.022,2.371,5.217,5.217,0,0,0,.46,1.457.147.147,0,1,0,.265-.125c-.016-.035-.026-.07-.041-.1a.141.141,0,0,0,.018-.157,4.613,4.613,0,0,1-.378-1.1,7.164,7.164,0,0,1,.209-2.823,5.259,5.259,0,0,1,.413-.895,7.244,7.244,0,0,1,3.642-2.814,7.683,7.683,0,0,0,3.319-2.208A3.359,3.359,0,0,0,163.92.149" transform="translate(-82.192 -0.037)" fill="#ffe1cb"/>
          <path id="Trazado_1000158" data-name="Trazado 1000158" d="M167.657,12.209a18.471,18.471,0,0,0-4.534,2.483,4.9,4.9,0,0,0-1.278,1.264,2.279,2.279,0,0,0-.324,1.8" transform="translate(-88.058 -7.181)" fill="none" stroke="#12263f" stroke-linecap="round" stroke-linejoin="round" stroke-width="0.75"/>
          <path id="Trazado_1000159" data-name="Trazado 1000159" d="M150.475,24.318a9.486,9.486,0,0,0-2.421-5.542.273.273,0,0,0-.481.226,20.612,20.612,0,0,1,.046,4.531,2.976,2.976,0,0,1-2.046,2.252,3.519,3.519,0,0,1-2.947-.8,6.641,6.641,0,0,1-.708-.652,5.089,5.089,0,0,0-1.742-2.98c-1.408-.916-3.359-.313-4.668.542a6.627,6.627,0,0,0-1.846,1.793,4.323,4.323,0,0,0-.908,2.279c0,.857.453,1.175,1.169.944a4.466,4.466,0,0,0,1.939-1.606,4.9,4.9,0,0,1,2.446-1.966,2.491,2.491,0,0,1,2.163.437.66.66,0,0,1,.129-.007.716.716,0,0,1,.441.173,2.545,2.545,0,0,1,.61.916,8.524,8.524,0,0,1,.419,1.252c.049.177.091.357.135.535a5.176,5.176,0,0,0,2.164,2.692,3.934,3.934,0,0,0,4.057-.211,5.539,5.539,0,0,0,2.05-4.809" transform="translate(-59.062 -10.981)" fill="#2079f3"/>
          <path id="Trazado_1000160" data-name="Trazado 1000160" d="M148.724,30.826a2.872,2.872,0,0,1-3.282,1.316,12.325,12.325,0,0,1-3.379-1.744,2.284,2.284,0,0,0-1.92-.444" transform="translate(-60.349 -17.568)" fill="none" stroke="#15260d" stroke-linecap="round" stroke-linejoin="round" stroke-width="0.75"/>
          <path id="Trazado_1000161" data-name="Trazado 1000161" d="M144,31.474A3.286,3.286,0,0,1,142.56,34.1a3.761,3.761,0,0,1-2.8.5,6.636,6.636,0,0,1-2.646-1.26" transform="translate(-54.377 -18.512)" fill="none" stroke="#12263f" stroke-linecap="round" stroke-linejoin="round" stroke-width="0.75"/>
          <path id="Trazado_1000162" data-name="Trazado 1000162" d="M143.723,39.062a3.07,3.07,0,0,1-2.74,1.416,7.121,7.121,0,0,1-3.018-.946" transform="translate(-54.451 -22.974)" fill="none" stroke="#12263f" stroke-linecap="round" stroke-linejoin="round" stroke-width="0.75"/>
          <path id="Trazado_1000163" data-name="Trazado 1000163" d="M165.557,27.088a8.6,8.6,0,0,0-5.315,3.867" transform="translate(-85.46 -15.932)" fill="none" stroke="#12263f" stroke-linecap="round" stroke-linejoin="round" stroke-width="0.75"/>
          <path id="Trazado_1000164" data-name="Trazado 1000164" d="M155.464,10.4c.027-.113.057-.225.077-.338a.127.127,0,0,0-.164-.142v0c-.025-.124-.177-.1-.174.028s0,.27-.006.4a4.216,4.216,0,0,1-1.243,1.993c-.924.753-1.93.46-2.954.19a7.432,7.432,0,0,0-4.928.361,7.342,7.342,0,0,0-3.564,3.411,8.193,8.193,0,0,0-.806,2.52,8.693,8.693,0,0,0-.106,1.315v.01a3.186,3.186,0,0,0,.208,1.2.211.211,0,0,0,.052.072c.018.035.032.072.052.1.077.127.22.027.228-.1a.2.2,0,0,0,.064-.143c.026-.49-.08-.976-.068-1.47a7.105,7.105,0,0,1,.367-2.119,5.343,5.343,0,0,1,1.045-1.544,5.944,5.944,0,0,1,4.976-1.553,20.393,20.393,0,0,0,2.93.446,4.06,4.06,0,0,0,2.111-.668,4.285,4.285,0,0,0,1.532-1.792,4.826,4.826,0,0,0,.374-1.213,2.855,2.855,0,0,0,0-.974" transform="translate(-67.766 -5.783)" fill="#ffe76d"/>
          <path id="Trazado_1000165" data-name="Trazado 1000165" d="M150.065,13.6a6.394,6.394,0,0,1-6.7,1.924" transform="translate(-63.017 -8.001)" fill="none" stroke="#12263f" stroke-linecap="round" stroke-linejoin="round" stroke-width="0.75"/>
          <path id="Trazado_1000166" data-name="Trazado 1000166" d="M179,5.47a.33.33,0,0,1,.652-.1,51.657,51.657,0,0,0,3.205,8.774c.086.166.17.334.26.5a15.44,15.44,0,0,0,5.047,5.52A21.8,21.8,0,0,0,201.7,23.388a26.085,26.085,0,0,0,7.021-1.523,41.58,41.58,0,0,0,6.595-3.317c.653-.379,1.314-.752,1.984-1.106a15.3,15.3,0,0,1-2.715.406c-1.161.1-2.323.215-3.487.284a12.022,12.022,0,0,1-5.932-.99c-3.6-1.681-5.968-5.112-7.058-9.19A45.775,45.775,0,0,1,196.959.467.378.378,0,0,1,197.7.356a23.664,23.664,0,0,0,5.744,10.3,19.271,19.271,0,0,0,10.3,5.659,21.745,21.745,0,0,0,5.057.4,14.925,14.925,0,0,1,3.149-1.049,12.271,12.271,0,0,1,7.112.679,7.244,7.244,0,0,1,4.385,4.321c.02.063.036.126.053.189a18.27,18.27,0,0,1,2.8,1.467c1.978,1.26,3.936,2.828,6.247,3.217a7.059,7.059,0,0,0,6.061-2.011c1.5-1.5,2.717-4.3,1.033-6.2-.022-.025-.047-.041-.069-.064-.995-.271-1.827,1.149-2.288,1.94s-1.015,1.657-1.9,1.888a1.851,1.851,0,0,1-2.06-.653,2.258,2.258,0,0,1,.6-2.633c1.37-1.559,3.575-2.983,5.536-1.885,1.794,1,2.264,3.572,1.6,5.52a7.937,7.937,0,0,1-4.431,4.615,7.845,7.845,0,0,1-6.374-.136c-2.128-.954-3.96-2.522-6.031-3.6-.171-.089-.347-.167-.521-.248a7.245,7.245,0,0,1-1.3,4.727c-2.421,3.347-7.977,3.763-10.362.13a4.43,4.43,0,0,1,.864-5.684c1.8-1.609,4.41-1.7,6.608-1.444a14.4,14.4,0,0,1,2.719.591,5.2,5.2,0,0,0-1.383-1.792,10.32,10.32,0,0,0-6.872-2.1,15.746,15.746,0,0,0-7.047,2.337,72.482,72.482,0,0,1-6.424,3.464,39.514,39.514,0,0,1-13.258,3.365,20.866,20.866,0,0,1-6.954-.889,19.866,19.866,0,0,1-6.359-3.2,11.238,11.238,0,0,1-3.823-6.231A33.432,33.432,0,0,1,179,5.47m47.812,15.34a5.4,5.4,0,0,0-3.4,1.36,3.356,3.356,0,0,0-1,3.147c.562,2.251,3.047,3.161,4.936,3.072a5.621,5.621,0,0,0,5.029-3.585,5.786,5.786,0,0,0,.279-3.192,13.5,13.5,0,0,0-5.839-.8" transform="translate(-178.982 -0.037)" fill="#2cbe91"/>
          <path id="Trazado_1000167" data-name="Trazado 1000167" d="M252.957,40.73a19.927,19.927,0,0,0,5.9-1.7" transform="translate(-216.944 -22.955)" fill="none" stroke="#12263f" stroke-linecap="round" stroke-linejoin="round" stroke-width="0.75"/>
          <path id="Trazado_1000168" data-name="Trazado 1000168" d="M275.471,15.125A16.871,16.871,0,0,0,288.166,25.7" transform="translate(-255.525 -8.896)" fill="none" stroke="#12263f" stroke-linecap="round" stroke-linejoin="round" stroke-width="0.75"/>
          <path id="Trazado_1000169" data-name="Trazado 1000169" d="M298.226,23.622c1.583,5.236,4.768,10.1,9.327,12.356a17.073,17.073,0,0,0,2.847,1.08,23.776,23.776,0,0,0,10.264.661" transform="translate(-297.395 -13.893)" fill="none" stroke="#15260d" stroke-linecap="round" stroke-linejoin="round" stroke-width="0.75"/>
          <path id="Trazado_1000170" data-name="Trazado 1000170" d="M224.175,45.355a6.421,6.421,0,0,1,1.81,5.219" transform="translate(-172.241 -26.676)" fill="none" stroke="#12263f" stroke-linecap="round" stroke-linejoin="round" stroke-width="0.75"/>
          <path id="Trazado_1000171" data-name="Trazado 1000171" d="M222.05,45.454a7.185,7.185,0,0,1,1.167,4.457" transform="translate(-168.592 -26.734)" fill="none" stroke="#15260d" stroke-linecap="round" stroke-linejoin="round" stroke-width="0.75"/>
          <path id="Trazado_1000172" data-name="Trazado 1000172" d="M227.275,49.786a10.912,10.912,0,0,0-1.8-.723" transform="translate(-174.043 -28.857)" fill="none" stroke="#12263f" stroke-linecap="round" stroke-linejoin="round" stroke-width="0.75"/>
          <path id="Trazado_1000173" data-name="Trazado 1000173" d="M186.772,42.26a3.3,3.3,0,0,0-.8-1.5,2.058,2.058,0,0,0-.747-.389,3.146,3.146,0,0,0-3.318.882,1.777,1.777,0,0,0-.48,1.186c.017.444.337.89.74.888" transform="translate(-115.398 -23.659)" fill="none" stroke="#12263f" stroke-linecap="round" stroke-linejoin="round" stroke-width="0.75"/>
          <path id="Trazado_1000174" data-name="Trazado 1000174" d="M71.234,15.337a11.237,11.237,0,0,1-3.822,6.231,19.871,19.871,0,0,1-6.359,3.2,20.878,20.878,0,0,1-6.954.889,39.512,39.512,0,0,1-13.257-3.365,72.585,72.585,0,0,1-6.424-3.464,15.748,15.748,0,0,0-7.048-2.337,10.32,10.32,0,0,0-6.872,2.1,5.191,5.191,0,0,0-1.383,1.792,14.4,14.4,0,0,1,2.719-.591c2.2-.255,4.813-.166,6.608,1.444a4.429,4.429,0,0,1,.864,5.684c-2.385,3.633-7.94,3.217-10.361-.13a7.245,7.245,0,0,1-1.3-4.727c-.174.082-.35.159-.521.248-2.071,1.077-3.9,2.646-6.031,3.6a7.843,7.843,0,0,1-6.374.136A7.937,7.937,0,0,1,.284,21.431c-.659-1.948-.189-4.515,1.6-5.52,1.961-1.1,4.166.327,5.536,1.885a2.259,2.259,0,0,1,.6,2.633,1.85,1.85,0,0,1-2.06.652c-.881-.231-1.433-1.1-1.9-1.888s-1.294-2.211-2.289-1.94c-.022.023-.047.04-.069.064-1.684,1.9-.471,4.7,1.033,6.2A7.059,7.059,0,0,0,8.81,25.533c2.311-.39,4.268-1.957,6.247-3.217a18.236,18.236,0,0,1,2.8-1.467c.018-.063.033-.127.053-.189A7.246,7.246,0,0,1,22.3,16.338a12.269,12.269,0,0,1,7.113-.679,14.932,14.932,0,0,1,3.149,1.049,21.769,21.769,0,0,0,5.057-.4,19.27,19.27,0,0,0,10.3-5.659A23.663,23.663,0,0,0,53.657.356.378.378,0,0,1,54.4.467,45.814,45.814,0,0,1,53.25,7.951c-1.09,4.079-3.457,7.509-7.058,9.19a12.022,12.022,0,0,1-5.932.99c-1.163-.069-2.325-.185-3.486-.284a15.291,15.291,0,0,1-2.715-.406c.67.353,1.331.727,1.984,1.106a41.58,41.58,0,0,0,6.595,3.317,26.081,26.081,0,0,0,7.021,1.523A21.8,21.8,0,0,0,63.2,20.165a15.443,15.443,0,0,0,5.047-5.52c.09-.164.174-.332.26-.5A51.675,51.675,0,0,0,71.71,5.373a.33.33,0,0,1,.651.1,33.415,33.415,0,0,1-1.127,9.867M18.71,21.612a5.79,5.79,0,0,0,.279,3.192,5.622,5.622,0,0,0,5.029,3.585c1.89.089,4.374-.821,4.937-3.072a3.358,3.358,0,0,0-1-3.147,5.4,5.4,0,0,0-3.4-1.36,13.5,13.5,0,0,0-5.839.8" transform="translate(73.713 -0.037)" fill="#2cbe91"/>
          <path id="Trazado_1000175" data-name="Trazado 1000175" d="M93.343,40.73a19.927,19.927,0,0,1-5.9-1.7" transform="translate(16.736 -22.955)" fill="none" stroke="#12263f" stroke-linecap="round" stroke-linejoin="round" stroke-width="0.75"/>
          <path id="Trazado_1000176" data-name="Trazado 1000176" d="M61.125,15.125A16.87,16.87,0,0,1,48.43,25.7" transform="translate(65.022 -8.896)" fill="none" stroke="#15260d" stroke-linecap="round" stroke-linejoin="round" stroke-width="0.75"/>
          <path id="Trazado_1000177" data-name="Trazado 1000177" d="M24.456,23.622c-1.583,5.236-4.768,10.1-9.327,12.356a17.076,17.076,0,0,1-2.847,1.08,23.777,23.777,0,0,1-10.264.661" transform="translate(120.804 -13.893)" fill="none" stroke="#15260d" stroke-linecap="round" stroke-linejoin="round" stroke-width="0.75"/>
          <path id="Trazado_1000178" data-name="Trazado 1000178" d="M127.933,45.355a6.421,6.421,0,0,0-1.81,5.219" transform="translate(-33.774 -26.676)" fill="none" stroke="#15260d" stroke-linecap="round" stroke-linejoin="round" stroke-width="0.75"/>
          <path id="Trazado_1000179" data-name="Trazado 1000179" d="M130.984,45.454a7.185,7.185,0,0,0-1.167,4.457" transform="translate(-38.35 -26.734)" fill="none" stroke="#12263f" stroke-linecap="round" stroke-linejoin="round" stroke-width="0.75"/>
          <path id="Trazado_1000180" data-name="Trazado 1000180" d="M124.875,49.786a10.913,10.913,0,0,1,1.8-.723" transform="translate(-32.014 -28.857)" fill="none" stroke="#12263f" stroke-linecap="round" stroke-linejoin="round" stroke-width="0.75"/>
          <path id="Trazado_1000181" data-name="Trazado 1000181" d="M160.314,42.26a3.31,3.31,0,0,1,.8-1.5,2.058,2.058,0,0,1,.747-.389,3.146,3.146,0,0,1,3.318.882,1.777,1.777,0,0,1,.48,1.186c-.016.444-.337.89-.74.888" transform="translate(-85.596 -23.659)" fill="none" stroke="#15260d" stroke-linecap="round" stroke-linejoin="round" stroke-width="0.75"/>
          <path id="Trazado_1000182" data-name="Trazado 1000182" d="M173.61,33.577a1.847,1.847,0,1,1,1.838,2.031,1.942,1.942,0,0,1-1.838-2.031" transform="translate(-102.695 -18.554)" fill="#2cbe91"/>
        </g>
      </g>
      <g id="Grupo_1186068" data-name="Grupo 1186068" transform="translate(1129.006 2485.221)">
        <g id="Grupo_1184024" data-name="Grupo 1184024" transform="translate(0 0)">
          <rect id="Rectángulo_455879-2" data-name="Rectángulo 455879" width="51.409" height="49.362" transform="translate(0.387)" fill="#ffb57d"/>
          <path id="Trazado_1000145-2" data-name="Trazado 1000145" d="M52.183,0H50.809a2.251,2.251,0,0,1-2.251,2.251A2.251,2.251,0,0,1,46.306,0H44.377V0a2.252,2.252,0,0,1-2.254,2.249A2.252,2.252,0,0,1,39.874,0h-1.8V0a2.251,2.251,0,0,1-2.254,2.249A2.252,2.252,0,0,1,33.57,0H31.684V0A2.252,2.252,0,0,1,29.43,2.254,2.252,2.252,0,0,1,27.182,0H25.229V0a2.252,2.252,0,0,1-2.254,2.249A2.252,2.252,0,0,1,20.726,0H18.887a2.251,2.251,0,0,1-2.252,2.251A2.251,2.251,0,0,1,14.384,0h-1.9V0a2.252,2.252,0,0,1-2.254,2.249A2.252,2.252,0,0,1,7.98,0H6.073V0A2.252,2.252,0,0,1,3.819,2.254,2.252,2.252,0,0,1,1.57,0H0" transform="translate(0 48.873)" fill="#ffb57d"/>
        </g>
        <path id="Trazado_1026845" data-name="Trazado 1026845" d="M.423,14.655c.26,2.824,2.109,4.425,5.281,3.115a35.242,35.242,0,0,1,4.45-1.389c.311,1.042.624,2.11.852,2.941l.027-.014c.077.28.146.535.2.752a3.048,3.048,0,0,0,3.111,2.587L27.2,21.466c1.573-.145,2.333-1.551,2.587-3.111.134-.823.286-2.186.422-3.545,2.6.141,4.6.284,4.6.284,3.861.627,4.884-1.2,4.624-4.027-.452-4.918-9.959-9.92-20.492-8.952S-.029,9.737.423,14.655" transform="matrix(-1, -0.017, 0.017, -1, 39.433, 38.156)" fill="#ffb57d" style="mix-blend-mode: multiply;isolation: isolate"/>
      </g>
    </g>
    <g id="camarero" transform="translate(379.402 1366)">
      <path id="Trazado_1140065" data-name="Trazado 1140065" d="M63.541,51.309h1.554a1.389,1.389,0,1,0,0-2.777H63.605l.555-3.656a1.389,1.389,0,0,0-2.746-.416l-.563,3.719a2.721,2.721,0,0,0,2.689,3.13Z" transform="translate(-11.17 -8.94)" fill="#2079f3"/>
      <path id="Trazado_1140066" data-name="Trazado 1140066" d="M52.139,42.863a3.306,3.306,0,1,0-3.306-3.306A3.306,3.306,0,0,0,52.139,42.863Z" transform="translate(-8.693 -7.488)" fill="#2079f3"/>
      <path id="Trazado_1140067" data-name="Trazado 1140067" d="M74.139,42.863a3.306,3.306,0,1,0-3.306-3.306A3.306,3.306,0,0,0,74.139,42.863Z" transform="translate(-13.238 -7.488)" fill="#2079f3"/>
      <path id="Trazado_1140068" data-name="Trazado 1140068" d="M55.954,57.61a1.389,1.389,0,0,0-.19,1.955,8.23,8.23,0,0,0,6.37,2.653A8.231,8.231,0,0,0,68.5,59.566,1.388,1.388,0,1,0,66.359,57.8a6.257,6.257,0,0,1-8.451,0,1.389,1.389,0,0,0-1.954-.188Z" transform="translate(-10.06 -11.835)" fill="#2079f3"/>
      <path id="Trazado_1140069" data-name="Trazado 1140069" d="M87.386,71.007a19.166,19.166,0,0,0-3.9-1.559h0a36.4,36.4,0,0,0-6.739-.975c-2.049-.179-4.126-.317-6.174-.52V65.609a1.389,1.389,0,0,0-1.742-1.342l-3.723.979a3.893,3.893,0,0,1-.374-1.18l-.766-5.992a18.742,18.742,0,0,0,5.6-7.538,37.006,37.006,0,0,0,1.791-6.773c.038-.194.079-.382.117-.575a6.58,6.58,0,0,0,1.088.1,6.781,6.781,0,0,0,4.924-11.455V15.919A15.938,15.938,0,0,0,61.568,0H42.78A15.938,15.938,0,0,0,26.859,15.919v15.71a6.769,6.769,0,0,0,6,11.528c.04.2.084.4.124.606a37.02,37.02,0,0,0,1.792,6.779,18.751,18.751,0,0,0,5.6,7.538l-.766,6a3.657,3.657,0,0,1-.354,1.181l-3.74-.987a1.389,1.389,0,0,0-1.746,1.343V68c-1.221.079-2.487.12-3.717.22a45.977,45.977,0,0,0-9.2,1.231A19.27,19.27,0,0,0,6.75,87.939v12.233a1.389,1.389,0,0,0,1.389,1.387H96.209A1.389,1.389,0,0,0,97.6,100.17V87.939A19.13,19.13,0,0,0,87.386,71.007Zm-15.869-.175c1.666.14,3.337.267,5,.409a33.78,33.78,0,0,1,6.228.885,16.033,16.033,0,0,1,2.6.966v25.69H54.475L64.243,80.22l4.587,1.208a1.4,1.4,0,0,0,1.746-1.342v-9.34q.474.047.944.087Zm-16.99-.34V75.2H49.818V70.492Zm6.957,9L53.562,94.551V77.981h2.176l2.343.617ZM48.61,77.981h2.176V94.551L42.861,79.5l3.405-.9Zm19.185-8.794v9.1L59.2,76.022l-1.9-.5V70.174l7.544-1.988h0l2.943-.776Zm4.77-28.675a3.849,3.849,0,0,1-.512-.055l.934-4.267a19.025,19.025,0,0,0,.418-3.6,3.786,3.786,0,0,1,1.634.766,4,4,0,0,1-2.474,7.151ZM29.636,29.992V15.919A13.159,13.159,0,0,1,42.78,2.777H61.568A13.159,13.159,0,0,1,74.712,15.919V30.056a8.325,8.325,0,0,0-1.3-.3V25.072a1.388,1.388,0,0,0-1.389-1.389H63.452A23.343,23.343,0,0,1,43.817,13.029a1.389,1.389,0,0,0-2.552.757,9.96,9.96,0,0,1-6.337,9.224,9.752,9.752,0,0,1-2.722.63,1.389,1.389,0,0,0-1.273,1.384v4.715a8.164,8.164,0,0,0-1.3.253ZM27.573,36.5a4.014,4.014,0,0,1,3.364-3.948c-.016,2.242.891,5.683,1.357,7.893a3.967,3.967,0,0,1-.707.07A4.019,4.019,0,0,1,27.57,36.5Zm9.779,13a34.972,34.972,0,0,1-1.64-6.268c-.143-.725-.286-1.446-.44-2.158-.447-2.265-1.647-6.6-1.563-8.879V26.233A12.788,12.788,0,0,0,43.54,17.29a26.1,26.1,0,0,0,19.915,9.169h7.187v5.73a16.27,16.27,0,0,1-.366,3.412l-1.2,5.469c-.006.024-.01.049-.015.073l0,.025c-.147.679-.284,1.366-.421,2.059A35.026,35.026,0,0,1,67,49.494a15.965,15.965,0,0,1-5.164,6.726,1.349,1.349,0,0,0-.3.219,16.038,16.038,0,0,1-18.716,0,1.39,1.39,0,0,0-.3-.22,15.948,15.948,0,0,1-5.159-6.725Zm4.63,16.476a6.591,6.591,0,0,0,.386-1.551l.587-4.595a18.884,18.884,0,0,0,18.438,0l.587,4.595a6.54,6.54,0,0,0,.4,1.547l-6.641,1.746H48.61l-4.4-1.16Zm-5.429,1.441,2.963.781h0l7.523,1.984v5.348l-1.9.5-8.589,2.263ZM9.527,87.939a16.345,16.345,0,0,1,6.7-13.2V98.782h-6.7ZM19,73.092a16.035,16.035,0,0,1,2.6-.966,43.284,43.284,0,0,1,8.643-1.138c1.177-.09,2.363-.148,3.537-.2v9.3a1.4,1.4,0,0,0,1.746,1.342l4.587-1.208,9.764,18.561H19Zm75.821,25.69h-6.7V74.741a16.345,16.345,0,0,1,6.7,13.2Z" fill="#2079f3"/>
      <path id="Trazado_1140070" data-name="Trazado 1140070" d="M80.529,109.883v5.554a1.389,1.389,0,0,0,1.389,1.389H94.036a1.389,1.389,0,0,0,1.389-1.389v-5.554a1.389,1.389,0,0,0-1.389-1.389H81.917A1.389,1.389,0,0,0,80.529,109.883Zm2.777,1.389h9.339v2.777H83.306Z" transform="translate(-15.241 -22.412)" fill="#2079f3"/>
    </g>
  </g>
</svg>
