<svg xmlns="http://www.w3.org/2000/svg" width="48" height="61.211" viewBox="0 0 48 61.211">
  <g id="gota-de-agua" transform="translate(-55.111)">
    <g id="Grupo_1187506" data-name="Grupo 1187506" transform="translate(55.111 0)">
      <path id="Trazado_1140033" data-name="Trazado 1140033" d="M109.159,265.734a14.052,14.052,0,0,1-7.132-21.751,1.22,1.22,0,0,0,.109-.178,1.2,1.2,0,0,0-2.05-1.229,16.449,16.449,0,0,0,.073,19.581,16.582,16.582,0,0,0,8.288,5.865,1.2,1.2,0,0,0,.712-2.289Z" transform="translate(-91.883 -213.057)" fill="#2079f3"/>
      <path id="Trazado_1140034" data-name="Trazado 1140034" d="M103.111,28.009a10.554,10.554,0,0,0-2.057-6.288L93.467,10.457a1.2,1.2,0,0,0-1.988,0l-3.2,4.746L78.4.529a1.2,1.2,0,0,0-1.988,0l-16.97,25.19a22.292,22.292,0,1,0,40.255,13.2,22.5,22.5,0,0,0-.193-2.932A10.615,10.615,0,0,0,103.111,28.009ZM92.473,13.272l6.593,9.787q.02.031.042.06a8.241,8.241,0,1,1-13.269,0c.014-.019.027-.038.04-.058l3.395-5.04.019-.028ZM97.3,38.92a19.894,19.894,0,1,1-35.909-11.8c.015-.02.029-.04.042-.061L77.4,3.344l9.434,14-2.945,4.372A10.637,10.637,0,0,0,97.246,37.514q.049.7.05,1.406Z" transform="translate(-55.111 0)" fill="#2079f3"/>
      <path id="Trazado_1140035" data-name="Trazado 1140035" d="M313.958,206.63a4.074,4.074,0,0,1,.352-1.666,1.2,1.2,0,0,0-2.19-.974,6.509,6.509,0,0,0,2.332,8.048,1.2,1.2,0,0,0,1.333-1.992A4.1,4.1,0,0,1,313.958,206.63Z" transform="translate(-280.823 -178.913)" fill="#2079f3"/>
      <path id="Trazado_1140036" data-name="Trazado 1140036" d="M219.437,447.948a1.2,1.2,0,1,0-1.341,1.634A1.208,1.208,0,0,0,219.437,447.948Z" transform="translate(-197.714 -393.61)" fill="#2079f3"/>
      <path id="Trazado_1140037" data-name="Trazado 1140037" d="M357.689,269.355a1.2,1.2,0,1,0,0-1.993A1.2,1.2,0,0,0,357.689,269.355Z" transform="translate(-320.959 -235.137)" fill="#2079f3"/>
    </g>
  </g>
</svg>
