<svg xmlns="http://www.w3.org/2000/svg" width="38.84" height="96" viewBox="0 0 38.84 96">
  <g id="Cooking_oil" data-name="Cooking oil" transform="translate(-28.58)">
    <path id="Trazado_1140029" data-name="Trazado 1140029" d="M67.42,31.09V28.44a13.131,13.131,0,0,0-4.621-10L54,11V8.24a2.47,2.47,0,0,0,1.58-2.3V2.48A2.48,2.48,0,0,0,53.1,0H42.9a2.48,2.48,0,0,0-2.48,2.48V5.94A2.47,2.47,0,0,0,42,8.24V11l-8.8,7.49a13.13,13.13,0,0,0-4.62,10v2.65a3.74,3.74,0,0,0,1.16,2.71A3.52,3.52,0,0,0,29.67,39a3.5,3.5,0,0,0-1.09,2.54V63.58a3.5,3.5,0,0,0,1.09,2.54,3.52,3.52,0,0,0,0,5.09,3.51,3.51,0,0,0,0,5.08,3.52,3.52,0,0,0,.07,5.15,3.74,3.74,0,0,0-1.16,2.71v8.07A3.77,3.77,0,0,0,32.35,96h31.3a3.77,3.77,0,0,0,3.77-3.77V84.15a3.74,3.74,0,0,0-1.16-2.71,3.52,3.52,0,0,0,.07-5.15,3.51,3.51,0,0,0,0-5.08,3.52,3.52,0,0,0,0-5.09,3.5,3.5,0,0,0,1.09-2.54V41.49A3.5,3.5,0,0,0,66.33,39a3.52,3.52,0,0,0-.07-5.15,3.74,3.74,0,0,0,1.16-2.76ZM44,10.42v-2h8v2ZM42.42,2.48A.47.47,0,0,1,42.9,2H53.1a.47.47,0,0,1,.48.48V5.94a.48.48,0,0,1-.48.48H42.9a.48.48,0,0,1-.48-.48Zm-11.84,26A11.12,11.12,0,0,1,34.5,20l8.87-7.54h3.68L55.92,20a1,1,0,1,0,1.29-1.52l-7.08-6h2.5L61.5,20a11.12,11.12,0,0,1,3.92,8.48v2.65a1.77,1.77,0,0,1-1.77,1.77H61.37c.56-1,.46-1.48.46-4.42a12.85,12.85,0,0,0-.31-2.83,1.023,1.023,0,0,0-2,.43,21,21,0,0,1,.26,5.05,1.77,1.77,0,0,1-1.77,1.77H32.35a1.77,1.77,0,0,1-1.77-1.77Zm0,8a1.55,1.55,0,0,1,1.54-1.55H58.29a1.55,1.55,0,0,1,0,3.09H32.12a1.54,1.54,0,0,1-1.54-1.61Zm0,32.26a1.55,1.55,0,0,1,1.54-1.55H58.29a1.55,1.55,0,0,1,0,3.09H32.12a1.54,1.54,0,0,1-1.54-1.61Zm0,5.08a1.54,1.54,0,0,1,1.54-1.54H58.29a1.54,1.54,0,0,1,0,3.08H32.12a1.54,1.54,0,0,1-1.54-1.61Zm1.54,6.63a1.55,1.55,0,0,1,0-3.09H58.29a1.55,1.55,0,0,1,0,3.09Zm33.3,11.84A1.77,1.77,0,0,1,63.65,94H61.47a3.63,3.63,0,0,0,.36-1.54,1,1,0,0,0-2,0A1.54,1.54,0,0,1,58.29,94H32.35a1.77,1.77,0,0,1-1.77-1.77V84.15a1.77,1.77,0,0,1,1.77-1.77H58.29a1.54,1.54,0,0,1,1.54,1.54V86.8a1,1,0,0,0,2,0c0-3,.11-3.44-.36-4.42h2.18a1.77,1.77,0,0,1,1.77,1.77Zm0-13.39a1.55,1.55,0,0,1-1.54,1.55H61.47a3.43,3.43,0,0,0,0-3.09h2.41a1.54,1.54,0,0,1,1.54,1.47Zm0-5.08a1.54,1.54,0,0,1-1.54,1.54H61.47a3.41,3.41,0,0,0,0-3.08h2.41a1.54,1.54,0,0,1,1.54,1.47Zm0-5.08a1.54,1.54,0,0,1-1.54,1.54H61.47a3.43,3.43,0,0,0,0-3.09h2.41a1.55,1.55,0,0,1,1.54,1.48Zm0-27.18V63.58a1.54,1.54,0,0,1-1.54,1.54H61.47c.47-1,.36-1.53.36-3.66a1,1,0,0,0-2,0v2.12a1.54,1.54,0,0,1-1.54,1.54H32.12a1.54,1.54,0,0,1-1.54-1.54V41.49A1.54,1.54,0,0,1,32.12,40H58.29a1.54,1.54,0,0,1,1.54,1.54v8.3a1,1,0,0,0,2,0c0-8.9.13-8.83-.36-9.84h2.41a1.54,1.54,0,0,1,1.54,1.49Zm-1.54-6.63a1.55,1.55,0,0,1,0,3.09H61.47a3.43,3.43,0,0,0,0-3.09Z" fill="#2079f3"/>
    <path id="Trazado_1140030" data-name="Trazado 1140030" d="M33.69,26.79A1,1,0,0,0,35,26.16c.78-2.33,2.13-3.15,5.23-5.79a1,1,0,1,0-1.3-1.52c-3,2.54-4.83,3.72-5.83,6.67a1,1,0,0,0,.59,1.27Z" fill="#2079f3"/>
    <path id="Trazado_1140031" data-name="Trazado 1140031" d="M47.21,45.84c-.75,1-4.51,5.89-4.51,8.48a5.3,5.3,0,0,0,10.6,0c0-2.59-3.76-7.52-4.51-8.48a1,1,0,0,0-1.58,0ZM48,57.62a3.3,3.3,0,0,1-3.3-3.3c0-1.19,1.74-4,3.3-6.2,1.56,2.16,3.3,5,3.3,6.2a3.3,3.3,0,0,1-3.3,3.3Z" fill="#2079f3"/>
    <path id="Trazado_1140032" data-name="Trazado 1140032" d="M60.83,53.5a1,1,0,0,0-1,1v2a1,1,0,0,0,2,0v-2A1,1,0,0,0,60.83,53.5Z" fill="#2079f3"/>
  </g>
</svg>
