<svg xmlns="http://www.w3.org/2000/svg" width="66.571" height="77.596" viewBox="0 0 66.571 77.596">
  <g id="asar" transform="translate(-36.37 77.596) rotate(-90)">
    <g id="Grupo_1187507" data-name="Grupo 1187507" transform="translate(0 36.37)">
      <path id="Trazado_1140038" data-name="Trazado 1140038" d="M170.628,269.245H165.6a11.607,11.607,0,0,1-6.588-2.041l-3.9-2.676a6.426,6.426,0,0,0-3.644-1.128h-4.275a5.573,5.573,0,0,0-5.566,5.567v5.845a5.573,5.573,0,0,0,5.566,5.567h8.724a1.137,1.137,0,0,0,0-2.273h-8.724a3.3,3.3,0,0,1-3.293-3.293v-5.845a3.3,3.3,0,0,1,3.293-3.293h4.275a4.163,4.163,0,0,1,2.359.73l3.9,2.675a13.87,13.87,0,0,0,7.873,2.439h5.033a3.367,3.367,0,0,1,3.388,3.194,3.3,3.3,0,0,1-3.292,3.395h-9.508a1.137,1.137,0,1,0,0,2.273h9.508a5.572,5.572,0,0,0,5.565-5.735A5.657,5.657,0,0,0,170.628,269.245Z" transform="translate(-120.158 -228.994)" fill="#2079f3"/>
      <path id="Trazado_1140039" data-name="Trazado 1140039" d="M172.061,299.339a3.586,3.586,0,1,0,3.586-3.586A3.59,3.59,0,0,0,172.061,299.339Zm4.9,0a1.313,1.313,0,1,1-1.313-1.313A1.314,1.314,0,0,1,176.96,299.339Z" transform="translate(-145.984 -256.443)" fill="#2079f3"/>
      <path id="Trazado_1140040" data-name="Trazado 1140040" d="M76.459,57.8a1.137,1.137,0,0,0-1.137,1.137v2.231H70.989a33.293,33.293,0,0,0-64.382,0H2.273V58.939a1.137,1.137,0,1,0-2.273,0V80.372a1.137,1.137,0,1,0,2.273,0V78.141H6.607a33.293,33.293,0,0,0,64.382,0h4.333v2.231a1.137,1.137,0,1,0,2.273,0V58.939A1.136,1.136,0,0,0,76.459,57.8ZM58.975,93.2a31.051,31.051,0,0,1-3.817,2.8V91.832a10.748,10.748,0,0,0,3.817-3.067ZM46.8,92.872v6.752a30.963,30.963,0,0,1-3.818.762V92.872H46.8Zm2.273,0h1.5a10.667,10.667,0,0,0,2.319-.257V97.29a30.8,30.8,0,0,1-3.815,1.633Zm1.5-2.273H27.03a8.419,8.419,0,0,1-8.409-8.41V76.345a8.419,8.419,0,0,1,8.409-8.41h5.128a6.509,6.509,0,0,1,3.7,1.145l4.6,3.156a8.774,8.774,0,0,0,4.981,1.544h5.128a8.409,8.409,0,0,1,0,16.819ZM18.621,88.765a10.748,10.748,0,0,0,3.817,3.067v4.174a31.079,31.079,0,0,1-3.817-2.8Zm6.09,3.85a10.676,10.676,0,0,0,2.319.257h1.5v6.051a30.824,30.824,0,0,1-3.815-1.633Zm6.088.257h3.818v7.514a30.957,30.957,0,0,1-3.818-.762ZM49.07,45.136V40.388a30.847,30.847,0,0,1,3.815,1.633v4.1a13.541,13.541,0,0,0-3.815-.986ZM46.8,45.081a13.671,13.671,0,0,0-3.818.773V38.926a30.962,30.962,0,0,1,3.818.762Zm.8,2.248a11.393,11.393,0,0,1,11.379,11.2,7.925,7.925,0,1,1-15.848.167,4.855,4.855,0,1,1,9.711,0,2.052,2.052,0,1,1-4.1,0,1.137,1.137,0,1,0-2.273,0,4.325,4.325,0,1,0,8.651,0A7.128,7.128,0,0,0,41.4,55.953a2.321,2.321,0,0,1-2.2,1.605,2.3,2.3,0,0,1-2.133-3.174A11.347,11.347,0,0,1,47.6,47.329Zm2.97,24.177h-1.5V68.695a10.151,10.151,0,0,0,3.814.023v3.045A10.663,10.663,0,0,0,50.565,71.506Zm-7.586-6.59A10.252,10.252,0,0,0,46.8,67.958v3.548H45.438a6.512,6.512,0,0,1-2.459-.48v-6.11ZM39.2,59.832a4.563,4.563,0,0,0,1.507-.257V69.65l-3.567-2.445c-.082-.056-.166-.111-.249-.164V59.206A4.571,4.571,0,0,0,39.2,59.832Zm-4.582,6.179a8.8,8.8,0,0,0-2.459-.35H30.8V54.726c0-.008,0-.015,0-.023s0-.015,0-.023V39.688a30.967,30.967,0,0,1,3.818-.762V66.011ZM23.573,49.75a4.958,4.958,0,0,1,4.952,4.929v.047a4.952,4.952,0,1,1-4.952-4.976Zm1.138,12.088a7.207,7.207,0,0,0,3.815-1.881v5.7h-1.5a10.667,10.667,0,0,0-2.319.257Zm3.815-12.391a7.207,7.207,0,0,0-3.815-1.881V42.021a30.825,30.825,0,0,1,3.815-1.633Zm-6.088-1.881a7.207,7.207,0,0,0-3.817,1.882V46.107a31.051,31.051,0,0,1,3.817-2.8Zm-3.817,12.39a7.207,7.207,0,0,0,3.817,1.882V66.7a10.748,10.748,0,0,0-3.817,3.067ZM55.158,72.545V68.016a10.245,10.245,0,0,0,3.817-2.932V75.613A10.749,10.749,0,0,0,55.158,72.545Zm0-25.2V43.305a31.078,31.078,0,0,1,3.817,2.8v5.067A13.766,13.766,0,0,0,55.158,47.347ZM40.706,38.7v8.209a13.586,13.586,0,0,0-3.816,3.315V38.7c.633-.039,1.269-.06,1.908-.06S40.072,38.665,40.706,38.7ZM2.273,75.868V63.444H6.094a33.3,33.3,0,0,0-.47,3.47,1.137,1.137,0,0,0,2.266.185,30.873,30.873,0,0,1,2.367-9.6v24.3a30.874,30.874,0,0,1-2.367-9.6,1.137,1.137,0,0,0-2.266.185,33.3,33.3,0,0,0,.47,3.47H2.273ZM12.531,86.15V53.161a31.076,31.076,0,0,1,3.817-4.9V91.049A31.068,31.068,0,0,1,12.531,86.15ZM36.89,100.608V92.872h3.816v7.736c-.633.039-1.269.06-1.908.06S37.523,100.647,36.89,100.608Zm24.358-9.559V48.263a31.086,31.086,0,0,1,3.817,4.9V86.15a31.086,31.086,0,0,1-3.817,4.9ZM71.5,75.868a33.3,33.3,0,0,0,.47-3.47,1.137,1.137,0,0,0-2.266-.185,30.873,30.873,0,0,1-2.367,9.6V57.5A30.874,30.874,0,0,1,69.7,67.1a1.137,1.137,0,0,0,1.132,1.045c.031,0,.062,0,.094,0a1.137,1.137,0,0,0,1.041-1.225,33.3,33.3,0,0,0-.47-3.47h3.821V75.868H71.5Z" transform="translate(0 -36.37)" fill="#2079f3"/>
    </g>
  </g>
</svg>
