<svg xmlns="http://www.w3.org/2000/svg" xmlns:xlink="http://www.w3.org/1999/xlink" width="220.901" height="205.098" viewBox="0 0 220.901 205.098">
  <defs>
    <clipPath id="clip-path">
      <rect id="Rectángulo_455881" data-name="Rectángulo 455881" width="123.799" height="24.946" fill="#2cbe91"/>
    </clipPath>
  </defs>
  <g id="Grupo_1187594" data-name="Grupo 1187594" transform="translate(-1052.681 -5966.973)">
    <g id="Grupo_1187475" data-name="Grupo 1187475" transform="translate(-32.327 3672.656)">
      <path id="Trazado_1085278" data-name="Trazado 1085278" d="M193.132,17.8V0h-5.784c-.035,4.963-3.794,8.955-8.4,8.917C174.4,8.879,170.72,4.909,170.685,0h-7.058c0,4.963-3.73,8.987-8.332,8.987S146.962,4.963,146.962,0h-7.037c0,4.963-3.73,8.987-8.332,8.987S123.261,4.963,123.261,0h-6.806c0,4.963-3.731,8.987-8.333,8.987S99.79,4.963,99.79,0H92.563c0,4.963-3.73,8.987-8.332,8.987S75.9,4.963,75.9,0H68.914c0,4.963-3.731,8.987-8.332,8.987S52.25,4.963,52.25,0H45.586c0,4.964-3.726,8.989-8.329,8.992S28.922,4.973,28.92.009V0H21.777c0,4.963-3.731,8.987-8.332,8.987S5.113,4.963,5.113,0H0V17.852c4.6,0,8.333,4.024,8.333,8.988S4.6,35.827,0,35.827v7.794c4.6,0,8.333,4.024,8.333,8.987S4.6,61.6,0,61.6v7.341H.019c4.6.006,8.328,4.034,8.323,9S4.6,86.916,0,86.91V94.5c4.6,0,8.333,4.024,8.333,8.988S4.6,112.473,0,112.473V119.7H.019c4.6.005,8.328,4.033,8.323,9S4.6,137.678,0,137.673v17.769H5.085c0-4.963,3.731-8.987,8.332-8.987s8.332,4.023,8.332,8.987H28.89v-.02c.005-4.964,3.74-8.982,8.342-8.977s8.328,4.033,8.323,9h6.667v-.02c.005-4.964,3.74-8.982,8.342-8.977s8.328,4.033,8.323,9h6.98v-.02c0-4.964,3.74-8.982,8.341-8.977s8.328,4.033,8.323,9h7.228v-.02c.005-4.964,3.74-8.982,8.342-8.977s8.328,4.033,8.323,9h6.807c0-4.964,3.731-8.988,8.333-8.988s8.333,4.024,8.333,8.988h7.034v-.02c.005-4.964,3.74-8.982,8.342-8.977s8.328,4.033,8.323,9h7.06v-.02c.005-4.964,3.74-8.982,8.341-8.977s8.328,4.033,8.323,9h5.812V137.617h-.019c-4.6-.006-8.328-4.033-8.323-9s3.74-8.982,8.342-8.976v-7.227c-4.6,0-8.333-4.024-8.333-8.987s3.731-8.987,8.333-8.987V86.854h-.019c-4.6-.006-8.328-4.034-8.323-9s3.74-8.982,8.342-8.977V61.54c-4.6,0-8.333-4.024-8.333-8.987s3.731-8.988,8.333-8.988V35.772c-4.6,0-8.335-4.02-8.337-8.983s3.726-8.99,8.329-8.992h.009" transform="translate(1135.231 2487.449) rotate(-90)" fill="#bbd6fc"/>
      <g id="Grupo_1184022" data-name="Grupo 1184022" transform="translate(1264.076 2419.408)">
        <g id="Grupo_1183846" data-name="Grupo 1183846" transform="translate(0 0)">
          <rect id="Rectángulo_455879" data-name="Rectángulo 455879" width="41.212" height="39.571" transform="translate(0.311)" fill="#2cbe91"/>
          <path id="Trazado_1000145" data-name="Trazado 1000145" d="M0,1.807H1.1a1.8,1.8,0,0,1,3.61,0H6.258v0a1.8,1.8,0,1,1,3.61,0h1.444v0a1.8,1.8,0,1,1,3.61,0h1.512v0a1.8,1.8,0,1,1,3.61,0h1.566v0a1.8,1.8,0,1,1,3.61,0h1.474a1.8,1.8,0,0,1,3.61,0h1.524v0a1.8,1.8,0,1,1,3.61,0h1.529v0a1.8,1.8,0,1,1,3.61,0h1.259" transform="translate(41.832 40.986) rotate(180)" fill="#2cbe91"/>
        </g>
        <path id="Trazado_1000133" data-name="Trazado 1000133" d="M.984,17.632c-.058-.094-.122-.186-.182-.279A4.6,4.6,0,0,1,.019,15.29a3.26,3.26,0,0,1,.035-.942,4.793,4.793,0,0,1,.641-1.672c.126-.2.274-.377.423-.582a.2.2,0,0,0,0-.07,3.189,3.189,0,0,1,.125-2.1,4.832,4.832,0,0,1,.843-1.406,5.583,5.583,0,0,1,1.475-1.31c.13-.076.264-.148.4-.225a2.672,2.672,0,0,1,.771-1.747A5.255,5.255,0,0,1,6.016,4.162a4.753,4.753,0,0,1,1.917-.688A1.3,1.3,0,0,0,8,3.34a2.468,2.468,0,0,1,.833-1.07,5.032,5.032,0,0,1,2.417-1.025,4.477,4.477,0,0,1,.943-.014c.111.007.221.008.321.011l.2-.171A4.634,4.634,0,0,1,15.366.024,5.175,5.175,0,0,1,17.7.339c.1.039.211.072.286.1A4.967,4.967,0,0,1,21.241.172a4.868,4.868,0,0,1,2.643,1.837,2.871,2.871,0,0,1,.919.085,3.969,3.969,0,0,1,1.47.713,4.052,4.052,0,0,1,.666.617A2.826,2.826,0,0,1,27.6,4.87a2.469,2.469,0,0,1-.664,2.077,4.888,4.888,0,0,1-.862.766,4.255,4.255,0,0,0-.56.514A17.2,17.2,0,0,1,23.99,9.547q-1.055.832-2.123,1.643c-.479.363-.975.7-1.456,1.057-1.592,1.17-3.24,2.257-4.862,3.381-1.365.945-2.762,1.841-4.165,2.724q-1.422.893-2.884,1.72A27.883,27.883,0,0,1,5.406,21.59a1.417,1.417,0,0,1-.2.069.615.615,0,0,0-.291.155.632.632,0,0,1-.175.122,3.934,3.934,0,0,1-1.329.421,2.288,2.288,0,0,1-.723-.025,1.824,1.824,0,0,1-.654-.318A3.337,3.337,0,0,1,.873,20.627a3.212,3.212,0,0,1-.249-1.249c0-.183.012-.366.024-.549a2.574,2.574,0,0,1,.245-.97c.035-.072.064-.148.1-.233" transform="translate(16.175 4.91) rotate(34)" fill="#1b5b5b"/>
      </g>
      <g id="Grupo_1184023" data-name="Grupo 1184023" transform="translate(1085.007 2441.895)">
        <g id="Grupo_1183367" data-name="Grupo 1183367" transform="translate(0 0)" clip-path="url(#clip-path)">
          <path id="Trazado_1000146" data-name="Trazado 1000146" d="M182.05.151a1.212,1.212,0,0,0-1.292.1,3.614,3.614,0,0,0-1.01,1.139,8.247,8.247,0,0,0-.841,1.6,4.619,4.619,0,0,0-.315,1.765,3.209,3.209,0,0,0-.012.393,4.994,4.994,0,0,0,.12.882c.036.163.071.335.12.5a2.287,2.287,0,0,0,.132.493c.022.053.084.019.089-.027,0-.011,0-.023,0-.034a.079.079,0,0,0,.1-.084,3.011,3.011,0,0,0-.147-.73c-.042-.277-.1-.552-.13-.811-.013-.105-.019-.209-.026-.313,0-.04,0-.08,0-.12a2.694,2.694,0,0,1,.665-1.631,5.483,5.483,0,0,1,1.215-1.047,4.227,4.227,0,0,0,1.274-.925c.207-.288.4-.885.057-1.148" transform="translate(-116.254 0)" fill="#ff6a7d"/>
          <path id="Trazado_1000147" data-name="Trazado 1000147" d="M185,.136a.112.112,0,0,0-.217.034A3.813,3.813,0,0,1,182.3,3.216a6.358,6.358,0,0,0-2.833,1.833,7.717,7.717,0,0,0-1.478,3.464,4.375,4.375,0,0,0-.018,2.01,4.42,4.42,0,0,0,.389,1.234.124.124,0,1,0,.224-.106c-.014-.029-.022-.059-.035-.088a.12.12,0,0,0,.016-.133,3.906,3.906,0,0,1-.32-.929,6.071,6.071,0,0,1,.177-2.392,4.456,4.456,0,0,1,.35-.758,6.138,6.138,0,0,1,3.086-2.384A6.51,6.51,0,0,0,184.673,3.1,2.847,2.847,0,0,0,185,.136" transform="translate(-115.79 -0.041)" fill="#ffe1cb"/>
          <path id="Trazado_1000148" data-name="Trazado 1000148" d="M183.332,12.209a15.653,15.653,0,0,0-3.842,2.1,4.152,4.152,0,0,0-1.083,1.071,1.93,1.93,0,0,0-.275,1.528" transform="translate(-115.926 -7.948)" fill="none" stroke="#12263f" stroke-linecap="round" stroke-linejoin="round" stroke-width="0.75"/>
          <path id="Trazado_1000149" data-name="Trazado 1000149" d="M193.814,23.457a8.039,8.039,0,0,0-2.051-4.7.231.231,0,0,0-.408.192,17.466,17.466,0,0,1,.039,3.84,2.522,2.522,0,0,1-1.734,1.908,2.982,2.982,0,0,1-2.5-.676,5.626,5.626,0,0,1-.6-.552,4.313,4.313,0,0,0-1.477-2.525c-1.193-.776-2.846-.266-3.956.459a5.614,5.614,0,0,0-1.564,1.519,3.664,3.664,0,0,0-.769,1.931c0,.726.384,1,.99.8a3.785,3.785,0,0,0,1.643-1.361,4.153,4.153,0,0,1,2.073-1.666,2.111,2.111,0,0,1,1.833.37.559.559,0,0,1,.11-.006.607.607,0,0,1,.374.146,2.157,2.157,0,0,1,.517.776,7.219,7.219,0,0,1,.355,1.061c.041.15.077.3.115.453a4.387,4.387,0,0,0,1.834,2.281,3.334,3.334,0,0,0,3.438-.179,4.694,4.694,0,0,0,1.737-4.075" transform="translate(-116.396 -12.155)" fill="#2079f3"/>
          <path id="Trazado_1000150" data-name="Trazado 1000150" d="M200.887,30.68a2.434,2.434,0,0,1-2.781,1.115,10.446,10.446,0,0,1-2.863-1.478,1.935,1.935,0,0,0-1.627-.376" transform="translate(-126.044 -19.446)" fill="none" stroke="#15260d" stroke-linecap="round" stroke-linejoin="round" stroke-width="0.75"/>
          <path id="Trazado_1000151" data-name="Trazado 1000151" d="M206.591,31.474a2.784,2.784,0,0,1-1.222,2.225,3.187,3.187,0,0,1-2.376.424,5.623,5.623,0,0,1-2.242-1.068" transform="translate(-130.689 -20.49)" fill="none" stroke="#12263f" stroke-linecap="round" stroke-linejoin="round" stroke-width="0.75"/>
          <path id="Trazado_1000152" data-name="Trazado 1000152" d="M207.528,39.062a2.6,2.6,0,0,1-2.322,1.2,6.036,6.036,0,0,1-2.557-.8" transform="translate(-131.925 -25.429)" fill="none" stroke="#12263f" stroke-linecap="round" stroke-linejoin="round" stroke-width="0.75"/>
          <path id="Trazado_1000153" data-name="Trazado 1000153" d="M185.95,27.088a7.29,7.29,0,0,0-4.5,3.277" transform="translate(-118.122 -17.634)" fill="none" stroke="#15260d" stroke-linecap="round" stroke-linejoin="round" stroke-width="0.75"/>
          <path id="Trazado_1000154" data-name="Trazado 1000154" d="M190.883,10.31c.023-.1.048-.191.065-.287a.108.108,0,0,0-.139-.12v0c-.021-.1-.15-.081-.147.024s0,.229,0,.342a3.573,3.573,0,0,1-1.054,1.689,2.574,2.574,0,0,1-2.5.161,6.3,6.3,0,0,0-4.176.306,6.223,6.223,0,0,0-3.02,2.891,6.941,6.941,0,0,0-.683,2.136,7.357,7.357,0,0,0-.09,1.114v.008a2.714,2.714,0,0,0,.176,1.017.179.179,0,0,0,.044.061c.015.029.027.061.044.089.065.107.186.023.193-.081a.169.169,0,0,0,.054-.121c.022-.415-.068-.827-.058-1.246a6.353,6.353,0,0,1,.122-1.091,6.264,6.264,0,0,1,.189-.7,4.54,4.54,0,0,1,.885-1.308A5.036,5.036,0,0,1,185,13.87a17.287,17.287,0,0,0,2.483.378,3.442,3.442,0,0,0,1.789-.566,3.631,3.631,0,0,0,1.3-1.519,4.075,4.075,0,0,0,.316-1.028,2.421,2.421,0,0,0,0-.825" transform="translate(-116.614 -6.401)" fill="#ffe76d"/>
          <path id="Trazado_1000155" data-name="Trazado 1000155" d="M200.637,13.6a5.418,5.418,0,0,1-5.679,1.631" transform="translate(-126.918 -8.856)" fill="none" stroke="#12263f" stroke-linecap="round" stroke-linejoin="round" stroke-width="0.75"/>
          <path id="Trazado_1000156" data-name="Trazado 1000156" d="M165.719.151a1.212,1.212,0,0,1,1.292.1,3.618,3.618,0,0,1,1.01,1.139,8.25,8.25,0,0,1,.841,1.6,4.62,4.62,0,0,1,.315,1.765,3.209,3.209,0,0,1,.011.393,4.988,4.988,0,0,1-.12.882c-.036.163-.071.335-.12.5a2.288,2.288,0,0,1-.132.493c-.022.053-.084.019-.089-.027,0-.011,0-.023,0-.034a.079.079,0,0,1-.1-.084,3.013,3.013,0,0,1,.147-.73c.042-.277.1-.552.13-.811.013-.105.019-.209.025-.313,0-.04,0-.08,0-.12a2.694,2.694,0,0,0-.665-1.631,5.481,5.481,0,0,0-1.215-1.047,4.227,4.227,0,0,1-1.274-.925c-.207-.288-.4-.885-.057-1.148" transform="translate(-107.761 0)" fill="#ff6a7d"/>
          <path id="Trazado_1000157" data-name="Trazado 1000157" d="M155.772.136a.112.112,0,0,1,.217.034,3.813,3.813,0,0,0,2.481,3.046A6.355,6.355,0,0,1,161.3,5.049a7.714,7.714,0,0,1,1.478,3.464,4.375,4.375,0,0,1,.019,2.01,4.421,4.421,0,0,1-.389,1.234.124.124,0,1,1-.225-.106c.014-.029.022-.059.035-.088a.12.12,0,0,1-.016-.133,3.909,3.909,0,0,0,.32-.929,6.071,6.071,0,0,0-.177-2.392,4.456,4.456,0,0,0-.35-.758,6.138,6.138,0,0,0-3.086-2.384A6.511,6.511,0,0,1,156.1,3.1a2.847,2.847,0,0,1-.327-2.96" transform="translate(-101.23 -0.041)" fill="#ffe1cb"/>
          <path id="Trazado_1000158" data-name="Trazado 1000158" d="M161.451,12.209a15.653,15.653,0,0,1,3.842,2.1,4.152,4.152,0,0,1,1.083,1.071,1.932,1.932,0,0,1,.275,1.528" transform="translate(-105.105 -7.948)" fill="none" stroke="#12263f" stroke-linecap="round" stroke-linejoin="round" stroke-width="0.75"/>
          <path id="Trazado_1000159" data-name="Trazado 1000159" d="M132.758,23.457a8.039,8.039,0,0,1,2.051-4.7.231.231,0,0,1,.408.192,17.466,17.466,0,0,0-.039,3.84,2.522,2.522,0,0,0,1.734,1.908,2.982,2.982,0,0,0,2.5-.676,5.627,5.627,0,0,0,.6-.552,4.313,4.313,0,0,1,1.477-2.525c1.193-.776,2.846-.266,3.956.459a5.615,5.615,0,0,1,1.564,1.519,3.664,3.664,0,0,1,.769,1.931c0,.726-.384,1-.99.8a3.785,3.785,0,0,1-1.643-1.361,4.153,4.153,0,0,0-2.073-1.666,2.111,2.111,0,0,0-1.833.37.56.56,0,0,0-.11-.006.606.606,0,0,0-.374.146,2.156,2.156,0,0,0-.517.776,7.223,7.223,0,0,0-.355,1.061c-.041.15-.077.3-.115.453a4.386,4.386,0,0,1-1.834,2.281,3.333,3.333,0,0,1-3.438-.179,4.694,4.694,0,0,1-1.737-4.075" transform="translate(-86.422 -12.155)" fill="#2079f3"/>
          <path id="Trazado_1000160" data-name="Trazado 1000160" d="M140.143,30.68a2.434,2.434,0,0,0,2.781,1.115,10.445,10.445,0,0,0,2.863-1.478,1.935,1.935,0,0,1,1.627-.376" transform="translate(-91.233 -19.446)" fill="none" stroke="#15260d" stroke-linecap="round" stroke-linejoin="round" stroke-width="0.75"/>
          <path id="Trazado_1000161" data-name="Trazado 1000161" d="M137.11,31.474a2.784,2.784,0,0,0,1.222,2.225,3.187,3.187,0,0,0,2.376.424,5.624,5.624,0,0,0,2.242-1.068" transform="translate(-89.259 -20.49)" fill="none" stroke="#12263f" stroke-linecap="round" stroke-linejoin="round" stroke-width="0.75"/>
          <path id="Trazado_1000162" data-name="Trazado 1000162" d="M137.965,39.062a2.6,2.6,0,0,0,2.322,1.2,6.035,6.035,0,0,0,2.557-.8" transform="translate(-89.815 -25.429)" fill="none" stroke="#12263f" stroke-linecap="round" stroke-linejoin="round" stroke-width="0.75"/>
          <path id="Trazado_1000163" data-name="Trazado 1000163" d="M160.242,27.088a7.291,7.291,0,0,1,4.5,3.277" transform="translate(-104.318 -17.634)" fill="none" stroke="#12263f" stroke-linecap="round" stroke-linejoin="round" stroke-width="0.75"/>
          <path id="Trazado_1000164" data-name="Trazado 1000164" d="M141.661,10.31c-.023-.1-.048-.191-.065-.287a.108.108,0,0,1,.139-.12v0c.021-.1.15-.081.147.024s0,.229,0,.342a3.573,3.573,0,0,0,1.054,1.689,2.574,2.574,0,0,0,2.5.161,6.3,6.3,0,0,1,4.176.306,6.222,6.222,0,0,1,3.02,2.891,6.944,6.944,0,0,1,.683,2.136,7.37,7.37,0,0,1,.09,1.114v.008a2.7,2.7,0,0,1-.176,1.017.178.178,0,0,1-.044.061c-.015.029-.027.061-.044.089-.065.107-.187.023-.193-.081a.169.169,0,0,1-.054-.121c-.022-.415.068-.827.058-1.246a6.021,6.021,0,0,0-.311-1.8,4.527,4.527,0,0,0-.885-1.308,5.037,5.037,0,0,0-4.217-1.316,17.28,17.28,0,0,1-2.483.378,3.44,3.44,0,0,1-1.789-.566,3.631,3.631,0,0,1-1.3-1.519,4.089,4.089,0,0,1-.316-1.028,2.42,2.42,0,0,1,0-.825" transform="translate(-92.178 -6.401)" fill="#ffe76d"/>
          <path id="Trazado_1000165" data-name="Trazado 1000165" d="M143.364,13.6a5.418,5.418,0,0,0,5.678,1.631" transform="translate(-93.33 -8.856)" fill="none" stroke="#12263f" stroke-linecap="round" stroke-linejoin="round" stroke-width="0.75"/>
          <path id="Trazado_1000166" data-name="Trazado 1000166" d="M240.3,4.645a.28.28,0,0,0-.552-.082A43.772,43.772,0,0,1,237.032,12c-.073.141-.144.283-.221.422a13.084,13.084,0,0,1-4.277,4.678,18.472,18.472,0,0,1-11.472,2.732,22.1,22.1,0,0,1-5.949-1.291,35.236,35.236,0,0,1-5.589-2.811c-.553-.321-1.113-.638-1.681-.937a12.962,12.962,0,0,0,2.3.344c.984.083,1.969.182,2.955.24a10.188,10.188,0,0,0,5.027-.839,11.532,11.532,0,0,0,5.981-7.788,38.79,38.79,0,0,0,.975-6.342.32.32,0,0,0-.631-.094,20.053,20.053,0,0,1-4.867,8.725,16.33,16.33,0,0,1-8.727,4.8,18.427,18.427,0,0,1-4.286.336,12.647,12.647,0,0,0-2.668-.889,10.4,10.4,0,0,0-6.027.576,6.138,6.138,0,0,0-3.715,3.662c-.017.053-.03.107-.045.16a15.483,15.483,0,0,0-2.374,1.243c-1.676,1.068-3.335,2.4-5.294,2.726a5.982,5.982,0,0,1-5.136-1.7c-1.275-1.271-2.3-3.645-.876-5.257.019-.021.039-.035.059-.054.843-.229,1.548.974,1.939,1.644s.86,1.4,1.606,1.6a1.568,1.568,0,0,0,1.746-.553,1.914,1.914,0,0,0-.512-2.231c-1.161-1.321-3.029-2.528-4.691-1.6-1.521.851-1.919,3.027-1.36,4.677a6.726,6.726,0,0,0,3.755,3.911,6.648,6.648,0,0,0,5.4-.116c1.8-.808,3.356-2.137,5.111-3.05.145-.075.294-.141.442-.21a6.139,6.139,0,0,0,1.1,4.005c2.051,2.836,6.759,3.189,8.78.11A3.754,3.754,0,0,0,203.084,18c-1.521-1.364-3.737-1.44-5.6-1.223a12.2,12.2,0,0,0-2.3.5,4.4,4.4,0,0,1,1.172-1.519,8.745,8.745,0,0,1,5.823-1.778,13.343,13.343,0,0,1,5.972,1.98,61.42,61.42,0,0,0,5.444,2.936,33.484,33.484,0,0,0,11.235,2.852A17.682,17.682,0,0,0,230.718,21a16.835,16.835,0,0,0,5.388-2.712,9.523,9.523,0,0,0,3.24-5.28,28.331,28.331,0,0,0,.955-8.361m-40.516,13A4.574,4.574,0,0,1,202.67,18.8a2.844,2.844,0,0,1,.848,2.666c-.476,1.908-2.582,2.679-4.183,2.6a4.763,4.763,0,0,1-4.262-3.038,4.9,4.9,0,0,1-.237-2.7,11.44,11.44,0,0,1,4.948-.679" transform="translate(-116.517 -0.041)" fill="#2cbe91"/>
          <path id="Trazado_1000167" data-name="Trazado 1000167" d="M257.956,40.47a16.887,16.887,0,0,1-5-1.441" transform="translate(-164.675 -25.408)" fill="none" stroke="#12263f" stroke-linecap="round" stroke-linejoin="round" stroke-width="0.75"/>
          <path id="Trazado_1000168" data-name="Trazado 1000168" d="M286.229,15.125a14.3,14.3,0,0,1-10.758,8.961" transform="translate(-179.332 -9.846)" fill="none" stroke="#12263f" stroke-linecap="round" stroke-linejoin="round" stroke-width="0.75"/>
          <path id="Trazado_1000169" data-name="Trazado 1000169" d="M317.24,23.622c-1.341,4.437-4.041,8.556-7.9,10.47a14.469,14.469,0,0,1-2.412.915,20.148,20.148,0,0,1-8.7.56" transform="translate(-194.146 -15.378)" fill="none" stroke="#15260d" stroke-linecap="round" stroke-linejoin="round" stroke-width="0.75"/>
          <path id="Trazado_1000170" data-name="Trazado 1000170" d="M225.728,45.355a5.441,5.441,0,0,0-1.534,4.423" transform="translate(-145.938 -29.526)" fill="none" stroke="#12263f" stroke-linecap="round" stroke-linejoin="round" stroke-width="0.75"/>
          <path id="Trazado_1000171" data-name="Trazado 1000171" d="M223.053,45.454a6.088,6.088,0,0,0-.989,3.777" transform="translate(-144.555 -29.591)" fill="none" stroke="#15260d" stroke-linecap="round" stroke-linejoin="round" stroke-width="0.75"/>
          <path id="Trazado_1000172" data-name="Trazado 1000172" d="M225.473,49.675A9.247,9.247,0,0,1,227,49.063" transform="translate(-146.783 -31.94)" fill="none" stroke="#12263f" stroke-linecap="round" stroke-linejoin="round" stroke-width="0.75"/>
          <path id="Trazado_1000173" data-name="Trazado 1000173" d="M181.423,41.949a2.8,2.8,0,0,1,.68-1.267,1.744,1.744,0,0,1,.633-.33,2.666,2.666,0,0,1,2.812.747,1.506,1.506,0,0,1,.407,1c-.014.377-.286.754-.627.752" transform="translate(-118.107 -26.187)" fill="none" stroke="#12263f" stroke-linecap="round" stroke-linejoin="round" stroke-width="0.75"/>
          <path id="Trazado_1000174" data-name="Trazado 1000174" d="M.97,13.006a9.522,9.522,0,0,0,3.239,5.28A16.838,16.838,0,0,0,9.6,21a17.692,17.692,0,0,0,5.893.753A33.483,33.483,0,0,0,26.725,18.9a61.508,61.508,0,0,0,5.444-2.936,13.345,13.345,0,0,1,5.972-1.98,8.745,8.745,0,0,1,5.823,1.778,4.4,4.4,0,0,1,1.172,1.519,12.2,12.2,0,0,0-2.3-.5c-1.862-.216-4.078-.14-5.6,1.223A3.753,3.753,0,0,0,36.5,22.82c2.021,3.079,6.729,2.726,8.78-.11a6.139,6.139,0,0,0,1.1-4.005c.148.069.3.135.441.21,1.755.913,3.307,2.242,5.111,3.05a6.646,6.646,0,0,0,5.4.115,6.725,6.725,0,0,0,3.756-3.911c.559-1.651.161-3.826-1.36-4.677-1.662-.93-3.53.277-4.691,1.6a1.914,1.914,0,0,0-.512,2.231,1.568,1.568,0,0,0,1.746.553c.746-.2,1.215-.928,1.606-1.6s1.1-1.873,1.939-1.644c.019.02.04.034.058.054,1.427,1.612.4,3.987-.876,5.257a5.982,5.982,0,0,1-5.136,1.7c-1.958-.33-3.617-1.658-5.294-2.726A15.454,15.454,0,0,0,46.2,17.677c-.015-.053-.028-.107-.045-.16a6.14,6.14,0,0,0-3.715-3.662,10.4,10.4,0,0,0-6.027-.575,12.653,12.653,0,0,0-2.668.889,18.447,18.447,0,0,1-4.286-.336,16.33,16.33,0,0,1-8.727-4.8A20.052,20.052,0,0,1,15.865.311a.32.32,0,0,0-.631.094,38.823,38.823,0,0,0,.976,6.342,11.531,11.531,0,0,0,5.981,7.788,10.187,10.187,0,0,0,5.027.839c.986-.059,1.97-.157,2.954-.24a12.957,12.957,0,0,0,2.3-.344c-.568.3-1.128.616-1.681.937A35.235,35.235,0,0,1,25.2,18.538a22.1,22.1,0,0,1-5.949,1.291A18.472,18.472,0,0,1,7.781,17.1,13.087,13.087,0,0,1,3.5,12.419c-.076-.139-.148-.281-.22-.422A43.789,43.789,0,0,1,.567,4.563a.28.28,0,0,0-.552.082A28.315,28.315,0,0,0,.97,13.006m44.509,5.318a4.906,4.906,0,0,1-.236,2.7,4.764,4.764,0,0,1-4.262,3.038c-1.6.075-3.707-.7-4.183-2.6a2.846,2.846,0,0,1,.848-2.667,4.576,4.576,0,0,1,2.885-1.152,11.44,11.44,0,0,1,4.948.679" transform="translate(0 -0.041)" fill="#2cbe91"/>
          <path id="Trazado_1000175" data-name="Trazado 1000175" d="M87.443,40.47a16.886,16.886,0,0,0,5-1.441" transform="translate(-56.926 -25.408)" fill="none" stroke="#12263f" stroke-linecap="round" stroke-linejoin="round" stroke-width="0.75"/>
          <path id="Trazado_1000176" data-name="Trazado 1000176" d="M48.43,15.125a14.3,14.3,0,0,0,10.758,8.961" transform="translate(-31.528 -9.846)" fill="none" stroke="#15260d" stroke-linecap="round" stroke-linejoin="round" stroke-width="0.75"/>
          <path id="Trazado_1000177" data-name="Trazado 1000177" d="M2.019,23.622c1.341,4.437,4.041,8.556,7.9,10.47a14.471,14.471,0,0,0,2.412.915,20.148,20.148,0,0,0,8.7.56" transform="translate(-1.314 -15.378)" fill="none" stroke="#15260d" stroke-linecap="round" stroke-linejoin="round" stroke-width="0.75"/>
          <path id="Trazado_1000178" data-name="Trazado 1000178" d="M126.1,45.355a5.441,5.441,0,0,1,1.534,4.423" transform="translate(-82.091 -29.526)" fill="none" stroke="#15260d" stroke-linecap="round" stroke-linejoin="round" stroke-width="0.75"/>
          <path id="Trazado_1000179" data-name="Trazado 1000179" d="M129.8,45.454a6.088,6.088,0,0,1,.989,3.777" transform="translate(-84.5 -29.591)" fill="none" stroke="#12263f" stroke-linecap="round" stroke-linejoin="round" stroke-width="0.75"/>
          <path id="Trazado_1000180" data-name="Trazado 1000180" d="M126.4,49.675a9.247,9.247,0,0,0-1.527-.612" transform="translate(-81.294 -31.94)" fill="none" stroke="#12263f" stroke-linecap="round" stroke-linejoin="round" stroke-width="0.75"/>
          <path id="Trazado_1000181" data-name="Trazado 1000181" d="M164.847,41.949a2.8,2.8,0,0,0-.681-1.267,1.744,1.744,0,0,0-.633-.33,2.666,2.666,0,0,0-2.812.747,1.506,1.506,0,0,0-.407,1c.014.377.286.754.627.752" transform="translate(-104.365 -26.187)" fill="none" stroke="#15260d" stroke-linecap="round" stroke-linejoin="round" stroke-width="0.75"/>
          <path id="Trazado_1000182" data-name="Trazado 1000182" d="M176.725,33.267a1.565,1.565,0,1,0-1.558,1.721,1.645,1.645,0,0,0,1.558-1.721" transform="translate(-113.02 -20.537)" fill="#2cbe91"/>
        </g>
      </g>
      <g id="Grupo_1186068" data-name="Grupo 1186068" transform="translate(1219.856 2456.089)">
        <g id="Grupo_1184024" data-name="Grupo 1184024" transform="translate(0 0)">
          <rect id="Rectángulo_455879-2" data-name="Rectángulo 455879" width="43.564" height="41.829" transform="translate(0.328)" fill="#ffb57d"/>
          <path id="Trazado_1000145-2" data-name="Trazado 1000145" d="M0,1.91H1.164a1.908,1.908,0,0,1,3.816,0H6.615v0a1.908,1.908,0,1,1,3.816,0h1.527v0a1.908,1.908,0,1,1,3.816,0h1.6v0a1.908,1.908,0,1,1,3.816,0h1.655v0a1.908,1.908,0,1,1,3.816,0h1.559a1.908,1.908,0,0,1,3.816,0h1.611v0a1.908,1.908,0,1,1,3.816,0h1.616v0a1.908,1.908,0,1,1,3.816,0H44.22" transform="translate(44.22 43.325) rotate(180)" fill="#ffb57d"/>
        </g>
        <path id="Trazado_1026845" data-name="Trazado 1026845" d="M33.153,7.184c-.136-2.4-1.655-3.81-4.38-2.795a29.863,29.863,0,0,1-3.81,1.044c-.233-.892-.466-1.806-.635-2.516l-.023.011c-.057-.24-.108-.458-.148-.643A2.583,2.583,0,0,0,21.6,0L10.678.625C9.341.7,8.657,1.87,8.4,3.183c-.138.693-.307,1.843-.462,2.989-2.2-.2-3.885-.377-3.885-.377C.8,5.15-.124,6.669.013,9.069c.237,4.178,8.141,8.7,17.089,8.187S33.391,11.363,33.153,7.184" transform="translate(5.382 13.306) rotate(-1)" fill="#ffb57d" style="mix-blend-mode: multiply;isolation: isolate"/>
      </g>
      <g id="asado" transform="translate(1168.577 2315.828)">
        <g id="Grupo_1187511" data-name="Grupo 1187511" transform="translate(40.633 14.347)">
          <g id="Grupo_1187510" data-name="Grupo 1187510">
            <path id="Trazado_1140044" data-name="Trazado 1140044" d="M238.4,23.4a3.679,3.679,0,0,1-.618-5.107l1.405-1.85a1.3,1.3,0,1,0-2.077-1.577l-1.405,1.85a6.275,6.275,0,0,0,1.054,8.711,3.694,3.694,0,0,1,.792,4.857l-1.987,3.12a1.3,1.3,0,1,0,2.2,1.4l1.987-3.12A6.3,6.3,0,0,0,238.4,23.4Z" transform="translate(-234.413 -14.347)" fill="#2079f3"/>
          </g>
        </g>
        <g id="Grupo_1187513" data-name="Grupo 1187513" transform="translate(46.808 14.347)">
          <g id="Grupo_1187512" data-name="Grupo 1187512" transform="translate(0 0)">
            <path id="Trazado_1140045" data-name="Trazado 1140045" d="M274.023,23.4a3.679,3.679,0,0,1-.617-5.107l1.405-1.85a1.3,1.3,0,0,0-2.077-1.577l-1.405,1.85a6.275,6.275,0,0,0,1.054,8.711,3.694,3.694,0,0,1,.792,4.857l-1.987,3.12a1.3,1.3,0,1,0,2.2,1.4l1.987-3.12A6.3,6.3,0,0,0,274.023,23.4Z" transform="translate(-270.034 -14.349)" fill="#2079f3"/>
          </g>
        </g>
        <g id="Grupo_1187515" data-name="Grupo 1187515" transform="translate(0 38.593)">
          <g id="Grupo_1187514" data-name="Grupo 1187514">
            <path id="Trazado_1140046" data-name="Trazado 1140046" d="M87.446,167.5H82.637v-3.877a3.818,3.818,0,0,0-3.815-3.813H76.786a3.818,3.818,0,0,0-3.813,3.813V167.5H65.411a13.417,13.417,0,0,0-.287-2.808,13.2,13.2,0,0,0-12.9-10.466H41.885A15.283,15.283,0,0,0,26.753,167.5H15.992v-4.549a3.146,3.146,0,0,0-3.142-3.142H9.469a3.146,3.146,0,0,0-3.142,3.142V167.5H1.3a1.3,1.3,0,0,0,0,2.608H6.327v5.023a1.3,1.3,0,0,0,2.608,0V163.618a1.207,1.207,0,0,1,1.2-1.2h2.038a1.207,1.207,0,0,1,1.2,1.2V167.5c-.593.036-1.025-.107-1.508.216a1.3,1.3,0,0,0,0,2.177c.483.323.911.18,1.508.216v30.133a1.207,1.207,0,0,1-1.2,1.207H10.141a1.207,1.207,0,0,1-1.2-1.207V180.344a1.3,1.3,0,1,0-2.608,0V198.5H5.192a2.954,2.954,0,0,0-2.953,2.953v9.876a2.422,2.422,0,0,0,2.42,2.419H17.381a2.423,2.423,0,0,0,2.42-2.419v-9.876a2.955,2.955,0,0,0-2.953-2.953h-.857V170.1H26.622v1.749a8.947,8.947,0,0,0,8.937,8.936c21.556-.122,21.313.287,23.513-.384h.012l.2-.066a8.923,8.923,0,0,0,6.127-8.485V170.1h7.562v28.4h-1a2.955,2.955,0,0,0-2.952,2.953v9.876a2.423,2.423,0,0,0,2.42,2.419H84.163a2.422,2.422,0,0,0,2.42-2.419v-9.876a2.954,2.954,0,0,0-2.951-2.953h-1v-6.124a1.3,1.3,0,0,0-2.608,0c0,9.11.008,8.522-.009,8.628a.537.537,0,0,1-.165.294.524.524,0,0,1-.21.118c-.106.037-3.59.023-3.618.014a.361.361,0,0,1-.111-.031.539.539,0,0,1-.309-.336c-.013-.044-.015-.058-.016-.059-.014-.086-.007-14.041-.009-37.391a1.207,1.207,0,0,1,1.2-1.2h2.036a1.207,1.207,0,0,1,1.207,1.2v3.895a1.3,1.3,0,0,0,0,2.575v17.076a1.3,1.3,0,1,0,2.608,0V170.1h4.809a1.3,1.3,0,1,0,0-2.608ZM17.193,211.144H4.848v-4.323H17.193Zm-.344-10.031a.344.344,0,0,1,.344.344v2.756H4.848v-2.756a.343.343,0,0,1,.344-.344H6.334a3.148,3.148,0,0,0,3.135,2.938h3.38a3.148,3.148,0,0,0,3.135-2.938Zm38.754-41.6c-1.466,9.372-1.528,15.635-.186,18.666H35.56a6.336,6.336,0,0,1-6.329-6.327,27.9,27.9,0,0,1,.157-4.357,12.675,12.675,0,0,1,12.5-10.666c9.373.213,11.346-.55,14.607.9A3.279,3.279,0,0,0,55.6,159.515ZM61.45,170.1H62.8v1.749a6.32,6.32,0,0,1-4.239,5.974l0,0a.446.446,0,0,1-.466-.2c-1.1-1.283-1.653-6.611.084-17.713a.66.66,0,0,1,1.078-.41A11.287,11.287,0,0,1,62.8,167.5H61.287c-.9-2.333-2.973-1.19-2.973,1.581C58.313,172.194,60.8,173.028,61.45,170.1Zm22.526,41.04H71.63v-4.323H83.976Zm-7.861-7.092h3.38a3.147,3.147,0,0,0,3.135-2.938h1a.343.343,0,0,1,.343.344v2.756H71.63v-2.756a.344.344,0,0,1,.344-.344H72.98A3.147,3.147,0,0,0,76.115,204.052Z" transform="translate(0 -154.222)" fill="#2079f3"/>
          </g>
        </g>
        <g id="Grupo_1187517" data-name="Grupo 1187517" transform="translate(32.708 42.103)">
          <g id="Grupo_1187516" data-name="Grupo 1187516">
            <path id="Trazado_1140047" data-name="Trazado 1140047" d="M208.508,186.2h-1.774a33.6,33.6,0,0,1,.236-3.884h1.537a1.3,1.3,0,0,0,0-2.608h-1.1a18.627,18.627,0,0,1,.786-2.782,1.3,1.3,0,0,0-2.408-1,21.32,21.32,0,0,0-1.052,3.783h-3.347a19.919,19.919,0,0,1,.916-3.432,1.3,1.3,0,0,0-2.406-1,22.282,22.282,0,0,0-1.174,4.436h-3.6a18.844,18.844,0,0,1,.8-2.852,1.3,1.3,0,0,0-2.408-1,21.225,21.225,0,0,0-1.066,3.853H190a1.3,1.3,0,0,0,0,2.608h2.05a35.791,35.791,0,0,0-.209,3.884H190a1.3,1.3,0,0,0,0,2.608h1.935a40.148,40.148,0,0,0,.57,4.463,1.3,1.3,0,1,0,2.565-.475,36.558,36.558,0,0,1-.515-3.989h3.81c.106,1.231.273,2.525.525,3.883a1.3,1.3,0,0,0,2.565-.476c-.221-1.184-.372-2.323-.469-3.406h3.22a39.163,39.163,0,0,0,.576,4.533,1.3,1.3,0,1,0,2.563-.475,36.727,36.727,0,0,1-.52-4.058h1.683a1.3,1.3,0,0,0,0-2.608Zm-10.274,0H194.46a33.022,33.022,0,0,1,.228-3.884h3.688A36.144,36.144,0,0,0,198.233,186.2Zm5.884,0h-3.269a33.532,33.532,0,0,1,.16-3.884h3.324A35.189,35.189,0,0,0,204.117,186.2Z" transform="translate(-188.695 -174.472)" fill="#2079f3"/>
          </g>
        </g>
        <g id="Grupo_1187519" data-name="Grupo 1187519" transform="translate(26.901 65.573)">
          <g id="Grupo_1187518" data-name="Grupo 1187518">
            <path id="Trazado_1140048" data-name="Trazado 1140048" d="M186.736,328.228h-4.773c1.851-2.706,1.619-4.931,1.645-7.094a33.251,33.251,0,0,0-.125-4.091,1.594,1.594,0,0,0-2.546-1.1l-3.347,2.313-2.6-7.383a1.511,1.511,0,0,0-2.848,0l-2.6,7.379c-3.4-2.263-3.5-2.636-4.309-2.636a1.592,1.592,0,0,0-1.584,1.419,57.27,57.27,0,0,0-.116,5.962,9.272,9.272,0,0,0,1.641,5.228h-6.581a3.407,3.407,0,0,0-3.4,3.4v7.642a3.072,3.072,0,0,0,3.069,3.067h22.225a1.3,1.3,0,0,0,0-2.608H158.258a.46.46,0,0,1-.461-.459v-3.05a.462.462,0,0,1,.461-.461h28.811a.461.461,0,0,1,.461.461v3.05a.46.46,0,0,1-.461.459H185.7a1.3,1.3,0,0,0,0,2.608h1.37a3.072,3.072,0,0,0,3.069-3.067v-7.642A3.407,3.407,0,0,0,186.736,328.228Zm-20.6-9.158c3.011,2.011,3.086,2.323,3.874,2.323a1.686,1.686,0,0,0,1.614-1.193l1.944-5.519,1.946,5.522a1.687,1.687,0,0,0,2.686.805l2.8-1.935c.024,1.12-.019,2.639-.009,3.93a6.841,6.841,0,0,1-2.506,5.225,7.537,7.537,0,0,1-9.812,0,6.96,6.96,0,0,1-2.533-5.222C166.151,321.627,166.1,320.285,166.133,319.07Zm21.4,14.119H157.8v-1.558a.8.8,0,0,1,.795-.795h9.163a10.164,10.164,0,0,0,11.594,0h7.386a.8.8,0,0,1,.795.795v1.558Z" transform="translate(-155.189 -309.87)" fill="#2079f3"/>
          </g>
        </g>
      </g>
    </g>
  </g>
</svg>
