<svg xmlns="http://www.w3.org/2000/svg" width="83" height="83" viewBox="0 0 83 83">
  <g id="Grupo_1183474" data-name="Grupo 1183474" transform="translate(-175.889 -5519.5)">
    <rect id="Rectángulo_402006" data-name="Rectángulo 402006" width="83" height="83" rx="5" transform="translate(175.889 5519.5)" fill="#bbd6fc"/>
    <g id="libro-de-recetas" transform="translate(147.658 5531.135)">
      <g id="Grupo_1187176" data-name="Grupo 1187176" transform="translate(46.262)">
        <g id="Grupo_1187175" data-name="Grupo 1187175">
          <path id="Trazado_1139091" data-name="Trazado 1139091" d="M88.724,0h-41.3a1.164,1.164,0,0,0-1.164,1.164V58.42a1.164,1.164,0,0,0,1.164,1.164h41.3a6.362,6.362,0,0,0,6.354-6.354V6.354A6.362,6.362,0,0,0,88.724,0Zm4.027,53.229a4.032,4.032,0,0,1-4.027,4.027H55.742V52.524a1.164,1.164,0,0,0-2.327,0v4.732H48.589V2.327h4.825V43.214a1.164,1.164,0,0,0,2.327,0V2.327H88.724a4.032,4.032,0,0,1,4.027,4.027Z" transform="translate(-46.262)" fill="#2079f3"/>
        </g>
      </g>
      <g id="Grupo_1187178" data-name="Grupo 1187178" transform="translate(60.566 8.321)">
        <g id="Grupo_1187177" data-name="Grupo 1187177">
          <path id="Trazado_1139092" data-name="Trazado 1139092" d="M189.991,74.565a6.558,6.558,0,0,0-1.457.162,6.546,6.546,0,0,0-11.289.015,6.548,6.548,0,0,0-3.378,12.648V95.3a1.164,1.164,0,0,0,1.164,1.164h15.658a1.164,1.164,0,0,0,1.164-1.164V87.389a6.547,6.547,0,0,0-1.861-12.824Zm.548,10.73a1.164,1.164,0,0,0-1.015,1.154v7.688h-13.33V86.449a1.164,1.164,0,0,0-1.015-1.154,4.219,4.219,0,0,1,.545-8.4,4.18,4.18,0,0,1,1.666.342,1.164,1.164,0,0,0,1.551-.661,4.22,4.22,0,0,1,7.9-.021,1.164,1.164,0,0,0,1.535.661,4.22,4.22,0,1,1,2.165,8.081Z" transform="translate(-169.177 -71.504)" fill="#2079f3"/>
        </g>
      </g>
      <g id="Grupo_1187180" data-name="Grupo 1187180" transform="translate(64.835 45.16)">
        <g id="Grupo_1187179" data-name="Grupo 1187179">
          <path id="Trazado_1139093" data-name="Trazado 1139093" d="M223.319,388.063H207.027a1.164,1.164,0,1,0,0,2.327h16.292a1.164,1.164,0,0,0,0-2.327Z" transform="translate(-205.863 -388.063)" fill="#2079f3"/>
        </g>
      </g>
      <g id="Grupo_1187182" data-name="Grupo 1187182" transform="translate(64.835 49.815)">
        <g id="Grupo_1187181" data-name="Grupo 1187181">
          <path id="Trazado_1139094" data-name="Trazado 1139094" d="M223.319,428.063H207.027a1.164,1.164,0,1,0,0,2.328h16.292a1.164,1.164,0,0,0,0-2.328Z" transform="translate(-205.863 -428.063)" fill="#2079f3"/>
        </g>
      </g>
      <g id="Grupo_1187184" data-name="Grupo 1187184" transform="translate(79.055 40.506)">
        <g id="Grupo_1187183" data-name="Grupo 1187183">
          <path id="Trazado_1139095" data-name="Trazado 1139095" d="M331.287,348.063h-2.073a1.164,1.164,0,0,0,0,2.328h2.073a1.164,1.164,0,0,0,0-2.328Z" transform="translate(-328.05 -348.063)" fill="#2079f3"/>
        </g>
      </g>
      <g id="Grupo_1187186" data-name="Grupo 1187186" transform="translate(64.835 40.506)">
        <g id="Grupo_1187185" data-name="Grupo 1187185">
          <path id="Trazado_1139096" data-name="Trazado 1139096" d="M211.936,348.063h-4.909a1.164,1.164,0,0,0,0,2.328h4.909a1.164,1.164,0,0,0,0-2.328Z" transform="translate(-205.863 -348.063)" fill="#2079f3"/>
        </g>
      </g>
      <g id="Grupo_1187188" data-name="Grupo 1187188" transform="translate(74.396 40.538)">
        <g id="Grupo_1187187" data-name="Grupo 1187187">
          <path id="Trazado_1139097" data-name="Trazado 1139097" d="M290.325,349.282a1.214,1.214,0,0,0-.066-.219,1.173,1.173,0,0,0-.107-.2,1.12,1.12,0,0,0-.145-.177,1.162,1.162,0,0,0-.377-.253,1.226,1.226,0,0,0-.218-.066,1.151,1.151,0,0,0-.455,0,1.17,1.17,0,0,0-.217.066,1.151,1.151,0,0,0-.2.107,1.175,1.175,0,0,0-.177.145,1.108,1.108,0,0,0-.144.177,1.179,1.179,0,0,0-.107.2,1.213,1.213,0,0,0-.066.219,1.116,1.116,0,0,0,0,.454,1.176,1.176,0,0,0,.066.218,1.149,1.149,0,0,0,.107.2,1.1,1.1,0,0,0,.144.177,1.115,1.115,0,0,0,.177.144,1.16,1.16,0,0,0,.2.107,1.175,1.175,0,0,0,.217.066,1.125,1.125,0,0,0,.455,0,1.229,1.229,0,0,0,.218-.066,1.182,1.182,0,0,0,.2-.107,1.152,1.152,0,0,0,.322-.321,1.142,1.142,0,0,0,.107-.2,1.177,1.177,0,0,0,.066-.218,1.181,1.181,0,0,0,0-.454Z" transform="translate(-288.02 -348.345)" fill="#2079f3"/>
        </g>
      </g>
      <g id="Grupo_1187190" data-name="Grupo 1187190" transform="translate(53.393 46.703)">
        <g id="Grupo_1187189" data-name="Grupo 1187189">
          <path id="Trazado_1139098" data-name="Trazado 1139098" d="M109.846,402.251a1.185,1.185,0,0,0-.066-.217,1.149,1.149,0,0,0-.107-.2,1.174,1.174,0,0,0-.144-.177,1.225,1.225,0,0,0-.177-.144,1.242,1.242,0,0,0-.2-.107,1.177,1.177,0,0,0-.218-.066,1.151,1.151,0,0,0-.455,0,1.172,1.172,0,0,0-.218.066,1.237,1.237,0,0,0-.2.107,1.224,1.224,0,0,0-.177.144,1.114,1.114,0,0,0-.144.177,1.156,1.156,0,0,0-.107.2,1.173,1.173,0,0,0-.066.217,1.14,1.14,0,0,0-.023.227,1.172,1.172,0,0,0,.341.823,1.224,1.224,0,0,0,.177.144,1.25,1.25,0,0,0,.2.107,1.082,1.082,0,0,0,.218.066,1.137,1.137,0,0,0,.227.023,1.148,1.148,0,0,0,.228-.023,1.084,1.084,0,0,0,.218-.066,1.173,1.173,0,0,0,.378-.251,1.173,1.173,0,0,0,.341-.823A1.147,1.147,0,0,0,109.846,402.251Z" transform="translate(-107.541 -401.315)" fill="#2079f3"/>
        </g>
      </g>
    </g>
  </g>
</svg>
