<svg xmlns="http://www.w3.org/2000/svg" xmlns:xlink="http://www.w3.org/1999/xlink" width="334.348" height="1056" viewBox="0 0 334.348 1056">
  <defs>
    <clipPath id="clip-path">
      <path id="Trazado_1085297" data-name="Trazado 1085297" d="M4.813,0H329.535c2.658,0,4.813,17.718,4.813,39.574v976.852c0,21.856-2.155,39.574-4.813,39.574H4.813C2.155,1056,0,1038.282,0,1016.426V39.574C0,17.718,2.155,0,4.813,0Z" transform="translate(0)" fill="#ffe76d"/>
    </clipPath>
    <clipPath id="clip-path-2">
      <rect id="Rectángulo_456560" data-name="Rectángulo 456560" width="346.855" height="1088.689" rx="24" fill="#fffdf0" stroke="#707070" stroke-width="1"/>
    </clipPath>
  </defs>
  <g id="Grupo_1187590" data-name="Grupo 1187590" transform="translate(3847.295 6934)">
    <g id="Grupo_1187532" data-name="Grupo 1187532">
      <g id="Enmascarar_grupo_1119244" data-name="Enmascarar grupo 1119244" transform="translate(-3847.295 -6934)" clip-path="url(#clip-path)">
        <g id="Enmascarar_grupo_1119243" data-name="Enmascarar grupo 1119243" transform="translate(-12.507)" clip-path="url(#clip-path-2)">
          <rect id="Rectángulo_456557" data-name="Rectángulo 456557" width="1.834" height="2.496" transform="translate(72.714 65.577)" fill="#fffdf0"/>
          <path id="Trazado_1085287" data-name="Trazado 1085287" d="M0,0H359.643V1089.265H0Z" transform="translate(0 -0.575)" fill="#fbfffe"/>
          <rect id="Rectángulo_456558" data-name="Rectángulo 456558" width="1.834" height="2.496" transform="translate(283.094 433.035)" fill="#fffdf0"/>
          <path id="Trazado_1085288" data-name="Trazado 1085288" d="M89.193,0c49.26,0,89.193,203.812,89.193,455.226S138.453,910.452,89.193,910.452,0,706.64,0,455.226,39.933,0,89.193,0Z" transform="translate(-62.799 -314.765)" fill="#fffdf0" opacity="0.23" style="mix-blend-mode: multiply;isolation: isolate"/>
          <path id="Trazado_1085289" data-name="Trazado 1085289" d="M105.867,0c58.469,0,105.867,241.913,105.867,540.327s-47.4,540.327-105.867,540.327S0,838.742,0,540.327,47.4,0,105.867,0Z" transform="translate(142.931 8.035)" fill="#fffdf0" opacity="0.27" style="mix-blend-mode: soft-light;isolation: isolate"/>
          <rect id="Rectángulo_456559" data-name="Rectángulo 456559" width="1.834" height="2.496" transform="translate(290.751 498.531)" fill="#fffdf0"/>
          <path id="Trazado_1085290" data-name="Trazado 1085290" d="M22.11,794.381h8.414c0-12.534,6.173-22.7,13.789-22.7S58.1,781.847,58.1,794.381H69.918v-.049c.009-12.538,6.19-22.687,13.8-22.675s13.782,10.19,13.772,22.724h11.034v-.049c.008-12.538,6.188-22.687,13.8-22.675s13.78,10.19,13.772,22.724h11.55v-.049c.009-12.538,6.188-22.687,13.8-22.675s13.782,10.19,13.772,22.724h11.961v-.049c.009-12.538,6.19-22.687,13.8-22.675s13.782,10.19,13.772,22.724h11.265c0-12.537,6.173-22.7,13.789-22.7s13.789,10.162,13.789,22.7h11.641v-.049c.009-12.538,6.188-22.687,13.8-22.675s13.78,10.19,13.772,22.724h11.682v-.049c.009-12.538,6.188-22.687,13.8-22.675s13.782,10.19,13.772,22.724h9.617" transform="translate(-16.486 261.724)" fill="#aae5d3" opacity="0.1"/>
          <path id="Trazado_1085291" data-name="Trazado 1085291" d="M0,28.659H7.774c0-15.808,5.7-28.624,12.741-28.624S33.254,12.851,33.254,28.659H44.172V28.6C44.181,12.785,49.891-.015,56.927,0S69.66,12.851,69.651,28.659H79.846V28.6C79.853,12.785,85.564-.015,92.6,0s12.732,12.851,12.725,28.659H116V28.6c.009-15.812,5.718-28.612,12.755-28.6s12.734,12.851,12.725,28.659h11.051V28.6c.009-15.812,5.719-28.612,12.755-28.6s12.734,12.851,12.725,28.659h10.408c0-15.811,5.7-28.628,12.741-28.628S213.9,12.848,213.9,28.659h10.756V28.6C224.66,12.785,230.369-.015,237.406,0s12.732,12.851,12.725,28.659h10.794V28.6C260.934,12.785,266.643-.015,273.68,0S286.413,12.851,286.4,28.659h8.886" transform="translate(309.469 28.659) rotate(180)" fill="#aae5d3" opacity="0.1"/>
          <path id="Trazado_1085292" data-name="Trazado 1085292" d="M239.243,216.27V143.061h-6.495c-.04,20.415-4.261,36.838-9.428,36.681-5.111-.155-9.244-16.487-9.284-36.681h-7.926c0,20.416-4.189,36.968-9.356,36.968s-9.356-16.551-9.356-36.968h-7.9c0,20.416-4.189,36.968-9.356,36.968s-9.356-16.551-9.356-36.968h-7.642c0,20.418-4.189,36.97-9.357,36.97s-9.357-16.553-9.357-36.97h-8.114c0,20.416-4.189,36.968-9.356,36.968s-9.356-16.551-9.356-36.968H99.756c0,20.416-4.189,36.968-9.356,36.968s-9.356-16.551-9.356-36.968H73.56c0,20.419-4.184,36.979-9.352,36.99s-9.359-16.533-9.362-36.952v-.038H46.825c0,20.416-4.189,36.968-9.356,36.968s-9.356-16.551-9.356-36.968H22.371V216.5c5.168,0,9.357,16.553,9.357,36.971s-4.189,36.97-9.357,36.97V322.5c5.168,0,9.357,16.553,9.357,36.97s-4.189,36.971-9.357,36.971v30.2h.021c5.167.023,9.352,16.593,9.346,37.009s-4.2,36.949-9.367,36.926v31.212c5.168,0,9.357,16.553,9.357,36.972s-4.189,36.97-9.357,36.97v29.728h.021c5.167.022,9.352,16.592,9.346,37.009s-4.2,36.948-9.367,36.926v73.1h5.71c0-20.418,4.189-36.967,9.356-36.967s9.356,16.55,9.356,36.967h8.019v-.082c.006-20.418,4.2-36.949,9.367-36.927s9.352,16.592,9.346,37.009h7.487v-.082c.006-20.418,4.2-36.949,9.367-36.927s9.352,16.592,9.346,37.009h7.838v-.082c.006-20.418,4.2-36.949,9.367-36.927s9.352,16.592,9.346,37.009h8.116v-.082c.006-20.418,4.2-36.949,9.367-36.927s9.352,16.592,9.346,37.009h7.643c0-20.419,4.189-36.973,9.357-36.973s9.357,16.554,9.357,36.973h7.9v-.082c.006-20.418,4.2-36.949,9.367-36.927s9.352,16.592,9.346,37.009H214v-.082c.006-20.418,4.2-36.949,9.367-36.927s9.352,16.592,9.346,37.009h6.527V709.163h-.021c-5.168-.023-9.352-16.592-9.346-37.01s4.2-36.949,9.367-36.926V605.5c-5.168,0-9.357-16.551-9.357-36.969s4.189-36.97,9.357-36.97V500.345h-.021c-5.168-.023-9.352-16.593-9.346-37.009s4.2-36.949,9.367-36.926v-30.2c-5.168,0-9.357-16.553-9.357-36.97s4.189-36.971,9.357-36.971V290.214c-5.168.01-9.359-16.534-9.362-36.952s4.184-36.979,9.352-36.99h.01" transform="translate(302.85 -102.856)" fill="#aae5d3" opacity="0.08"/>
          <g id="Grupo_1184026" data-name="Grupo 1184026" transform="translate(236.019 702.366) rotate(2)" opacity="0.02">
            <path id="Trazado_1085293" data-name="Trazado 1085293" d="M40.845-.014l-3.8,1.733s2.243,14.709,2.718,19.36,1.171,7.816-.877,17.1S36.233,59.829,35.313,80.24s-3.64,51.18-11.963,63.13S-.732,164.644-.04,176.184,2.77,191.029,7.8,195.929s18.591,18.921,30.637-9.881S53.05,126.742,54.132,97.3s-.012-52.649-2.54-61.8-5.9-10.34-7.208-15.369C43.022,13.658,41.838,6.915,40.845-.014" transform="translate(25.703 27.21)" fill="#2cbe91"/>
            <path id="Trazado_1085294" data-name="Trazado 1085294" d="M66.6,6.437,62.649-.022s-.055,24.858-.3,32.2S62.3,45.35,58.91,53.049s-5.851,22.868-9.833,48.068S37.792,161.272,27.908,158.01,1.351,130.865.275,147.916s.472,26.364,4.606,44.538S20.03,260.739,36.06,250s23.148-45.627,28.655-82.58,7.968-70.523,6.9-88.6S67.469,51.372,66.959,41.6c-.336-11.821-.459-23.584-.372-35.152" transform="translate(0 0)" fill="#2cbe91"/>
          </g>
          <g id="Grupo_1184027" data-name="Grupo 1184027" transform="translate(159.291 816.537) rotate(178)" opacity="0.1">
            <path id="Trazado_1085295" data-name="Trazado 1085295" d="M57.917.02,53.924,3.973s.879,23.792.921,31.381S55.292,48,52.355,64.006s-4.707,36.7-7.552,70.856-8.476,86.023-17.987,108.225S.545,285.232.159,304.2,1.6,328.058,6.209,334.771,23.171,360.93,38.018,309.69s20.3-102.625,24.152-151.821S67.1,70.44,65.414,55.964s-4.975-15.5-5.822-23.482C58.828,22.108,58.268,11.246,57.917.02" transform="translate(17.964 5.548)" fill="#fffdf0"/>
            <path id="Trazado_1085296" data-name="Trazado 1085296" d="M75.952,5.406,72.335.025S70.879,25.1,70.222,32.571s-.8,13.29-4.649,22.021-7.187,24.725-12.622,51.266-14.766,63.865-24.545,63.4-25.24-19.769-27.286-2.273S.111,193.43,3.254,210.567s11.42,64.5,28.185,49.087,25.906-52.613,33.54-91.438S76.986,94.849,76.932,76.929s-2.635-26.476-2.6-36.184c.328-11.82.866-23.642,1.607-35.328" transform="translate(0 0)" fill="#fffdf0"/>
          </g>
        </g>
      </g>
      <g id="Rectángulo_456571" data-name="Rectángulo 456571" transform="translate(-3821 -6130)" fill="#fff" stroke="#12263f" stroke-width="3">
        <rect width="283.847" height="233.336" rx="15" stroke="none"/>
        <rect x="1.5" y="1.5" width="280.847" height="230.336" rx="13.5" fill="none"/>
      </g>
      <g id="Rectángulo_456569" data-name="Rectángulo 456569" transform="translate(-3821 -6383)" fill="#fff" stroke="#e6d062" stroke-width="3" stroke-dasharray="3 3">
        <rect width="283.847" height="216.966" rx="15" stroke="none"/>
        <rect x="1.5" y="1.5" width="280.847" height="213.966" rx="13.5" fill="none"/>
      </g>
      <g id="Rectángulo_456567" data-name="Rectángulo 456567" transform="translate(-3821 -6643)" fill="#fff" stroke="#ff6a7d" stroke-width="2" stroke-dasharray="5">
        <rect width="283.847" height="225.03" rx="15" stroke="none"/>
        <rect x="1" y="1" width="281.847" height="223.03" rx="14" fill="none"/>
      </g>
      <g id="Rectángulo_456561" data-name="Rectángulo 456561" transform="translate(-3821 -6918)" fill="#fff" stroke="#2079f3" stroke-width="3" stroke-dasharray="10">
        <rect width="283.847" height="239.03" rx="15" stroke="none"/>
        <rect x="1.5" y="1.5" width="280.847" height="236.03" rx="13.5" fill="none"/>
      </g>
      <rect id="Rectángulo_457777" data-name="Rectángulo 457777" width="263.667" height="223.336" rx="15" transform="translate(-3810.169 -6910.023)" fill="#e8f1fe"/>
      <rect id="Rectángulo_457788" data-name="Rectángulo 457788" width="270.667" height="207.336" rx="15" transform="translate(-3813.648 -6634.023)" fill="#ffedef"/>
      <rect id="Rectángulo_457789" data-name="Rectángulo 457789" width="260.707" height="194.952" rx="15" transform="translate(-3808.648 -6373.162)" fill="#fffdf0"/>
      <rect id="Rectángulo_457790" data-name="Rectángulo 457790" width="260.707" height="214.952" rx="15" transform="translate(-3808.648 -6120.409)" fill="#fff8f2"/>
      <g id="fiebre" transform="translate(-3583.319 -6738.053)">
        <path id="Trazado_1139152" data-name="Trazado 1139152" d="M353.432,164.275l-2.406-2.091a1.149,1.149,0,0,0-1.5,0l-2.406,2.091a1.14,1.14,0,0,0,1.5,1.722l.518-.45v6.54a1.14,1.14,0,1,0,2.281,0v-6.54l.518.45a1.14,1.14,0,1,0,1.5-1.722Z" transform="translate(-325.815 -149.6)" fill="#2079f3"/>
        <path id="Trazado_1139153" data-name="Trazado 1139153" d="M206.988,125.653V107.14a1.14,1.14,0,0,0-2.281,0v18.513a3.409,3.409,0,1,0,2.281,0Zm-1.14,4.34a1.128,1.128,0,1,1,1.128-1.128A1.129,1.129,0,0,1,205.848,129.993Z" transform="translate(-192.491 -97.942)" fill="#2079f3"/>
        <path id="Trazado_1139154" data-name="Trazado 1139154" d="M156.11,5.7a5.7,5.7,0,0,0-11.4,0V25.359a7.982,7.982,0,0,0-2.268,5.563,7.978,7.978,0,0,0,7.966,7.97q.159,0,.318-.006a7.966,7.966,0,0,0,5.388-13.528V5.7Zm-5.476,30.906a5.686,5.686,0,0,1-4.024-9.915,1.14,1.14,0,0,0,.378-.848V5.7a3.421,3.421,0,0,1,6.842,0V25.845a1.14,1.14,0,0,0,.378.848,5.686,5.686,0,0,1-3.573,9.915Z" transform="translate(-137.053)" fill="#2079f3"/>
        <path id="Trazado_1139155" data-name="Trazado 1139155" d="M75.765,280.808H72.724a1.14,1.14,0,0,0,0,2.281h3.041a1.14,1.14,0,1,0,0-2.281Z" transform="translate(-71.584 -259.461)" fill="#2079f3"/>
        <path id="Trazado_1139156" data-name="Trazado 1139156" d="M75.765,220.808H72.724a1.14,1.14,0,1,0,0,2.281h3.041a1.14,1.14,0,1,0,0-2.281Z" transform="translate(-71.584 -204.022)" fill="#2079f3"/>
        <path id="Trazado_1139157" data-name="Trazado 1139157" d="M75.765,160.808H72.724a1.14,1.14,0,0,0,0,2.281h3.041a1.14,1.14,0,1,0,0-2.281Z" transform="translate(-71.584 -148.583)" fill="#2079f3"/>
        <path id="Trazado_1139158" data-name="Trazado 1139158" d="M75.765,100.808H72.724a1.14,1.14,0,1,0,0,2.281h3.041a1.14,1.14,0,1,0,0-2.281Z" transform="translate(-71.584 -93.145)" fill="#2079f3"/>
      </g>
      <g id="Grupo_1184032" data-name="Grupo 1184032" transform="translate(-4446.932 -7538.317)">
        <path id="Trazado_1063925" data-name="Trazado 1063925" d="M-4731.5-10988.507V-11007" transform="translate(5604.083 11861.129)" fill="none" stroke="#2079f3" stroke-width="3" stroke-dasharray="10 6"/>
        <path id="Trazado_1063924" data-name="Trazado 1063924" d="M-4448.667-10957l8.924,12.709,8.381-12.709Z" transform="translate(5312.598 11828.245)" fill="#2079f3"/>
      </g>
      <g id="Grupo_1187170" data-name="Grupo 1187170" transform="translate(-4438.279 -7017.006)">
        <path id="Trazado_1063925-2" data-name="Trazado 1063925" d="M-4731.5-10984.051V-11007" transform="translate(5604.083 11856.672)" fill="none" stroke="#e6d062" stroke-width="3" stroke-dasharray="3 3"/>
        <path id="Trazado_1063924-2" data-name="Trazado 1063924" d="M-4448.667-10957l8.924,12.709,8.381-12.709Z" transform="translate(5312.598 11816.912)" fill="#e6d062"/>
      </g>
      <g id="Grupo_1187171" data-name="Grupo 1187171" transform="translate(-4094.043 -11755.971)">
        <path id="Trazado_1139089" data-name="Trazado 1139089" d="M-4977-6365v31" transform="translate(5506.348 11703)" fill="none" stroke="#ff6a7d" stroke-width="2" stroke-dasharray="5 5"/>
        <path id="Trazado_1139090" data-name="Trazado 1139090" d="M-4448.667-10957l8.924,12.709,8.381-12.709Z" transform="translate(4968.361 16313.29)" fill="#ff6a7d"/>
      </g>
      <g id="caja-de-hielo" transform="translate(-3603.319 -6227.397)">
        <path id="Trazado_1139151" data-name="Trazado 1139151" d="M45.983,69.764l-.271-1.612a3.367,3.367,0,0,0-3.085-2.808V58.665a2.414,2.414,0,0,0-.962-1.922.674.674,0,1,0-.809,1.079,1.045,1.045,0,0,1,.422.843v6.67h-5.82a2.385,2.385,0,0,0-.69-1.93l-3.214-3.214V58.665a1.054,1.054,0,0,1,1.053-1.053h5.487a.674.674,0,1,0,0-1.348H32.607a2.4,2.4,0,0,0-2.4,2.4v.178l-.826-.826a2.4,2.4,0,0,0-3.4,0L24.8,59.2a2.4,2.4,0,0,0-2.281-1.654H14.9a2.388,2.388,0,0,0-1.446.486l-2.11-2.11a2.4,2.4,0,0,0-3.4,0L2.564,61.311a2.4,2.4,0,0,0,0,3.4l.654.654A3.367,3.367,0,0,0,.3,68.153L.029,69.764a2.135,2.135,0,0,0,2.1,2.488H3.478l3.447,14.92a5.317,5.317,0,0,0,3.9,3.977.674.674,0,0,0,.328-1.308,3.974,3.974,0,0,1-2.917-2.973L4.862,72.253h36.29L37.774,86.869a3.974,3.974,0,0,1-3.889,3.093H14.228a.674.674,0,0,0,0,1.348H33.885a5.316,5.316,0,0,0,5.2-4.138l3.447-14.92h1.344a2.135,2.135,0,0,0,2.1-2.488ZM26.939,58.971a1.052,1.052,0,0,1,1.489,0l5.387,5.387a1.046,1.046,0,0,1,.282.977H21.27a1.047,1.047,0,0,1,.282-.977Zm-13.09.978A1.054,1.054,0,0,1,14.9,58.9H22.52a1.054,1.054,0,0,1,1.053,1.053v.482L20.6,63.405a2.385,2.385,0,0,0-.69,1.93h-6.06ZM3.517,62.264,8.9,56.877a1.054,1.054,0,0,1,1.489,0l2.252,2.252a2.391,2.391,0,0,0-.144.82v5.386H5.1L3.517,63.753a1.052,1.052,0,0,1,0-1.489ZM43.879,70.9H2.134a.785.785,0,0,1-.775-.917l.271-1.612a2.024,2.024,0,0,1,2-1.693H42.381a2.024,2.024,0,0,1,2,1.693l.271,1.612A.785.785,0,0,1,43.879,70.9ZM17.026,82.714a.674.674,0,0,0,.953,0l.932-.932H20.59a2.5,2.5,0,0,0,.232.558l-1.385,1.385a.674.674,0,1,0,.953.953l1.385-1.385a2.491,2.491,0,0,0,.558.232V85.2l-.932.932a.674.674,0,0,0,.953.953l.653-.653.653.653a.674.674,0,0,0,.953-.953l-.932-.932V83.524a2.494,2.494,0,0,0,.558-.232l1.385,1.385a.674.674,0,0,0,.953-.953l-1.385-1.385a2.5,2.5,0,0,0,.232-.558H27.1l.932.932a.674.674,0,1,0,.953-.953l-.653-.653.653-.653a.674.674,0,1,0-.953-.953l-.932.932H25.423a4.724,4.724,0,0,0-.232-.558l1.385-1.385a.674.674,0,0,0-.953-.953l-1.385,1.385a2.5,2.5,0,0,0-.558-.232V77.012l.932-.932a.674.674,0,0,0-.953-.953l-.653.653-.653-.653a.674.674,0,1,0-.953.953l.932.932v1.679a2.491,2.491,0,0,0-.558.232L20.39,77.538a.674.674,0,0,0-.953.953l1.385,1.385a2.494,2.494,0,0,0-.232.558H18.911l-.932-.932a.674.674,0,0,0-.953.953l.653.653-.653.653a.674.674,0,0,0,0,.953Zm5.981-2.767c.64,0,1.161,1.161,1.161,1.161s-.521,1.161-1.161,1.161a1.161,1.161,0,1,1,0-2.322Z" transform="translate(0.001 -55.222)" fill="#e6d062"/>
      </g>
      <g id="picar" transform="translate(-3613.275 -6488.063)">
        <path id="Trazado_1139159" data-name="Trazado 1139159" d="M52.456,10.319H43.97c-.143-1.85-.315-3.7-.542-5.528A.9.9,0,0,0,41.782,4.4a33.221,33.221,0,0,0-3.125,5.917H5.514A4.519,4.519,0,0,0,1,14.833V43.721a4.519,4.519,0,0,0,4.514,4.514H38.575c-.134,1.1-.3,2.192-.513,3.274a2.513,2.513,0,0,0-.05.5,2.548,2.548,0,0,0,2.546,2.545h.979a2.874,2.874,0,0,0,.291.014,2.938,2.938,0,0,0,2.864-2.246l.044-.173a16.949,16.949,0,0,0,.5-3.914h7.222a4.519,4.519,0,0,0,4.514-4.514V14.833a4.519,4.519,0,0,0-4.514-4.514ZM40.387,37.4q-.191-1.636-.492-3.25a2.167,2.167,0,0,1,1.2-.361h.155a2.158,2.158,0,0,1,1.276.421V37.4Zm.863-5.416h-.155c-.127,0-.249.024-.374.036V22.9a33.069,33.069,0,0,1,1.6-10.2c.129,2.236.2,4.473.2,6.7V32.211a3.963,3.963,0,0,0-1.276-.226Zm.676-24.362c.031.3.052.6.08.895a34.864,34.864,0,0,0-3.091,14.39v9.729a3.8,3.8,0,0,0-.317.252h-.586v-10.1A31.227,31.227,0,0,1,41.926,7.623ZM5.514,46.429a2.708,2.708,0,0,1-2.708-2.708V14.833a2.708,2.708,0,0,1,2.708-2.708H37.989a33.07,33.07,0,0,0-1.782,10.667v11a.9.9,0,0,0,.9.9h1.059a45.51,45.51,0,0,1,.747,8.2c0,1.179-.06,2.36-.155,3.538Zm37.47,5.281-.044.173a1.174,1.174,0,0,1-1.316.865H40.558a.74.74,0,0,1-.74-.739.7.7,0,0,1,.014-.145,45.867,45.867,0,0,0,.888-8.972c0-1.228-.062-2.457-.158-3.684h2.009A24.082,24.082,0,0,0,43,42.547a22.723,22.723,0,0,1,.433,4.371l.005,1.039a15.129,15.129,0,0,1-.45,3.753Zm12.181-7.989a2.708,2.708,0,0,1-2.708,2.708h-7.23a24.347,24.347,0,0,0-.461-4.243,22.46,22.46,0,0,1-.433-4.378V19.4c0-2.419-.076-4.85-.227-7.278h8.351a2.708,2.708,0,0,1,2.708,2.708Z" transform="translate(-1 -4)" fill="#ff6a7d"/>
        <path id="Trazado_1139160" data-name="Trazado 1139160" d="M54.611,22A3.611,3.611,0,0,0,51,25.611V36.444a3.611,3.611,0,1,0,7.222,0V25.611A3.611,3.611,0,0,0,54.611,22Zm1.805,14.444a1.805,1.805,0,1,1-3.611,0V25.611a1.805,1.805,0,1,1,3.611,0Z" transform="translate(-5.863 -5.751)" fill="#ff6a7d"/>
        <path id="Trazado_1139161" data-name="Trazado 1139161" d="M16.933,32.332a6.311,6.311,0,0,0,2.695-2.708,6.288,6.288,0,0,0,2.715-2.708,6.309,6.309,0,1,0-8.5-8.486,6.319,6.319,0,0,0-2.708,2.708,6.308,6.308,0,0,0-2.7,2.69,6.319,6.319,0,1,0,8.5,8.5Zm.7-2.909a6.325,6.325,0,0,0-6.3-6.3,4.5,4.5,0,0,1,6.3,6.3Zm2.708-2.7a6.326,6.326,0,0,0-6.3-6.3,4.5,4.5,0,0,1,6.3,6.3Zm3.611-5.4a4.5,4.5,0,0,1-.9,2.688,6.325,6.325,0,0,0-6.3-6.3,4.5,4.5,0,0,1,7.2,3.611ZM11.318,33.957a4.514,4.514,0,1,1,4.514-4.514A4.514,4.514,0,0,1,11.318,33.957Z" transform="translate(-1.388 -5.07)" fill="#ff6a7d"/>
        <path id="Trazado_1139162" data-name="Trazado 1139162" d="M11,27h1.805v1.805H11Z" transform="translate(-1.973 -6.237)" fill="#ff6a7d"/>
        <path id="Trazado_1139163" data-name="Trazado 1139163" d="M11,33h1.805v1.805H11Z" transform="translate(-1.973 -6.821)" fill="#ff6a7d"/>
        <path id="Trazado_1139164" data-name="Trazado 1139164" d="M14,30h1.805v1.805H14Z" transform="translate(-2.264 -6.529)" fill="#ff6a7d"/>
        <path id="Trazado_1139165" data-name="Trazado 1139165" d="M8,30H9.805v1.805H8Z" transform="translate(-1.681 -6.529)" fill="#ff6a7d"/>
        <path id="Trazado_1139166" data-name="Trazado 1139166" d="M29.443,26a6.319,6.319,0,0,0-5.6,3.43,6.319,6.319,0,0,0-2.708,2.708,6.308,6.308,0,0,0-2.7,2.69,6.319,6.319,0,1,0,8.5,8.5,6.311,6.311,0,0,0,2.695-2.708,6.289,6.289,0,0,0,2.715-2.708A6.309,6.309,0,0,0,29.443,26ZM21.318,44.958a4.514,4.514,0,1,1,4.514-4.514,4.514,4.514,0,0,1-4.514,4.514Zm6.319-4.534a6.326,6.326,0,0,0-6.3-6.3,4.5,4.5,0,0,1,6.3,6.3Zm2.708-2.7a6.325,6.325,0,0,0-6.3-6.3,4.5,4.5,0,0,1,6.3,6.3Zm2.708-2.714a6.325,6.325,0,0,0-6.3-6.3,4.5,4.5,0,0,1,6.3,6.3Z" transform="translate(-2.36 -6.14)" fill="#ff6a7d"/>
        <path id="Trazado_1139167" data-name="Trazado 1139167" d="M21,38h1.805v1.805H21Z" transform="translate(-2.945 -7.307)" fill="#ff6a7d"/>
        <path id="Trazado_1139168" data-name="Trazado 1139168" d="M21,44h1.805v1.805H21Z" transform="translate(-2.945 -7.891)" fill="#ff6a7d"/>
        <path id="Trazado_1139169" data-name="Trazado 1139169" d="M24,41h1.805v1.805H24Z" transform="translate(-3.237 -7.599)" fill="#ff6a7d"/>
        <path id="Trazado_1139170" data-name="Trazado 1139170" d="M18,41h1.805v1.805H18Z" transform="translate(-2.653 -7.599)" fill="#ff6a7d"/>
      </g>
      <g id="Grupo_1187589" data-name="Grupo 1187589">
        <text id="En_primer_lugar_el_control_de_temperatura._Los_alimentos_perecederos_ya_cortados_especialmente_proteínas_y_vegetales_de_hoja_son_más_susceptibles_a_la_contaminación_y_deterioro_por_lo_que_deben_mantenerse_refrigerados_a_4_C_hasta_su_uso_empleando_rec" data-name="En primer lugar, el control de temperatura. Los alimentos perecederos ya cortados (especialmente proteínas y vegetales de hoja) son más susceptibles a la contaminación y deterioro, por lo que deben mantenerse refrigerados a ≤4°C hasta su uso, empleando rec" transform="translate(-3795.835 -6886.985)" fill="#12263f" font-size="14" font-family="SegoeUI-Bold, Segoe UI" font-weight="700"><tspan x="0" y="15">En primer lugar,</tspan><tspan y="15" xml:space="preserve" font-family="SegoeUI, Segoe UI" font-weight="400"> el control de </tspan><tspan x="0" y="35" font-family="SegoeUI, Segoe UI" font-weight="400">temperatura. Los alimentos </tspan><tspan x="0" y="55" font-family="SegoeUI, Segoe UI" font-weight="400">perecederos ya cortados </tspan><tspan x="0" y="75" font-family="SegoeUI, Segoe UI" font-weight="400">(especialmente proteínas y vegetales </tspan><tspan x="0" y="95" font-family="SegoeUI, Segoe UI" font-weight="400">de hoja) son más susceptibles a la </tspan><tspan x="0" y="115" font-family="SegoeUI, Segoe UI" font-weight="400">contaminación y deterioro, por lo que </tspan><tspan x="0" y="135" font-family="SegoeUI, Segoe UI" font-weight="400">deben mantenerse refrigerados a </tspan><tspan x="0" y="155" font-family="SegoeUI, Segoe UI" font-weight="400">≤4°C hasta su uso, empleando </tspan><tspan x="0" y="175" font-family="SegoeUI, Segoe UI" font-weight="400">recipientes tapados y limpios.</tspan></text>
        <text id="En_tercer_lugar_técnicas_como_el_blanqueado_escaldado_rápido_en_agua_hirviendo_seguido_de_un_shock_en_agua_helada_se_utilizan_para_fijar_el_color_de_vegetales_ej:_vainitas_para_ensalada_eliminar_sabores_amargos_o_facilitar_el_pelado._" data-name="En tercer lugar, técnicas como el blanqueado (escaldado rápido en agua hirviendo seguido de un shock en agua helada) se utilizan para fijar el color de vegetales (ej: vainitas para ensalada), eliminar sabores amargos o facilitar el pelado. " transform="translate(-3795.076 -6357.397)" fill="#12263f" font-size="14" font-family="SegoeUI-Bold, Segoe UI" font-weight="700"><tspan x="0" y="15">En tercer lugar, </tspan><tspan y="15" font-family="SegoeUI, Segoe UI" font-weight="400">técnicas como el </tspan><tspan x="0" y="35" font-family="SegoeUI, Segoe UI" font-weight="400">blanqueado (escaldado rápido en </tspan><tspan x="0" y="55" font-family="SegoeUI, Segoe UI" font-weight="400">agua hirviendo seguido de un shock </tspan><tspan x="0" y="75" font-family="SegoeUI, Segoe UI" font-weight="400">en agua helada) se utilizan para fijar </tspan><tspan x="0" y="95" font-family="SegoeUI, Segoe UI" font-weight="400">el color de vegetales (ej: vainitas para </tspan><tspan x="0" y="115" font-family="SegoeUI, Segoe UI" font-weight="400">ensalada), eliminar sabores amargos </tspan><tspan x="0" y="135" font-family="SegoeUI, Segoe UI" font-weight="400">o facilitar el pelado. </tspan></text>
        <text id="En_segundo_lugar_la_prevención_de_la_contaminación_cruzada_es_imperativa._Esto_implica_usar_tablas_y_utensilios_diferenciados_por_color_para_carnes_crudas_y_vegetales_y_nunca_almacenar_alimentos_cocidos_sobre_crudos." data-name="En segundo lugar, la prevención de la contaminación cruzada es imperativa. Esto implica usar tablas y utensilios diferenciados por color para carnes crudas y vegetales, y nunca almacenar alimentos cocidos sobre crudos." transform="translate(-3804.314 -6612.78)" fill="#12263f" font-size="15" font-family="SegoeUI-Bold, Segoe UI" font-weight="700"><tspan x="0" y="16">En segundo lugar, </tspan><tspan y="16" font-family="SegoeUI, Segoe UI" font-weight="400">la prevención de </tspan><tspan x="0" y="38" font-family="SegoeUI, Segoe UI" font-weight="400">la contaminación cruzada es </tspan><tspan x="0" y="60" font-family="SegoeUI, Segoe UI" font-weight="400">imperativa. Esto implica usar tablas </tspan><tspan x="0" y="82" font-family="SegoeUI, Segoe UI" font-weight="400">y utensilios diferenciados por color </tspan><tspan x="0" y="104" font-family="SegoeUI, Segoe UI" font-weight="400">para carnes crudas y vegetales, y </tspan><tspan x="0" y="126" font-family="SegoeUI, Segoe UI" font-weight="400">nunca almacenar alimentos cocidos </tspan><tspan x="0" y="148" font-family="SegoeUI, Segoe UI" font-weight="400">sobre crudos.</tspan></text>
        <text id="Por_último_el_marinado_es_una_operación_de_pre-acondicionamiento_que_utiliza_medios_ácidos_enzimáticos_o_lácteos_para_ablandar_carnes_e_infusionar_sabor_como_en_la_preparación_de_una_Carne_a_la_Llanera_donde_la_carne_se_marina_con_cerveza_y_especias." data-name="Por último, el marinado es una operación de pre-acondicionamiento que utiliza medios ácidos, enzimáticos o lácteos para ablandar carnes e infusionar sabor, como en la preparación de una &quot;Carne a la Llanera&quot;, donde la carne se marina con cerveza y especias." transform="translate(-3795.294 -6102.397)" fill="#12263f" font-size="14" font-family="SegoeUI-Bold, Segoe UI" font-weight="700"><tspan x="0" y="15">Por último, </tspan><tspan y="15" font-family="SegoeUI, Segoe UI" font-weight="400">el marinado es una </tspan><tspan x="0" y="35" font-family="SegoeUI, Segoe UI" font-weight="400">operación de pre-acondicionamiento </tspan><tspan x="0" y="55" font-family="SegoeUI, Segoe UI" font-weight="400">que utiliza medios ácidos, </tspan><tspan x="0" y="75" font-family="SegoeUI, Segoe UI" font-weight="400">enzimáticos o lácteos para ablandar </tspan><tspan x="0" y="95" font-family="SegoeUI, Segoe UI" font-weight="400">carnes e infusionar sabor, como en la </tspan><tspan x="0" y="115" font-family="SegoeUI, Segoe UI" font-weight="400">preparación de una &quot;Carne a la </tspan><tspan x="0" y="135" font-family="SegoeUI, Segoe UI" font-weight="400">Llanera&quot;, donde la carne se marina </tspan><tspan x="0" y="155" font-family="SegoeUI, Segoe UI" font-weight="400">con cerveza y especias.</tspan></text>
      </g>
      <g id="salsa-de-tomate" transform="translate(-3600.908 -5961.397)">
        <g id="Grupo_1187206" data-name="Grupo 1187206" transform="translate(2.804 4.584)">
          <path id="Trazado_1139171" data-name="Trazado 1139171" d="M85.9,49.3a3.837,3.837,0,0,0-6.911-1.581l-.027.041-5.478,8.711a36.651,36.651,0,0,0-8.207-.889l-.195,0,.357-.894a2.573,2.573,0,0,0-2.757-3.5l-11.72,1.693a2.573,2.573,0,0,0-1.654,4.138l1.5,1.906c-2.107,1.349-3.242,2.988-3.242,4.746a4.2,4.2,0,0,0,.4,1.764L50.5,76.048A12.8,12.8,0,0,0,62.95,85.873h4.676a12.8,12.8,0,0,0,12.454-9.846l2.461-10.378a.876.876,0,0,0,.022-.159,4.208,4.208,0,0,0,.423-1.821c0-1.754-1.131-3.391-3.231-4.739l5.456-6.725q.018-.022.034-.045A3.811,3.811,0,0,0,85.9,49.3ZM65.277,57.33a35.447,35.447,0,0,1,7.219.711l-.825,1.312a19.826,19.826,0,0,0-4.4-.95A24.209,24.209,0,0,0,64,58.3l.383-.958Q64.827,57.33,65.277,57.33Zm.94,4.526a.525.525,0,0,0,.063,1.048c.044,0,4.094-.2,6.558,2.692a.873.873,0,0,0,.16.2,6.868,6.868,0,0,1,.449.64.525.525,0,0,0,.893-.553c-.032-.052-.065-.1-.1-.154.008-.009.017-.018.025-.028l1.588-1.957a11.789,11.789,0,0,1,2.817,3.285,13.859,13.859,0,0,1-1.836.942A30.278,30.278,0,0,1,65.277,70.01a30.278,30.278,0,0,1-11.559-2.042,13.1,13.1,0,0,1-2.206-1.183c1.583-3.067,4.975-5.41,9.222-6.219a22.129,22.129,0,0,1,6.345-.277A18.241,18.241,0,0,1,70.634,61l-.816,1.3c-.015.025-.029.05-.042.075a10.424,10.424,0,0,0-3.558-.518ZM50.566,55.12a.809.809,0,0,1,.647-.509l11.72-1.693a.889.889,0,0,1,.128-.009.824.824,0,0,1,.754,1.13l-1.762,4.409q-.841.1-1.674.257A17.047,17.047,0,0,0,54.6,60.913l-3.92-4.978a.809.809,0,0,1-.118-.815ZM51.9,60.305,53.17,61.92a12.621,12.621,0,0,0-3.111,3.575,2.92,2.92,0,0,1-.741-1.825c0-1.16.92-2.339,2.581-3.364Zm26.48,15.318a11.011,11.011,0,0,1-10.752,8.5H62.951A11.014,11.014,0,0,1,52.2,75.642l-1.79-7.491a14.582,14.582,0,0,0,2.616,1.424,32.042,32.042,0,0,0,12.248,2.184,32.042,32.042,0,0,0,12.248-2.184,14.565,14.565,0,0,0,2.626-1.432ZM81.237,63.67a3.191,3.191,0,0,1-1.06,2.182,13.794,13.794,0,0,0-3.137-3.572l1.607-1.98C80.313,61.325,81.237,62.507,81.237,63.67Zm2.6-12.542L73.11,64.345A8.115,8.115,0,0,0,71.4,63.077L80.43,48.713a2.087,2.087,0,0,1,3.4,2.415Z" transform="translate(-47.568 -46.104)" fill="#ffb57d"/>
          <path id="Trazado_1139172" data-name="Trazado 1139172" d="M343.894,372.25a.525.525,0,0,0-.525.525v1.508a.525.525,0,1,0,1.05,0v-1.508A.525.525,0,0,0,343.894,372.25Z" transform="translate(-318.119 -344.41)" fill="#ffb57d"/>
          <path id="Trazado_1139173" data-name="Trazado 1139173" d="M232.266,389.912a.525.525,0,0,0-.525.525v1.508a.525.525,0,0,0,1.05,0v-1.508A.525.525,0,0,0,232.266,389.912Z" transform="translate(-216.02 -360.564)" fill="#ffb57d"/>
          <path id="Trazado_1139174" data-name="Trazado 1139174" d="M277.666,425.554a.525.525,0,0,0-.525.525v1.508a.525.525,0,0,0,1.05,0v-1.508A.525.525,0,0,0,277.666,425.554Z" transform="translate(-257.544 -393.164)" fill="#ffb57d"/>
          <path id="Trazado_1139175" data-name="Trazado 1139175" d="M135.788,165.521a.821.821,0,1,0-.82-.821A.821.821,0,0,0,135.788,165.521Z" transform="translate(-127.507 -153.827)" fill="#ffb57d"/>
          <path id="Trazado_1139176" data-name="Trazado 1139176" d="M199.7,241.116a.875.875,0,0,1-.076-1.746q.152-.013.3-.022a.875.875,0,0,1,.1,1.747q-.123.007-.246.018C199.756,241.114,199.73,241.116,199.7,241.116Z" transform="translate(-185.919 -222.851)" fill="#ffb57d"/>
          <path id="Trazado_1139177" data-name="Trazado 1139177" d="M140.329,252.149a.875.875,0,0,1-.718-1.374,7.434,7.434,0,0,1,2.668-2.169.875.875,0,0,1,.836,1.537,5.884,5.884,0,0,0-2.066,1.629A.874.874,0,0,1,140.329,252.149Z" transform="translate(-131.611 -231.223)" fill="#ffb57d"/>
        </g>
        <g id="Grupo_1187207" data-name="Grupo 1187207" transform="translate(0 0)">
          <path id="Trazado_1139178" data-name="Trazado 1139178" d="M283.394,9.636l.719,2.021a.324.324,0,0,0,.169.19l1.8.809a.358.358,0,0,1,0,.633l-1.8.809a.324.324,0,0,0-.169.19l-.719,2.021a.292.292,0,0,1-.562,0l-.719-2.021a.324.324,0,0,0-.169-.19l-1.8-.809a.358.358,0,0,1,0-.633l1.8-.809a.324.324,0,0,0,.169-.19l.719-2.021a.292.292,0,0,1,.562,0Z" transform="translate(-257.318 -7.969)" fill="#ffb57d"/>
          <circle id="Elipse_11500" data-name="Elipse 11500" cx="1.569" cy="1.569" r="1.569" transform="translate(7.733 2.219) rotate(-45)" fill="#ffb57d"/>
          <path id="Trazado_1139179" data-name="Trazado 1139179" d="M17.269,36.926l.533,1.5a.24.24,0,0,0,.125.141l1.332.6a.266.266,0,0,1,0,.469l-1.332.6a.241.241,0,0,0-.125.141l-.533,1.5a.216.216,0,0,1-.417,0l-.533-1.5a.24.24,0,0,0-.125-.141l-1.332-.6a.266.266,0,0,1,0-.469l1.332-.6a.241.241,0,0,0,.125-.141l.533-1.5A.216.216,0,0,1,17.269,36.926Z" transform="translate(-14.721 -32.98)" fill="#ffb57d"/>
          <ellipse id="Elipse_11501" data-name="Elipse 11501" cx="0.677" cy="0.677" rx="0.677" ry="0.677" transform="matrix(0.973, -0.229, 0.229, 0.973, 17.046, 5.914)" fill="#ffb57d"/>
        </g>
      </g>
    </g>
  </g>
</svg>
