<svg xmlns="http://www.w3.org/2000/svg" xmlns:xlink="http://www.w3.org/1999/xlink" width="288.348" height="267.718" viewBox="0 0 288.348 267.718">
  <defs>
    <clipPath id="clip-path">
      <rect id="Rectángulo_455881" data-name="Rectángulo 455881" width="161.597" height="32.562" fill="#2cbe91"/>
    </clipPath>
  </defs>
  <g id="Grupo_1187486" data-name="Grupo 1187486" transform="translate(-1085.007 -2294.317)">
    <path id="Trazado_1085278" data-name="Trazado 1085278" d="M252.1,23.231V0h-7.55C244.5,6.478,239.6,11.69,233.59,11.639,227.649,11.59,222.844,6.408,222.8,0h-9.213c0,6.478-4.869,11.731-10.876,11.731S191.834,6.478,191.834,0h-9.186c0,6.478-4.869,11.731-10.876,11.731S160.9,6.478,160.9,0h-8.884c0,6.479-4.87,11.731-10.877,11.731S130.258,6.479,130.258,0h-9.433c0,6.478-4.869,11.731-10.876,11.731S99.073,6.478,99.073,0H89.955c0,6.478-4.87,11.731-10.876,11.731S68.2,6.478,68.2,0H59.5c0,6.479-4.864,11.734-10.872,11.737S37.753,6.491,37.75.012V0H28.426c0,6.478-4.87,11.731-10.876,11.731S6.674,6.478,6.674,0H0V23.3c6.007,0,10.877,5.252,10.877,11.732S6.007,46.766,0,46.766V56.94c6.007,0,10.877,5.252,10.877,11.731S6.007,80.4,0,80.4v9.582H.024c6.007.008,10.871,5.265,10.864,11.744S6.007,113.454,0,113.446v9.9c6.007,0,10.877,5.252,10.877,11.732S6.007,146.813,0,146.813v9.433H.024c6.007.007,10.871,5.265,10.864,11.744S6.007,179.715,0,179.707V202.9H6.637c0-6.479,4.87-11.73,10.876-11.73S28.39,196.423,28.39,202.9h9.322v-.026c.007-6.479,4.882-11.725,10.888-11.718S59.47,196.423,59.463,202.9h8.7v-.026c.007-6.479,4.882-11.725,10.888-11.718s10.871,5.265,10.864,11.744H99.03v-.026c.006-6.479,4.881-11.725,10.888-11.718s10.871,5.265,10.864,11.744h9.435v-.026c.007-6.479,4.882-11.725,10.888-11.718s10.871,5.265,10.864,11.744h8.885c0-6.479,4.87-11.732,10.877-11.732s10.877,5.253,10.877,11.732h9.182v-.026c.007-6.479,4.882-11.725,10.888-11.718s10.871,5.265,10.864,11.744h9.216v-.026c.007-6.479,4.881-11.725,10.888-11.718s10.871,5.265,10.864,11.744H252.1V179.635h-.024c-6.007-.007-10.871-5.265-10.864-11.744s4.882-11.725,10.888-11.717V146.74c-6.007,0-10.877-5.252-10.877-11.731s4.87-11.731,10.877-11.731v-9.9h-.024c-6.007-.007-10.871-5.265-10.864-11.744S246.091,89.9,252.1,89.912V80.329c-6.007,0-10.877-5.253-10.877-11.731s4.87-11.732,10.877-11.732V46.694c-6.007,0-10.88-5.247-10.883-11.726s4.864-11.734,10.872-11.738h.011" transform="translate(1150.565 2546.417) rotate(-90)" fill="#bbd6fc"/>
    <g id="Grupo_1184022" data-name="Grupo 1184022" transform="translate(1318.75 2457.601)">
      <g id="Grupo_1183846" data-name="Grupo 1183846" transform="translate(0 0)">
        <rect id="Rectángulo_455879" data-name="Rectángulo 455879" width="53.795" height="51.653" transform="translate(0.405)" fill="#2cbe91"/>
        <path id="Trazado_1000145" data-name="Trazado 1000145" d="M0,2.359H1.438a2.356,2.356,0,0,1,4.712,0H8.168V2.353a2.356,2.356,0,1,1,4.712.005h1.885V2.353a2.356,2.356,0,1,1,4.712.005H21.45V2.353a2.356,2.356,0,1,1,4.712.005h2.044V2.353a2.356,2.356,0,1,1,4.712.005h1.925a2.356,2.356,0,0,1,4.712,0h1.989V2.353a2.356,2.356,0,1,1,4.712.005h2V2.353a2.356,2.356,0,1,1,4.712.005H54.6" transform="translate(54.605 53.5) rotate(180)" fill="#2cbe91"/>
      </g>
      <path id="Trazado_1000133" data-name="Trazado 1000133" d="M1.284,23.016c-.076-.122-.159-.242-.237-.365A6.007,6.007,0,0,1,.025,19.959a4.256,4.256,0,0,1,.045-1.23,6.256,6.256,0,0,1,.836-2.183c.165-.256.357-.492.552-.76a.261.261,0,0,0,0-.091,4.163,4.163,0,0,1,.164-2.736,6.308,6.308,0,0,1,1.1-1.835,7.287,7.287,0,0,1,1.925-1.71c.17-.1.344-.193.527-.294a3.488,3.488,0,0,1,1.006-2.28A6.859,6.859,0,0,1,7.853,5.433a6.2,6.2,0,0,1,2.5-.9,1.7,1.7,0,0,0,.09-.175,3.221,3.221,0,0,1,1.087-1.4,6.569,6.569,0,0,1,3.155-1.338,5.844,5.844,0,0,1,1.231-.018c.145.009.288.011.419.015.1-.084.177-.152.258-.224A6.049,6.049,0,0,1,20.058.031,6.755,6.755,0,0,1,23.11.443c.137.05.275.094.374.128A6.483,6.483,0,0,1,27.727.225a6.354,6.354,0,0,1,3.45,2.4,3.748,3.748,0,0,1,1.2.11,5.181,5.181,0,0,1,1.918.931,5.29,5.29,0,0,1,.87.8,3.689,3.689,0,0,1,.856,1.888,3.223,3.223,0,0,1-.867,2.711,6.381,6.381,0,0,1-1.125,1,5.555,5.555,0,0,0-.731.671,22.445,22.445,0,0,1-1.983,1.722q-1.377,1.086-2.771,2.145c-.626.473-1.273.917-1.9,1.379-2.077,1.527-4.229,2.947-6.347,4.413-1.782,1.233-3.6,2.4-5.437,3.556Q13,25.12,11.094,26.2a36.4,36.4,0,0,1-4.037,1.983,1.85,1.85,0,0,1-.263.09.8.8,0,0,0-.38.2.824.824,0,0,1-.228.159,5.135,5.135,0,0,1-1.734.549,2.987,2.987,0,0,1-.944-.033,2.38,2.38,0,0,1-.854-.415,4.355,4.355,0,0,1-1.515-1.81,4.193,4.193,0,0,1-.326-1.63c0-.238.016-.478.031-.717a3.36,3.36,0,0,1,.32-1.266c.046-.094.084-.193.132-.3" transform="translate(21.114 6.409) rotate(34)" fill="#1b5b5b"/>
    </g>
    <g id="Grupo_1184023" data-name="Grupo 1184023" transform="translate(1085.007 2486.954)">
      <g id="Grupo_1183367" data-name="Grupo 1183367" transform="translate(0 0)" clip-path="url(#clip-path)">
        <path id="Trazado_1000146" data-name="Trazado 1000146" d="M183.11.2a1.582,1.582,0,0,0-1.686.127,4.717,4.717,0,0,0-1.318,1.487,10.766,10.766,0,0,0-1.1,2.087,6.029,6.029,0,0,0-.411,2.3,4.187,4.187,0,0,0-.015.513,6.517,6.517,0,0,0,.157,1.151c.046.212.093.437.157.653a2.985,2.985,0,0,0,.173.644c.029.069.11.025.116-.035,0-.014,0-.03,0-.044a.1.1,0,0,0,.132-.109,3.93,3.93,0,0,0-.191-.953c-.055-.361-.127-.721-.169-1.059-.017-.137-.025-.272-.033-.408,0-.052,0-.1,0-.156a3.517,3.517,0,0,1,.868-2.129A7.156,7.156,0,0,1,181.373,2.9a5.517,5.517,0,0,0,1.663-1.208c.271-.375.518-1.155.074-1.5" transform="translate(-97.226 0)" fill="#ff6a7d"/>
        <path id="Trazado_1000147" data-name="Trazado 1000147" d="M187.179.158A.147.147,0,0,0,186.9.2a4.977,4.977,0,0,1-3.239,3.977,8.3,8.3,0,0,0-3.7,2.393,10.073,10.073,0,0,0-1.929,4.521,5.711,5.711,0,0,0-.024,2.623,5.771,5.771,0,0,0,.508,1.611.162.162,0,1,0,.293-.138c-.018-.038-.028-.077-.045-.115a.156.156,0,0,0,.021-.173,5.1,5.1,0,0,1-.418-1.212,7.924,7.924,0,0,1,.231-3.123,5.817,5.817,0,0,1,.456-.99,8.012,8.012,0,0,1,4.028-3.112,8.5,8.5,0,0,0,3.672-2.443,3.716,3.716,0,0,0,.427-3.863" transform="translate(-96.837 -0.034)" fill="#ffe1cb"/>
        <path id="Trazado_1000148" data-name="Trazado 1000148" d="M184.938,12.209a20.432,20.432,0,0,0-5.015,2.747,5.42,5.42,0,0,0-1.413,1.4,2.52,2.52,0,0,0-.359,1.995" transform="translate(-96.951 -6.647)" fill="none" stroke="#12263f" stroke-linecap="round" stroke-linejoin="round" stroke-width="0.75"/>
        <path id="Trazado_1000149" data-name="Trazado 1000149" d="M198.4,24.918a10.493,10.493,0,0,0-2.678-6.13.3.3,0,0,0-.533.25,22.8,22.8,0,0,1,.051,5.012,3.292,3.292,0,0,1-2.264,2.491,3.892,3.892,0,0,1-3.259-.883,7.345,7.345,0,0,1-.783-.721,5.629,5.629,0,0,0-1.927-3.3c-1.557-1.013-3.715-.347-5.164.6a7.328,7.328,0,0,0-2.042,1.983,4.783,4.783,0,0,0-1,2.521c0,.948.5,1.3,1.293,1.044a4.941,4.941,0,0,0,2.144-1.777,5.421,5.421,0,0,1,2.705-2.175,2.755,2.755,0,0,1,2.393.483.73.73,0,0,1,.143-.007.792.792,0,0,1,.488.191,2.815,2.815,0,0,1,.674,1.013A9.426,9.426,0,0,1,189.1,26.9c.054.2.1.395.15.592a5.726,5.726,0,0,0,2.394,2.978,4.351,4.351,0,0,0,4.488-.234,6.127,6.127,0,0,0,2.268-5.319" transform="translate(-97.344 -10.165)" fill="#2079f3"/>
        <path id="Trazado_1000150" data-name="Trazado 1000150" d="M203.108,30.927a3.177,3.177,0,0,1-3.63,1.456,13.636,13.636,0,0,1-3.737-1.929,2.526,2.526,0,0,0-2.124-.491" transform="translate(-105.413 -16.263)" fill="none" stroke="#15260d" stroke-linecap="round" stroke-linejoin="round" stroke-width="0.75"/>
        <path id="Trazado_1000151" data-name="Trazado 1000151" d="M208.374,31.474a3.634,3.634,0,0,1-1.595,2.9,4.16,4.16,0,0,1-3.1.554,7.341,7.341,0,0,1-2.926-1.394" transform="translate(-109.298 -17.136)" fill="none" stroke="#12263f" stroke-linecap="round" stroke-linejoin="round" stroke-width="0.75"/>
        <path id="Trazado_1000152" data-name="Trazado 1000152" d="M209.018,39.062a3.4,3.4,0,0,1-3.031,1.567,7.88,7.88,0,0,1-3.338-1.046" transform="translate(-110.331 -21.267)" fill="none" stroke="#12263f" stroke-linecap="round" stroke-linejoin="round" stroke-width="0.75"/>
        <path id="Trazado_1000153" data-name="Trazado 1000153" d="M187.325,27.088a9.516,9.516,0,0,0-5.879,4.277" transform="translate(-98.787 -14.748)" fill="none" stroke="#15260d" stroke-linecap="round" stroke-linejoin="round" stroke-width="0.75"/>
        <path id="Trazado_1000154" data-name="Trazado 1000154" d="M194.472,10.456c.03-.125.063-.249.085-.374a.141.141,0,0,0-.181-.157v0c-.027-.137-.2-.106-.192.031s0,.3-.006.447a4.663,4.663,0,0,1-1.375,2.2c-1.022.833-2.134.508-3.268.21a8.221,8.221,0,0,0-5.451.4,8.123,8.123,0,0,0-3.942,3.773,9.06,9.06,0,0,0-.892,2.788,9.6,9.6,0,0,0-.118,1.454v.011a3.543,3.543,0,0,0,.23,1.328.234.234,0,0,0,.058.08c.02.038.036.079.058.116.085.14.243.03.252-.105a.221.221,0,0,0,.071-.159c.029-.542-.088-1.08-.075-1.626a8.291,8.291,0,0,1,.159-1.424,8.176,8.176,0,0,1,.246-.92,5.926,5.926,0,0,1,1.156-1.707,6.574,6.574,0,0,1,5.5-1.718,22.565,22.565,0,0,0,3.241.493,4.493,4.493,0,0,0,2.336-.739,4.739,4.739,0,0,0,1.695-1.983,5.319,5.319,0,0,0,.413-1.342,3.16,3.16,0,0,0,0-1.077" transform="translate(-97.526 -5.353)" fill="#ffe76d"/>
        <path id="Trazado_1000155" data-name="Trazado 1000155" d="M202.37,13.6a7.072,7.072,0,0,1-7.412,2.128" transform="translate(-106.144 -7.407)" fill="none" stroke="#12263f" stroke-linecap="round" stroke-linejoin="round" stroke-width="0.75"/>
        <path id="Trazado_1000156" data-name="Trazado 1000156" d="M165.776.2a1.582,1.582,0,0,1,1.686.127A4.722,4.722,0,0,1,168.78,1.81a10.768,10.768,0,0,1,1.1,2.087,6.03,6.03,0,0,1,.411,2.3,4.19,4.19,0,0,1,.015.513,6.512,6.512,0,0,1-.157,1.151c-.046.212-.093.437-.157.653a2.989,2.989,0,0,1-.173.644c-.029.069-.11.025-.116-.035,0-.014,0-.03,0-.044a.1.1,0,0,1-.132-.109,3.933,3.933,0,0,1,.191-.953c.055-.361.128-.721.169-1.059.017-.137.025-.272.033-.408,0-.052,0-.1,0-.156a3.516,3.516,0,0,0-.868-2.129A7.154,7.154,0,0,0,167.512,2.9a5.518,5.518,0,0,1-1.663-1.208c-.271-.375-.518-1.155-.074-1.5" transform="translate(-90.123 0)" fill="#ff6a7d"/>
        <path id="Trazado_1000157" data-name="Trazado 1000157" d="M155.856.158A.147.147,0,0,1,156.14.2a4.977,4.977,0,0,0,3.239,3.977,8.3,8.3,0,0,1,3.7,2.393,10.069,10.069,0,0,1,1.929,4.521,5.712,5.712,0,0,1,.024,2.623,5.771,5.771,0,0,1-.508,1.611.162.162,0,1,1-.293-.138c.018-.038.029-.077.046-.115a.156.156,0,0,1-.02-.173,5.1,5.1,0,0,0,.418-1.212,7.924,7.924,0,0,0-.231-3.123,5.817,5.817,0,0,0-.456-.99,8.013,8.013,0,0,0-4.028-3.112,8.5,8.5,0,0,1-3.672-2.443,3.716,3.716,0,0,1-.427-3.863" transform="translate(-84.661 -0.034)" fill="#ffe1cb"/>
        <path id="Trazado_1000158" data-name="Trazado 1000158" d="M161.451,12.209a20.432,20.432,0,0,1,5.015,2.747,5.419,5.419,0,0,1,1.413,1.4,2.521,2.521,0,0,1,.359,1.995" transform="translate(-87.901 -6.647)" fill="none" stroke="#12263f" stroke-linecap="round" stroke-linejoin="round" stroke-width="0.75"/>
        <path id="Trazado_1000159" data-name="Trazado 1000159" d="M132.759,24.918a10.493,10.493,0,0,1,2.678-6.13.3.3,0,0,1,.533.25,22.8,22.8,0,0,0-.051,5.012,3.292,3.292,0,0,0,2.263,2.491,3.893,3.893,0,0,0,3.26-.883,7.345,7.345,0,0,0,.783-.721,5.63,5.63,0,0,1,1.927-3.3c1.557-1.013,3.715-.347,5.164.6a7.33,7.33,0,0,1,2.042,1.983,4.782,4.782,0,0,1,1,2.521c0,.948-.5,1.3-1.293,1.044a4.94,4.94,0,0,1-2.144-1.777,5.421,5.421,0,0,0-2.706-2.175,2.755,2.755,0,0,0-2.393.483.73.73,0,0,0-.143-.007.792.792,0,0,0-.488.191,2.815,2.815,0,0,0-.674,1.013,9.429,9.429,0,0,0-.463,1.385c-.054.2-.1.395-.15.592a5.725,5.725,0,0,1-2.394,2.978,4.351,4.351,0,0,1-4.488-.234,6.127,6.127,0,0,1-2.268-5.319" transform="translate(-72.276 -10.165)" fill="#2079f3"/>
        <path id="Trazado_1000160" data-name="Trazado 1000160" d="M140.143,30.927a3.177,3.177,0,0,0,3.63,1.456,13.633,13.633,0,0,0,3.737-1.929,2.526,2.526,0,0,1,2.124-.491" transform="translate(-76.3 -16.263)" fill="none" stroke="#15260d" stroke-linecap="round" stroke-linejoin="round" stroke-width="0.75"/>
        <path id="Trazado_1000161" data-name="Trazado 1000161" d="M137.11,31.474a3.634,3.634,0,0,0,1.595,2.9,4.16,4.16,0,0,0,3.1.554,7.34,7.34,0,0,0,2.927-1.394" transform="translate(-74.649 -17.136)" fill="none" stroke="#12263f" stroke-linecap="round" stroke-linejoin="round" stroke-width="0.75"/>
        <path id="Trazado_1000162" data-name="Trazado 1000162" d="M137.965,39.062A3.4,3.4,0,0,0,141,40.629a7.877,7.877,0,0,0,3.338-1.046" transform="translate(-75.114 -21.267)" fill="none" stroke="#12263f" stroke-linecap="round" stroke-linejoin="round" stroke-width="0.75"/>
        <path id="Trazado_1000163" data-name="Trazado 1000163" d="M160.242,27.088a9.517,9.517,0,0,1,5.879,4.277" transform="translate(-87.243 -14.748)" fill="none" stroke="#12263f" stroke-linecap="round" stroke-linejoin="round" stroke-width="0.75"/>
        <path id="Trazado_1000164" data-name="Trazado 1000164" d="M141.681,10.456c-.03-.125-.063-.249-.085-.374a.141.141,0,0,1,.181-.157v0c.027-.137.2-.106.192.031s0,.3.006.447a4.664,4.664,0,0,0,1.375,2.2c1.022.833,2.134.508,3.268.21a8.221,8.221,0,0,1,5.451.4,8.121,8.121,0,0,1,3.942,3.773,9.063,9.063,0,0,1,.892,2.788,9.618,9.618,0,0,1,.118,1.454v.011a3.524,3.524,0,0,1-.23,1.328.233.233,0,0,1-.058.08c-.02.038-.036.079-.057.116-.085.14-.244.03-.252-.105a.221.221,0,0,1-.071-.159c-.029-.542.088-1.08.075-1.626a7.859,7.859,0,0,0-.406-2.344,5.909,5.909,0,0,0-1.156-1.707,6.574,6.574,0,0,0-5.5-1.718,22.557,22.557,0,0,1-3.241.493,4.491,4.491,0,0,1-2.335-.739,4.74,4.74,0,0,1-1.7-1.983,5.338,5.338,0,0,1-.413-1.342,3.159,3.159,0,0,1,0-1.077" transform="translate(-77.09 -5.353)" fill="#ffe76d"/>
        <path id="Trazado_1000165" data-name="Trazado 1000165" d="M143.364,13.6a7.072,7.072,0,0,0,7.412,2.128" transform="translate(-78.054 -7.407)" fill="none" stroke="#12263f" stroke-linecap="round" stroke-linejoin="round" stroke-width="0.75"/>
        <path id="Trazado_1000166" data-name="Trazado 1000166" d="M259.023,6.044a.365.365,0,0,0-.721-.108,57.139,57.139,0,0,1-3.546,9.7c-.1.184-.188.369-.288.551a17.079,17.079,0,0,1-5.582,6.106,24.112,24.112,0,0,1-14.975,3.566,28.853,28.853,0,0,1-7.766-1.685,45.994,45.994,0,0,1-7.295-3.669c-.722-.419-1.453-.832-2.194-1.223a16.919,16.919,0,0,0,3,.449c1.285.109,2.57.237,3.857.314a13.3,13.3,0,0,0,6.561-1.1c3.983-1.86,6.6-5.654,7.807-10.166A50.635,50.635,0,0,0,239.157.51a.418.418,0,0,0-.824-.123,26.176,26.176,0,0,1-6.353,11.389,21.316,21.316,0,0,1-11.391,6.259,24.053,24.053,0,0,1-5.594.439,16.508,16.508,0,0,0-3.483-1.16,13.573,13.573,0,0,0-7.867.751,8.012,8.012,0,0,0-4.85,4.78c-.022.069-.04.139-.059.209a20.21,20.21,0,0,0-3.1,1.623c-2.188,1.394-4.354,3.128-6.91,3.559a7.808,7.808,0,0,1-6.7-2.224c-1.664-1.659-3.006-4.758-1.143-6.863.024-.027.051-.045.077-.071,1.1-.3,2.021,1.271,2.531,2.146s1.123,1.833,2.1,2.089a2.047,2.047,0,0,0,2.279-.722c.633-1.015,0-2.156-.668-2.912-1.515-1.724-3.954-3.3-6.124-2.086-1.985,1.111-2.5,3.951-1.775,6.105a8.779,8.779,0,0,0,4.9,5.1,8.677,8.677,0,0,0,7.05-.151c2.354-1.055,4.38-2.789,6.671-3.982.189-.1.384-.185.576-.275a8.013,8.013,0,0,0,1.441,5.228c2.678,3.7,8.823,4.162,11.461.144a4.9,4.9,0,0,0-.956-6.288c-1.986-1.78-4.879-1.879-7.309-1.6a15.929,15.929,0,0,0-3.008.654,5.747,5.747,0,0,1,1.529-1.983,11.415,11.415,0,0,1,7.6-2.321,17.417,17.417,0,0,1,7.8,2.585,80.172,80.172,0,0,0,7.106,3.832,43.708,43.708,0,0,0,14.665,3.722,23.081,23.081,0,0,0,7.692-.984,21.975,21.975,0,0,0,7.034-3.54,12.431,12.431,0,0,0,4.229-6.892,36.98,36.98,0,0,0,1.246-10.914M206.137,23.013a5.97,5.97,0,0,1,3.766,1.5A3.712,3.712,0,0,1,211.01,28c-.622,2.49-3.371,3.5-5.46,3.4a6.217,6.217,0,0,1-5.563-3.966,6.4,6.4,0,0,1-.309-3.531,14.933,14.933,0,0,1,6.459-.887" transform="translate(-97.445 -0.034)" fill="#2cbe91"/>
        <path id="Trazado_1000167" data-name="Trazado 1000167" d="M259.483,40.91a22.042,22.042,0,0,1-6.526-1.881" transform="translate(-137.721 -21.249)" fill="none" stroke="#12263f" stroke-linecap="round" stroke-linejoin="round" stroke-width="0.75"/>
        <path id="Trazado_1000168" data-name="Trazado 1000168" d="M289.513,15.125c-2.462,6.2-7.973,10.787-14.042,11.7" transform="translate(-149.979 -8.235)" fill="none" stroke="#12263f" stroke-linecap="round" stroke-linejoin="round" stroke-width="0.75"/>
        <path id="Trazado_1000169" data-name="Trazado 1000169" d="M323.045,23.622c-1.751,5.791-5.274,11.169-10.317,13.667a18.885,18.885,0,0,1-3.149,1.194,26.3,26.3,0,0,1-11.353.732" transform="translate(-162.367 -12.861)" fill="none" stroke="#15260d" stroke-linecap="round" stroke-linejoin="round" stroke-width="0.75"/>
        <path id="Trazado_1000170" data-name="Trazado 1000170" d="M226.2,45.355a7.1,7.1,0,0,0-2,5.773" transform="translate(-122.051 -24.693)" fill="none" stroke="#12263f" stroke-linecap="round" stroke-linejoin="round" stroke-width="0.75"/>
        <path id="Trazado_1000171" data-name="Trazado 1000171" d="M223.36,45.454a7.948,7.948,0,0,0-1.291,4.93" transform="translate(-120.894 -24.747)" fill="none" stroke="#15260d" stroke-linecap="round" stroke-linejoin="round" stroke-width="0.75"/>
        <path id="Trazado_1000172" data-name="Trazado 1000172" d="M225.473,49.862a12.07,12.07,0,0,1,1.993-.8" transform="translate(-122.757 -26.712)" fill="none" stroke="#12263f" stroke-linecap="round" stroke-linejoin="round" stroke-width="0.75"/>
        <path id="Trazado_1000173" data-name="Trazado 1000173" d="M181.423,42.476a3.655,3.655,0,0,1,.888-1.654,2.276,2.276,0,0,1,.826-.43,3.48,3.48,0,0,1,3.67.975,1.966,1.966,0,0,1,.531,1.312c-.018.492-.373.984-.819.982" transform="translate(-98.775 -21.9)" fill="none" stroke="#12263f" stroke-linecap="round" stroke-linejoin="round" stroke-width="0.75"/>
        <path id="Trazado_1000174" data-name="Trazado 1000174" d="M1.266,16.958A12.43,12.43,0,0,0,5.494,23.85a21.98,21.98,0,0,0,7.034,3.54,23.094,23.094,0,0,0,7.692.984,43.706,43.706,0,0,0,14.664-3.722,80.288,80.288,0,0,0,7.106-3.832,17.42,17.42,0,0,1,7.8-2.585,11.415,11.415,0,0,1,7.6,2.321,5.742,5.742,0,0,1,1.529,1.983,15.924,15.924,0,0,0-3.008-.654c-2.431-.282-5.324-.183-7.309,1.6a4.9,4.9,0,0,0-.955,6.288c2.638,4.018,8.783,3.558,11.461-.144A8.013,8.013,0,0,0,60.547,24.4c.193.09.387.176.576.275,2.291,1.192,4.317,2.926,6.671,3.982a8.675,8.675,0,0,0,7.05.15,8.779,8.779,0,0,0,4.9-5.1c.729-2.155.21-4.995-1.775-6.105-2.169-1.214-4.608.361-6.124,2.086-.664.756-1.3,1.9-.668,2.912a2.046,2.046,0,0,0,2.279.722c.974-.255,1.585-1.212,2.1-2.089s1.431-2.445,2.532-2.146c.025.026.052.044.076.071,1.863,2.1.521,5.2-1.143,6.863a7.808,7.808,0,0,1-6.7,2.224c-2.556-.431-4.721-2.165-6.91-3.559a20.171,20.171,0,0,0-3.1-1.623c-.02-.07-.037-.14-.059-.209a8.015,8.015,0,0,0-4.85-4.78,13.571,13.571,0,0,0-7.867-.751,16.516,16.516,0,0,0-3.483,1.16,24.08,24.08,0,0,1-5.594-.439,21.315,21.315,0,0,1-11.391-6.259A26.174,26.174,0,0,1,20.709.387a.418.418,0,0,0-.824.123,50.676,50.676,0,0,0,1.274,8.278c1.206,4.511,3.823,8.306,7.807,10.166a13.3,13.3,0,0,0,6.561,1.1c1.287-.077,2.572-.205,3.856-.314a16.914,16.914,0,0,0,3-.449c-.741.391-1.472.8-2.194,1.223A45.994,45.994,0,0,1,32.9,24.179a28.849,28.849,0,0,1-7.766,1.685A24.112,24.112,0,0,1,10.156,22.3a17.082,17.082,0,0,1-5.582-6.106c-.1-.181-.193-.367-.287-.551A57.159,57.159,0,0,1,.74,5.936a.365.365,0,0,0-.72.108A36.961,36.961,0,0,0,1.266,16.958m58.1,6.941a6.4,6.4,0,0,1-.308,3.531A6.219,6.219,0,0,1,53.493,31.4c-2.09.1-4.838-.908-5.461-3.4a3.715,3.715,0,0,1,1.107-3.481,5.973,5.973,0,0,1,3.766-1.5,14.933,14.933,0,0,1,6.459.887" transform="translate(0 -0.034)" fill="#2cbe91"/>
        <path id="Trazado_1000175" data-name="Trazado 1000175" d="M87.443,40.91a22.042,22.042,0,0,0,6.526-1.881" transform="translate(-47.608 -21.249)" fill="none" stroke="#12263f" stroke-linecap="round" stroke-linejoin="round" stroke-width="0.75"/>
        <path id="Trazado_1000176" data-name="Trazado 1000176" d="M48.43,15.125c2.462,6.2,7.973,10.787,14.042,11.7" transform="translate(-26.367 -8.235)" fill="none" stroke="#15260d" stroke-linecap="round" stroke-linejoin="round" stroke-width="0.75"/>
        <path id="Trazado_1000177" data-name="Trazado 1000177" d="M2.019,23.622C3.77,29.413,7.293,34.791,12.336,37.289a18.889,18.889,0,0,0,3.149,1.194,26.3,26.3,0,0,0,11.353.732" transform="translate(-1.099 -12.861)" fill="none" stroke="#15260d" stroke-linecap="round" stroke-linejoin="round" stroke-width="0.75"/>
        <path id="Trazado_1000178" data-name="Trazado 1000178" d="M126.1,45.355a7.1,7.1,0,0,1,2,5.773" transform="translate(-68.654 -24.693)" fill="none" stroke="#15260d" stroke-linecap="round" stroke-linejoin="round" stroke-width="0.75"/>
        <path id="Trazado_1000179" data-name="Trazado 1000179" d="M129.8,45.454a7.947,7.947,0,0,1,1.291,4.93" transform="translate(-70.669 -24.747)" fill="none" stroke="#12263f" stroke-linecap="round" stroke-linejoin="round" stroke-width="0.75"/>
        <path id="Trazado_1000180" data-name="Trazado 1000180" d="M126.869,49.862a12.071,12.071,0,0,0-1.994-.8" transform="translate(-67.987 -26.712)" fill="none" stroke="#12263f" stroke-linecap="round" stroke-linejoin="round" stroke-width="0.75"/>
        <path id="Trazado_1000181" data-name="Trazado 1000181" d="M166.231,42.476a3.661,3.661,0,0,0-.888-1.654,2.276,2.276,0,0,0-.826-.43,3.48,3.48,0,0,0-3.67.975,1.966,1.966,0,0,0-.531,1.312c.018.492.373.984.819.982" transform="translate(-87.282 -21.9)" fill="none" stroke="#15260d" stroke-linecap="round" stroke-linejoin="round" stroke-width="0.75"/>
        <path id="Trazado_1000182" data-name="Trazado 1000182" d="M177.676,33.792a2.043,2.043,0,1,0-2.033,2.246,2.148,2.148,0,0,0,2.033-2.246" transform="translate(-94.521 -17.175)" fill="#2cbe91"/>
      </g>
    </g>
    <g id="Grupo_1186068" data-name="Grupo 1186068" transform="translate(1261.029 2505.482)">
      <g id="Grupo_1184024" data-name="Grupo 1184024" transform="translate(0 0)">
        <rect id="Rectángulo_455879-2" data-name="Rectángulo 455879" width="56.865" height="54.601" transform="translate(0.428)" fill="#ffb57d"/>
        <path id="Trazado_1000145-2" data-name="Trazado 1000145" d="M0,2.493H1.52a2.49,2.49,0,0,1,4.981,0H8.634V2.488a2.49,2.49,0,1,1,4.981.005h1.993V2.488a2.49,2.49,0,1,1,4.981.005h2.086V2.488a2.49,2.49,0,1,1,4.981.005h2.16V2.488a2.49,2.49,0,1,1,4.981.005H36.83a2.49,2.49,0,0,1,4.981,0h2.1V2.488a2.49,2.49,0,1,1,4.981.005H51V2.488a2.49,2.49,0,1,1,4.981.005h1.737" transform="translate(57.721 56.553) rotate(180)" fill="#ffb57d"/>
      </g>
      <path id="Trazado_1026845" data-name="Trazado 1026845" d="M43.276,9.378C43.1,6.246,41.115,4.4,37.558,5.73a38.981,38.981,0,0,1-4.973,1.363c-.3-1.164-.608-2.357-.829-3.285l-.03.015c-.075-.313-.14-.6-.193-.839C31.163,1.277,29.94-.094,28.195.005L13.938.816c-1.745.1-2.639,1.625-2.98,3.339-.18.905-.4,2.406-.6,3.9C7.483,7.8,5.284,7.565,5.284,7.565,1.04,6.723-.161,8.706.017,11.838c.31,5.454,10.626,11.351,22.307,10.687S43.586,14.832,43.276,9.378" transform="translate(7.025 17.368) rotate(-1)" fill="#ffb57d" style="mix-blend-mode: multiply;isolation: isolate"/>
    </g>
    <g id="limpiar" transform="translate(1177.165 2331.973)">
      <path id="Trazado_1140049" data-name="Trazado 1140049" d="M135.843,76.42a9.779,9.779,0,0,0-2.883-6.961L82.821,19.321a9.843,9.843,0,0,0-13.921,0L18.762,69.459c-1.859,1.859-5.518,7.771,0,13.921L68.9,133.518a9.928,9.928,0,0,0,13.921,0l7.6-7.6a6.7,6.7,0,0,0,5.544-.6l10.615,10.615c1.281,1.378,3.9-.587,2.292-2.292L97.257,122.013a1.673,1.673,0,0,0-2.292,0,3.442,3.442,0,0,1-4.862,0L54.24,86.15a3.26,3.26,0,1,1,4.611-4.61L75.417,98.106a1.621,1.621,0,1,0,2.293-2.292L52.42,70.525a3.526,3.526,0,0,1,4.987-4.987l.063.063L80,88.129a1.621,1.621,0,1,0,2.292-2.292l-28.3-28.3a3.526,3.526,0,0,1,4.987-4.987l28.3,28.3c1.043,1.357,3.872-.3,2.292-2.292L65.661,54.649a3.526,3.526,0,0,1,4.987-4.987L94.294,73.308a1.722,1.722,0,0,0,2.555.262,1.807,1.807,0,0,0-.094-2.387l-5.84-10.838a6.057,6.057,0,0,1,2.459-8.2,2.375,2.375,0,0,1,3.214.963L108.83,75.825a27.953,27.953,0,0,1,2.56,6.688l3.144,13.027a25.174,25.174,0,0,0,6.674,11.9l6.933,6.933c1.44,1.428,3.885-.714,2.292-2.292l-6.933-6.932a21.945,21.945,0,0,1-4.88-7.428L132.959,83.38a9.779,9.779,0,0,0,2.883-6.96Zm-5.176,4.668L117.548,94.207l-3.006-12.455a31.154,31.154,0,0,0-2.857-7.464L99.442,51.567a5.62,5.62,0,0,0-7.606-2.28,9.3,9.3,0,0,0-3.775,12.6l.708,1.315L84.4,58.829,72.94,47.369a6.761,6.761,0,0,0-11.36,3.2,6.839,6.839,0,0,0-9.883-.311,6.763,6.763,0,0,0,0,9.572l1.633,1.633a6.755,6.755,0,0,0-3.2,11.357l4.751,4.751a6.49,6.49,0,0,0-2.931,10.874L87.63,124.125l-7.1,7.1c-2.236,2.541-6.83,2.541-9.336,0L21.055,81.088a6.638,6.638,0,0,1,0-9.336L71.193,21.614a6.607,6.607,0,0,1,9.336,0l50.138,50.138a6.5,6.5,0,0,1,0,9.336Z" fill="#2079f3"/>
      <path id="Trazado_1140050" data-name="Trazado 1140050" d="M43.653,183a1.622,1.622,0,0,0-1.527-1.619c-2.214-.1-8.99-.522-9.341-3.72-.8-4.664-1.387-9.584-1.394-9.634a1.621,1.621,0,0,0-3.218,0c-.006.05-.629,5.089-1.394,9.634-.426,2.529-6.476,3.7-9.341,3.865a1.621,1.621,0,0,0,0,3.237c2.21.121,8.947.558,9.341,3.721.7,4.326,1.388,9.583,1.394,9.633a1.621,1.621,0,0,0,3.218,0c.006-.05.628-5.087,1.394-9.633.426-2.53,6.478-3.7,9.341-3.866A1.621,1.621,0,0,0,43.653,183Zm-13.865,4.153a6.862,6.862,0,0,0-4.232-4.186A7.3,7.3,0,0,0,29.774,179a6.865,6.865,0,0,0,4.232,4.185,7.306,7.306,0,0,0-4.218,3.975Z" transform="translate(-0.031 -69.021)" fill="#2079f3"/>
      <path id="Trazado_1140051" data-name="Trazado 1140051" d="M57.729,130.672a4.681,4.681,0,0,1-3.257-1.038c-1.066-.64-1.909-3.576-1.98-5.368-.078-1.973-3.151-1.9-3.229,0-.073,1.793-.913,4.729-1.98,5.369a5.39,5.39,0,0,1-3.257,1.038,1.616,1.616,0,0,0-.485,3.134s3.132.918,3.984,2.057h0c.859,1.157,1.752,5.794,1.77,6.108.237,1.578,2.906,1.745,3.164,0,.046-.311.924-5.131,1.77-6.109.82-1.094,3.984-2.057,3.984-2.057a1.621,1.621,0,0,0-.485-3.134Zm-6.851,4.587a6.41,6.41,0,0,0-2.19-2.653,5.283,5.283,0,0,0,2.19-2.313,6.278,6.278,0,0,0,2.19,2.314,6.221,6.221,0,0,0-2.19,2.653Z" transform="translate(-12.242 -48.892)" fill="#2079f3"/>
      <path id="Trazado_1140052" data-name="Trazado 1140052" d="M212.538,60.757a5.667,5.667,0,0,1-3.053.973c-1.067-.038-2.643,1.853-.485,3.135,0,0,2.975.925,3.748,1.929.573.631,1.167,3.439,1.451,4.789a7.786,7.786,0,0,1,.209.971,1.618,1.618,0,0,0,3.164,0c.039-.3.134-.618.208-.967.285-1.35.878-4.161,1.452-4.792.871-1.027,3.748-1.929,3.748-1.929a1.627,1.627,0,0,0-.485-3.135,5.246,5.246,0,0,1-3.053-.973c-.944-.566-1.766-3.28-1.839-5.03a1.623,1.623,0,0,0-3.229,0c-.073,1.748-.888,4.459-1.839,5.03Zm3.453.861a5.024,5.024,0,0,0,1.93,2.032,5.706,5.706,0,0,0-1.93,2.31,5.56,5.56,0,0,0-1.93-2.31,4.9,4.9,0,0,0,1.93-2.032Z" transform="translate(-88.285 -17.39)" fill="#2079f3"/>
      <path id="Trazado_1140053" data-name="Trazado 1140053" d="M69.531,208.467a5.246,5.246,0,0,1-3.053-.973c-.944-.566-1.828-3.627-1.9-5.376a1.623,1.623,0,0,0-3.229,0,11.586,11.586,0,0,1-1.448,4.944,5.639,5.639,0,0,1-3.519,1.45c-1.711.045-2.747,2.161-.54,3.242,0,0,3.009.975,3.783,1.979.765.948,1.736,5.693,1.756,5.992a1.626,1.626,0,0,0,3.2.045c.039-.3,1.036-5.134,1.677-6.053.71-1.017,3.748-1.929,3.748-1.929,2.275-1.024,1.329-3.411-.472-3.321Zm-6.575,4.638a7.319,7.319,0,0,0-2.207-2.657,4.852,4.852,0,0,0,2.168-2.3,6.846,6.846,0,0,0,2.291,2.347,5.492,5.492,0,0,0-2.251,2.612Z" transform="translate(-17.807 -84.674)" fill="#2079f3"/>
      <path id="Trazado_1140054" data-name="Trazado 1140054" d="M177.877,32.529s4.875,1.561,6.377,3.629c1.65,2.345,2.864,10.053,2.927,10.56a1.623,1.623,0,0,0,3.175,0c.366-1.37,1.357-8.395,2.926-10.559,1.313-1.889,6.378-3.63,6.378-3.63a1.62,1.62,0,0,0-.518-3.118,9.666,9.666,0,0,1-5.294-1.826c-2.81-2.142-3.47-9.681-3.469-9.69a1.618,1.618,0,0,0-3.221,0c-.254,2.76-1.392,8.338-3.254,9.569a9.171,9.171,0,0,1-5.508,1.946,1.625,1.625,0,0,0-.518,3.118Zm10.891-6.979a9.487,9.487,0,0,0,5.254,5.938c-4.066,2.286-4.7,5.215-5.254,7.235-.553-2.019-1.153-4.993-5.248-7.236a9.337,9.337,0,0,0,5.248-5.937Z" transform="translate(-74.018 0)" fill="#2079f3"/>
    </g>
  </g>
</svg>
