<svg xmlns="http://www.w3.org/2000/svg" xmlns:xlink="http://www.w3.org/1999/xlink" width="289.431" height="60.31" viewBox="0 0 289.431 60.31">
  <defs>
    <clipPath id="clip-path">
      <rect id="Rectángulo_456129" data-name="Rectángulo 456129" width="68.242" height="43.172" fill="#cc3e50"/>
    </clipPath>
  </defs>
  <g id="Grupo_1187025" data-name="Grupo 1187025" transform="translate(14378.455 12045.069)">
    <path id="Trazado_1026851" data-name="Trazado 1026851" d="M441.223,707.061v.05c.01.137.02.271.034.406l.007.072a9.489,9.489,0,0,0,.216,1.25c.033.144.072.29.115.432l.007.027.033.106c.022.076.05.151.077.225l.016.05.007.022.06.173v.009c.056.151.116.3.185.447v.014a7.7,7.7,0,0,0,1.589,2.332A8.33,8.33,0,0,0,448.833,715h.05q.209.017.425.026h.029c.157.008.314.01.473.01h.018a15.007,15.007,0,0,0,6.754-1.778c.139-.07.276-.144.415-.221s.29-.159.434-.244l.018-.012a20.22,20.22,0,0,0,3.839-2.932c.086-.081.172-.161.256-.244.182-.182.357-.365.53-.55a18.262,18.262,0,0,0,4.662-8.751c.033-.173.063-.348.089-.516s.05-.341.07-.511a10.279,10.279,0,0,0-.6-5.065c.97-.741,1.977-1.529,3.008-2.345l.036-.029q.48-.38.969-.772c2.26-1.811,4.612-3.745,6.918-5.682l.187-.156c.173-.144.348-.291.519-.435l.06-.052c2.361-1.986,4.656-3.95,6.726-5.751l.047-.041.514-.447.175-.153c1.771-1.543,3.363-2.94,4.662-4.1l.37-.331.013-.011.348-.309.014-.012c1.468-1.315,2.471-2.238,2.812-2.579a5.9,5.9,0,0,0,1.275-1.881c.034-.086.067-.168.1-.254v-.007c.031-.084.06-.168.089-.254v-.007c.029-.086.054-.173.077-.261s.045-.177.065-.264a5.963,5.963,0,0,0-1.608-5.512,5.848,5.848,0,0,0-1.043-.828l-.024-.014c-.083-.052-.166-.1-.249-.146l-.077-.043c-.083-.045-.166-.087-.252-.128l-.083-.041c-.086-.038-.173-.074-.261-.11l-.079-.034c-.116-.043-.232-.084-.341-.116l-.232-.069h-.014c-.146-.041-.295-.077-.442-.1h-.01c-.116-.022-.24-.041-.362-.056-.081-.012-.161-.016-.242-.023-.038,0-.077-.009-.116-.011h-.048c-.069,0-.141-.007-.211-.007h-.66a.391.391,0,0,0-.1.009l-.06.007-.056.007h-.036l-.125.02a.5.5,0,0,0-.1.016h-.023c-.086.016-.168.031-.254.05-.034.009-.068.016-.1.022s-.1.024-.144.038-.079.02-.116.032l-.134.04-.125.041c-.043.014-.086.029-.128.046s-.088.031-.132.05l-.116.047-.146.063-.1.045-.238.116-.064.036c-.058.031-.116.062-.178.1l-.089.054c-.05.031-.1.06-.147.092l-.094.062c-.048.031-.094.065-.139.1l-.092.067-.139.108c-.026.022-.056.045-.086.067-.047.043-.1.083-.146.126-.022.02-.048.04-.069.062-.07.062-.139.13-.209.2-.02.022-.045.048-.069.072l-.032.031-.053.056-.039.039c-.022.026-.049.053-.076.083s-.054.056-.081.086l-.031.034c-.029.029-.056.06-.088.091l-.007.007c-.06.067-.128.139-.2.216l-.018.02c-.365.4-.839.914-1.406,1.545-.1.108-.2.223-.3.336l-.026.029-.319.357c-1.053,1.176-2.342,2.633-3.774,4.276l-.58.667c-.02.025-.041.048-.062.07-.948,1.089-1.951,2.249-2.985,3.457l-.676.787c-1.776,2.076-3.63,4.273-5.45,6.474q-.451.543-.9,1.087l-.007.009c-1.791,2.179-3.53,4.343-5.111,6.373-.144.187-.288.368-.427.55l-.016.022c-.146.186-.287.37-.429.554l-.036.048-.1-.038c-.147-.056-.295-.111-.442-.159h-.012l-.022-.007c-.06-.02-.116-.036-.182-.053s-.157-.05-.238-.072h-.009l-.05-.014a.5.5,0,0,1-.065-.016c-.116-.028-.225-.056-.339-.081a.4.4,0,0,0-.056-.011l-.022-.007c-.13-.026-.262-.052-.4-.074l-.094-.013c-.128-.02-.259-.039-.388-.054-.036,0-.07-.01-.1-.012-.132-.016-.262-.024-.4-.034l-.1-.009c-.139-.007-.278-.014-.419-.016h-.585a15.934,15.934,0,0,0-8.055,2.725q-.245.161-.492.329c-.149.1-.294.209-.44.317l-.05.033a21.027,21.027,0,0,0-2.344,2.021c-.166.166-.329.334-.485.5-.052.054-.1.108-.149.159-.11.116-.218.24-.324.362-.052.06-.105.116-.156.18-.1.123-.206.247-.307.37-.043.054-.087.108-.132.161-.139.175-.276.348-.408.527l-.052.072c-.116.155-.232.309-.337.464-.045.062-.087.127-.13.191-.081.116-.161.24-.238.36-.047.07-.092.142-.135.211-.076.116-.151.242-.225.365-.038.065-.079.13-.116.195-.1.177-.2.354-.3.534-.024.045-.048.09-.07.134l-.018.032c-.067.128-.132.256-.195.383-.043.081-.081.164-.115.245s-.081.17-.116.256l-.027.058c-.038.088-.079.175-.115.262l-.128.3c-.036.087-.072.175-.106.262-.056.136-.105.273-.155.413s-.092.26-.136.391c-.027.086-.056.17-.084.257-.033.105-.064.211-.1.316-.022.077-.045.154-.065.232-.029.11-.06.22-.087.331l-.047.2c-.045.193-.087.386-.123.58-.029.151-.058.3-.081.449-.012.065-.02.13-.029.195-.007.043-.014.084-.018.123v.016c-.007.053-.016.105-.022.159s-.018.134-.024.2c0,.048-.012.092-.014.14-.014.13-.024.259-.031.388v.077a11.546,11.546,0,0,0,0,1.3" transform="translate(-14664.575 -12699.8)" fill="#cc3e50"/>
    <path id="Trazado_1026852" data-name="Trazado 1026852" d="M375.186,664a23.95,23.95,0,0,0-18.29-3.717,29.4,29.4,0,0,0-6.911,2.157,30.111,30.111,0,0,0-2.818,1.443,31.941,31.941,0,0,0-5.542,4.059q-1.16,1.06-2.215,2.231a27.224,27.224,0,0,0-7.306,17.859,18.555,18.555,0,0,0,7.858,15.563,24.921,24.921,0,0,0,18.166,4.15,27.879,27.879,0,0,0,3.349-.713A28.614,28.614,0,0,0,368.2,704.2a29.954,29.954,0,0,0,6.037-4.607c.429-.422.842-.852,1.248-1.3,10-11.076,9.857-27.1-.3-34.293M338.9,700.269l-.034-.062.036.06c.054.074.11.141.17.211a2.54,2.54,0,0,1-.172-.209m11.75-29.288h0l-.036-.058ZM340.23,689.22a47.05,47.05,0,0,1,18.728-22.151l-.022-.067.036.06a.651.651,0,0,1,.909.083.712.712,0,0,1-.242.977l-.009.006c-7.7,5.991-11.914,11.03-18.051,21.57a1.671,1.671,0,0,1-.585.6l-.054.031a.659.659,0,0,1-.705.033c-.232-.187-.24-.61,0-1.14m4.291,7.538c-.029.016-.056.036-.084.052-.365.211-.557.142-.638.086-.231-.173-.166-.655.175-1.3,2.561-4.835,9.371-17.675,23.069-27.634a1.545,1.545,0,0,1,.139-.089c.362-.209.624-.137.745,0,.216.24.142.751-.362,1.194-8.938,7.837-14.148,14.127-22.3,26.915a2.593,2.593,0,0,1-.746.779m23.836-27.428.033.06Zm1.3,2.449h0l-.033-.056Zm-14.921,31.864.007-.5Zm-2.551-5.451a2.413,2.413,0,0,1-.689.72c-.029.02-.054.034-.081.05-.341.2-.523.133-.595.079-.216-.159-.157-.612.157-1.21,2.375-4.476,8.681-16.367,21.367-25.587a1.156,1.156,0,0,1,.127-.086c.337-.195.58-.127.7,0,.2.223.134.7-.337,1.111-8.271,7.258-13.094,13.081-20.642,24.922m19.375-19.715.033.06Zm8.866,8.5c-.067.245-.139.491-.213.736.071-.242.141-.489.21-.734l-.033-.065Zm-3.517-6.587h0l-.031-.063Zm.727-1.545c-7.695,5.991-11.911,11.032-18.05,21.57a1.638,1.638,0,0,1-.58.6.506.506,0,0,1-.056.028.658.658,0,0,1-.705.034c-.24-.185-.24-.61-.007-1.138a47.1,47.1,0,0,1,18.732-22.151l-.017-.074.036.065a.645.645,0,0,1,.9.089.71.71,0,0,1-.238.975l-.014.008" transform="translate(-14471.915 -12694.787)" fill="#cc3e50"/>
    <path id="Trazado_1026853" data-name="Trazado 1026853" d="M261.939,673.355l-1.3.83c-.072-.136-.153-.273-.238-.406-1.313-2.051-3.65-2.933-5.231-1.919a2.832,2.832,0,0,0-.943,1.07,1.538,1.538,0,0,0-.187-.348c-1.376-2.15-3.854-3.035-5.488-1.989a3.013,3.013,0,0,0-1.327,2.018c-1.528-1.726-3.767-2.393-5.322-1.392a3.259,3.259,0,0,0-1.38,2.1c-1.576-1.791-3.834-2.442-5.416-1.43a3.376,3.376,0,0,0-1.493,2.59c-1.74-1.826-4.161-2.464-5.869-1.372-1.582,1.015-2.088,3.206-1.406,5.38a3.671,3.671,0,0,0-3.491.136c-1.555,1-1.972,3.221-1.188,5.335a2.921,2.921,0,0,0-2.265.331,3.542,3.542,0,0,0-.988,4.319,2.407,2.407,0,0,0-1.486.391c-1.4.9-1.584,3.162-.4,5.015.108.166.218.283.324.446a1.139,1.139,0,0,0-.324.159c-1.457.933-1.665,3.261-.435,5.178.106.166.216.283.322.447-.048.033-.1.064-.151.1a2.381,2.381,0,0,0-.744,2.765l-2.287,1.461a2.014,2.014,0,0,0,2.1,3.275l.449-.29c3.863,4.479,11.791,5.3,20.532,2.639.339.533,1.406.481,2.332-.116l17.65-11.308c.952-.61,1.445-1.555,1.1-2.088,6.046-6.812,8.612-14.358,6.156-19.738l.478-.3a1.764,1.764,0,0,0,.171-2.443,1.741,1.741,0,0,0-2.268-.833" transform="translate(-14591.161 -12702.792)" fill="#cc3e50" fill-rule="evenodd"/>
    <g id="Grupo_1183598" data-name="Grupo 1183598" transform="translate(-14323.168 -12026.26) rotate(-16)">
      <g id="Grupo_1183591" data-name="Grupo 1183591" clip-path="url(#clip-path)">
        <path id="Trazado_1026847" data-name="Trazado 1026847" d="M63.94,14.511a10.3,10.3,0,0,0-14.927,8.743l-.486.057L29.453,0a12.794,12.794,0,0,0-4.4,11.117L23.009,9.972c-2.813,5.033-1.505,11.4,2.768,15.981l-8.088.939,0-.02-2.212.277-1.64.19s0,.01,0,.015L0,29.086S1.324,39.255,18.766,37.12C23.221,41.47,30.155,43.861,37.6,43c7.477-.868,13.7-4.814,17.03-10.1l.04.021.262-.52a17.671,17.671,0,0,0,1.02-2.026l1.854-3.681A5.58,5.58,0,0,0,65.4,24.6c1.523.767,1.355,2.9,1.355,2.9,2.929-5.815,1.309-10.912-2.81-12.987" transform="translate(0 0)" fill="#cc3e50"/>
      </g>
    </g>
  </g>
</svg>
