<svg xmlns="http://www.w3.org/2000/svg" width="288.162" height="51.438" viewBox="0 0 288.162 51.438">
  <g id="Grupo_1187026" data-name="Grupo 1187026" transform="translate(14378.454 12421.736)">
    <path id="Trazado_1026833" data-name="Trazado 1026833" d="M420.418,88.213c-.11-.177-.23-.351-.343-.528a8.7,8.7,0,0,1-1.48-3.9,6.163,6.163,0,0,1,.066-1.781,9.055,9.055,0,0,1,1.211-3.161c.239-.37.517-.713.8-1.1a.378.378,0,0,0,0-.132,6.027,6.027,0,0,1,.237-3.962,9.132,9.132,0,0,1,1.594-2.658,10.551,10.551,0,0,1,2.788-2.475c.246-.143.5-.28.763-.426a5.05,5.05,0,0,1,1.457-3.3,9.927,9.927,0,0,1,2.421-2.036,8.982,8.982,0,0,1,3.623-1.3,2.461,2.461,0,0,0,.13-.253,4.665,4.665,0,0,1,1.574-2.022,9.511,9.511,0,0,1,4.568-1.938,8.46,8.46,0,0,1,1.783-.026c.209.014.417.015.607.021.141-.121.256-.22.373-.324a8.759,8.759,0,0,1,5.015-1.981,9.782,9.782,0,0,1,4.42.6c.2.073.4.137.541.185a9.388,9.388,0,0,1,6.144-.5,9.2,9.2,0,0,1,5,3.472,5.428,5.428,0,0,1,1.738.16,7.5,7.5,0,0,1,2.778,1.348,7.661,7.661,0,0,1,1.259,1.165,5.341,5.341,0,0,1,1.239,2.733,4.667,4.667,0,0,1-1.255,3.925,9.244,9.244,0,0,1-1.63,1.449,8.054,8.054,0,0,0-1.059.972A32.506,32.506,0,0,1,463.9,72.93q-1.994,1.572-4.012,3.106c-.906.685-1.843,1.328-2.752,2-3.008,2.211-6.124,4.267-9.191,6.39-2.58,1.786-5.22,3.48-7.873,5.149q-2.687,1.687-5.451,3.25a52.7,52.7,0,0,1-5.845,2.871,2.677,2.677,0,0,1-.381.13,1.162,1.162,0,0,0-.551.294,1.2,1.2,0,0,1-.33.23,7.436,7.436,0,0,1-2.512.795,4.324,4.324,0,0,1-1.366-.048,3.448,3.448,0,0,1-1.237-.6,6.306,6.306,0,0,1-2.193-2.621,6.071,6.071,0,0,1-.471-2.36c0-.345.023-.692.045-1.038a4.863,4.863,0,0,1,.463-1.833c.066-.137.121-.28.191-.441" transform="translate(-14561.059 -12471.688)" fill="#1655aa"/>
    <path id="Trazado_1026834" data-name="Trazado 1026834" d="M349.906,59.963v-.047c-.009-.13-.019-.258-.032-.386l-.006-.068a9,9,0,0,0-.2-1.187c-.032-.137-.068-.275-.11-.41l-.007-.025-.032-.1c-.021-.072-.048-.143-.073-.213l-.015-.048-.006-.021-.057-.164v-.008c-.053-.143-.11-.283-.175-.424v-.014a7.312,7.312,0,0,0-1.508-2.213,7.9,7.9,0,0,0-5-2.211h-.047q-.2-.016-.4-.026h-.027c-.149-.006-.3-.008-.45-.008h-.016a14.243,14.243,0,0,0-6.41,1.687c-.132.066-.262.137-.394.209s-.275.151-.412.232l-.017.011a19.2,19.2,0,0,0-3.643,2.783c-.081.077-.164.153-.243.232-.173.173-.339.347-.5.522a17.332,17.332,0,0,0-4.425,8.305c-.031.164-.059.33-.084.49s-.048.323-.066.485a9.757,9.757,0,0,0,.569,4.807c-.92.7-1.876,1.451-2.854,2.227l-.034.027q-.456.361-.92.733c-2.145,1.719-4.377,3.555-6.565,5.393l-.177.149c-.164.137-.33.275-.492.413l-.057.05c-2.24,1.885-4.418,3.748-6.383,5.458l-.045.039-.488.423-.166.146c-1.681,1.464-3.192,2.79-4.425,3.891l-.351.313-.014.011-.33.294-.014.011c-1.393,1.248-2.345,2.124-2.669,2.448a5.605,5.605,0,0,0-1.21,1.785c-.032.082-.064.16-.094.242v.006c-.03.079-.057.16-.084.241v.006c-.028.082-.051.164-.073.248s-.043.166-.062.251a5.661,5.661,0,0,0,1.525,5.231,5.58,5.58,0,0,0,.991.786l.023.014c.079.05.157.093.236.138l.073.041c.079.043.158.082.239.121l.079.039c.081.036.164.07.247.1l.075.032c.11.041.22.079.323.11l.22.066h.013c.138.039.28.073.419.1h.009c.11.021.227.039.343.053.077.011.153.015.23.021.036,0,.073.008.11.011h.045c.066,0,.132.006.2.006h.626a.367.367,0,0,0,.1-.009l.057-.006.053-.006h.034l.119-.019a.487.487,0,0,0,.1-.015h.022c.082-.015.16-.03.241-.048.032-.008.064-.015.1-.021s.091-.023.137-.036.075-.019.11-.03l.128-.038.119-.039c.041-.014.081-.028.121-.043s.083-.03.125-.047l.11-.045.138-.06.1-.043.226-.11.061-.034c.055-.03.11-.059.169-.093l.084-.051c.048-.03.094-.057.139-.087l.089-.059c.045-.03.089-.062.132-.091l.087-.064.132-.1c.025-.021.053-.043.082-.064.045-.041.091-.079.138-.119.021-.019.045-.038.066-.059.066-.059.132-.123.2-.187.019-.021.043-.045.066-.068l.03-.03.05-.053.037-.037c.021-.025.047-.05.072-.079s.051-.053.077-.081l.03-.032c.025-.028.053-.057.082-.087l.006-.006c.057-.064.121-.132.187-.2l.017-.019c.347-.375.8-.867,1.333-1.466.094-.1.189-.211.287-.319l.026-.028.3-.339c1-1.116,2.222-2.5,3.583-4.058.182-.209.366-.419.55-.633a.829.829,0,0,1,.06-.066c.9-1.031,1.851-2.131,2.832-3.279l.642-.747c1.684-1.97,3.444-4.056,5.173-6.143q.428-.515.852-1.031l.007-.009c1.7-2.068,3.35-4.122,4.85-6.048.136-.177.272-.348.4-.521l.015-.021c.139-.177.273-.351.407-.526l.034-.045.1.037c.139.053.28.1.419.151h.011l.021.006c.057.019.11.034.173.051s.148.047.225.068h.009l.047.013a.541.541,0,0,1,.062.015c.11.028.213.053.321.077l.053.011.021.006c.124.025.249.05.376.07l.089.014c.121.019.245.036.369.05.034,0,.066.009.1.011.125.015.249.023.375.032l.1.009c.132.006.264.013.4.015h.555a15.123,15.123,0,0,0,7.645-2.587c.155-.1.311-.206.466-.314s.28-.2.417-.3l.047-.032a19.945,19.945,0,0,0,2.225-1.917c.157-.157.311-.317.46-.477.05-.051.093-.1.14-.151.1-.11.207-.227.307-.343.05-.057.1-.11.149-.17.1-.117.2-.234.292-.352l.125-.153c.132-.166.262-.33.388-.5l.05-.068c.11-.147.22-.294.319-.441.043-.059.082-.121.124-.182.077-.11.153-.227.225-.341.045-.066.087-.135.128-.2.073-.11.143-.23.213-.346.037-.062.075-.123.11-.185.1-.168.194-.337.285-.508.023-.043.045-.084.066-.128l.017-.055q.1-.182.185-.365c.041-.077.077-.155.11-.232s.077-.162.11-.243l.025-.055c.037-.082.075-.166.11-.249l.121-.287c.034-.083.068-.166.1-.249.053-.129.1-.26.148-.392s.087-.247.13-.371c.025-.081.053-.162.079-.243.032-.1.062-.2.091-.3.021-.072.043-.145.062-.22.027-.1.057-.209.083-.314l.045-.187c.043-.182.083-.367.117-.55.027-.143.055-.285.077-.426.011-.062.019-.124.028-.185.006-.041.013-.079.017-.117v-.015c.006-.051.015-.1.021-.151s.017-.128.023-.193c0-.045.011-.087.013-.132.013-.124.023-.245.03-.369V61.2a10.68,10.68,0,0,0,0-1.236" transform="translate(-14518.325 -12474.127)" fill="#1655aa"/>
    <path id="Trazado_1026835" data-name="Trazado 1026835" d="M110.041,55.518a8.716,8.716,0,0,0-7.078-4.145c-7.628-5.2-20.235-4.928-31.652,1.462C59.946,59.193,53.133,69.72,53.495,78.912c-.687,1.266-2.258,4.855-.275,8.4,2.465,4.4,8.273,4.765,8.273,4.765A21.169,21.169,0,0,0,67.56,94.4a24.476,24.476,0,0,0,6.823,1.792c5.129.581,11.356-.351,18.555-4.38,9.521-5.33,13.77-11.7,15.523-17.252a23.707,23.707,0,0,0,1.073-5.921c.148-.674.191-1.05.191-1.05l-.087.059a19.7,19.7,0,0,0,.253-2.82c.49-1.047,2.3-5.459.151-9.311" transform="translate(-14430.707 -12467.496)" fill="#1655aa"/>
    <path id="Trazado_1026836" data-name="Trazado 1026836" d="M236.923,51.747c-3.27-4.213-.5-7.7-1.788-12.518-2.626,1.391-5.732,5.625-6.814,8.663a17.288,17.288,0,0,0-1.111,7.9c-5.627.66-15.3.087-21.565,1.824l-.047.015q-.33.1-.66.2a9.024,9.024,0,0,1-5.477-.341c-1.608-.615-5.1-1.92-5.8-1.291-.5.453.415,5.663,1.152,7.389a18.892,18.892,0,0,0-5.645,7.517c-1.044,2.5-3.933,10.093-2.575,12.7.808,1.546,3.284,2.1,4.49,2.445a26.516,26.516,0,0,0,4.512.84h.05c.126.014.253.025.379.036.047,0,.091.009.138.012s.119.011.182.015l.287.021.132.006.273.017h.072l.351.015h.041a27.63,27.63,0,0,0,12.437-2.266,21.9,21.9,0,0,0,3.215-1.871c1.31,1.66,3.338,3.591,4.411,3.589,1.871,0,3.925-4.644,2.492-6.26a7.4,7.4,0,0,0-2.714-1.293,53.23,53.23,0,0,0,4.392-6.6,5.928,5.928,0,0,0,7.738-1.617l-.11-.057a7.75,7.75,0,0,1-2.872-.924,16.245,16.245,0,0,1-2.384-1.487c1.664-2.923,3.368-6.071,4.733-9.045a5.5,5.5,0,0,0,3.123,2.028c5.173,1.346,10.661,1.176,14.852-1.293-2.259-4.42-6.8-4.371-9.888-8.355" transform="translate(-14478.387 -12458.99)" fill="#1655aa"/>
  </g>
</svg>
