<svg xmlns="http://www.w3.org/2000/svg" xmlns:xlink="http://www.w3.org/1999/xlink" width="220.901" height="205.097" viewBox="0 0 220.901 205.097">
  <defs>
    <clipPath id="clip-path">
      <rect id="Rectángulo_455881" data-name="Rectángulo 455881" width="123.799" height="24.946" fill="#2cbe91"/>
    </clipPath>
  </defs>
  <g id="Grupo_1187593" data-name="Grupo 1187593" transform="translate(-1052.681 -2303.354)">
    <g id="Grupo_1187508" data-name="Grupo 1187508">
      <g id="Grupo_1187065" data-name="Grupo 1187065" transform="translate(-32.327 9.037)">
        <path id="Trazado_1085278" data-name="Trazado 1085278" d="M193.132,17.8V0h-5.784c-.035,4.963-3.794,8.955-8.4,8.917C174.4,8.879,170.72,4.909,170.685,0h-7.058c0,4.963-3.73,8.987-8.332,8.987S146.962,4.963,146.962,0h-7.037c0,4.963-3.73,8.987-8.332,8.987S123.261,4.963,123.261,0h-6.806c0,4.963-3.731,8.987-8.333,8.987S99.79,4.963,99.79,0H92.563c0,4.963-3.73,8.987-8.332,8.987S75.9,4.963,75.9,0H68.914c0,4.963-3.731,8.987-8.332,8.987S52.25,4.963,52.25,0H45.586c0,4.964-3.726,8.989-8.329,8.992S28.922,4.973,28.92.009V0H21.777c0,4.963-3.731,8.987-8.332,8.987S5.113,4.963,5.113,0H0V17.852c4.6,0,8.333,4.024,8.333,8.988S4.6,35.827,0,35.827v7.794c4.6,0,8.333,4.024,8.333,8.987S4.6,61.6,0,61.6v7.341H.019c4.6.006,8.328,4.034,8.323,9S4.6,86.916,0,86.91V94.5c4.6,0,8.333,4.024,8.333,8.988S4.6,112.473,0,112.473V119.7H.019c4.6.005,8.328,4.033,8.323,9S4.6,137.678,0,137.673v17.769H5.085c0-4.963,3.731-8.987,8.332-8.987s8.332,4.023,8.332,8.987H28.89v-.02c.005-4.964,3.74-8.982,8.342-8.977s8.328,4.033,8.323,9h6.667v-.02c.005-4.964,3.74-8.982,8.342-8.977s8.328,4.033,8.323,9h6.98v-.02c0-4.964,3.74-8.982,8.341-8.977s8.328,4.033,8.323,9h7.228v-.02c.005-4.964,3.74-8.982,8.342-8.977s8.328,4.033,8.323,9h6.807c0-4.964,3.731-8.988,8.333-8.988s8.333,4.024,8.333,8.988h7.034v-.02c.005-4.964,3.74-8.982,8.342-8.977s8.328,4.033,8.323,9h7.06v-.02c.005-4.964,3.74-8.982,8.341-8.977s8.328,4.033,8.323,9h5.812V137.617h-.019c-4.6-.006-8.328-4.033-8.323-9s3.74-8.982,8.342-8.976v-7.227c-4.6,0-8.333-4.024-8.333-8.987s3.731-8.987,8.333-8.987V86.854h-.019c-4.6-.006-8.328-4.034-8.323-9s3.74-8.982,8.342-8.977V61.54c-4.6,0-8.333-4.024-8.333-8.987s3.731-8.988,8.333-8.988V35.772c-4.6,0-8.335-4.02-8.337-8.983s3.726-8.99,8.329-8.992h.009" transform="translate(1135.231 2487.449) rotate(-90)" fill="#bbd6fc"/>
        <g id="Grupo_1184022" data-name="Grupo 1184022" transform="translate(1264.076 2419.408)">
          <g id="Grupo_1183846" data-name="Grupo 1183846" transform="translate(0 0)">
            <rect id="Rectángulo_455879" data-name="Rectángulo 455879" width="41.212" height="39.571" transform="translate(0.311)" fill="#2cbe91"/>
            <path id="Trazado_1000145" data-name="Trazado 1000145" d="M0,1.807H1.1a1.8,1.8,0,0,1,3.61,0H6.258v0a1.8,1.8,0,1,1,3.61,0h1.444v0a1.8,1.8,0,1,1,3.61,0h1.512v0a1.8,1.8,0,1,1,3.61,0h1.566v0a1.8,1.8,0,1,1,3.61,0h1.474a1.8,1.8,0,0,1,3.61,0h1.524v0a1.8,1.8,0,1,1,3.61,0h1.529v0a1.8,1.8,0,1,1,3.61,0h1.259" transform="translate(41.832 40.986) rotate(180)" fill="#2cbe91"/>
          </g>
          <path id="Trazado_1000133" data-name="Trazado 1000133" d="M.984,17.632c-.058-.094-.122-.186-.182-.279A4.6,4.6,0,0,1,.019,15.29a3.26,3.26,0,0,1,.035-.942,4.793,4.793,0,0,1,.641-1.672c.126-.2.274-.377.423-.582a.2.2,0,0,0,0-.07,3.189,3.189,0,0,1,.125-2.1,4.832,4.832,0,0,1,.843-1.406,5.583,5.583,0,0,1,1.475-1.31c.13-.076.264-.148.4-.225a2.672,2.672,0,0,1,.771-1.747A5.255,5.255,0,0,1,6.016,4.162a4.753,4.753,0,0,1,1.917-.688A1.3,1.3,0,0,0,8,3.34a2.468,2.468,0,0,1,.833-1.07,5.032,5.032,0,0,1,2.417-1.025,4.477,4.477,0,0,1,.943-.014c.111.007.221.008.321.011l.2-.171A4.634,4.634,0,0,1,15.366.024,5.175,5.175,0,0,1,17.7.339c.1.039.211.072.286.1A4.967,4.967,0,0,1,21.241.172a4.868,4.868,0,0,1,2.643,1.837,2.871,2.871,0,0,1,.919.085,3.969,3.969,0,0,1,1.47.713,4.052,4.052,0,0,1,.666.617A2.826,2.826,0,0,1,27.6,4.87a2.469,2.469,0,0,1-.664,2.077,4.888,4.888,0,0,1-.862.766,4.255,4.255,0,0,0-.56.514A17.2,17.2,0,0,1,23.99,9.547q-1.055.832-2.123,1.643c-.479.363-.975.7-1.456,1.057-1.592,1.17-3.24,2.257-4.862,3.381-1.365.945-2.762,1.841-4.165,2.724q-1.422.893-2.884,1.72A27.883,27.883,0,0,1,5.406,21.59a1.417,1.417,0,0,1-.2.069.615.615,0,0,0-.291.155.632.632,0,0,1-.175.122,3.934,3.934,0,0,1-1.329.421,2.288,2.288,0,0,1-.723-.025,1.824,1.824,0,0,1-.654-.318A3.337,3.337,0,0,1,.873,20.627a3.212,3.212,0,0,1-.249-1.249c0-.183.012-.366.024-.549a2.574,2.574,0,0,1,.245-.97c.035-.072.064-.148.1-.233" transform="translate(16.175 4.91) rotate(34)" fill="#1b5b5b"/>
        </g>
        <g id="Grupo_1184023" data-name="Grupo 1184023" transform="translate(1085.007 2441.895)">
          <g id="Grupo_1183367" data-name="Grupo 1183367" transform="translate(0 0)" clip-path="url(#clip-path)">
            <path id="Trazado_1000146" data-name="Trazado 1000146" d="M182.05.151a1.212,1.212,0,0,0-1.292.1,3.614,3.614,0,0,0-1.01,1.139,8.247,8.247,0,0,0-.841,1.6,4.619,4.619,0,0,0-.315,1.765,3.209,3.209,0,0,0-.012.393,4.994,4.994,0,0,0,.12.882c.036.163.071.335.12.5a2.287,2.287,0,0,0,.132.493c.022.053.084.019.089-.027,0-.011,0-.023,0-.034a.079.079,0,0,0,.1-.084,3.011,3.011,0,0,0-.147-.73c-.042-.277-.1-.552-.13-.811-.013-.105-.019-.209-.026-.313,0-.04,0-.08,0-.12a2.694,2.694,0,0,1,.665-1.631,5.483,5.483,0,0,1,1.215-1.047,4.227,4.227,0,0,0,1.274-.925c.207-.288.4-.885.057-1.148" transform="translate(-116.254 0)" fill="#ff6a7d"/>
            <path id="Trazado_1000147" data-name="Trazado 1000147" d="M185,.136a.112.112,0,0,0-.217.034A3.813,3.813,0,0,1,182.3,3.216a6.358,6.358,0,0,0-2.833,1.833,7.717,7.717,0,0,0-1.478,3.464,4.375,4.375,0,0,0-.018,2.01,4.42,4.42,0,0,0,.389,1.234.124.124,0,1,0,.224-.106c-.014-.029-.022-.059-.035-.088a.12.12,0,0,0,.016-.133,3.906,3.906,0,0,1-.32-.929,6.071,6.071,0,0,1,.177-2.392,4.456,4.456,0,0,1,.35-.758,6.138,6.138,0,0,1,3.086-2.384A6.51,6.51,0,0,0,184.673,3.1,2.847,2.847,0,0,0,185,.136" transform="translate(-115.79 -0.041)" fill="#ffe1cb"/>
            <path id="Trazado_1000148" data-name="Trazado 1000148" d="M183.332,12.209a15.653,15.653,0,0,0-3.842,2.1,4.152,4.152,0,0,0-1.083,1.071,1.93,1.93,0,0,0-.275,1.528" transform="translate(-115.926 -7.948)" fill="none" stroke="#12263f" stroke-linecap="round" stroke-linejoin="round" stroke-width="0.75"/>
            <path id="Trazado_1000149" data-name="Trazado 1000149" d="M193.814,23.457a8.039,8.039,0,0,0-2.051-4.7.231.231,0,0,0-.408.192,17.466,17.466,0,0,1,.039,3.84,2.522,2.522,0,0,1-1.734,1.908,2.982,2.982,0,0,1-2.5-.676,5.626,5.626,0,0,1-.6-.552,4.313,4.313,0,0,0-1.477-2.525c-1.193-.776-2.846-.266-3.956.459a5.614,5.614,0,0,0-1.564,1.519,3.664,3.664,0,0,0-.769,1.931c0,.726.384,1,.99.8a3.785,3.785,0,0,0,1.643-1.361,4.153,4.153,0,0,1,2.073-1.666,2.111,2.111,0,0,1,1.833.37.559.559,0,0,1,.11-.006.607.607,0,0,1,.374.146,2.157,2.157,0,0,1,.517.776,7.219,7.219,0,0,1,.355,1.061c.041.15.077.3.115.453a4.387,4.387,0,0,0,1.834,2.281,3.334,3.334,0,0,0,3.438-.179,4.694,4.694,0,0,0,1.737-4.075" transform="translate(-116.396 -12.155)" fill="#2079f3"/>
            <path id="Trazado_1000150" data-name="Trazado 1000150" d="M200.887,30.68a2.434,2.434,0,0,1-2.781,1.115,10.446,10.446,0,0,1-2.863-1.478,1.935,1.935,0,0,0-1.627-.376" transform="translate(-126.044 -19.446)" fill="none" stroke="#15260d" stroke-linecap="round" stroke-linejoin="round" stroke-width="0.75"/>
            <path id="Trazado_1000151" data-name="Trazado 1000151" d="M206.591,31.474a2.784,2.784,0,0,1-1.222,2.225,3.187,3.187,0,0,1-2.376.424,5.623,5.623,0,0,1-2.242-1.068" transform="translate(-130.689 -20.49)" fill="none" stroke="#12263f" stroke-linecap="round" stroke-linejoin="round" stroke-width="0.75"/>
            <path id="Trazado_1000152" data-name="Trazado 1000152" d="M207.528,39.062a2.6,2.6,0,0,1-2.322,1.2,6.036,6.036,0,0,1-2.557-.8" transform="translate(-131.925 -25.429)" fill="none" stroke="#12263f" stroke-linecap="round" stroke-linejoin="round" stroke-width="0.75"/>
            <path id="Trazado_1000153" data-name="Trazado 1000153" d="M185.95,27.088a7.29,7.29,0,0,0-4.5,3.277" transform="translate(-118.122 -17.634)" fill="none" stroke="#15260d" stroke-linecap="round" stroke-linejoin="round" stroke-width="0.75"/>
            <path id="Trazado_1000154" data-name="Trazado 1000154" d="M190.883,10.31c.023-.1.048-.191.065-.287a.108.108,0,0,0-.139-.12v0c-.021-.1-.15-.081-.147.024s0,.229,0,.342a3.573,3.573,0,0,1-1.054,1.689,2.574,2.574,0,0,1-2.5.161,6.3,6.3,0,0,0-4.176.306,6.223,6.223,0,0,0-3.02,2.891,6.941,6.941,0,0,0-.683,2.136,7.357,7.357,0,0,0-.09,1.114v.008a2.714,2.714,0,0,0,.176,1.017.179.179,0,0,0,.044.061c.015.029.027.061.044.089.065.107.186.023.193-.081a.169.169,0,0,0,.054-.121c.022-.415-.068-.827-.058-1.246a6.353,6.353,0,0,1,.122-1.091,6.264,6.264,0,0,1,.189-.7,4.54,4.54,0,0,1,.885-1.308A5.036,5.036,0,0,1,185,13.87a17.287,17.287,0,0,0,2.483.378,3.442,3.442,0,0,0,1.789-.566,3.631,3.631,0,0,0,1.3-1.519,4.075,4.075,0,0,0,.316-1.028,2.421,2.421,0,0,0,0-.825" transform="translate(-116.614 -6.401)" fill="#ffe76d"/>
            <path id="Trazado_1000155" data-name="Trazado 1000155" d="M200.637,13.6a5.418,5.418,0,0,1-5.679,1.631" transform="translate(-126.918 -8.856)" fill="none" stroke="#12263f" stroke-linecap="round" stroke-linejoin="round" stroke-width="0.75"/>
            <path id="Trazado_1000156" data-name="Trazado 1000156" d="M165.719.151a1.212,1.212,0,0,1,1.292.1,3.618,3.618,0,0,1,1.01,1.139,8.25,8.25,0,0,1,.841,1.6,4.62,4.62,0,0,1,.315,1.765,3.209,3.209,0,0,1,.011.393,4.988,4.988,0,0,1-.12.882c-.036.163-.071.335-.12.5a2.288,2.288,0,0,1-.132.493c-.022.053-.084.019-.089-.027,0-.011,0-.023,0-.034a.079.079,0,0,1-.1-.084,3.013,3.013,0,0,1,.147-.73c.042-.277.1-.552.13-.811.013-.105.019-.209.025-.313,0-.04,0-.08,0-.12a2.694,2.694,0,0,0-.665-1.631,5.481,5.481,0,0,0-1.215-1.047,4.227,4.227,0,0,1-1.274-.925c-.207-.288-.4-.885-.057-1.148" transform="translate(-107.761 0)" fill="#ff6a7d"/>
            <path id="Trazado_1000157" data-name="Trazado 1000157" d="M155.772.136a.112.112,0,0,1,.217.034,3.813,3.813,0,0,0,2.481,3.046A6.355,6.355,0,0,1,161.3,5.049a7.714,7.714,0,0,1,1.478,3.464,4.375,4.375,0,0,1,.019,2.01,4.421,4.421,0,0,1-.389,1.234.124.124,0,1,1-.225-.106c.014-.029.022-.059.035-.088a.12.12,0,0,1-.016-.133,3.909,3.909,0,0,0,.32-.929,6.071,6.071,0,0,0-.177-2.392,4.456,4.456,0,0,0-.35-.758,6.138,6.138,0,0,0-3.086-2.384A6.511,6.511,0,0,1,156.1,3.1a2.847,2.847,0,0,1-.327-2.96" transform="translate(-101.23 -0.041)" fill="#ffe1cb"/>
            <path id="Trazado_1000158" data-name="Trazado 1000158" d="M161.451,12.209a15.653,15.653,0,0,1,3.842,2.1,4.152,4.152,0,0,1,1.083,1.071,1.932,1.932,0,0,1,.275,1.528" transform="translate(-105.105 -7.948)" fill="none" stroke="#12263f" stroke-linecap="round" stroke-linejoin="round" stroke-width="0.75"/>
            <path id="Trazado_1000159" data-name="Trazado 1000159" d="M132.758,23.457a8.039,8.039,0,0,1,2.051-4.7.231.231,0,0,1,.408.192,17.466,17.466,0,0,0-.039,3.84,2.522,2.522,0,0,0,1.734,1.908,2.982,2.982,0,0,0,2.5-.676,5.627,5.627,0,0,0,.6-.552,4.313,4.313,0,0,1,1.477-2.525c1.193-.776,2.846-.266,3.956.459a5.615,5.615,0,0,1,1.564,1.519,3.664,3.664,0,0,1,.769,1.931c0,.726-.384,1-.99.8a3.785,3.785,0,0,1-1.643-1.361,4.153,4.153,0,0,0-2.073-1.666,2.111,2.111,0,0,0-1.833.37.56.56,0,0,0-.11-.006.606.606,0,0,0-.374.146,2.156,2.156,0,0,0-.517.776,7.223,7.223,0,0,0-.355,1.061c-.041.15-.077.3-.115.453a4.386,4.386,0,0,1-1.834,2.281,3.333,3.333,0,0,1-3.438-.179,4.694,4.694,0,0,1-1.737-4.075" transform="translate(-86.422 -12.155)" fill="#2079f3"/>
            <path id="Trazado_1000160" data-name="Trazado 1000160" d="M140.143,30.68a2.434,2.434,0,0,0,2.781,1.115,10.445,10.445,0,0,0,2.863-1.478,1.935,1.935,0,0,1,1.627-.376" transform="translate(-91.233 -19.446)" fill="none" stroke="#15260d" stroke-linecap="round" stroke-linejoin="round" stroke-width="0.75"/>
            <path id="Trazado_1000161" data-name="Trazado 1000161" d="M137.11,31.474a2.784,2.784,0,0,0,1.222,2.225,3.187,3.187,0,0,0,2.376.424,5.624,5.624,0,0,0,2.242-1.068" transform="translate(-89.259 -20.49)" fill="none" stroke="#12263f" stroke-linecap="round" stroke-linejoin="round" stroke-width="0.75"/>
            <path id="Trazado_1000162" data-name="Trazado 1000162" d="M137.965,39.062a2.6,2.6,0,0,0,2.322,1.2,6.035,6.035,0,0,0,2.557-.8" transform="translate(-89.815 -25.429)" fill="none" stroke="#12263f" stroke-linecap="round" stroke-linejoin="round" stroke-width="0.75"/>
            <path id="Trazado_1000163" data-name="Trazado 1000163" d="M160.242,27.088a7.291,7.291,0,0,1,4.5,3.277" transform="translate(-104.318 -17.634)" fill="none" stroke="#12263f" stroke-linecap="round" stroke-linejoin="round" stroke-width="0.75"/>
            <path id="Trazado_1000164" data-name="Trazado 1000164" d="M141.661,10.31c-.023-.1-.048-.191-.065-.287a.108.108,0,0,1,.139-.12v0c.021-.1.15-.081.147.024s0,.229,0,.342a3.573,3.573,0,0,0,1.054,1.689,2.574,2.574,0,0,0,2.5.161,6.3,6.3,0,0,1,4.176.306,6.222,6.222,0,0,1,3.02,2.891,6.944,6.944,0,0,1,.683,2.136,7.37,7.37,0,0,1,.09,1.114v.008a2.7,2.7,0,0,1-.176,1.017.178.178,0,0,1-.044.061c-.015.029-.027.061-.044.089-.065.107-.187.023-.193-.081a.169.169,0,0,1-.054-.121c-.022-.415.068-.827.058-1.246a6.021,6.021,0,0,0-.311-1.8,4.527,4.527,0,0,0-.885-1.308,5.037,5.037,0,0,0-4.217-1.316,17.28,17.28,0,0,1-2.483.378,3.44,3.44,0,0,1-1.789-.566,3.631,3.631,0,0,1-1.3-1.519,4.089,4.089,0,0,1-.316-1.028,2.42,2.42,0,0,1,0-.825" transform="translate(-92.178 -6.401)" fill="#ffe76d"/>
            <path id="Trazado_1000165" data-name="Trazado 1000165" d="M143.364,13.6a5.418,5.418,0,0,0,5.678,1.631" transform="translate(-93.33 -8.856)" fill="none" stroke="#12263f" stroke-linecap="round" stroke-linejoin="round" stroke-width="0.75"/>
            <path id="Trazado_1000166" data-name="Trazado 1000166" d="M240.3,4.645a.28.28,0,0,0-.552-.082A43.772,43.772,0,0,1,237.032,12c-.073.141-.144.283-.221.422a13.084,13.084,0,0,1-4.277,4.678,18.472,18.472,0,0,1-11.472,2.732,22.1,22.1,0,0,1-5.949-1.291,35.236,35.236,0,0,1-5.589-2.811c-.553-.321-1.113-.638-1.681-.937a12.962,12.962,0,0,0,2.3.344c.984.083,1.969.182,2.955.24a10.188,10.188,0,0,0,5.027-.839,11.532,11.532,0,0,0,5.981-7.788,38.79,38.79,0,0,0,.975-6.342.32.32,0,0,0-.631-.094,20.053,20.053,0,0,1-4.867,8.725,16.33,16.33,0,0,1-8.727,4.8,18.427,18.427,0,0,1-4.286.336,12.647,12.647,0,0,0-2.668-.889,10.4,10.4,0,0,0-6.027.576,6.138,6.138,0,0,0-3.715,3.662c-.017.053-.03.107-.045.16a15.483,15.483,0,0,0-2.374,1.243c-1.676,1.068-3.335,2.4-5.294,2.726a5.982,5.982,0,0,1-5.136-1.7c-1.275-1.271-2.3-3.645-.876-5.257.019-.021.039-.035.059-.054.843-.229,1.548.974,1.939,1.644s.86,1.4,1.606,1.6a1.568,1.568,0,0,0,1.746-.553,1.914,1.914,0,0,0-.512-2.231c-1.161-1.321-3.029-2.528-4.691-1.6-1.521.851-1.919,3.027-1.36,4.677a6.726,6.726,0,0,0,3.755,3.911,6.648,6.648,0,0,0,5.4-.116c1.8-.808,3.356-2.137,5.111-3.05.145-.075.294-.141.442-.21a6.139,6.139,0,0,0,1.1,4.005c2.051,2.836,6.759,3.189,8.78.11A3.754,3.754,0,0,0,203.084,18c-1.521-1.364-3.737-1.44-5.6-1.223a12.2,12.2,0,0,0-2.3.5,4.4,4.4,0,0,1,1.172-1.519,8.745,8.745,0,0,1,5.823-1.778,13.343,13.343,0,0,1,5.972,1.98,61.42,61.42,0,0,0,5.444,2.936,33.484,33.484,0,0,0,11.235,2.852A17.682,17.682,0,0,0,230.718,21a16.835,16.835,0,0,0,5.388-2.712,9.523,9.523,0,0,0,3.24-5.28,28.331,28.331,0,0,0,.955-8.361m-40.516,13A4.574,4.574,0,0,1,202.67,18.8a2.844,2.844,0,0,1,.848,2.666c-.476,1.908-2.582,2.679-4.183,2.6a4.763,4.763,0,0,1-4.262-3.038,4.9,4.9,0,0,1-.237-2.7,11.44,11.44,0,0,1,4.948-.679" transform="translate(-116.517 -0.041)" fill="#2cbe91"/>
            <path id="Trazado_1000167" data-name="Trazado 1000167" d="M257.956,40.47a16.887,16.887,0,0,1-5-1.441" transform="translate(-164.675 -25.408)" fill="none" stroke="#12263f" stroke-linecap="round" stroke-linejoin="round" stroke-width="0.75"/>
            <path id="Trazado_1000168" data-name="Trazado 1000168" d="M286.229,15.125a14.3,14.3,0,0,1-10.758,8.961" transform="translate(-179.332 -9.846)" fill="none" stroke="#12263f" stroke-linecap="round" stroke-linejoin="round" stroke-width="0.75"/>
            <path id="Trazado_1000169" data-name="Trazado 1000169" d="M317.24,23.622c-1.341,4.437-4.041,8.556-7.9,10.47a14.469,14.469,0,0,1-2.412.915,20.148,20.148,0,0,1-8.7.56" transform="translate(-194.146 -15.378)" fill="none" stroke="#15260d" stroke-linecap="round" stroke-linejoin="round" stroke-width="0.75"/>
            <path id="Trazado_1000170" data-name="Trazado 1000170" d="M225.728,45.355a5.441,5.441,0,0,0-1.534,4.423" transform="translate(-145.938 -29.526)" fill="none" stroke="#12263f" stroke-linecap="round" stroke-linejoin="round" stroke-width="0.75"/>
            <path id="Trazado_1000171" data-name="Trazado 1000171" d="M223.053,45.454a6.088,6.088,0,0,0-.989,3.777" transform="translate(-144.555 -29.591)" fill="none" stroke="#15260d" stroke-linecap="round" stroke-linejoin="round" stroke-width="0.75"/>
            <path id="Trazado_1000172" data-name="Trazado 1000172" d="M225.473,49.675A9.247,9.247,0,0,1,227,49.063" transform="translate(-146.783 -31.94)" fill="none" stroke="#12263f" stroke-linecap="round" stroke-linejoin="round" stroke-width="0.75"/>
            <path id="Trazado_1000173" data-name="Trazado 1000173" d="M181.423,41.949a2.8,2.8,0,0,1,.68-1.267,1.744,1.744,0,0,1,.633-.33,2.666,2.666,0,0,1,2.812.747,1.506,1.506,0,0,1,.407,1c-.014.377-.286.754-.627.752" transform="translate(-118.107 -26.187)" fill="none" stroke="#12263f" stroke-linecap="round" stroke-linejoin="round" stroke-width="0.75"/>
            <path id="Trazado_1000174" data-name="Trazado 1000174" d="M.97,13.006a9.522,9.522,0,0,0,3.239,5.28A16.838,16.838,0,0,0,9.6,21a17.692,17.692,0,0,0,5.893.753A33.483,33.483,0,0,0,26.725,18.9a61.508,61.508,0,0,0,5.444-2.936,13.345,13.345,0,0,1,5.972-1.98,8.745,8.745,0,0,1,5.823,1.778,4.4,4.4,0,0,1,1.172,1.519,12.2,12.2,0,0,0-2.3-.5c-1.862-.216-4.078-.14-5.6,1.223A3.753,3.753,0,0,0,36.5,22.82c2.021,3.079,6.729,2.726,8.78-.11a6.139,6.139,0,0,0,1.1-4.005c.148.069.3.135.441.21,1.755.913,3.307,2.242,5.111,3.05a6.646,6.646,0,0,0,5.4.115,6.725,6.725,0,0,0,3.756-3.911c.559-1.651.161-3.826-1.36-4.677-1.662-.93-3.53.277-4.691,1.6a1.914,1.914,0,0,0-.512,2.231,1.568,1.568,0,0,0,1.746.553c.746-.2,1.215-.928,1.606-1.6s1.1-1.873,1.939-1.644c.019.02.04.034.058.054,1.427,1.612.4,3.987-.876,5.257a5.982,5.982,0,0,1-5.136,1.7c-1.958-.33-3.617-1.658-5.294-2.726A15.454,15.454,0,0,0,46.2,17.677c-.015-.053-.028-.107-.045-.16a6.14,6.14,0,0,0-3.715-3.662,10.4,10.4,0,0,0-6.027-.575,12.653,12.653,0,0,0-2.668.889,18.447,18.447,0,0,1-4.286-.336,16.33,16.33,0,0,1-8.727-4.8A20.052,20.052,0,0,1,15.865.311a.32.32,0,0,0-.631.094,38.823,38.823,0,0,0,.976,6.342,11.531,11.531,0,0,0,5.981,7.788,10.187,10.187,0,0,0,5.027.839c.986-.059,1.97-.157,2.954-.24a12.957,12.957,0,0,0,2.3-.344c-.568.3-1.128.616-1.681.937A35.235,35.235,0,0,1,25.2,18.538a22.1,22.1,0,0,1-5.949,1.291A18.472,18.472,0,0,1,7.781,17.1,13.087,13.087,0,0,1,3.5,12.419c-.076-.139-.148-.281-.22-.422A43.789,43.789,0,0,1,.567,4.563a.28.28,0,0,0-.552.082A28.315,28.315,0,0,0,.97,13.006m44.509,5.318a4.906,4.906,0,0,1-.236,2.7,4.764,4.764,0,0,1-4.262,3.038c-1.6.075-3.707-.7-4.183-2.6a2.846,2.846,0,0,1,.848-2.667,4.576,4.576,0,0,1,2.885-1.152,11.44,11.44,0,0,1,4.948.679" transform="translate(0 -0.041)" fill="#2cbe91"/>
            <path id="Trazado_1000175" data-name="Trazado 1000175" d="M87.443,40.47a16.886,16.886,0,0,0,5-1.441" transform="translate(-56.926 -25.408)" fill="none" stroke="#12263f" stroke-linecap="round" stroke-linejoin="round" stroke-width="0.75"/>
            <path id="Trazado_1000176" data-name="Trazado 1000176" d="M48.43,15.125a14.3,14.3,0,0,0,10.758,8.961" transform="translate(-31.528 -9.846)" fill="none" stroke="#15260d" stroke-linecap="round" stroke-linejoin="round" stroke-width="0.75"/>
            <path id="Trazado_1000177" data-name="Trazado 1000177" d="M2.019,23.622c1.341,4.437,4.041,8.556,7.9,10.47a14.471,14.471,0,0,0,2.412.915,20.148,20.148,0,0,0,8.7.56" transform="translate(-1.314 -15.378)" fill="none" stroke="#15260d" stroke-linecap="round" stroke-linejoin="round" stroke-width="0.75"/>
            <path id="Trazado_1000178" data-name="Trazado 1000178" d="M126.1,45.355a5.441,5.441,0,0,1,1.534,4.423" transform="translate(-82.091 -29.526)" fill="none" stroke="#15260d" stroke-linecap="round" stroke-linejoin="round" stroke-width="0.75"/>
            <path id="Trazado_1000179" data-name="Trazado 1000179" d="M129.8,45.454a6.088,6.088,0,0,1,.989,3.777" transform="translate(-84.5 -29.591)" fill="none" stroke="#12263f" stroke-linecap="round" stroke-linejoin="round" stroke-width="0.75"/>
            <path id="Trazado_1000180" data-name="Trazado 1000180" d="M126.4,49.675a9.247,9.247,0,0,0-1.527-.612" transform="translate(-81.294 -31.94)" fill="none" stroke="#12263f" stroke-linecap="round" stroke-linejoin="round" stroke-width="0.75"/>
            <path id="Trazado_1000181" data-name="Trazado 1000181" d="M164.847,41.949a2.8,2.8,0,0,0-.681-1.267,1.744,1.744,0,0,0-.633-.33,2.666,2.666,0,0,0-2.812.747,1.506,1.506,0,0,0-.407,1c.014.377.286.754.627.752" transform="translate(-104.365 -26.187)" fill="none" stroke="#15260d" stroke-linecap="round" stroke-linejoin="round" stroke-width="0.75"/>
            <path id="Trazado_1000182" data-name="Trazado 1000182" d="M176.725,33.267a1.565,1.565,0,1,0-1.558,1.721,1.645,1.645,0,0,0,1.558-1.721" transform="translate(-113.02 -20.537)" fill="#2cbe91"/>
          </g>
        </g>
        <g id="Grupo_1186068" data-name="Grupo 1186068" transform="translate(1219.856 2456.089)">
          <g id="Grupo_1184024" data-name="Grupo 1184024" transform="translate(0 0)">
            <rect id="Rectángulo_455879-2" data-name="Rectángulo 455879" width="43.564" height="41.829" transform="translate(0.328)" fill="#ffb57d"/>
            <path id="Trazado_1000145-2" data-name="Trazado 1000145" d="M0,1.91H1.164a1.908,1.908,0,0,1,3.816,0H6.615v0a1.908,1.908,0,1,1,3.816,0h1.527v0a1.908,1.908,0,1,1,3.816,0h1.6v0a1.908,1.908,0,1,1,3.816,0h1.655v0a1.908,1.908,0,1,1,3.816,0h1.559a1.908,1.908,0,0,1,3.816,0h1.611v0a1.908,1.908,0,1,1,3.816,0h1.616v0a1.908,1.908,0,1,1,3.816,0H44.22" transform="translate(44.22 43.325) rotate(180)" fill="#ffb57d"/>
          </g>
          <path id="Trazado_1026845" data-name="Trazado 1026845" d="M33.153,7.184c-.136-2.4-1.655-3.81-4.38-2.795a29.863,29.863,0,0,1-3.81,1.044c-.233-.892-.466-1.806-.635-2.516l-.023.011c-.057-.24-.108-.458-.148-.643A2.583,2.583,0,0,0,21.6,0L10.678.625C9.341.7,8.657,1.87,8.4,3.183c-.138.693-.307,1.843-.462,2.989-2.2-.2-3.885-.377-3.885-.377C.8,5.15-.124,6.669.013,9.069c.237,4.178,8.141,8.7,17.089,8.187S33.391,11.363,33.153,7.184" transform="translate(5.382 13.306) rotate(-1)" fill="#ffb57d" style="mix-blend-mode: multiply;isolation: isolate"/>
        </g>
      </g>
      <g id="empanada" transform="translate(1144.328 2357.397)">
        <path id="Trazado_1140041" data-name="Trazado 1140041" d="M22.244,17.742a1.261,1.261,0,0,0,.724-.228A21.367,21.367,0,0,1,41.2,14.427,1.261,1.261,0,0,0,41.89,12a23.877,23.877,0,0,0-20.371,3.445,1.261,1.261,0,0,0,.725,2.293Z" transform="translate(5.478 2.368)" fill="#2079f3"/>
        <path id="Trazado_1140042" data-name="Trazado 1140042" d="M28.914,32.878a23.873,23.873,0,0,0-17.164,11.5,1.261,1.261,0,1,0,2.168,1.289A21.368,21.368,0,0,1,29.276,35.374a1.261,1.261,0,1,0-.362-2.5Z" transform="translate(3.021 8.058)" fill="#2079f3"/>
        <path id="Trazado_1140043" data-name="Trazado 1140043" d="M.066,67.22a6.293,6.293,0,0,0,9.224,4.645,3.742,3.742,0,0,0,1.121.184,3.793,3.793,0,0,0,.544-.039l49.922-7.239a3.739,3.739,0,0,0,1.571-.623,6.18,6.18,0,0,0,1.261.146,6.516,6.516,0,0,0,.909-.066,6.29,6.29,0,0,0,1.15-12.18,6.306,6.306,0,0,0,.422-3.341c-.018-.126-.061-.235-.086-.354a6.285,6.285,0,0,0,1.513.667,6.375,6.375,0,0,0,1.745.252,6.289,6.289,0,0,0,4.271-10.906,6.207,6.207,0,0,0-.477-9.585,6.29,6.29,0,0,0-3.621-9.38c-.04-.011-.084-.016-.126-.026a6.287,6.287,0,0,0-6.265-6.8,6.264,6.264,0,0,0-8.508-5.3,6.292,6.292,0,0,0-9.7-2.774,6.268,6.268,0,0,0-10.022,0A6.306,6.306,0,0,0,26,6.964c-.039-.013-.077-.03-.116-.042a6.3,6.3,0,0,0-8.036,6.043,6.278,6.278,0,0,0-5.509,7.883A6.3,6.3,0,0,0,13.57,33.325c.139,0,.279-.03.417-.039a3.747,3.747,0,0,0,1.489.836l2.119.607a6.179,6.179,0,0,0-1.067,2.326,6.288,6.288,0,0,0-7.113,5.881.527.527,0,0,0-.126.01,6.3,6.3,0,0,0-4.852,8.808A6.278,6.278,0,0,0,2.647,61.2,6.326,6.326,0,0,0,.066,67.22Zm60.449-4.94L10.592,69.517A1.27,1.27,0,0,1,9.163,68.45a26.484,26.484,0,1,1,52.42-7.6,1.261,1.261,0,0,1-1.068,1.431ZM18.916,39a3.076,3.076,0,0,1-.029-.424,3.754,3.754,0,0,1,3.231-3.863,3.7,3.7,0,0,1,2.831.763,6.1,6.1,0,0,0,.028,1.371,6.27,6.27,0,0,0,.155.668,28.819,28.819,0,0,0-5.69,2.9A3.742,3.742,0,0,1,18.916,39Zm8.555-2.515a3.556,3.556,0,0,1,.047-1.3,3.768,3.768,0,0,1,7.046-.987,3.507,3.507,0,0,1,.4,1.2c.011.086.009.169.015.252a28.23,28.23,0,0,0-7.447,1.078,1.931,1.931,0,0,1-.063-.245Zm18.917-1.209a3.666,3.666,0,0,1,1.233-.438,3.783,3.783,0,0,1,4.288,3.189,1.47,1.47,0,0,0,.009.148,3.647,3.647,0,0,1-.5,2.324,29.037,29.037,0,0,0-5.264-2.766,6.293,6.293,0,0,0,.235-2.458Zm8.059,3.689c.045-.009.093-.033.137-.039a3.774,3.774,0,0,1,2.754,6.8A29.236,29.236,0,0,0,53.463,42a6.128,6.128,0,0,0,.98-3.034Zm6.072,6.92a3.783,3.783,0,0,1,2.283,6.23,4,4,0,0,1-.928.757,28.73,28.73,0,0,0-2.98-5.182,6.229,6.229,0,0,0,1.626-1.8ZM71.412,30.61a3.783,3.783,0,0,1-.479,6.617,3.966,3.966,0,0,1-1.149.31V37.39a28.6,28.6,0,0,0-.615-5.787,6.23,6.23,0,0,0,2.244-1ZM43.772,36.9a28.754,28.754,0,0,0-6.282-1.169,6,6,0,0,0-.037-.687,6.074,6.074,0,0,0-.361-1.322A3.751,3.751,0,0,1,43.794,35a2.909,2.909,0,0,1,.082.378A3.727,3.727,0,0,1,43.772,36.9ZM67.461,57.453a3.783,3.783,0,0,1-3.2,4.288,1.5,1.5,0,0,1-.226,0,3.756,3.756,0,0,0,.045-1.255A29.093,29.093,0,0,0,62.8,55.218a6.38,6.38,0,0,0,1.4-.965,3.783,3.783,0,0,1,3.261,3.2ZM72.993,44a3.783,3.783,0,0,1-4.676,2.6c-.074-.021-.137-.062-.209-.087a3.772,3.772,0,0,0,.55-1.126,29.4,29.4,0,0,0,.991-5.333A6.394,6.394,0,0,0,71.3,39.74,3.783,3.783,0,0,1,72.993,44ZM68.7,21.807c.044.011.1.009.143.021a3.775,3.775,0,0,1-.285,7.333,29.022,29.022,0,0,0-2-4.988A6.12,6.12,0,0,0,68.7,21.806Zm-1.932-1.892c-.019.045-.038.091-.053.14A3.647,3.647,0,0,1,65.3,21.972a29.285,29.285,0,0,0-3.68-4.666A6.294,6.294,0,0,0,62.87,15.14a3.684,3.684,0,0,1,1.3.107,3.791,3.791,0,0,1,2.6,4.66ZM57.934,9.524a3.763,3.763,0,0,1,2.677,4.3,2.774,2.774,0,0,1-.078.378,3.72,3.72,0,0,1-.734,1.363,28.992,28.992,0,0,0-5.236-3.645,5.909,5.909,0,0,0,.252-.667A6.142,6.142,0,0,0,55.025,9.9a3.694,3.694,0,0,1,2.908-.376Zm-8.139-3.64a3.767,3.767,0,0,1,2.727,3.429,3.473,3.473,0,0,1-.126,1.261c-.025.088-.066.169-.1.252a28.424,28.424,0,0,0-3.531-1.291c-.028-.009-.057-.015-.084-.021a29.384,29.384,0,0,0-3.612-.757c.019-.09.028-.179.053-.269a3.516,3.516,0,0,1,.574-1.16,3.756,3.756,0,0,1,4.1-1.444Zm-13.368.982a3.751,3.751,0,0,1,4.53-2.2,3.7,3.7,0,0,1,2.27,1.856,6.04,6.04,0,0,0-.538,1.261,6.365,6.365,0,0,0-.134.681,28.608,28.608,0,0,0-6.377.317,3.734,3.734,0,0,1,.1-1.522,2.967,2.967,0,0,1,.15-.395ZM27.939,8.954a1.181,1.181,0,0,0,.032-.145,3.783,3.783,0,0,1,4.674-2.584,3.637,3.637,0,0,1,1.163.6,6.278,6.278,0,0,0-.091,2.467,28.978,28.978,0,0,0-5.584,2.04,3.657,3.657,0,0,1-.19-2.377Zm-7.42,2.983a3.783,3.783,0,0,1,4.676-2.6c.044.013.088.043.132.057a6.145,6.145,0,0,0,.569,3.143A29.141,29.141,0,0,0,21.549,15.7,3.7,3.7,0,0,1,20.5,13.919a3.657,3.657,0,0,1,.021-1.982ZM14.8,18.17a3.756,3.756,0,0,1,3.579-2.739,6.251,6.251,0,0,0,1.359,2A28.627,28.627,0,0,0,16.1,22.177a3.9,3.9,0,0,1-.811-.866A3.783,3.783,0,0,1,14.8,18.17ZM9.944,25.96a3.783,3.783,0,0,1,3.664-2.722,6.4,6.4,0,0,0,1.254,1.141,29.3,29.3,0,0,0-1.979,5.061,3.884,3.884,0,0,0-.146,1.03c0,.068.013.135.016.2-.069-.015-.141-.014-.211-.034a3.783,3.783,0,0,1-2.6-4.679Zm5.314,4.515a1.327,1.327,0,0,1,.053-.347A26.462,26.462,0,0,1,48.048,11.951l.084.02A26.428,26.428,0,0,1,66.232,44.7a1.261,1.261,0,0,1-.6.757,1.233,1.233,0,0,1-.842.115A6.272,6.272,0,0,0,61.37,43.5a6.292,6.292,0,0,0-7.152-7.062.776.776,0,0,0-.126.026,6.317,6.317,0,0,0-6.838-4.114,6.239,6.239,0,0,0-1.662.486,6.264,6.264,0,0,0-9.93-1.342,6.293,6.293,0,0,0-9.989,1.447,6.118,6.118,0,0,0-5.694-.161l-3.81-1.09A1.261,1.261,0,0,1,15.258,30.475Zm-.092,9.069a3.724,3.724,0,0,1,1.308.071A6.27,6.27,0,0,0,17.4,41.9a29.138,29.138,0,0,0-4.261,4.148A3.646,3.646,0,0,1,12,43.963a1.378,1.378,0,0,0-.034-.143,3.79,3.79,0,0,1,3.2-4.276Zm-8,7.378A3.744,3.744,0,0,1,9.65,45.442a1.094,1.094,0,0,1,.144,0A6.139,6.139,0,0,0,11.6,48.069a29.174,29.174,0,0,0-2.657,4.666,3.765,3.765,0,0,1-1.782-5.814Zm-1.23,6.873a6.231,6.231,0,0,0,2.075,1.272,28.855,28.855,0,0,0-1.387,5.82,3.893,3.893,0,0,1-1.093-.463,3.783,3.783,0,0,1,.407-6.63ZM4.78,62.874A6.412,6.412,0,0,0,6.4,63.4a28.992,28.992,0,0,0,.269,5.408A3.753,3.753,0,0,0,7.059,70c-.072.015-.137.045-.211.055A3.772,3.772,0,0,1,4.78,62.871Z" transform="translate(0)" fill="#2079f3"/>
      </g>
    </g>
  </g>
</svg>
