<svg xmlns="http://www.w3.org/2000/svg" xmlns:xlink="http://www.w3.org/1999/xlink" width="250.242" height="249.524" viewBox="0 0 250.242 249.524">
  <defs>
    <clipPath id="clip-path">
      <rect id="Rectángulo_455881" data-name="Rectángulo 455881" width="140.242" height="28.259" fill="#2cbe91"/>
    </clipPath>
  </defs>
  <g id="Grupo_1187600" data-name="Grupo 1187600" transform="translate(-1153.758 -335.138)">
    <g id="Grupo_1187030" data-name="Grupo 1187030">
      <path id="Trazado_1063948" data-name="Trazado 1063948" d="M235.97,20.161V0H228.9a10.18,10.18,0,0,1-10.258,10.1A10.18,10.18,0,0,1,208.544,0H199.92a10.18,10.18,0,0,1-10.18,10.18A10.18,10.18,0,0,1,179.56,0h-8.6a10.18,10.18,0,0,1-10.18,10.18A10.18,10.18,0,0,1,150.6,0h-8.315A10.181,10.181,0,0,1,132.1,10.181,10.181,10.181,0,0,1,121.924,0h-8.829a10.18,10.18,0,0,1-10.18,10.18A10.18,10.18,0,0,1,92.734,0H84.2A10.18,10.18,0,0,1,74.02,10.18,10.18,10.18,0,0,1,63.84,0H55.7A10.181,10.181,0,0,1,35.335.01V0H26.608a10.18,10.18,0,0,1-10.18,10.18A10.18,10.18,0,0,1,6.247,0H0V20.224A10.181,10.181,0,0,1,10.181,30.405,10.181,10.181,0,0,1,0,40.586v8.829A10.181,10.181,0,0,1,10.181,59.6,10.181,10.181,0,0,1,0,69.777v8.316H.023A10.181,10.181,0,0,1,10.192,88.285,10.18,10.18,0,0,1,0,98.454v8.6a10.181,10.181,0,0,1,10.181,10.181A10.181,10.181,0,0,1,0,127.412V135.6H.023A10.18,10.18,0,0,1,10.192,145.79,10.181,10.181,0,0,1,0,155.959v20.129H6.213a10.18,10.18,0,0,1,20.361,0H35.3v-.023a10.18,10.18,0,1,1,20.361.023h8.146v-.023a10.18,10.18,0,1,1,20.361.023h8.528v-.023a10.18,10.18,0,1,1,20.361.023h8.831v-.023a10.18,10.18,0,1,1,20.361.023h8.316a10.181,10.181,0,1,1,20.363,0h8.594v-.023a10.18,10.18,0,1,1,20.361.023h8.626v-.023a10.18,10.18,0,1,1,20.36.023h7.1V155.9h-.023a10.18,10.18,0,1,1,.023-20.361v-8.187a10.181,10.181,0,1,1,0-20.362v-8.6h-.023a10.18,10.18,0,1,1,.023-20.361V69.714a10.181,10.181,0,1,1,0-20.362V40.524a10.181,10.181,0,0,1-.01-20.362h.01" transform="translate(1210.652 571.108) rotate(-90)" fill="#bbd6fc"/>
      <g id="Grupo_1183875" data-name="Grupo 1183875" transform="translate(1356.611 489.943)">
        <g id="Grupo_1183846" data-name="Grupo 1183846">
          <rect id="Rectángulo_455879" data-name="Rectángulo 455879" width="46.686" height="44.827" transform="translate(0.352)" fill="#2cbe91"/>
          <path id="Trazado_1000145" data-name="Trazado 1000145" d="M0,2.047H1.248a2.044,2.044,0,0,1,4.089,0H7.089v0a2.044,2.044,0,1,1,4.089,0h1.636v0a2.044,2.044,0,1,1,4.089,0h1.713v0a2.044,2.044,0,1,1,4.089,0h1.773v0a2.044,2.044,0,1,1,4.089,0h1.67a2.045,2.045,0,0,1,4.089,0h1.726v0a2.045,2.045,0,1,1,4.089,0h1.732v0a2.044,2.044,0,1,1,4.089,0h1.426" transform="translate(47.389 46.43) rotate(180)" fill="#2cbe91"/>
        </g>
        <path id="Trazado_1000133" data-name="Trazado 1000133" d="M1.115,19.974c-.066-.106-.138-.21-.206-.317a5.214,5.214,0,0,1-.887-2.336,3.694,3.694,0,0,1,.039-1.068,5.429,5.429,0,0,1,.726-1.894c.143-.222.31-.427.479-.659a.227.227,0,0,0,0-.079,3.613,3.613,0,0,1,.142-2.375,5.474,5.474,0,0,1,.955-1.593A6.324,6.324,0,0,1,4.034,8.17c.148-.086.3-.168.457-.255a3.027,3.027,0,0,1,.873-1.979,5.953,5.953,0,0,1,1.451-1.22,5.385,5.385,0,0,1,2.171-.779,1.471,1.471,0,0,0,.078-.152,2.8,2.8,0,0,1,.943-1.212,5.7,5.7,0,0,1,2.738-1.161A5.071,5.071,0,0,1,13.814,1.4c.125.008.25.009.364.013.085-.073.153-.132.224-.194A5.25,5.25,0,0,1,17.407.027a5.863,5.863,0,0,1,2.649.358c.119.044.238.082.324.111A5.626,5.626,0,0,1,24.063.2a5.514,5.514,0,0,1,2.994,2.081,3.253,3.253,0,0,1,1.042.1,4.5,4.5,0,0,1,1.665.808,4.591,4.591,0,0,1,.755.7,3.2,3.2,0,0,1,.743,1.638,2.8,2.8,0,0,1-.752,2.353,5.538,5.538,0,0,1-.977.868,4.82,4.82,0,0,0-.635.583,19.479,19.479,0,0,1-1.721,1.494q-1.2.942-2.4,1.862c-.543.411-1.1.8-1.649,1.2-1.8,1.325-3.67,2.557-5.508,3.83-1.546,1.07-3.128,2.086-4.719,3.086q-1.61,1.011-3.267,1.948a31.587,31.587,0,0,1-3.5,1.721,1.605,1.605,0,0,1-.228.078.7.7,0,0,0-.33.176.716.716,0,0,1-.2.138,4.456,4.456,0,0,1-1.505.476,2.592,2.592,0,0,1-.819-.029,2.066,2.066,0,0,1-.741-.36A3.78,3.78,0,0,1,.989,23.366a3.639,3.639,0,0,1-.282-1.415c0-.207.014-.415.027-.622a2.916,2.916,0,0,1,.277-1.1c.04-.082.073-.168.115-.264" transform="translate(18.324 5.562) rotate(34)" fill="#1b5b5b"/>
      </g>
      <g id="Grupo_1183877" data-name="Grupo 1183877" transform="translate(1306.518 535.583)">
        <rect id="Rectángulo_455879-2" data-name="Rectángulo 455879" width="49.35" height="47.385" transform="translate(0.372)" fill="#ffb57d"/>
        <path id="Trazado_1000145-2" data-name="Trazado 1000145" d="M0,2.164H1.319a2.161,2.161,0,0,1,4.322,0H7.493v0a2.161,2.161,0,1,1,4.322,0h1.729v0a2.161,2.161,0,1,1,4.322,0h1.81v0a2.161,2.161,0,1,1,4.322,0h1.875v0a2.161,2.161,0,1,1,4.322,0h1.766a2.161,2.161,0,0,1,4.323,0H38.11v0a2.161,2.161,0,1,1,4.322,0h1.831v0a2.161,2.161,0,1,1,4.322,0h1.507" transform="translate(50.093 49.08) rotate(180)" fill="#ffb57d"/>
      </g>
      <path id="Trazado_1063949" data-name="Trazado 1063949" d="M37.557,8.139C37.4,5.42,35.682,3.822,32.595,4.973a33.83,33.83,0,0,1-4.316,1.183c-.264-1.01-.528-2.046-.719-2.851l-.026.013c-.065-.271-.122-.518-.167-.728A2.926,2.926,0,0,0,24.469,0L12.1.708c-1.514.086-2.29,1.41-2.586,2.9-.156.785-.348,2.088-.524,3.387-2.492-.222-4.4-.427-4.4-.427C.9,5.834-.14,7.555.015,10.273c.269,4.733,9.222,9.851,19.359,9.274S37.826,12.872,37.557,8.139" transform="translate(1312.615 550.655) rotate(-1)" fill="#ffb57d" style="mix-blend-mode: multiply;isolation: isolate"/>
      <g id="Grupo_1183876" data-name="Grupo 1183876" transform="translate(1153.758 516.397)">
        <g id="Grupo_1183367" data-name="Grupo 1183367" clip-path="url(#clip-path)">
          <path id="Trazado_1000146" data-name="Trazado 1000146" d="M182.511.171a1.373,1.373,0,0,0-1.464.11,4.094,4.094,0,0,0-1.144,1.29,9.343,9.343,0,0,0-.953,1.811,5.232,5.232,0,0,0-.357,2,3.635,3.635,0,0,0-.013.446,5.656,5.656,0,0,0,.136,1c.04.184.081.38.136.567a2.59,2.59,0,0,0,.15.559c.025.06.1.021.1-.03,0-.012,0-.026,0-.038a.09.09,0,0,0,.114-.095,3.409,3.409,0,0,0-.166-.827c-.047-.314-.111-.626-.147-.919-.015-.119-.021-.236-.029-.354,0-.045,0-.09,0-.136a3.052,3.052,0,0,1,.753-1.847A6.211,6.211,0,0,1,181,2.519a4.788,4.788,0,0,0,1.443-1.048c.235-.326.45-1,.064-1.3" transform="translate(-107.977 0)" fill="#ff6a7d"/>
          <path id="Trazado_1000147" data-name="Trazado 1000147" d="M185.948.146a.127.127,0,0,0-.246.038,4.319,4.319,0,0,1-2.811,3.451,7.2,7.2,0,0,0-3.209,2.077,8.742,8.742,0,0,0-1.674,3.924,4.956,4.956,0,0,0-.021,2.276,5.008,5.008,0,0,0,.441,1.4.141.141,0,1,0,.254-.12c-.015-.033-.025-.067-.039-.1a.136.136,0,0,0,.018-.15,4.425,4.425,0,0,1-.363-1.052,6.877,6.877,0,0,1,.2-2.71,5.049,5.049,0,0,1,.4-.859,6.953,6.953,0,0,1,3.5-2.7,7.375,7.375,0,0,0,3.187-2.12,3.225,3.225,0,0,0,.371-3.353" transform="translate(-107.545 -0.038)" fill="#ffe1cb"/>
          <path id="Trazado_1000148" data-name="Trazado 1000148" d="M184.03,12.209a17.732,17.732,0,0,0-4.352,2.384,4.7,4.7,0,0,0-1.226,1.214,2.187,2.187,0,0,0-.311,1.731" transform="translate(-107.671 -7.382)" fill="none" stroke="#12263f" stroke-linecap="round" stroke-linejoin="round" stroke-width="0.75"/>
          <path id="Trazado_1000149" data-name="Trazado 1000149" d="M195.808,24.092a9.107,9.107,0,0,0-2.324-5.32.262.262,0,0,0-.462.217,19.788,19.788,0,0,1,.044,4.35A2.857,2.857,0,0,1,191.1,25.5a3.378,3.378,0,0,1-2.829-.766,6.374,6.374,0,0,1-.68-.626,4.886,4.886,0,0,0-1.673-2.86c-1.351-.879-3.224-.3-4.481.52a6.36,6.36,0,0,0-1.772,1.721,4.15,4.15,0,0,0-.871,2.187c0,.822.435,1.128,1.122.906a4.287,4.287,0,0,0,1.861-1.542,4.7,4.7,0,0,1,2.348-1.887,2.391,2.391,0,0,1,2.076.419.634.634,0,0,1,.124-.006.687.687,0,0,1,.423.166,2.443,2.443,0,0,1,.585.879,8.18,8.18,0,0,1,.4,1.2c.047.17.087.342.13.514a4.969,4.969,0,0,0,2.078,2.584,3.776,3.776,0,0,0,3.895-.2,5.318,5.318,0,0,0,1.968-4.616" transform="translate(-108.108 -11.289)" fill="#2079f3"/>
          <path id="Trazado_1000150" data-name="Trazado 1000150" d="M201.853,30.787A2.757,2.757,0,0,1,198.7,32.05a11.833,11.833,0,0,1-3.243-1.674,2.192,2.192,0,0,0-1.843-.426" transform="translate(-117.069 -18.061)" fill="none" stroke="#15260d" stroke-linecap="round" stroke-linejoin="round" stroke-width="0.75"/>
          <path id="Trazado_1000151" data-name="Trazado 1000151" d="M207.366,31.474a3.154,3.154,0,0,1-1.384,2.52,3.61,3.61,0,0,1-2.692.481,6.37,6.37,0,0,1-2.54-1.209" transform="translate(-121.383 -19.031)" fill="none" stroke="#12263f" stroke-linecap="round" stroke-linejoin="round" stroke-width="0.75"/>
          <path id="Trazado_1000152" data-name="Trazado 1000152" d="M208.176,39.062a2.947,2.947,0,0,1-2.63,1.36,6.838,6.838,0,0,1-2.9-.908" transform="translate(-122.531 -23.619)" fill="none" stroke="#12263f" stroke-linecap="round" stroke-linejoin="round" stroke-width="0.75"/>
          <path id="Trazado_1000153" data-name="Trazado 1000153" d="M186.548,27.088a8.259,8.259,0,0,0-5.1,3.712" transform="translate(-109.711 -16.379)" fill="none" stroke="#15260d" stroke-linecap="round" stroke-linejoin="round" stroke-width="0.75"/>
          <path id="Trazado_1000154" data-name="Trazado 1000154" d="M192.444,10.373c.026-.108.055-.216.074-.325a.122.122,0,0,0-.157-.136v0c-.024-.119-.17-.092-.167.027s0,.259-.006.388a4.048,4.048,0,0,1-1.194,1.914c-.887.723-1.852.441-2.836.183a7.135,7.135,0,0,0-4.731.347,7.049,7.049,0,0,0-3.421,3.275,7.863,7.863,0,0,0-.774,2.419,8.337,8.337,0,0,0-.1,1.262v.009a3.074,3.074,0,0,0,.2,1.152.2.2,0,0,0,.05.07c.017.033.031.069.05.1.074.122.211.026.219-.091a.192.192,0,0,0,.061-.138c.025-.47-.077-.937-.065-1.411a7.2,7.2,0,0,1,.138-1.236,7.094,7.094,0,0,1,.214-.8,5.143,5.143,0,0,1,1-1.482,5.705,5.705,0,0,1,4.777-1.491,19.584,19.584,0,0,0,2.813.428,3.9,3.9,0,0,0,2.027-.642,4.113,4.113,0,0,0,1.471-1.721,4.617,4.617,0,0,0,.359-1.164,2.742,2.742,0,0,0,0-.935" transform="translate(-108.31 -5.945)" fill="#ffe76d"/>
          <path id="Trazado_1000155" data-name="Trazado 1000155" d="M201.391,13.6a6.138,6.138,0,0,1-6.433,1.847" transform="translate(-117.881 -8.226)" fill="none" stroke="#12263f" stroke-linecap="round" stroke-linejoin="round" stroke-width="0.75"/>
          <path id="Trazado_1000156" data-name="Trazado 1000156" d="M165.743.171a1.373,1.373,0,0,1,1.464.11,4.1,4.1,0,0,1,1.144,1.29,9.344,9.344,0,0,1,.953,1.811,5.232,5.232,0,0,1,.357,2,3.635,3.635,0,0,1,.013.446,5.65,5.65,0,0,1-.136,1c-.04.184-.081.38-.136.567a2.591,2.591,0,0,1-.15.559c-.025.06-.1.021-.1-.03,0-.012,0-.026,0-.038a.09.09,0,0,1-.114-.095,3.412,3.412,0,0,1,.166-.827c.047-.314.111-.626.147-.919.015-.119.021-.236.029-.354,0-.045,0-.09,0-.136a3.052,3.052,0,0,0-.753-1.847,6.209,6.209,0,0,0-1.376-1.186,4.789,4.789,0,0,1-1.443-1.048c-.235-.326-.45-1-.064-1.3" transform="translate(-100.088 0)" fill="#ff6a7d"/>
          <path id="Trazado_1000157" data-name="Trazado 1000157" d="M155.809.146a.127.127,0,0,1,.246.038,4.319,4.319,0,0,0,2.811,3.451,7.2,7.2,0,0,1,3.209,2.077,8.738,8.738,0,0,1,1.674,3.924,4.956,4.956,0,0,1,.021,2.276,5.009,5.009,0,0,1-.441,1.4.141.141,0,1,1-.255-.12c.016-.033.025-.067.04-.1a.135.135,0,0,1-.018-.15,4.428,4.428,0,0,0,.363-1.052,6.877,6.877,0,0,0-.2-2.71,5.047,5.047,0,0,0-.4-.859,6.954,6.954,0,0,0-3.5-2.7A7.375,7.375,0,0,1,156.18,3.5a3.225,3.225,0,0,1-.371-3.353" transform="translate(-94.022 -0.038)" fill="#ffe1cb"/>
          <path id="Trazado_1000158" data-name="Trazado 1000158" d="M161.451,12.209a17.731,17.731,0,0,1,4.352,2.384,4.7,4.7,0,0,1,1.226,1.214,2.188,2.188,0,0,1,.311,1.731" transform="translate(-97.621 -7.382)" fill="none" stroke="#12263f" stroke-linecap="round" stroke-linejoin="round" stroke-width="0.75"/>
          <path id="Trazado_1000159" data-name="Trazado 1000159" d="M132.758,24.092a9.106,9.106,0,0,1,2.324-5.32.262.262,0,0,1,.462.217,19.786,19.786,0,0,0-.044,4.35,2.857,2.857,0,0,0,1.964,2.162,3.378,3.378,0,0,0,2.829-.766,6.374,6.374,0,0,0,.68-.626,4.886,4.886,0,0,1,1.673-2.86c1.351-.879,3.224-.3,4.481.52a6.361,6.361,0,0,1,1.772,1.721,4.15,4.15,0,0,1,.871,2.187c0,.822-.435,1.128-1.122.906a4.287,4.287,0,0,1-1.861-1.542,4.7,4.7,0,0,0-2.348-1.887,2.391,2.391,0,0,0-2.076.419.634.634,0,0,0-.124-.006.687.687,0,0,0-.423.166,2.443,2.443,0,0,0-.585.879,8.182,8.182,0,0,0-.4,1.2c-.047.17-.087.342-.13.514a4.969,4.969,0,0,1-2.078,2.584,3.776,3.776,0,0,1-3.895-.2,5.317,5.317,0,0,1-1.968-4.616" transform="translate(-80.268 -11.289)" fill="#2079f3"/>
          <path id="Trazado_1000160" data-name="Trazado 1000160" d="M140.143,30.787a2.757,2.757,0,0,0,3.151,1.263,11.832,11.832,0,0,0,3.243-1.674,2.192,2.192,0,0,1,1.843-.426" transform="translate(-84.737 -18.061)" fill="none" stroke="#15260d" stroke-linecap="round" stroke-linejoin="round" stroke-width="0.75"/>
          <path id="Trazado_1000161" data-name="Trazado 1000161" d="M137.11,31.474a3.154,3.154,0,0,0,1.384,2.52,3.61,3.61,0,0,0,2.692.481,6.37,6.37,0,0,0,2.54-1.209" transform="translate(-82.903 -19.031)" fill="none" stroke="#12263f" stroke-linecap="round" stroke-linejoin="round" stroke-width="0.75"/>
          <path id="Trazado_1000162" data-name="Trazado 1000162" d="M137.965,39.062a2.947,2.947,0,0,0,2.63,1.36,6.836,6.836,0,0,0,2.9-.908" transform="translate(-83.42 -23.619)" fill="none" stroke="#12263f" stroke-linecap="round" stroke-linejoin="round" stroke-width="0.75"/>
          <path id="Trazado_1000163" data-name="Trazado 1000163" d="M160.242,27.088a8.259,8.259,0,0,1,5.1,3.712" transform="translate(-96.89 -16.379)" fill="none" stroke="#12263f" stroke-linecap="round" stroke-linejoin="round" stroke-width="0.75"/>
          <path id="Trazado_1000164" data-name="Trazado 1000164" d="M141.67,10.373c-.026-.108-.055-.216-.074-.325a.122.122,0,0,1,.157-.136v0c.024-.119.17-.092.167.027s0,.259.006.388a4.048,4.048,0,0,0,1.194,1.914c.887.723,1.852.441,2.836.183a7.135,7.135,0,0,1,4.731.347,7.048,7.048,0,0,1,3.421,3.275,7.866,7.866,0,0,1,.774,2.419,8.346,8.346,0,0,1,.1,1.262v.009a3.059,3.059,0,0,1-.2,1.152.2.2,0,0,1-.05.07c-.017.033-.031.069-.05.1-.074.122-.212.026-.219-.091a.192.192,0,0,1-.061-.138c-.025-.47.077-.937.065-1.411a6.822,6.822,0,0,0-.352-2.034,5.128,5.128,0,0,0-1-1.482,5.706,5.706,0,0,0-4.777-1.491,19.575,19.575,0,0,1-2.813.428,3.9,3.9,0,0,1-2.027-.642,4.113,4.113,0,0,1-1.471-1.721,4.633,4.633,0,0,1-.359-1.164,2.742,2.742,0,0,1,0-.935" transform="translate(-85.614 -5.945)" fill="#ffe76d"/>
          <path id="Trazado_1000165" data-name="Trazado 1000165" d="M143.364,13.6a6.138,6.138,0,0,0,6.433,1.847" transform="translate(-86.685 -8.226)" fill="none" stroke="#12263f" stroke-linecap="round" stroke-linejoin="round" stroke-width="0.75"/>
          <path id="Trazado_1000166" data-name="Trazado 1000166" d="M248.445,5.254a.317.317,0,0,0-.626-.093,49.586,49.586,0,0,1-3.077,8.422c-.083.16-.163.321-.25.478a14.822,14.822,0,0,1-4.845,5.3,20.925,20.925,0,0,1-13,3.094,25.04,25.04,0,0,1-6.74-1.462,39.917,39.917,0,0,1-6.331-3.184c-.627-.364-1.261-.722-1.9-1.062a14.683,14.683,0,0,0,2.606.39c1.115.094,2.23.206,3.347.272a11.541,11.541,0,0,0,5.694-.951c3.457-1.614,5.729-4.907,6.775-8.822A43.942,43.942,0,0,0,231.2.451a.362.362,0,0,0-.715-.107,22.716,22.716,0,0,1-5.514,9.884,18.5,18.5,0,0,1-9.886,5.432,20.875,20.875,0,0,1-4.855.381,14.327,14.327,0,0,0-3.023-1.007,11.779,11.779,0,0,0-6.827.652,6.953,6.953,0,0,0-4.209,4.148c-.019.06-.034.121-.051.181a17.541,17.541,0,0,0-2.689,1.408c-1.9,1.21-3.778,2.714-6,3.088a6.776,6.776,0,0,1-5.818-1.93c-1.444-1.439-2.609-4.129-.992-5.956.021-.024.045-.039.066-.062.955-.26,1.754,1.1,2.2,1.863s.975,1.591,1.819,1.813a1.777,1.777,0,0,0,1.978-.627,2.168,2.168,0,0,0-.58-2.528c-1.315-1.5-3.432-2.864-5.314-1.81-1.723.964-2.174,3.429-1.54,5.3a7.619,7.619,0,0,0,4.254,4.43,7.53,7.53,0,0,0,6.118-.131c2.043-.916,3.8-2.421,5.79-3.455.164-.085.333-.16.5-.238a6.954,6.954,0,0,0,1.251,4.537c2.324,3.213,7.657,3.612,9.947.125a4.252,4.252,0,0,0-.829-5.457c-1.723-1.545-4.234-1.631-6.343-1.386a13.824,13.824,0,0,0-2.611.567,4.988,4.988,0,0,1,1.327-1.721,9.907,9.907,0,0,1,6.6-2.014,15.116,15.116,0,0,1,6.765,2.243,69.578,69.578,0,0,0,6.167,3.326,37.932,37.932,0,0,0,12.727,3.23,20.031,20.031,0,0,0,6.675-.854,19.071,19.071,0,0,0,6.1-3.072,10.788,10.788,0,0,0,3.67-5.981,32.092,32.092,0,0,0,1.082-9.472m-45.9,14.726a5.181,5.181,0,0,1,3.268,1.305,3.222,3.222,0,0,1,.961,3.021c-.54,2.161-2.925,3.034-4.739,2.949a5.4,5.4,0,0,1-4.828-3.442,5.554,5.554,0,0,1-.268-3.064,12.959,12.959,0,0,1,5.605-.77" transform="translate(-108.221 -0.038)" fill="#2cbe91"/>
          <path id="Trazado_1000167" data-name="Trazado 1000167" d="M258.62,40.662a19.129,19.129,0,0,1-5.663-1.633" transform="translate(-152.95 -23.599)" fill="none" stroke="#12263f" stroke-linecap="round" stroke-linejoin="round" stroke-width="0.75"/>
          <path id="Trazado_1000168" data-name="Trazado 1000168" d="M287.657,15.125a16.2,16.2,0,0,1-12.186,10.151" transform="translate(-166.563 -9.145)" fill="none" stroke="#12263f" stroke-linecap="round" stroke-linejoin="round" stroke-width="0.75"/>
          <path id="Trazado_1000169" data-name="Trazado 1000169" d="M319.765,23.622c-1.519,5.026-4.577,9.693-8.954,11.861a16.393,16.393,0,0,1-2.733,1.037,22.824,22.824,0,0,1-9.853.635" transform="translate(-180.321 -14.283)" fill="none" stroke="#15260d" stroke-linecap="round" stroke-linejoin="round" stroke-width="0.75"/>
          <path id="Trazado_1000170" data-name="Trazado 1000170" d="M225.934,45.355a6.164,6.164,0,0,0-1.738,5.01" transform="translate(-135.547 -27.424)" fill="none" stroke="#12263f" stroke-linecap="round" stroke-linejoin="round" stroke-width="0.75"/>
          <path id="Trazado_1000171" data-name="Trazado 1000171" d="M223.187,45.454a6.9,6.9,0,0,0-1.12,4.279" transform="translate(-134.262 -27.484)" fill="none" stroke="#15260d" stroke-linecap="round" stroke-linejoin="round" stroke-width="0.75"/>
          <path id="Trazado_1000172" data-name="Trazado 1000172" d="M225.473,49.757a10.476,10.476,0,0,1,1.73-.694" transform="translate(-136.332 -29.666)" fill="none" stroke="#12263f" stroke-linecap="round" stroke-linejoin="round" stroke-width="0.75"/>
          <path id="Trazado_1000173" data-name="Trazado 1000173" d="M181.423,42.178a3.172,3.172,0,0,1,.771-1.436,1.975,1.975,0,0,1,.717-.374,3.02,3.02,0,0,1,3.185.846,1.706,1.706,0,0,1,.461,1.138c-.016.427-.324.854-.71.852" transform="translate(-109.697 -24.322)" fill="none" stroke="#12263f" stroke-linecap="round" stroke-linejoin="round" stroke-width="0.75"/>
          <path id="Trazado_1000174" data-name="Trazado 1000174" d="M1.1,14.725a10.787,10.787,0,0,0,3.669,5.981,19.075,19.075,0,0,0,6.1,3.072,20.042,20.042,0,0,0,6.676.854A37.93,37.93,0,0,0,30.275,21.4a69.678,69.678,0,0,0,6.167-3.326,15.118,15.118,0,0,1,6.765-2.243,9.907,9.907,0,0,1,6.6,2.014,4.984,4.984,0,0,1,1.327,1.721A13.819,13.819,0,0,0,48.521,19c-2.11-.245-4.62-.159-6.343,1.386a4.252,4.252,0,0,0-.829,5.457c2.289,3.487,7.622,3.088,9.946-.125a6.954,6.954,0,0,0,1.251-4.537c.167.078.336.153.5.238,1.988,1.034,3.746,2.54,5.79,3.455a7.529,7.529,0,0,0,6.118.13,7.619,7.619,0,0,0,4.254-4.43c.633-1.87.182-4.335-1.541-5.3-1.883-1.054-4,.314-5.314,1.81a2.169,2.169,0,0,0-.58,2.528,1.776,1.776,0,0,0,1.978.626c.845-.221,1.376-1.052,1.819-1.813s1.242-2.122,2.2-1.862c.021.023.045.038.066.062,1.617,1.827.452,4.516-.992,5.956a6.776,6.776,0,0,1-5.818,1.93c-2.218-.374-4.1-1.879-6-3.088a17.506,17.506,0,0,0-2.689-1.408c-.017-.06-.032-.122-.051-.181a6.955,6.955,0,0,0-4.209-4.148,11.778,11.778,0,0,0-6.828-.652,14.334,14.334,0,0,0-3.023,1.007,20.9,20.9,0,0,1-4.855-.381,18.5,18.5,0,0,1-9.886-5.432A22.715,22.715,0,0,1,17.972.344a.362.362,0,0,0-.715.107,43.979,43.979,0,0,0,1.105,7.184c1.046,3.915,3.318,7.208,6.775,8.822a11.54,11.54,0,0,0,5.694.951c1.117-.066,2.232-.178,3.347-.272a14.678,14.678,0,0,0,2.606-.39c-.643.339-1.278.7-1.9,1.062a39.916,39.916,0,0,1-6.331,3.184,25.037,25.037,0,0,1-6.74,1.462,20.925,20.925,0,0,1-13-3.094,14.825,14.825,0,0,1-4.845-5.3c-.087-.157-.167-.318-.249-.478A49.606,49.606,0,0,1,.642,5.16a.317.317,0,0,0-.625.093A32.076,32.076,0,0,0,1.1,14.725m50.42,6.024a5.558,5.558,0,0,1-.268,3.064,5.4,5.4,0,0,1-4.828,3.442c-1.814.085-4.2-.788-4.739-2.949a3.224,3.224,0,0,1,.961-3.021,5.184,5.184,0,0,1,3.268-1.305,12.96,12.96,0,0,1,5.605.77" transform="translate(0 -0.038)" fill="#2cbe91"/>
          <path id="Trazado_1000175" data-name="Trazado 1000175" d="M87.443,40.662a19.129,19.129,0,0,0,5.663-1.633" transform="translate(-52.872 -23.599)" fill="none" stroke="#12263f" stroke-linecap="round" stroke-linejoin="round" stroke-width="0.75"/>
          <path id="Trazado_1000176" data-name="Trazado 1000176" d="M48.43,15.125A16.2,16.2,0,0,0,60.616,25.276" transform="translate(-29.283 -9.145)" fill="none" stroke="#15260d" stroke-linecap="round" stroke-linejoin="round" stroke-width="0.75"/>
          <path id="Trazado_1000177" data-name="Trazado 1000177" d="M2.019,23.622c1.519,5.026,4.577,9.693,8.954,11.861a16.392,16.392,0,0,0,2.733,1.037,22.825,22.825,0,0,0,9.853.635" transform="translate(-1.221 -14.283)" fill="none" stroke="#15260d" stroke-linecap="round" stroke-linejoin="round" stroke-width="0.75"/>
          <path id="Trazado_1000178" data-name="Trazado 1000178" d="M126.1,45.355a6.164,6.164,0,0,1,1.738,5.01" transform="translate(-76.246 -27.424)" fill="none" stroke="#15260d" stroke-linecap="round" stroke-linejoin="round" stroke-width="0.75"/>
          <path id="Trazado_1000179" data-name="Trazado 1000179" d="M129.8,45.454a6.9,6.9,0,0,1,1.12,4.279" transform="translate(-78.483 -27.484)" fill="none" stroke="#12263f" stroke-linecap="round" stroke-linejoin="round" stroke-width="0.75"/>
          <path id="Trazado_1000180" data-name="Trazado 1000180" d="M126.605,49.757a10.475,10.475,0,0,0-1.73-.694" transform="translate(-75.505 -29.666)" fill="none" stroke="#12263f" stroke-linecap="round" stroke-linejoin="round" stroke-width="0.75"/>
          <path id="Trazado_1000181" data-name="Trazado 1000181" d="M165.449,42.178a3.177,3.177,0,0,0-.771-1.436,1.975,1.975,0,0,0-.717-.374,3.02,3.02,0,0,0-3.185.846,1.706,1.706,0,0,0-.461,1.138c.016.427.324.854.71.852" transform="translate(-96.933 -24.322)" fill="none" stroke="#15260d" stroke-linecap="round" stroke-linejoin="round" stroke-width="0.75"/>
          <path id="Trazado_1000182" data-name="Trazado 1000182" d="M177.139,33.5a1.773,1.773,0,1,0-1.764,1.949,1.864,1.864,0,0,0,1.764-1.949" transform="translate(-104.973 -19.074)" fill="#2cbe91"/>
        </g>
      </g>
      <g id="chef-masculino" transform="translate(1201.327 392.123)">
        <g id="Grupo_1187027" data-name="Grupo 1187027" transform="translate(63.275 0)">
          <circle id="Elipse_11495" data-name="Elipse 11495" cx="1.626" cy="1.626" r="1.626" transform="translate(39.025 85.87)" fill="#2079f3"/>
          <circle id="Elipse_11496" data-name="Elipse 11496" cx="1.626" cy="1.626" r="1.626" transform="translate(39.025 92.849)" fill="#2079f3"/>
          <path id="Trazado_1138715" data-name="Trazado 1138715" d="M217.466,48.358a1.553,1.553,0,1,0,3.107,0,40.52,40.52,0,0,0-1.329-9.574,1.553,1.553,0,0,0-2.993.832A37.8,37.8,0,0,1,217.466,48.358Z" transform="translate(-184.522 -29.849)" fill="#2079f3"/>
          <path id="Trazado_1138716" data-name="Trazado 1138716" d="M276.836,49.912a1.553,1.553,0,0,0,1.553-1.553,37.966,37.966,0,0,1,1.215-8.742,1.553,1.553,0,0,0-2.993-.832,40.515,40.515,0,0,0-1.329,9.574A1.553,1.553,0,0,0,276.836,49.912Z" transform="translate(-231.373 -29.85)" fill="#2079f3"/>
          <path id="Trazado_1138717" data-name="Trazado 1138717" d="M247.011,206.865h1.428a1.554,1.554,0,0,0,.356-3.066l.582-4.1a1.553,1.553,0,1,0-3.076-.437l-.828,5.827A1.605,1.605,0,0,0,247.011,206.865Z" transform="translate(-207.729 -156.936)" fill="#2079f3"/>
          <path id="Trazado_1138718" data-name="Trazado 1138718" d="M239.233,251.936a5.922,5.922,0,0,0,4.263-1.884,1.553,1.553,0,1,0-2.2-2.2c-1.028,1.414-3.586.976-4.446-.028a1.553,1.553,0,0,0-2.147,2.245A6.765,6.765,0,0,0,239.233,251.936Z" transform="translate(-198.823 -196.16)" fill="#2079f3"/>
          <path id="Trazado_1138719" data-name="Trazado 1138719" d="M143.044,102.311,137.69,76.088A12.481,12.481,0,0,0,125.5,66.134H115.311l-1.567-3.915a16.089,16.089,0,0,0,8.666-12.4,9.437,9.437,0,0,0,6.428-14.532A1.553,1.553,0,0,0,126.249,37a6.329,6.329,0,0,1-3.727,9.624V34.575s0,0,0,0V22.807a3.506,3.506,0,0,1,1.612-2.912,10.772,10.772,0,0,0,4.861-9.546A10.842,10.842,0,0,0,111.356,2.4a1.565,1.565,0,0,1-1.962.023,10.837,10.837,0,0,0-13.672,0,1.563,1.563,0,0,1-1.961-.023A10.843,10.843,0,1,0,82.525,20.743a3.445,3.445,0,0,1,2.039,3.138v7.308a9.434,9.434,0,0,0,.108,18.629,15.907,15.907,0,0,0,8.193,12.156l-1.548,3.87q-.382.13-.751.29H80.88a12.481,12.481,0,0,0-12.188,9.954l-5.354,26.223a3.109,3.109,0,0,0,3.046,3.732H140a3.109,3.109,0,0,0,3.046-3.732ZM87.808,73.787A6.917,6.917,0,0,1,92.971,68.6l1.972-.455L94.5,70.117a6.917,6.917,0,0,1-5.163,5.189l-1.972.455Zm10.284-9.808a.042.042,0,0,1,.042-.042h2.595a.042.042,0,0,1,.042.042v5.134a.042.042,0,0,1-.042.042H98.134a.042.042,0,0,1-.042-.042Zm6.274,6.137-.445-1.974,1.972.455a6.917,6.917,0,0,1,5.163,5.189l.445,1.974-1.972-.455A6.917,6.917,0,0,1,104.365,70.117Zm3.932-3.983A21.91,21.91,0,0,0,103.877,65a5.261,5.261,0,0,0-.29-2.329h6.99l1.387,3.467Zm-24.5-48.227A7.736,7.736,0,1,1,91.808,4.823a4.684,4.684,0,0,0,5.876.017,7.73,7.73,0,0,1,9.75,0,4.686,4.686,0,0,0,5.874-.016A7.737,7.737,0,1,1,122.42,17.3a6.6,6.6,0,0,0-3.005,5.5V25.98H97.68a1.553,1.553,0,1,0,0,3.107h21.735v3.931H87.671V29.086h2.673a1.553,1.553,0,1,0,0-3.107H87.671v-2.1A6.556,6.556,0,0,0,83.794,17.907Zm-4,22.586a6.338,6.338,0,0,1,4.774-6.134v12.27A6.34,6.34,0,0,1,79.789,40.493Zm7.881,7.462V36.124h31.745V47.955a12.94,12.94,0,0,1-7.682,11.78c-.309-.113-16.4-.151-16.611-.1A12.828,12.828,0,0,1,87.67,47.955Zm-19.6,46.732.025-.121h9.293l-.2,2.053H67.672ZM79.852,69.3,77.687,91.46H68.725l3.012-14.751A9.368,9.368,0,0,1,79.852,69.3Zm-13.47,33.633.655-3.207h9.843l-.314,3.21Zm13.755-4.6v-.005l2.842-29.088h3.614A9.943,9.943,0,0,0,84.777,73.1c-.357,1.551-1.09,3.526.315,4.939,1.035,1.316,3.384.72,4.941.291A10.049,10.049,0,0,0,97.138,72.1a13.387,13.387,0,0,0,4.586,0,9.957,9.957,0,0,0,1.049,2.038l-5.716,5.716a4.189,4.189,0,0,0-1.235,2.982v20.1H79.687Zm49.808,4.6L128.06,83.642a1.553,1.553,0,0,0-3.092.3l1.856,18.992h-27.9v-20.1a1.1,1.1,0,0,1,.325-.785l5.627-5.628c2.469,1.7,6.63,3.509,8.889,1.62,2.069-2.235-.292-7.094-1.5-8.8h11.263l.723,7.4a1.554,1.554,0,0,0,1.544,1.4,1.632,1.632,0,0,0,1.548-1.7l-.687-7.029a9.369,9.369,0,0,1,7.986,7.395L140,102.936Z" transform="translate(-63.275 0)" fill="#2079f3"/>
        </g>
      </g>
    </g>
  </g>
</svg>
