<svg xmlns="http://www.w3.org/2000/svg" xmlns:xlink="http://www.w3.org/1999/xlink" width="263.853" height="244.976" viewBox="0 0 263.853 244.976">
  <defs>
    <clipPath id="clip-path">
      <rect id="Rectángulo_455881" data-name="Rectángulo 455881" width="147.87" height="29.796" fill="#2cbe91"/>
    </clipPath>
  </defs>
  <g id="Grupo_1187595" data-name="Grupo 1187595" transform="translate(-1031.681 -1936.024)">
    <g id="Grupo_1186069" data-name="Grupo 1186069" transform="translate(-53.326 -358.293)">
      <path id="Trazado_1085278" data-name="Trazado 1085278" d="M230.684,21.257V0h-6.909c-.042,5.928-4.532,10.7-10.028,10.651-5.436-.045-9.833-4.787-9.875-10.651h-8.43c0,5.928-4.456,10.734-9.952,10.734S175.538,5.928,175.538,0h-8.406c0,5.928-4.456,10.734-9.952,10.734S147.227,5.928,147.227,0H139.1c0,5.928-4.456,10.735-9.953,10.735S119.193,5.928,119.193,0h-8.631c0,5.928-4.455,10.734-9.952,10.734S90.657,5.928,90.657,0H82.314c0,5.928-4.456,10.734-9.952,10.734S62.409,5.928,62.409,0h-7.96c0,5.929-4.451,10.737-9.948,10.74S34.546,5.94,34.543.011V0H26.012c0,5.928-4.456,10.734-9.952,10.734S6.107,5.928,6.107,0H0V21.324c5.5,0,9.953,4.806,9.953,10.735S5.5,42.794,0,42.794V52.1c5.5,0,9.953,4.806,9.953,10.735S5.5,73.573,0,73.573v8.768H.022c5.5.007,9.947,4.818,9.941,10.746S5.5,103.816,0,103.809v9.063c5.5,0,9.953,4.806,9.953,10.735S5.5,134.342,0,134.342v8.632H.022c5.5.006,9.947,4.818,9.941,10.746S5.5,164.448,0,164.442v21.224H6.073c0-5.929,4.456-10.734,9.952-10.734s9.952,4.805,9.952,10.734h8.53v-.024c.006-5.929,4.467-10.729,9.963-10.722s9.947,4.818,9.941,10.746h7.964v-.024c.006-5.929,4.467-10.729,9.963-10.722s9.947,4.818,9.941,10.746h8.337v-.024c.006-5.929,4.467-10.729,9.963-10.722s9.947,4.818,9.941,10.746h8.633v-.024c.006-5.929,4.467-10.729,9.963-10.722s9.947,4.818,9.941,10.746h8.13c0-5.929,4.456-10.735,9.953-10.735s9.953,4.807,9.953,10.735h8.4v-.024c.006-5.929,4.467-10.729,9.963-10.722s9.947,4.818,9.941,10.746h8.433v-.024c.006-5.929,4.467-10.729,9.963-10.722s9.947,4.818,9.941,10.746h6.942V164.375h-.022c-5.5-.007-9.947-4.818-9.941-10.746s4.467-10.729,9.964-10.722v-8.633c-5.5,0-9.953-4.806-9.953-10.734s4.456-10.735,9.953-10.735v-9.063h-.022c-5.5-.007-9.947-4.818-9.941-10.746s4.467-10.729,9.964-10.722V73.505c-5.5,0-9.953-4.806-9.953-10.735s4.456-10.735,9.953-10.735V42.728c-5.5,0-9.955-4.8-9.958-10.73s4.451-10.737,9.948-10.74h.01" transform="translate(1144.996 2525.001) rotate(-90)" fill="#bbd6fc"/>
      <g id="Grupo_1184022" data-name="Grupo 1184022" transform="translate(1298.894 2443.73)">
        <g id="Grupo_1183846" data-name="Grupo 1183846" transform="translate(0 0)">
          <rect id="Rectángulo_455879" data-name="Rectángulo 455879" width="49.225" height="47.265" transform="translate(0.371)" fill="#2cbe91"/>
          <path id="Trazado_1000145" data-name="Trazado 1000145" d="M0,2.158H1.316a2.156,2.156,0,0,1,4.311,0H7.474v0a2.156,2.156,0,1,1,4.311,0h1.725v0a2.156,2.156,0,1,1,4.311,0h1.806v0a2.156,2.156,0,1,1,4.311,0h1.87v0a2.156,2.156,0,1,1,4.311,0h1.761a2.156,2.156,0,0,1,4.312,0h1.82v0a2.156,2.156,0,1,1,4.311,0h1.826v0a2.156,2.156,0,1,1,4.311,0h1.5" transform="translate(49.966 48.955) rotate(180)" fill="#2cbe91"/>
        </g>
        <path id="Trazado_1000133" data-name="Trazado 1000133" d="M1.175,21.061c-.07-.112-.145-.222-.217-.334a5.5,5.5,0,0,1-.935-2.464,3.894,3.894,0,0,1,.042-1.126,5.724,5.724,0,0,1,.765-2c.151-.234.327-.451.5-.7a.239.239,0,0,0,0-.083,3.809,3.809,0,0,1,.15-2.5,5.772,5.772,0,0,1,1.007-1.68A6.668,6.668,0,0,1,4.253,8.614c.156-.09.315-.177.482-.269a3.192,3.192,0,0,1,.921-2.087,6.277,6.277,0,0,1,1.53-1.287A5.678,5.678,0,0,1,9.475,4.15a1.551,1.551,0,0,0,.082-.16,2.947,2.947,0,0,1,.995-1.278,6.011,6.011,0,0,1,2.887-1.224,5.347,5.347,0,0,1,1.127-.016c.132.009.264.01.384.013.089-.077.162-.139.236-.2A5.535,5.535,0,0,1,18.354.028a6.182,6.182,0,0,1,2.793.377c.125.046.251.086.342.117A5.932,5.932,0,0,1,25.372.206,5.814,5.814,0,0,1,28.528,2.4a3.43,3.43,0,0,1,1.1.1,4.741,4.741,0,0,1,1.755.852,4.84,4.84,0,0,1,.8.736,3.376,3.376,0,0,1,.783,1.727A2.949,2.949,0,0,1,32.168,8.3a5.839,5.839,0,0,1-1.03.915,5.083,5.083,0,0,0-.669.614A20.538,20.538,0,0,1,28.654,11.4q-1.26.993-2.536,1.963c-.573.433-1.165.839-1.739,1.262-1.9,1.4-3.87,2.7-5.808,4.038-1.63,1.128-3.3,2.2-4.975,3.254q-1.7,1.066-3.445,2.054a33.3,33.3,0,0,1-3.694,1.814,1.693,1.693,0,0,1-.241.082.734.734,0,0,0-.348.186.755.755,0,0,1-.209.145,4.7,4.7,0,0,1-1.587.5,2.733,2.733,0,0,1-.863-.03,2.178,2.178,0,0,1-.781-.38,3.985,3.985,0,0,1-1.386-1.656,3.837,3.837,0,0,1-.3-1.491c0-.218.015-.437.028-.656a3.074,3.074,0,0,1,.292-1.159c.042-.086.077-.177.121-.278" transform="translate(19.32 5.864) rotate(34)" fill="#1b5b5b"/>
      </g>
      <g id="Grupo_1184023" data-name="Grupo 1184023" transform="translate(1085.007 2470.59)">
        <g id="Grupo_1183367" data-name="Grupo 1183367" transform="translate(0 0)" clip-path="url(#clip-path)">
          <path id="Trazado_1000146" data-name="Trazado 1000146" d="M182.725.18A1.448,1.448,0,0,0,181.182.3a4.316,4.316,0,0,0-1.206,1.361,9.851,9.851,0,0,0-1.005,1.91,5.517,5.517,0,0,0-.376,2.108,3.835,3.835,0,0,0-.014.47,5.965,5.965,0,0,0,.143,1.053c.043.194.085.4.144.6a2.731,2.731,0,0,0,.158.589c.026.063.1.023.106-.032,0-.013,0-.027,0-.04a.1.1,0,0,0,.121-.1,3.6,3.6,0,0,0-.175-.872c-.05-.331-.117-.66-.155-.969-.015-.125-.023-.249-.031-.374,0-.048,0-.1,0-.143a3.218,3.218,0,0,1,.794-1.948,6.549,6.549,0,0,1,1.451-1.251,5.049,5.049,0,0,0,1.521-1.105c.248-.343.474-1.057.068-1.371" transform="translate(-104.136 0)" fill="#ff6a7d"/>
          <path id="Trazado_1000147" data-name="Trazado 1000147" d="M186.388.15a.134.134,0,0,0-.26.04,4.554,4.554,0,0,1-2.964,3.639,7.6,7.6,0,0,0-3.384,2.19,9.217,9.217,0,0,0-1.765,4.137,5.226,5.226,0,0,0-.022,2.4,5.28,5.28,0,0,0,.465,1.474.148.148,0,1,0,.268-.126c-.016-.035-.026-.07-.041-.105a.143.143,0,0,0,.019-.158,4.666,4.666,0,0,1-.382-1.109,7.251,7.251,0,0,1,.211-2.858,5.323,5.323,0,0,1,.418-.906,7.332,7.332,0,0,1,3.686-2.848A7.776,7.776,0,0,0,186,3.685,3.4,3.4,0,0,0,186.388.15" transform="translate(-103.72 -0.037)" fill="#ffe1cb"/>
          <path id="Trazado_1000148" data-name="Trazado 1000148" d="M184.354,12.209a18.7,18.7,0,0,0-4.589,2.514A4.96,4.96,0,0,0,178.473,16a2.306,2.306,0,0,0-.328,1.825" transform="translate(-103.842 -7.12)" fill="none" stroke="#12263f" stroke-linecap="round" stroke-linejoin="round" stroke-width="0.75"/>
          <path id="Trazado_1000149" data-name="Trazado 1000149" d="M196.734,24.387a9.6,9.6,0,0,0-2.45-5.61.276.276,0,0,0-.487.229,20.863,20.863,0,0,1,.046,4.586,3.012,3.012,0,0,1-2.071,2.279,3.562,3.562,0,0,1-2.983-.808,6.72,6.72,0,0,1-.717-.66,5.151,5.151,0,0,0-1.764-3.016c-1.425-.927-3.4-.317-4.725.548a6.705,6.705,0,0,0-1.868,1.815,4.376,4.376,0,0,0-.919,2.306c0,.867.459,1.189,1.183.955a4.521,4.521,0,0,0,1.962-1.626,4.96,4.96,0,0,1,2.476-1.99,2.521,2.521,0,0,1,2.189.442.668.668,0,0,1,.131-.007.725.725,0,0,1,.447.175,2.576,2.576,0,0,1,.617.927,8.623,8.623,0,0,1,.424,1.267c.049.179.092.361.137.541a5.24,5.24,0,0,0,2.191,2.725,3.982,3.982,0,0,0,4.106-.214,5.607,5.607,0,0,0,2.075-4.867" transform="translate(-104.264 -10.888)" fill="#2079f3"/>
          <path id="Trazado_1000150" data-name="Trazado 1000150" d="M202.3,30.837a2.907,2.907,0,0,1-3.322,1.332,12.477,12.477,0,0,1-3.42-1.765,2.312,2.312,0,0,0-1.943-.449" transform="translate(-112.906 -17.419)" fill="none" stroke="#15260d" stroke-linecap="round" stroke-linejoin="round" stroke-width="0.75"/>
          <path id="Trazado_1000151" data-name="Trazado 1000151" d="M207.726,31.474a3.325,3.325,0,0,1-1.459,2.657,3.806,3.806,0,0,1-2.838.507,6.717,6.717,0,0,1-2.678-1.275" transform="translate(-117.066 -18.354)" fill="none" stroke="#12263f" stroke-linecap="round" stroke-linejoin="round" stroke-width="0.75"/>
          <path id="Trazado_1000152" data-name="Trazado 1000152" d="M208.477,39.062A3.107,3.107,0,0,1,205.7,40.5a7.21,7.21,0,0,1-3.054-.957" transform="translate(-118.173 -22.779)" fill="none" stroke="#12263f" stroke-linecap="round" stroke-linejoin="round" stroke-width="0.75"/>
          <path id="Trazado_1000153" data-name="Trazado 1000153" d="M186.826,27.088A8.708,8.708,0,0,0,181.446,31" transform="translate(-105.809 -15.796)" fill="none" stroke="#15260d" stroke-linecap="round" stroke-linejoin="round" stroke-width="0.75"/>
          <path id="Trazado_1000154" data-name="Trazado 1000154" d="M193.168,10.4c.027-.114.058-.228.078-.342a.129.129,0,0,0-.166-.143v0c-.025-.125-.179-.1-.176.028s0,.273-.006.409a4.268,4.268,0,0,1-1.258,2.018c-.935.762-1.953.465-2.99.193a7.523,7.523,0,0,0-4.988.366,7.433,7.433,0,0,0-3.607,3.453,8.291,8.291,0,0,0-.816,2.551,8.788,8.788,0,0,0-.108,1.331v.01a3.241,3.241,0,0,0,.21,1.215.214.214,0,0,0,.053.073c.018.035.033.073.053.106.078.128.223.027.23-.1a.2.2,0,0,0,.065-.145c.026-.5-.081-.988-.069-1.488a7.586,7.586,0,0,1,.146-1.3,7.484,7.484,0,0,1,.225-.842,5.423,5.423,0,0,1,1.058-1.562,6.016,6.016,0,0,1,5.037-1.572,20.649,20.649,0,0,0,2.966.451,4.111,4.111,0,0,0,2.137-.677,4.336,4.336,0,0,0,1.551-1.814,4.867,4.867,0,0,0,.378-1.228,2.892,2.892,0,0,0,0-.986" transform="translate(-104.458 -5.733)" fill="#ffe76d"/>
          <path id="Trazado_1000155" data-name="Trazado 1000155" d="M201.741,13.6a6.472,6.472,0,0,1-6.783,1.948" transform="translate(-113.688 -7.933)" fill="none" stroke="#12263f" stroke-linecap="round" stroke-linejoin="round" stroke-width="0.75"/>
          <path id="Trazado_1000156" data-name="Trazado 1000156" d="M165.755.18A1.448,1.448,0,0,1,167.3.3,4.321,4.321,0,0,1,168.5,1.656a9.853,9.853,0,0,1,1.005,1.91,5.517,5.517,0,0,1,.376,2.108,3.832,3.832,0,0,1,.014.47,5.958,5.958,0,0,1-.143,1.053c-.043.194-.085.4-.144.6a2.732,2.732,0,0,1-.158.589c-.026.063-.1.023-.106-.032,0-.013,0-.027,0-.04a.1.1,0,0,1-.12-.1,3.6,3.6,0,0,1,.175-.872c.05-.331.117-.66.155-.969.015-.125.022-.249.03-.374,0-.048,0-.1,0-.143a3.217,3.217,0,0,0-.794-1.948,6.546,6.546,0,0,0-1.451-1.251,5.049,5.049,0,0,1-1.521-1.105c-.248-.343-.474-1.057-.068-1.371" transform="translate(-96.529 0)" fill="#ff6a7d"/>
          <path id="Trazado_1000157" data-name="Trazado 1000157" d="M155.826.15a.134.134,0,0,1,.26.04,4.554,4.554,0,0,0,2.964,3.639,7.591,7.591,0,0,1,3.383,2.19,9.214,9.214,0,0,1,1.765,4.137,5.226,5.226,0,0,1,.022,2.4,5.28,5.28,0,0,1-.465,1.474.148.148,0,1,1-.268-.126c.017-.035.026-.07.042-.105a.143.143,0,0,1-.019-.158,4.67,4.67,0,0,0,.382-1.109,7.252,7.252,0,0,0-.211-2.858,5.32,5.32,0,0,0-.418-.906,7.332,7.332,0,0,0-3.686-2.848,7.777,7.777,0,0,1-3.36-2.235A3.4,3.4,0,0,1,155.826.15" transform="translate(-90.678 -0.037)" fill="#ffe1cb"/>
          <path id="Trazado_1000158" data-name="Trazado 1000158" d="M161.451,12.209a18.7,18.7,0,0,1,4.589,2.514A4.959,4.959,0,0,1,167.333,16a2.307,2.307,0,0,1,.328,1.825" transform="translate(-94.149 -7.12)" fill="none" stroke="#12263f" stroke-linecap="round" stroke-linejoin="round" stroke-width="0.75"/>
          <path id="Trazado_1000159" data-name="Trazado 1000159" d="M132.759,24.387a9.6,9.6,0,0,1,2.45-5.61.276.276,0,0,1,.487.229,20.863,20.863,0,0,0-.046,4.586,3.013,3.013,0,0,0,2.071,2.279,3.562,3.562,0,0,0,2.983-.808,6.723,6.723,0,0,0,.717-.66,5.151,5.151,0,0,1,1.764-3.016c1.425-.927,3.4-.317,4.725.548a6.707,6.707,0,0,1,1.868,1.815,4.376,4.376,0,0,1,.919,2.306c0,.867-.459,1.189-1.183.955a4.521,4.521,0,0,1-1.962-1.626,4.96,4.96,0,0,0-2.476-1.99,2.521,2.521,0,0,0-2.189.442.668.668,0,0,0-.131-.007.724.724,0,0,0-.446.175,2.575,2.575,0,0,0-.617.927,8.627,8.627,0,0,0-.424,1.267c-.049.179-.092.361-.137.541a5.239,5.239,0,0,1-2.191,2.725,3.982,3.982,0,0,1-4.106-.214,5.607,5.607,0,0,1-2.075-4.867" transform="translate(-77.414 -10.888)" fill="#2079f3"/>
          <path id="Trazado_1000160" data-name="Trazado 1000160" d="M140.143,30.837a2.907,2.907,0,0,0,3.322,1.332,12.476,12.476,0,0,0,3.42-1.765,2.312,2.312,0,0,1,1.943-.449" transform="translate(-81.723 -17.419)" fill="none" stroke="#15260d" stroke-linecap="round" stroke-linejoin="round" stroke-width="0.75"/>
          <path id="Trazado_1000161" data-name="Trazado 1000161" d="M137.11,31.474a3.325,3.325,0,0,0,1.459,2.657,3.806,3.806,0,0,0,2.838.507,6.717,6.717,0,0,0,2.678-1.275" transform="translate(-79.955 -18.354)" fill="none" stroke="#12263f" stroke-linecap="round" stroke-linejoin="round" stroke-width="0.75"/>
          <path id="Trazado_1000162" data-name="Trazado 1000162" d="M137.965,39.062a3.107,3.107,0,0,0,2.773,1.434,7.208,7.208,0,0,0,3.054-.957" transform="translate(-80.453 -22.779)" fill="none" stroke="#12263f" stroke-linecap="round" stroke-linejoin="round" stroke-width="0.75"/>
          <path id="Trazado_1000163" data-name="Trazado 1000163" d="M160.242,27.088A8.708,8.708,0,0,1,165.622,31" transform="translate(-93.444 -15.796)" fill="none" stroke="#12263f" stroke-linecap="round" stroke-linejoin="round" stroke-width="0.75"/>
          <path id="Trazado_1000164" data-name="Trazado 1000164" d="M141.674,10.4c-.028-.114-.058-.228-.078-.342a.129.129,0,0,1,.166-.143v0c.025-.125.179-.1.176.028s0,.273.006.409a4.268,4.268,0,0,0,1.258,2.018c.935.762,1.953.465,2.99.193a7.523,7.523,0,0,1,4.988.366,7.431,7.431,0,0,1,3.608,3.453,8.294,8.294,0,0,1,.816,2.551,8.8,8.8,0,0,1,.108,1.331v.01a3.225,3.225,0,0,1-.21,1.215.213.213,0,0,1-.053.073c-.018.035-.033.073-.052.106-.078.128-.223.027-.231-.1a.2.2,0,0,1-.065-.145c-.026-.5.081-.988.069-1.488a7.192,7.192,0,0,0-.371-2.145,5.407,5.407,0,0,0-1.058-1.562,6.016,6.016,0,0,0-5.037-1.572,20.64,20.64,0,0,1-2.966.451,4.109,4.109,0,0,1-2.137-.677,4.337,4.337,0,0,1-1.551-1.814,4.884,4.884,0,0,1-.378-1.228,2.89,2.89,0,0,1,0-.986" transform="translate(-82.569 -5.733)" fill="#ffe76d"/>
          <path id="Trazado_1000165" data-name="Trazado 1000165" d="M143.364,13.6a6.471,6.471,0,0,0,6.783,1.948" transform="translate(-83.602 -7.933)" fill="none" stroke="#12263f" stroke-linecap="round" stroke-linejoin="round" stroke-width="0.75"/>
          <path id="Trazado_1000166" data-name="Trazado 1000166" d="M252.223,5.536a.334.334,0,0,0-.66-.1,52.283,52.283,0,0,1-3.244,8.88c-.087.168-.172.338-.263.5a15.628,15.628,0,0,1-5.108,5.588,22.063,22.063,0,0,1-13.7,3.263,26.4,26.4,0,0,1-7.106-1.542,42.087,42.087,0,0,1-6.675-3.357c-.661-.384-1.33-.762-2.008-1.119a15.482,15.482,0,0,0,2.748.411c1.176.1,2.351.217,3.529.287a12.168,12.168,0,0,0,6-1c3.645-1.7,6.04-5.174,7.144-9.3A46.331,46.331,0,0,0,234.045.472a.382.382,0,0,0-.754-.113,23.952,23.952,0,0,1-5.813,10.421,19.505,19.505,0,0,1-10.424,5.728,22.01,22.01,0,0,1-5.119.4,15.106,15.106,0,0,0-3.187-1.061,12.42,12.42,0,0,0-7.2.687,7.332,7.332,0,0,0-4.438,4.374c-.02.063-.036.128-.054.191a18.494,18.494,0,0,0-2.835,1.485c-2,1.276-3.984,2.862-6.323,3.256a7.145,7.145,0,0,1-6.135-2.035c-1.523-1.518-2.75-4.354-1.046-6.28.022-.025.047-.041.07-.065,1.007-.274,1.85,1.163,2.316,1.964s1.028,1.677,1.918,1.911a1.873,1.873,0,0,0,2.086-.661,2.286,2.286,0,0,0-.612-2.665c-1.386-1.578-3.618-3.019-5.6-1.908-1.816,1.016-2.292,3.615-1.624,5.587a8.033,8.033,0,0,0,4.485,4.671,7.94,7.94,0,0,0,6.451-.138c2.154-.965,4.008-2.552,6.1-3.643.173-.09.351-.169.527-.251a7.333,7.333,0,0,0,1.319,4.784c2.45,3.388,8.074,3.809,10.488.132a4.483,4.483,0,0,0-.875-5.753c-1.817-1.629-4.464-1.72-6.688-1.461a14.576,14.576,0,0,0-2.753.6,5.259,5.259,0,0,1,1.4-1.814,10.446,10.446,0,0,1,6.956-2.124,15.938,15.938,0,0,1,7.133,2.365,73.363,73.363,0,0,0,6.5,3.507,39.995,39.995,0,0,0,13.419,3.406,21.12,21.12,0,0,0,7.038-.9,20.108,20.108,0,0,0,6.436-3.239,11.375,11.375,0,0,0,3.869-6.307,33.839,33.839,0,0,0,1.141-9.987M203.83,21.063a5.463,5.463,0,0,1,3.446,1.376,3.4,3.4,0,0,1,1.013,3.185c-.569,2.279-3.084,3.2-5,3.11a5.689,5.689,0,0,1-5.091-3.629,5.856,5.856,0,0,1-.283-3.231,13.664,13.664,0,0,1,5.91-.812" transform="translate(-104.372 -0.037)" fill="#2cbe91"/>
          <path id="Trazado_1000167" data-name="Trazado 1000167" d="M258.928,40.751a20.17,20.17,0,0,1-5.971-1.722" transform="translate(-147.51 -22.76)" fill="none" stroke="#12263f" stroke-linecap="round" stroke-linejoin="round" stroke-width="0.75"/>
          <path id="Trazado_1000168" data-name="Trazado 1000168" d="M288.32,15.125c-2.253,5.67-7.3,9.87-12.849,10.7" transform="translate(-160.639 -8.82)" fill="none" stroke="#12263f" stroke-linecap="round" stroke-linejoin="round" stroke-width="0.75"/>
          <path id="Trazado_1000169" data-name="Trazado 1000169" d="M320.936,23.622c-1.6,5.3-4.826,10.22-9.441,12.506a17.285,17.285,0,0,1-2.881,1.093,24.066,24.066,0,0,1-10.388.669" transform="translate(-173.908 -13.775)" fill="none" stroke="#15260d" stroke-linecap="round" stroke-linejoin="round" stroke-width="0.75"/>
          <path id="Trazado_1000170" data-name="Trazado 1000170" d="M226.03,45.355a6.5,6.5,0,0,0-1.832,5.282" transform="translate(-130.726 -26.448)" fill="none" stroke="#12263f" stroke-linecap="round" stroke-linejoin="round" stroke-width="0.75"/>
          <path id="Trazado_1000171" data-name="Trazado 1000171" d="M223.248,45.454a7.272,7.272,0,0,0-1.181,4.512" transform="translate(-129.487 -26.506)" fill="none" stroke="#15260d" stroke-linecap="round" stroke-linejoin="round" stroke-width="0.75"/>
          <path id="Trazado_1000172" data-name="Trazado 1000172" d="M225.473,49.795a11.045,11.045,0,0,1,1.824-.732" transform="translate(-131.483 -28.611)" fill="none" stroke="#12263f" stroke-linecap="round" stroke-linejoin="round" stroke-width="0.75"/>
          <path id="Trazado_1000173" data-name="Trazado 1000173" d="M181.423,42.285a3.344,3.344,0,0,1,.812-1.514,2.083,2.083,0,0,1,.756-.394,3.184,3.184,0,0,1,3.358.892,1.8,1.8,0,0,1,.486,1.2c-.017.45-.341.9-.749.9" transform="translate(-105.796 -23.457)" fill="none" stroke="#12263f" stroke-linecap="round" stroke-linejoin="round" stroke-width="0.75"/>
          <path id="Trazado_1000174" data-name="Trazado 1000174" d="M1.159,15.523A11.374,11.374,0,0,0,5.028,21.83a20.113,20.113,0,0,0,6.436,3.239,21.132,21.132,0,0,0,7.039.9,39.993,39.993,0,0,0,13.419-3.406,73.468,73.468,0,0,0,6.5-3.507,15.94,15.94,0,0,1,7.133-2.365,10.446,10.446,0,0,1,6.956,2.124,5.255,5.255,0,0,1,1.4,1.814,14.571,14.571,0,0,0-2.752-.6c-2.224-.258-4.871-.168-6.688,1.461a4.483,4.483,0,0,0-.874,5.753c2.414,3.677,8.037,3.256,10.487-.132A7.333,7.333,0,0,0,55.4,22.329c.176.083.354.161.527.251,2.1,1.09,3.95,2.678,6.1,3.643a7.938,7.938,0,0,0,6.451.138,8.033,8.033,0,0,0,4.486-4.671c.667-1.972.192-4.57-1.624-5.587-1.985-1.111-4.217.331-5.6,1.908a2.287,2.287,0,0,0-.612,2.665,1.873,1.873,0,0,0,2.086.66c.891-.233,1.451-1.109,1.918-1.911s1.309-2.238,2.316-1.963c.023.024.048.04.07.065,1.7,1.926.477,4.762-1.046,6.28a7.145,7.145,0,0,1-6.135,2.035c-2.339-.394-4.32-1.981-6.323-3.256A18.458,18.458,0,0,0,55.184,21.1c-.018-.064-.034-.128-.054-.191a7.334,7.334,0,0,0-4.438-4.374,12.418,12.418,0,0,0-7.2-.687,15.113,15.113,0,0,0-3.187,1.061,22.034,22.034,0,0,1-5.119-.4,19.5,19.5,0,0,1-10.424-5.728A23.951,23.951,0,0,1,18.95.359.382.382,0,0,0,18.2.472a46.371,46.371,0,0,0,1.166,7.575c1.1,4.128,3.5,7.6,7.144,9.3a12.168,12.168,0,0,0,6,1c1.178-.07,2.353-.188,3.529-.287a15.477,15.477,0,0,0,2.748-.411c-.678.358-1.347.736-2.008,1.119A42.086,42.086,0,0,1,30.1,22.13,26.4,26.4,0,0,1,23,23.672a22.063,22.063,0,0,1-13.7-3.263,15.631,15.631,0,0,1-5.108-5.588c-.091-.166-.176-.336-.263-.5A52.3,52.3,0,0,1,.677,5.437a.334.334,0,0,0-.659.1,33.821,33.821,0,0,0,1.141,9.987m53.163,6.352a5.86,5.86,0,0,1-.282,3.231,5.691,5.691,0,0,1-5.091,3.629c-1.913.09-4.427-.831-5-3.11a3.4,3.4,0,0,1,1.013-3.185,5.466,5.466,0,0,1,3.446-1.376,13.665,13.665,0,0,1,5.91.812" transform="translate(0 -0.037)" fill="#2cbe91"/>
          <path id="Trazado_1000175" data-name="Trazado 1000175" d="M87.443,40.751a20.169,20.169,0,0,0,5.971-1.722" transform="translate(-50.992 -22.76)" fill="none" stroke="#12263f" stroke-linecap="round" stroke-linejoin="round" stroke-width="0.75"/>
          <path id="Trazado_1000176" data-name="Trazado 1000176" d="M48.43,15.125c2.253,5.67,7.3,9.87,12.849,10.7" transform="translate(-28.242 -8.82)" fill="none" stroke="#15260d" stroke-linecap="round" stroke-linejoin="round" stroke-width="0.75"/>
          <path id="Trazado_1000177" data-name="Trazado 1000177" d="M2.019,23.622c1.6,5.3,4.826,10.22,9.441,12.506a17.284,17.284,0,0,0,2.881,1.093,24.066,24.066,0,0,0,10.389.669" transform="translate(-1.177 -13.775)" fill="none" stroke="#15260d" stroke-linecap="round" stroke-linejoin="round" stroke-width="0.75"/>
          <path id="Trazado_1000178" data-name="Trazado 1000178" d="M126.1,45.355a6.5,6.5,0,0,1,1.832,5.282" transform="translate(-73.534 -26.448)" fill="none" stroke="#15260d" stroke-linecap="round" stroke-linejoin="round" stroke-width="0.75"/>
          <path id="Trazado_1000179" data-name="Trazado 1000179" d="M129.8,45.454a7.272,7.272,0,0,1,1.181,4.512" transform="translate(-75.692 -26.506)" fill="none" stroke="#12263f" stroke-linecap="round" stroke-linejoin="round" stroke-width="0.75"/>
          <path id="Trazado_1000180" data-name="Trazado 1000180" d="M126.7,49.795a11.045,11.045,0,0,0-1.824-.732" transform="translate(-72.82 -28.611)" fill="none" stroke="#12263f" stroke-linecap="round" stroke-linejoin="round" stroke-width="0.75"/>
          <path id="Trazado_1000181" data-name="Trazado 1000181" d="M165.728,42.285a3.35,3.35,0,0,0-.813-1.514,2.083,2.083,0,0,0-.756-.394,3.184,3.184,0,0,0-3.358.892,1.8,1.8,0,0,0-.486,1.2c.017.45.341.9.749.9" transform="translate(-93.486 -23.457)" fill="none" stroke="#15260d" stroke-linecap="round" stroke-linejoin="round" stroke-width="0.75"/>
          <path id="Trazado_1000182" data-name="Trazado 1000182" d="M177.331,33.6a1.87,1.87,0,1,0-1.86,2.056,1.965,1.965,0,0,0,1.86-2.056" transform="translate(-101.239 -18.396)" fill="#2cbe91"/>
        </g>
      </g>
      <g id="Grupo_1186068" data-name="Grupo 1186068" transform="translate(1246.076 2487.544)">
        <g id="Grupo_1184024" data-name="Grupo 1184024" transform="translate(0 0)">
          <rect id="Rectángulo_455879-2" data-name="Rectángulo 455879" width="52.034" height="49.963" transform="translate(0.392)" fill="#ffb57d"/>
          <path id="Trazado_1000145-2" data-name="Trazado 1000145" d="M0,2.281H1.391a2.279,2.279,0,0,1,4.557,0H7.9v0a2.279,2.279,0,1,1,4.557,0h1.823v0a2.279,2.279,0,1,1,4.557,0h1.909v0a2.279,2.279,0,1,1,4.557,0h1.977v0a2.279,2.279,0,1,1,4.557,0H33.7a2.279,2.279,0,0,1,4.558,0h1.924v0a2.279,2.279,0,1,1,4.557,0h1.931v0a2.279,2.279,0,1,1,4.557,0h1.589" transform="translate(52.818 51.749) rotate(180)" fill="#ffb57d"/>
        </g>
        <path id="Trazado_1026845" data-name="Trazado 1026845" d="M39.6,8.581c-.163-2.866-1.977-4.551-5.232-3.338a35.67,35.67,0,0,1-4.55,1.247c-.278-1.065-.556-2.157-.758-3.006l-.028.013c-.068-.286-.128-.547-.176-.768A3.085,3.085,0,0,0,25.8,0L12.754.746c-1.6.091-2.414,1.487-2.727,3.055-.165.828-.367,2.2-.552,3.571-2.628-.234-4.64-.45-4.64-.45C.952,6.152-.148,7.966.015,10.832.3,15.823,9.739,21.219,20.428,20.611S39.884,13.572,39.6,8.581" transform="translate(6.428 15.893) rotate(-1)" fill="#ffb57d" style="mix-blend-mode: multiply;isolation: isolate"/>
      </g>
      <g id="sopa" transform="translate(1160.326 2345.292)">
        <g id="Grupo_1187047" data-name="Grupo 1187047" transform="translate(74.354 0)">
          <g id="Grupo_1187046" data-name="Grupo 1187046" transform="translate(0 0)">
            <path id="Trazado_1138751" data-name="Trazado 1138751" d="M282.986,14.1A50.409,50.409,0,0,0,272.634,1.288a4.145,4.145,0,0,0-3.806-.914l-7.645,1.99q-.557-.246-1.125-.472a27.116,27.116,0,0,0-21.139.525q-.452.206-.87.418a4.707,4.707,0,0,0-5.815,6.957l3.044,8.669-1.939,5.607-.83.49a4.712,4.712,0,0,0,2.392,8.774h0a4.676,4.676,0,0,0,.767-.066,19.757,19.757,0,0,0,4.29,5.189l-.527-.028a3.2,3.2,0,0,0-2.346,5.555L247.645,53.7l-1.673,9.437A3.2,3.2,0,0,0,249.92,66.8a46.131,46.131,0,0,0,11.965-4.9,1.651,1.651,0,0,0,.309-.183,42.929,42.929,0,0,0,9-7.156,34.77,34.77,0,0,0,6.059-8.355,1.659,1.659,0,0,0,.093-.2,32.03,32.03,0,0,0,3.076-11.639A17.541,17.541,0,0,0,282.986,14.1ZM235.642,29.768a1.661,1.661,0,0,0-.174.12,1.364,1.364,0,0,1-.568.124h0a1.393,1.393,0,0,1-.706-2.6l1.384-.817,9.928-5.829a1.7,1.7,0,0,0,.354-2.725l-8.069-7.471-2.821-2.66a1.392,1.392,0,0,1,1.105-2.177h.045a1.389,1.389,0,0,1,.958.383l13.669,12.692a1.4,1.4,0,0,1,.431,1.17,1.347,1.347,0,0,1-.028.161,1.4,1.4,0,0,1-.653.887l-.01.006ZM238.6,17.906l-1.052-3,4.349,4.1-4.145,2.449L238.6,19A1.663,1.663,0,0,0,238.6,17.906Zm.083,13.949,13.5-7.966a4.719,4.719,0,0,0,1.668-1.673,19.724,19.724,0,0,1,4.217,2.139c.833,4.62,2.3,7.8,4.493,9.7a1.66,1.66,0,0,0,1.309.392,8.591,8.591,0,0,0,3.139-1.013l.148.17c.4.458,1.02,1.168,1.573,1.826-6.738,2.628-16.035,3.187-22.8,3.179A18.855,18.855,0,0,1,238.684,31.856ZM261.7,25.517a11.394,11.394,0,0,1,5.361,2.713,3.693,3.693,0,0,1-2.865,2.78A12.622,12.622,0,0,1,261.7,25.517Zm-1.935,33.79a42.8,42.8,0,0,1-10.49,4.235l1.8-10.156a1.66,1.66,0,0,0-.51-1.511L239.569,41.758c1.572.083,3.579.158,5.849.173a1.642,1.642,0,0,0,.165,0c2.5.013,5.32-.047,8.229-.25C255.563,42.747,262.632,47.845,259.762,59.308Zm2.134-13.4a17.251,17.251,0,0,0-1.3-2.2,17.848,17.848,0,0,0-2.083-2.477c1.1-.14,2.2-.3,3.276-.5a37.729,37.729,0,0,0,10.873-3.449C270.036,40.718,266.373,44.362,261.9,45.905Zm12.414-1.22c0,.006,0,.012-.008.018s-.006.011-.009.018a35.2,35.2,0,0,1-10.7,12.1,20.17,20.17,0,0,0-.514-7.814c4.419-1.545,8.584-4.88,12.4-9.938.439-.581.848-1.154,1.229-1.711A28.773,28.773,0,0,1,274.31,44.686Zm-2.488-10.727c-.568-.705-1.315-1.568-2.164-2.54l-.263-.3a8.6,8.6,0,0,0,1.106-3.1,1.66,1.66,0,0,0-.361-1.333c-2.665-3.206-6.638-4.3-9.9-4.867a23.013,23.013,0,0,0-5.826-2.919,4.733,4.733,0,0,0-1.391-2.506l-.005,0h0L253,16.38,241.012,5.125a23.786,23.786,0,0,1,17.819-.149,29.113,29.113,0,0,1,18.115,23.283A10.786,10.786,0,0,1,271.821,33.959Zm8.519-5.237c-.016-.155-.029-.31-.047-.464,0-.03-.007-.059-.012-.089a32.442,32.442,0,0,0-14.788-23.5l4.17-1.085a.832.832,0,0,1,.764.182,46.949,46.949,0,0,1,9.64,11.916A14.127,14.127,0,0,1,280.34,28.722Z" transform="translate(-230.186 0)" fill="#2079f3"/>
          </g>
        </g>
        <g id="Grupo_1187049" data-name="Grupo 1187049" transform="translate(92.392 3.995)">
          <g id="Grupo_1187048" data-name="Grupo 1187048" transform="translate(0)">
            <path id="Trazado_1138752" data-name="Trazado 1138752" d="M316.8,18.071a5.025,5.025,0,1,0,5.025,5.025A5.031,5.031,0,0,0,316.8,18.071Zm0,6.731A1.706,1.706,0,1,1,318.5,23.1,1.708,1.708,0,0,1,316.8,24.8Z" transform="translate(-311.772 -18.071)" fill="#2079f3"/>
          </g>
        </g>
        <g id="Grupo_1187051" data-name="Grupo 1187051" transform="translate(49.648 48.606)">
          <g id="Grupo_1187050" data-name="Grupo 1187050">
            <path id="Trazado_1138753" data-name="Trazado 1138753" d="M182.012,239.647H145.823l.747-2.322a6.124,6.124,0,0,0-3.529-7.546c0-.145,0-.311,0-.5a12.7,12.7,0,0,0-3.7-8.941A1.659,1.659,0,1,0,137,222.681a9.361,9.361,0,0,1,2.723,6.588c0,.054,0,.1,0,.156a6.092,6.092,0,0,0-4.789,4.152l-1.954,6.069h-9.8a4.733,4.733,0,0,0-2.335,8.853v3.75a25.647,25.647,0,0,0,15.751,23.634,1.657,1.657,0,0,0-.013.2v2.993a5.371,5.371,0,0,0,5.365,5.365h21.166a5.371,5.371,0,0,0,5.365-5.365V276.08a1.691,1.691,0,0,0-.012-.193,25.354,25.354,0,0,0,2.946-1.457,25.768,25.768,0,0,0,9.163-9.013,1.66,1.66,0,1,0-2.845-1.709,22.112,22.112,0,0,1-16.815,10.713H144.152a22.321,22.321,0,0,1-19.993-22.172V249.12h36.732a1.66,1.66,0,1,0,0-3.319H123.174a1.417,1.417,0,0,1,0-2.835h58.837a1.417,1.417,0,1,1,0,2.835H167.529a1.66,1.66,0,1,0,0,3.319h13.363v3.129a22.386,22.386,0,0,1-.632,5.283,1.66,1.66,0,1,0,3.225.784,25.72,25.72,0,0,0,.725-6.067v-3.675a4.735,4.735,0,0,0-2.2-8.928ZM139.9,277.74h25.258v1.334a2.049,2.049,0,0,1-2.046,2.046H141.943a2.048,2.048,0,0,1-2.046-2.046V277.74Zm3.514-41.433-1.075,3.339h-5.871l1.627-5.052a2.794,2.794,0,1,1,5.319,1.713Z" transform="translate(-118.438 -219.848)" fill="#2079f3"/>
          </g>
        </g>
        <g id="Grupo_1187053" data-name="Grupo 1187053" transform="translate(39.855 10.326)">
          <g id="Grupo_1187052" data-name="Grupo 1187052" transform="translate(0)">
            <path id="Trazado_1138754" data-name="Trazado 1138754" d="M92.965,50.787c-5.758-5.758-16.639-3.769-17.1-3.681h0a1.66,1.66,0,0,0-.22.059l-.042.015a1.651,1.651,0,0,0-.206.091l-.007,0a1.682,1.682,0,0,0-.179.113l-.043.031a1.672,1.672,0,0,0-.164.142l0,0a1.655,1.655,0,0,0-.142.164l-.031.042a1.645,1.645,0,0,0-.114.18l0,.005a1.62,1.62,0,0,0-.091.207L74.6,48.2a1.654,1.654,0,0,0-.059.221h0c-.088.461-2.076,11.342,3.682,17.1,3.363,3.363,8.474,4.083,12.235,4.083a28.214,28.214,0,0,0,4.865-.4,1.659,1.659,0,0,0,1.321-1.321C96.734,67.426,98.723,56.544,92.965,50.787Zm.582,15.321c-2.692.3-9.4.641-12.974-2.929-2.814-2.814-3.2-7.577-3.089-10.788l9.2,9.2a1.66,1.66,0,0,0,2.347-2.347l-9.2-9.2c3.211-.111,7.974.276,10.787,3.089C94.189,56.7,93.852,63.417,93.548,66.108Z" transform="translate(-74.143 -46.704)" fill="#2079f3"/>
          </g>
        </g>
        <g id="Grupo_1187055" data-name="Grupo 1187055" transform="translate(30.123 35.88)">
          <g id="Grupo_1187054" data-name="Grupo 1187054">
            <path id="Trazado_1138755" data-name="Trazado 1138755" d="M43.665,162.289a13.542,13.542,0,1,0,13.542,13.542A13.558,13.558,0,0,0,43.665,162.289Zm0,23.766a10.223,10.223,0,1,1,10.223-10.223A10.235,10.235,0,0,1,43.665,186.055Z" transform="translate(-30.123 -162.289)" fill="#2079f3"/>
          </g>
        </g>
        <g id="Grupo_1187057" data-name="Grupo 1187057" transform="translate(36.77 42.527)">
          <g id="Grupo_1187056" data-name="Grupo 1187056" transform="translate(0)">
            <path id="Trazado_1138756" data-name="Trazado 1138756" d="M72.32,197.591a1.66,1.66,0,0,0-1.66,1.66,3.576,3.576,0,1,1-3.576-3.576,1.66,1.66,0,0,0,0-3.319,6.9,6.9,0,1,0,6.9,6.9A1.66,1.66,0,0,0,72.32,197.591Z" transform="translate(-60.189 -192.355)" fill="#2079f3"/>
          </g>
        </g>
        <g id="Grupo_1187059" data-name="Grupo 1187059" transform="translate(64.595 32.147)">
          <g id="Grupo_1187058" data-name="Grupo 1187058" transform="translate(0)">
            <path id="Trazado_1138757" data-name="Trazado 1138757" d="M190.832,145.4a4.787,4.787,0,1,0,4.787,4.787A4.792,4.792,0,0,0,190.832,145.4Zm0,6.255a1.468,1.468,0,1,1,1.468-1.468A1.469,1.469,0,0,1,190.832,151.657Z" transform="translate(-186.045 -145.402)" fill="#2079f3"/>
          </g>
        </g>
        <g id="Grupo_1187061" data-name="Grupo 1187061" transform="translate(120.426 49.37)">
          <g id="Grupo_1187060" data-name="Grupo 1187060">
            <path id="Trazado_1138758" data-name="Trazado 1138758" d="M443.362,223.306a4.787,4.787,0,1,0,4.787,4.787A4.792,4.792,0,0,0,443.362,223.306Zm0,6.255a1.468,1.468,0,1,1,1.468-1.468A1.469,1.469,0,0,1,443.362,229.561Z" transform="translate(-438.575 -223.306)" fill="#2079f3"/>
          </g>
        </g>
      </g>
    </g>
  </g>
</svg>
