<svg xmlns="http://www.w3.org/2000/svg" width="83" height="83" viewBox="0 0 83 83">
  <g id="Grupo_1187526" data-name="Grupo 1187526" transform="translate(-706 -2715.649)">
    <rect id="Rectángulo_402006" data-name="Rectángulo 402006" width="83" height="83" rx="5" transform="translate(706 2715.649)" fill="#bbd6fc"/>
    <g id="Welcome_Drink_Cocktail" data-name="Welcome Drink/Cocktail" transform="translate(715.266 2726.182)">
      <path id="Trazado_1140071" data-name="Trazado 1140071" d="M34.873,70.166a12.111,12.111,0,0,0-6.665.336.653.653,0,0,0,.206,1.29,11.5,11.5,0,0,1,6.162-.336.662.662,0,0,0,.3-1.29Z" transform="translate(-8.549 -24.783)" fill="#2079f3"/>
      <path id="Trazado_1140072" data-name="Trazado 1140072" d="M18.571,75.76a.787.787,0,1,0,.565.233A.787.787,0,0,0,18.571,75.76Z" transform="translate(-5.048 -26.879)" fill="#2079f3"/>
      <path id="Trazado_1140073" data-name="Trazado 1140073" d="M21.618,90.657a.645.645,0,0,0-.91,0l-.813.8a.645.645,0,0,0,.458,1.1c.342,0,.419-.155,1.29-1.007a.645.645,0,0,0-.026-.9Z" transform="translate(-5.728 -32.098)" fill="#2079f3"/>
      <path id="Trazado_1140074" data-name="Trazado 1140074" d="M58.727,39.609H48.894c.206-3.871,1.381-25.732,1.645-30.6a.645.645,0,0,0-.645-.677H46.571l.7-4.233,5.542-.645a.645.645,0,0,0,.574-.716L53.139.573a.645.645,0,0,0-.7-.574L46.345.6a2.878,2.878,0,0,0-2.581,2.407l-.852,5.317H39.435a6.485,6.485,0,0,0-.413-1.787V6.5a.271.271,0,0,1-.045-.09h0a6.646,6.646,0,0,0-8.588-3.62.374.374,0,0,0-.09.052,6.594,6.594,0,0,0-3.549,3.516,6.394,6.394,0,0,0-.1,4.962,1.439,1.439,0,0,0,.077.219h0a6.736,6.736,0,0,0,5.807,4.091c1.29,23.228,1,18.473,1.29,23.97H27.814V36.957c1.794-10.814.645-3.768,2.1-12.7a.645.645,0,0,0-.645-.748H12.322a.645.645,0,0,0-.645.748c1.032,6.246.594,3.568,2.1,12.7v2.652H5.741a2.181,2.181,0,1,0,0,4.362H16.923a20.247,20.247,0,0,0-2.691,1.361,1.781,1.781,0,0,0-2.136.239L9.438,48.229a1.736,1.736,0,0,0,0,2.445l.316.316L7.786,52.926a.648.648,0,0,0,.916.916l1.968-1.936,6.962,6.962-1.968,1.968a.641.641,0,1,0,.9.916l1.968-1.936.316.316a1.736,1.736,0,0,0,2.445,0l2.671-2.71a1.716,1.716,0,0,0,.477-1.561H38.983A6.607,6.607,0,0,0,43.377,54.2l7.614-6.8a2.716,2.716,0,0,0,.51-3.433h7.227a2.181,2.181,0,0,0,0-4.362Zm-44.74-9.362H27.614l-.994,6H15.006Zm1.09,7.291H26.524V39.6H15.077ZM13.084,24.8H28.517l-.69,4.155H13.767ZM44.054,9.619h1.007l-1.142,6.762h-.968Zm4.736,8.052-.968,17.718a1.6,1.6,0,0,1-1.6,1.523H36.505a1.6,1.6,0,0,1-1.6-1.523L33.95,17.671Zm.432-8.052-.361,6.762H45.229l1.123-6.762ZM45.067,3.224A1.587,1.587,0,0,1,46.474,1.9l5.459-.542.1.916-5.394.607a.645.645,0,0,0-.561.536l-.819,4.923H44.248Zm-17.421,7.1a4.936,4.936,0,0,1,.071-2.852l3.452,1.484ZM38.041,7.586a5.594,5.594,0,0,1,.148.742H36.176Zm-.49-1.194-3.51,1.4,1.484-3.458a5.355,5.355,0,0,1,2.007,2.058ZM34.324,3.812,32.879,7.277c0-.065.2.5-1.4-3.484a5.317,5.317,0,0,1,2.858.026Zm-4.078.452L31.66,7.741,28.2,6.283A5.265,5.265,0,0,1,30.259,4.27Zm-2.1,7.285,3.484-1.394L30.15,13.606A5.543,5.543,0,0,1,28.143,11.548Zm3.187,2.581,1.007-2.349s0-.039.135,2.581A5.162,5.162,0,0,1,31.331,14.129Zm2.187-4.517h9.207l-1.084,6.768H33.9c-.071-1.155-.271-4.768-.374-6.762Zm1.516,28.177a2.865,2.865,0,0,0,1.471.406h9.717a2.865,2.865,0,0,0,1.5-.4l-.1,1.813H35.131ZM23.052,56.5,20.4,59.153a.439.439,0,0,1-.645,0c-.065-.065.91.916-9.42-9.42a.439.439,0,0,1,0-.645c2.833-2.833,2.7-2.781,2.962-2.781s-.587-.774,9.736,9.549a.439.439,0,0,1,.019.677ZM50.126,46.455l-7.607,6.788a5.323,5.323,0,0,1-3.536,1.349H23.556l-8.343-8.349a17.46,17.46,0,0,1,6.7-2.271h3.749c3.839.458,5.91,2.174,6.394,2.174h6.065a1.614,1.614,0,0,1,.077,3.226H30.1a.645.645,0,1,0,0,1.29l9.827-.045c.316,0-.342.439,8.388-6.368a1.432,1.432,0,0,1,.645-.284H49.4a1.419,1.419,0,0,1,.723,2.491Zm-12.008-1.6H32.234c-.774-.419-.981-.536-1.742-.884H46.564l-5.626,4.42a2.891,2.891,0,0,0-2.82-3.536ZM58.727,42.68H25.782a16.55,16.55,0,0,0-3.955,0H5.741a.89.89,0,1,1,0-1.781H58.727a.89.89,0,0,1,0,1.781Z" transform="translate(0 0)" fill="#2079f3"/>
    </g>
  </g>
</svg>
