<svg xmlns="http://www.w3.org/2000/svg" xmlns:xlink="http://www.w3.org/1999/xlink" width="275.681" height="267.718" viewBox="0 0 275.681 267.718">
  <defs>
    <clipPath id="clip-path">
      <rect id="Rectángulo_455881" data-name="Rectángulo 455881" width="161.597" height="32.562" fill="#2cbe91"/>
    </clipPath>
  </defs>
  <g id="Grupo_1187592" data-name="Grupo 1187592" transform="translate(-305.319 -3586.358)">
    <g id="Grupo_1187488" data-name="Grupo 1187488" transform="translate(-779.688 1292.041)">
      <path id="Trazado_1085278" data-name="Trazado 1085278" d="M252.1,23.231V0h-7.55C244.5,6.478,239.6,11.69,233.59,11.639,227.649,11.59,222.844,6.408,222.8,0h-9.213c0,6.478-4.869,11.731-10.876,11.731S191.834,6.478,191.834,0h-9.186c0,6.478-4.869,11.731-10.876,11.731S160.9,6.478,160.9,0h-8.884c0,6.479-4.87,11.731-10.877,11.731S130.258,6.479,130.258,0h-9.433c0,6.478-4.869,11.731-10.876,11.731S99.073,6.478,99.073,0H89.955c0,6.478-4.87,11.731-10.876,11.731S68.2,6.478,68.2,0H59.5c0,6.479-4.864,11.734-10.872,11.737S37.753,6.491,37.75.012V0H28.426c0,6.478-4.87,11.731-10.876,11.731S6.674,6.478,6.674,0H0V23.3c6.007,0,10.877,5.252,10.877,11.732S6.007,46.766,0,46.766V56.94c6.007,0,10.877,5.252,10.877,11.731S6.007,80.4,0,80.4v9.582H.024c6.007.008,10.871,5.265,10.864,11.744S6.007,113.454,0,113.446v9.9c6.007,0,10.877,5.252,10.877,11.732S6.007,146.813,0,146.813v9.433H.024c6.007.007,10.871,5.265,10.864,11.744S6.007,179.715,0,179.707V202.9H6.637c0-6.479,4.87-11.73,10.876-11.73S28.39,196.423,28.39,202.9h9.322v-.026c.007-6.479,4.882-11.725,10.888-11.718S59.47,196.423,59.463,202.9h8.7v-.026c.007-6.479,4.882-11.725,10.888-11.718s10.871,5.265,10.864,11.744H99.03v-.026c.006-6.479,4.881-11.725,10.888-11.718s10.871,5.265,10.864,11.744h9.435v-.026c.007-6.479,4.882-11.725,10.888-11.718s10.871,5.265,10.864,11.744h8.885c0-6.479,4.87-11.732,10.877-11.732s10.877,5.253,10.877,11.732h9.182v-.026c.007-6.479,4.882-11.725,10.888-11.718s10.871,5.265,10.864,11.744h9.216v-.026c.007-6.479,4.881-11.725,10.888-11.718s10.871,5.265,10.864,11.744H252.1V179.635h-.024c-6.007-.007-10.871-5.265-10.864-11.744s4.882-11.725,10.888-11.717V146.74c-6.007,0-10.877-5.252-10.877-11.731s4.87-11.731,10.877-11.731v-9.9h-.024c-6.007-.007-10.871-5.265-10.864-11.744S246.091,89.9,252.1,89.912V80.329c-6.007,0-10.877-5.253-10.877-11.731s4.87-11.732,10.877-11.732V46.694c-6.007,0-10.88-5.247-10.883-11.726s4.864-11.734,10.872-11.738h.011" transform="translate(1104.895 2546.417) rotate(-90)" fill="#bbd6fc"/>
      <g id="Grupo_1184022" data-name="Grupo 1184022" transform="translate(1085.007 2457.601)">
        <g id="Grupo_1183846" data-name="Grupo 1183846" transform="translate(0 0)">
          <rect id="Rectángulo_455879" data-name="Rectángulo 455879" width="53.795" height="51.653" transform="translate(0.405)" fill="#2cbe91"/>
          <path id="Trazado_1000145" data-name="Trazado 1000145" d="M54.6,0H53.167a2.356,2.356,0,0,1-2.356,2.356A2.356,2.356,0,0,1,48.456,0H46.437V.005a2.356,2.356,0,0,1-2.359,2.353A2.356,2.356,0,0,1,41.725,0H39.84V.005a2.356,2.356,0,0,1-2.359,2.353A2.356,2.356,0,0,1,35.128,0H33.155V.005A2.356,2.356,0,0,1,30.8,2.359,2.356,2.356,0,0,1,28.443,0H26.4V.005a2.356,2.356,0,0,1-2.359,2.353A2.356,2.356,0,0,1,21.688,0H19.763a2.356,2.356,0,0,1-2.356,2.356A2.356,2.356,0,0,1,15.051,0H13.062V.005A2.356,2.356,0,0,1,10.7,2.359,2.356,2.356,0,0,1,8.351,0h-2V.005A2.356,2.356,0,0,1,4,2.359,2.356,2.356,0,0,1,1.643,0H0" transform="translate(0 51.141)" fill="#2cbe91"/>
        </g>
        <path id="Trazado_1000133" data-name="Trazado 1000133" d="M20.859,34.559c-.085.116-.165.238-.249.357A6.007,6.007,0,0,1,18.5,36.871a4.256,4.256,0,0,1-1.157.419A6.256,6.256,0,0,1,15,37.333c-.3-.057-.59-.147-.911-.227a.261.261,0,0,0-.085.034,4.163,4.163,0,0,1-2.6.873,6.308,6.308,0,0,1-2.114-.333,7.287,7.287,0,0,1-2.306-1.145c-.155-.121-.308-.247-.47-.378a3.488,3.488,0,0,1-2.491-.079A6.859,6.859,0,0,1,2.1,35.055a6.2,6.2,0,0,1-1.77-1.984,1.694,1.694,0,0,0-.2-.018,3.221,3.221,0,0,1-1.7-.485,6.569,6.569,0,0,1-2.422-2.424,5.844,5.844,0,0,1-.478-1.135c-.045-.138-.1-.271-.143-.394-.114-.059-.207-.107-.3-.155a6.049,6.049,0,0,1-2.566-2.7,6.755,6.755,0,0,1-.762-2.985c0-.145-.015-.29-.022-.394a6.483,6.483,0,0,1-1.91-3.8,6.354,6.354,0,0,1,.931-4.1,3.748,3.748,0,0,1-.347-1.154A5.181,5.181,0,0,1-9.45,11.2a5.29,5.29,0,0,1,.42-1.108A3.689,3.689,0,0,1-7.6,8.592,3.223,3.223,0,0,1-4.762,8.38a6.381,6.381,0,0,1,1.349.669,5.554,5.554,0,0,0,.9.427,22.445,22.445,0,0,1,2.34,1.194q1.523.87,3.027,1.766c.673.4,1.327.837,1.991,1.245,2.194,1.354,4.316,2.817,6.469,4.232,1.811,1.19,3.579,2.442,5.334,3.709q1.775,1.284,3.492,2.65a36.4,36.4,0,0,1,3.351,3,1.85,1.85,0,0,1,.182.21.8.8,0,0,0,.331.277.824.824,0,0,1,.233.152,5.135,5.135,0,0,1,1.159,1.4,2.987,2.987,0,0,1,.323.887,2.38,2.38,0,0,1-.065.947,4.355,4.355,0,0,1-1.111,2.083,4.193,4.193,0,0,1-1.389.912c-.221.089-.449.164-.676.24a3.36,3.36,0,0,1-1.294.178c-.1-.007-.21-.005-.332-.009" transform="translate(44.742 43.194) rotate(146)" fill="#1b5b5b"/>
      </g>
      <g id="Grupo_1184023" data-name="Grupo 1184023" transform="translate(1199.091 2486.954)">
        <g id="Grupo_1183367" data-name="Grupo 1183367" transform="translate(0 0)" clip-path="url(#clip-path)">
          <path id="Trazado_1000146" data-name="Trazado 1000146" d="M178.822.2a1.582,1.582,0,0,1,1.686.127,4.717,4.717,0,0,1,1.318,1.487,10.766,10.766,0,0,1,1.1,2.087,6.029,6.029,0,0,1,.411,2.3,4.187,4.187,0,0,1,.015.513,6.517,6.517,0,0,1-.157,1.151c-.046.212-.093.437-.157.653a2.985,2.985,0,0,1-.173.644c-.029.069-.11.025-.116-.035,0-.014,0-.03,0-.044a.1.1,0,0,1-.132-.109,3.93,3.93,0,0,1,.191-.953c.055-.361.127-.721.169-1.059.017-.137.025-.272.033-.408,0-.052,0-.1,0-.156a3.517,3.517,0,0,0-.868-2.129A7.156,7.156,0,0,0,180.558,2.9,5.517,5.517,0,0,1,178.9,1.695c-.271-.375-.518-1.155-.074-1.5" transform="translate(-103.109 0)" fill="#ff6a7d"/>
          <path id="Trazado_1000147" data-name="Trazado 1000147" d="M178.221.158A.147.147,0,0,1,178.5.2a4.977,4.977,0,0,0,3.239,3.977,8.3,8.3,0,0,1,3.7,2.393,10.073,10.073,0,0,1,1.929,4.521,5.711,5.711,0,0,1,.024,2.623,5.771,5.771,0,0,1-.508,1.611.162.162,0,1,1-.293-.138c.018-.038.028-.077.045-.115a.156.156,0,0,1-.021-.173,5.1,5.1,0,0,0,.418-1.212,7.924,7.924,0,0,0-.231-3.123,5.817,5.817,0,0,0-.456-.99,8.012,8.012,0,0,0-4.028-3.112,8.5,8.5,0,0,1-3.672-2.443,3.716,3.716,0,0,1-.427-3.863" transform="translate(-106.966 -0.034)" fill="#ffe1cb"/>
          <path id="Trazado_1000148" data-name="Trazado 1000148" d="M178.073,12.209a20.432,20.432,0,0,1,5.015,2.747,5.42,5.42,0,0,1,1.413,1.4,2.52,2.52,0,0,1,.359,1.995" transform="translate(-104.463 -6.647)" fill="none" stroke="#12263f" stroke-linecap="round" stroke-linejoin="round" stroke-width="0.75"/>
          <path id="Trazado_1000149" data-name="Trazado 1000149" d="M178.8,24.918a10.493,10.493,0,0,1,2.678-6.13.3.3,0,0,1,.533.25,22.8,22.8,0,0,0-.051,5.012,3.292,3.292,0,0,0,2.264,2.491,3.892,3.892,0,0,0,3.259-.883,7.345,7.345,0,0,0,.783-.721,5.629,5.629,0,0,1,1.927-3.3c1.557-1.013,3.715-.347,5.164.6a7.328,7.328,0,0,1,2.042,1.983,4.783,4.783,0,0,1,1,2.521c0,.948-.5,1.3-1.293,1.044a4.941,4.941,0,0,1-2.144-1.777,5.421,5.421,0,0,0-2.705-2.175,2.755,2.755,0,0,0-2.393.483.73.73,0,0,0-.143-.007.792.792,0,0,0-.488.191,2.815,2.815,0,0,0-.674,1.013A9.426,9.426,0,0,0,188.1,26.9c-.054.2-.1.395-.15.592a5.726,5.726,0,0,1-2.394,2.978,4.351,4.351,0,0,1-4.488-.234,6.127,6.127,0,0,1-2.268-5.319" transform="translate(-118.26 -10.165)" fill="#2079f3"/>
          <path id="Trazado_1000150" data-name="Trazado 1000150" d="M193.616,30.927a3.177,3.177,0,0,0,3.63,1.456,13.636,13.636,0,0,0,3.737-1.929,2.526,2.526,0,0,1,2.124-.491" transform="translate(-129.713 -16.263)" fill="none" stroke="#15260d" stroke-linecap="round" stroke-linejoin="round" stroke-width="0.75"/>
          <path id="Trazado_1000151" data-name="Trazado 1000151" d="M200.751,31.474a3.634,3.634,0,0,0,1.595,2.9,4.16,4.16,0,0,0,3.1.554,7.341,7.341,0,0,0,2.926-1.394" transform="translate(-138.23 -17.136)" fill="none" stroke="#12263f" stroke-linecap="round" stroke-linejoin="round" stroke-width="0.75"/>
          <path id="Trazado_1000152" data-name="Trazado 1000152" d="M202.649,39.062a3.4,3.4,0,0,0,3.031,1.567,7.88,7.88,0,0,0,3.338-1.046" transform="translate(-139.739 -21.267)" fill="none" stroke="#12263f" stroke-linecap="round" stroke-linejoin="round" stroke-width="0.75"/>
          <path id="Trazado_1000153" data-name="Trazado 1000153" d="M181.446,27.088a9.516,9.516,0,0,1,5.879,4.277" transform="translate(-108.387 -14.748)" fill="none" stroke="#15260d" stroke-linecap="round" stroke-linejoin="round" stroke-width="0.75"/>
          <path id="Trazado_1000154" data-name="Trazado 1000154" d="M179.217,10.456c-.03-.125-.063-.249-.085-.374a.141.141,0,0,1,.181-.157v0c.027-.137.2-.106.192.031s0,.3.006.447a4.663,4.663,0,0,0,1.375,2.2c1.022.833,2.134.508,3.268.21a8.221,8.221,0,0,1,5.451.4,8.123,8.123,0,0,1,3.942,3.773,9.06,9.06,0,0,1,.892,2.788,9.6,9.6,0,0,1,.118,1.454v.011a3.543,3.543,0,0,1-.23,1.328.234.234,0,0,1-.058.08c-.02.038-.036.079-.058.116-.085.14-.243.03-.252-.105a.221.221,0,0,1-.071-.159c-.029-.542.088-1.08.075-1.626a8.291,8.291,0,0,0-.159-1.424,8.176,8.176,0,0,0-.246-.92,5.926,5.926,0,0,0-1.156-1.707,6.574,6.574,0,0,0-5.5-1.718,22.565,22.565,0,0,1-3.241.493,4.493,4.493,0,0,1-2.336-.739,4.739,4.739,0,0,1-1.695-1.983,5.319,5.319,0,0,1-.413-1.342,3.16,3.16,0,0,1,0-1.077" transform="translate(-114.566 -5.353)" fill="#ffe76d"/>
          <path id="Trazado_1000155" data-name="Trazado 1000155" d="M194.958,13.6a7.072,7.072,0,0,0,7.412,2.128" transform="translate(-129.588 -7.407)" fill="none" stroke="#12263f" stroke-linecap="round" stroke-linejoin="round" stroke-width="0.75"/>
          <path id="Trazado_1000156" data-name="Trazado 1000156" d="M170.064.2a1.582,1.582,0,0,0-1.686.127,4.722,4.722,0,0,0-1.318,1.487,10.768,10.768,0,0,0-1.1,2.087,6.03,6.03,0,0,0-.411,2.3,4.19,4.19,0,0,0-.015.513,6.512,6.512,0,0,0,.157,1.151c.046.212.093.437.157.653a2.989,2.989,0,0,0,.173.644c.029.069.11.025.116-.035,0-.014,0-.03,0-.044a.1.1,0,0,0,.132-.109,3.933,3.933,0,0,0-.191-.953c-.055-.361-.128-.721-.169-1.059-.017-.137-.025-.272-.033-.408,0-.052,0-.1,0-.156a3.516,3.516,0,0,1,.868-2.129A7.154,7.154,0,0,1,168.327,2.9a5.518,5.518,0,0,0,1.663-1.208c.271-.375.518-1.155.074-1.5" transform="translate(-84.119 0)" fill="#ff6a7d"/>
          <path id="Trazado_1000157" data-name="Trazado 1000157" d="M164.814.158A.147.147,0,0,0,164.53.2a4.977,4.977,0,0,1-3.239,3.977,8.3,8.3,0,0,0-3.7,2.393,10.069,10.069,0,0,0-1.929,4.521,5.712,5.712,0,0,0-.024,2.623,5.771,5.771,0,0,0,.508,1.611.162.162,0,1,0,.293-.138c-.018-.038-.029-.077-.046-.115a.156.156,0,0,0,.02-.173A5.1,5.1,0,0,1,156,13.689a7.924,7.924,0,0,1,.231-3.123,5.817,5.817,0,0,1,.456-.99,8.013,8.013,0,0,1,4.028-3.112,8.5,8.5,0,0,0,3.672-2.443,3.716,3.716,0,0,0,.427-3.863" transform="translate(-74.412 -0.034)" fill="#ffe1cb"/>
          <path id="Trazado_1000158" data-name="Trazado 1000158" d="M168.316,12.209a20.432,20.432,0,0,0-5.015,2.747,5.419,5.419,0,0,0-1.413,1.4,2.521,2.521,0,0,0-.359,1.995" transform="translate(-80.269 -6.647)" fill="none" stroke="#12263f" stroke-linecap="round" stroke-linejoin="round" stroke-width="0.75"/>
          <path id="Trazado_1000159" data-name="Trazado 1000159" d="M152.356,24.918a10.493,10.493,0,0,0-2.678-6.13.3.3,0,0,0-.533.25,22.8,22.8,0,0,1,.051,5.012,3.292,3.292,0,0,1-2.263,2.491,3.893,3.893,0,0,1-3.26-.883,7.345,7.345,0,0,1-.783-.721,5.63,5.63,0,0,0-1.927-3.3c-1.557-1.013-3.715-.347-5.164.6a7.33,7.33,0,0,0-2.042,1.983,4.782,4.782,0,0,0-1,2.521c0,.948.5,1.3,1.293,1.044a4.94,4.94,0,0,0,2.144-1.777,5.421,5.421,0,0,1,2.706-2.175,2.755,2.755,0,0,1,2.393.483.73.73,0,0,1,.143-.007.792.792,0,0,1,.488.191,2.815,2.815,0,0,1,.674,1.013,9.429,9.429,0,0,1,.463,1.385c.054.2.1.395.15.592a5.725,5.725,0,0,0,2.394,2.978,4.351,4.351,0,0,0,4.488-.234,6.127,6.127,0,0,0,2.268-5.319" transform="translate(-51.241 -10.165)" fill="#2079f3"/>
          <path id="Trazado_1000160" data-name="Trazado 1000160" d="M149.635,30.927A3.177,3.177,0,0,1,146,32.382a13.633,13.633,0,0,1-3.737-1.929,2.526,2.526,0,0,0-2.124-.491" transform="translate(-51.88 -16.263)" fill="none" stroke="#15260d" stroke-linecap="round" stroke-linejoin="round" stroke-width="0.75"/>
          <path id="Trazado_1000161" data-name="Trazado 1000161" d="M144.733,31.474a3.634,3.634,0,0,1-1.595,2.9,4.16,4.16,0,0,1-3.1.554,7.34,7.34,0,0,1-2.927-1.394" transform="translate(-45.597 -17.136)" fill="none" stroke="#12263f" stroke-linecap="round" stroke-linejoin="round" stroke-width="0.75"/>
          <path id="Trazado_1000162" data-name="Trazado 1000162" d="M144.334,39.062a3.4,3.4,0,0,1-3.031,1.567,7.877,7.877,0,0,1-3.338-1.046" transform="translate(-45.587 -21.267)" fill="none" stroke="#12263f" stroke-linecap="round" stroke-linejoin="round" stroke-width="0.75"/>
          <path id="Trazado_1000163" data-name="Trazado 1000163" d="M166.121,27.088a9.517,9.517,0,0,0-5.879,4.277" transform="translate(-77.523 -14.748)" fill="none" stroke="#12263f" stroke-linecap="round" stroke-linejoin="round" stroke-width="0.75"/>
          <path id="Trazado_1000164" data-name="Trazado 1000164" d="M156.936,10.456c.03-.125.063-.249.085-.374a.141.141,0,0,0-.181-.157v0c-.027-.137-.2-.106-.192.031s0,.3-.006.447a4.664,4.664,0,0,1-1.375,2.2c-1.022.833-2.134.508-3.268.21a8.221,8.221,0,0,0-5.451.4,8.121,8.121,0,0,0-3.942,3.773,9.063,9.063,0,0,0-.892,2.788,9.618,9.618,0,0,0-.118,1.454v.011a3.524,3.524,0,0,0,.23,1.328.233.233,0,0,0,.058.08c.02.038.036.079.057.116.085.14.244.03.252-.105a.221.221,0,0,0,.071-.159c.029-.542-.088-1.08-.075-1.626a7.859,7.859,0,0,1,.406-2.344,5.909,5.909,0,0,1,1.156-1.707,6.574,6.574,0,0,1,5.5-1.718,22.557,22.557,0,0,0,3.241.493,4.491,4.491,0,0,0,2.335-.739,4.74,4.74,0,0,0,1.7-1.983,5.338,5.338,0,0,0,.413-1.342,3.159,3.159,0,0,0,0-1.077" transform="translate(-59.93 -5.353)" fill="#ffe76d"/>
          <path id="Trazado_1000165" data-name="Trazado 1000165" d="M150.776,13.6a7.072,7.072,0,0,1-7.412,2.128" transform="translate(-54.49 -7.407)" fill="none" stroke="#12263f" stroke-linecap="round" stroke-linejoin="round" stroke-width="0.75"/>
          <path id="Trazado_1000166" data-name="Trazado 1000166" d="M179,6.044a.365.365,0,0,1,.721-.108,57.139,57.139,0,0,0,3.546,9.7c.1.184.188.369.288.551a17.079,17.079,0,0,0,5.582,6.106,24.112,24.112,0,0,0,14.975,3.566,28.853,28.853,0,0,0,7.766-1.685,45.994,45.994,0,0,0,7.295-3.669c.722-.419,1.453-.832,2.194-1.223a16.919,16.919,0,0,1-3,.449c-1.285.109-2.57.237-3.857.314a13.3,13.3,0,0,1-6.561-1.1c-3.983-1.86-6.6-5.654-7.807-10.166A50.635,50.635,0,0,1,198.867.51a.418.418,0,0,1,.824-.123,26.176,26.176,0,0,0,6.353,11.389,21.316,21.316,0,0,0,11.391,6.259,24.053,24.053,0,0,0,5.594.439,16.508,16.508,0,0,1,3.483-1.16,13.573,13.573,0,0,1,7.867.751,8.012,8.012,0,0,1,4.85,4.78c.022.069.04.139.059.209a20.21,20.21,0,0,1,3.1,1.623c2.188,1.394,4.354,3.128,6.91,3.559a7.808,7.808,0,0,0,6.7-2.224c1.664-1.659,3.006-4.758,1.143-6.863-.024-.027-.051-.045-.077-.071-1.1-.3-2.021,1.271-2.531,2.146s-1.123,1.833-2.1,2.089a2.047,2.047,0,0,1-2.279-.722c-.633-1.015,0-2.156.668-2.912,1.515-1.724,3.954-3.3,6.124-2.086,1.985,1.111,2.5,3.951,1.775,6.105a8.779,8.779,0,0,1-4.9,5.1,8.677,8.677,0,0,1-7.05-.151c-2.354-1.055-4.38-2.789-6.671-3.982-.189-.1-.384-.185-.576-.275a8.013,8.013,0,0,1-1.441,5.228c-2.678,3.7-8.823,4.162-11.461.144a4.9,4.9,0,0,1,.956-6.288c1.986-1.78,4.879-1.879,7.309-1.6a15.929,15.929,0,0,1,3.008.654,5.747,5.747,0,0,0-1.529-1.983,11.415,11.415,0,0,0-7.6-2.321,17.417,17.417,0,0,0-7.8,2.585,80.172,80.172,0,0,1-7.106,3.832A43.708,43.708,0,0,1,199.2,28.374a23.081,23.081,0,0,1-7.692-.984,21.975,21.975,0,0,1-7.034-3.54,12.431,12.431,0,0,1-4.229-6.892A36.98,36.98,0,0,1,179,6.044m52.886,16.969a5.97,5.97,0,0,0-3.766,1.5A3.712,3.712,0,0,0,227.014,28c.622,2.49,3.371,3.5,5.46,3.4a6.217,6.217,0,0,0,5.563-3.966,6.4,6.4,0,0,0,.309-3.531,14.933,14.933,0,0,0-6.459-.887" transform="translate(-178.982 -0.034)" fill="#2cbe91"/>
          <path id="Trazado_1000167" data-name="Trazado 1000167" d="M252.957,40.91a22.043,22.043,0,0,0,6.526-1.881" transform="translate(-213.122 -21.249)" fill="none" stroke="#12263f" stroke-linecap="round" stroke-linejoin="round" stroke-width="0.75"/>
          <path id="Trazado_1000168" data-name="Trazado 1000168" d="M275.471,15.125c2.462,6.2,7.973,10.787,14.042,11.7" transform="translate(-253.408 -8.235)" fill="none" stroke="#12263f" stroke-linecap="round" stroke-linejoin="round" stroke-width="0.75"/>
          <path id="Trazado_1000169" data-name="Trazado 1000169" d="M298.226,23.622c1.751,5.791,5.274,11.169,10.317,13.667a18.885,18.885,0,0,0,3.149,1.194,26.3,26.3,0,0,0,11.353.732" transform="translate(-297.306 -12.861)" fill="none" stroke="#15260d" stroke-linecap="round" stroke-linejoin="round" stroke-width="0.75"/>
          <path id="Trazado_1000170" data-name="Trazado 1000170" d="M224.175,45.355a7.1,7.1,0,0,1,2,5.773" transform="translate(-166.73 -24.693)" fill="none" stroke="#12263f" stroke-linecap="round" stroke-linejoin="round" stroke-width="0.75"/>
          <path id="Trazado_1000171" data-name="Trazado 1000171" d="M222.05,45.454a7.948,7.948,0,0,1,1.291,4.93" transform="translate(-162.919 -24.747)" fill="none" stroke="#15260d" stroke-linecap="round" stroke-linejoin="round" stroke-width="0.75"/>
          <path id="Trazado_1000172" data-name="Trazado 1000172" d="M227.467,49.862a12.07,12.07,0,0,0-1.993-.8" transform="translate(-168.585 -26.712)" fill="none" stroke="#12263f" stroke-linecap="round" stroke-linejoin="round" stroke-width="0.75"/>
          <path id="Trazado_1000173" data-name="Trazado 1000173" d="M187.339,42.476a3.655,3.655,0,0,0-.888-1.654,2.276,2.276,0,0,0-.826-.43,3.48,3.48,0,0,0-3.67.975,1.966,1.966,0,0,0-.531,1.312c.018.492.373.984.819.982" transform="translate(-108.391 -21.9)" fill="none" stroke="#12263f" stroke-linecap="round" stroke-linejoin="round" stroke-width="0.75"/>
          <path id="Trazado_1000174" data-name="Trazado 1000174" d="M78.794,16.958a12.43,12.43,0,0,1-4.228,6.892,21.98,21.98,0,0,1-7.034,3.54,23.094,23.094,0,0,1-7.692.984,43.706,43.706,0,0,1-14.664-3.722,80.288,80.288,0,0,1-7.106-3.832,17.42,17.42,0,0,0-7.8-2.585,11.415,11.415,0,0,0-7.6,2.321,5.742,5.742,0,0,0-1.529,1.983,15.924,15.924,0,0,1,3.008-.654c2.431-.282,5.324-.183,7.309,1.6a4.9,4.9,0,0,1,.955,6.288c-2.638,4.018-8.783,3.558-11.461-.144A8.013,8.013,0,0,1,19.514,24.4c-.193.09-.387.176-.576.275-2.291,1.192-4.317,2.926-6.671,3.982a8.675,8.675,0,0,1-7.05.15,8.779,8.779,0,0,1-4.9-5.1C-.415,21.544.1,18.7,2.089,17.593c2.169-1.214,4.608.361,6.124,2.086.664.756,1.3,1.9.668,2.912a2.046,2.046,0,0,1-2.279.722c-.974-.255-1.585-1.212-2.1-2.089s-1.431-2.445-2.532-2.146c-.025.026-.052.044-.076.071-1.863,2.1-.521,5.2,1.143,6.863a7.808,7.808,0,0,0,6.7,2.224c2.556-.431,4.721-2.165,6.91-3.559a20.171,20.171,0,0,1,3.1-1.623c.02-.07.037-.14.059-.209a8.015,8.015,0,0,1,4.85-4.78,13.571,13.571,0,0,1,7.867-.751,16.516,16.516,0,0,1,3.483,1.16,24.08,24.08,0,0,0,5.594-.439A21.315,21.315,0,0,0,53,11.776,26.174,26.174,0,0,0,59.352.387a.418.418,0,0,1,.824.123A50.676,50.676,0,0,1,58.9,8.788C57.7,13.3,55.078,17.094,51.1,18.954a13.3,13.3,0,0,1-6.561,1.1c-1.287-.077-2.572-.205-3.856-.314a16.914,16.914,0,0,1-3-.449c.741.391,1.472.8,2.194,1.223a45.994,45.994,0,0,0,7.295,3.669,28.849,28.849,0,0,0,7.766,1.685A24.112,24.112,0,0,0,69.9,22.3a17.082,17.082,0,0,0,5.582-6.106c.1-.181.193-.367.287-.551a57.159,57.159,0,0,0,3.546-9.7.365.365,0,0,1,.72.108,36.961,36.961,0,0,1-1.246,10.914M20.7,23.9A6.4,6.4,0,0,0,21,27.43,6.219,6.219,0,0,0,26.568,31.4c2.09.1,4.838-.908,5.461-3.4a3.715,3.715,0,0,0-1.107-3.481,5.973,5.973,0,0,0-3.766-1.5A14.933,14.933,0,0,0,20.7,23.9" transform="translate(81.536 -0.034)" fill="#2cbe91"/>
          <path id="Trazado_1000175" data-name="Trazado 1000175" d="M93.969,40.91a22.042,22.042,0,0,1-6.526-1.881" transform="translate(27.793 -21.249)" fill="none" stroke="#12263f" stroke-linecap="round" stroke-linejoin="round" stroke-width="0.75"/>
          <path id="Trazado_1000176" data-name="Trazado 1000176" d="M62.472,15.125c-2.462,6.2-7.973,10.787-14.042,11.7" transform="translate(77.062 -8.235)" fill="none" stroke="#15260d" stroke-linecap="round" stroke-linejoin="round" stroke-width="0.75"/>
          <path id="Trazado_1000177" data-name="Trazado 1000177" d="M26.838,23.622c-1.751,5.791-5.274,11.169-10.317,13.667a18.889,18.889,0,0,1-3.149,1.194,26.3,26.3,0,0,1-11.353.732" transform="translate(133.84 -12.861)" fill="none" stroke="#15260d" stroke-linecap="round" stroke-linejoin="round" stroke-width="0.75"/>
          <path id="Trazado_1000178" data-name="Trazado 1000178" d="M128.127,45.355a7.1,7.1,0,0,0-2,5.773" transform="translate(-23.976 -24.693)" fill="none" stroke="#15260d" stroke-linecap="round" stroke-linejoin="round" stroke-width="0.75"/>
          <path id="Trazado_1000179" data-name="Trazado 1000179" d="M131.11,45.454a7.947,7.947,0,0,0-1.291,4.93" transform="translate(-28.644 -24.747)" fill="none" stroke="#12263f" stroke-linecap="round" stroke-linejoin="round" stroke-width="0.75"/>
          <path id="Trazado_1000180" data-name="Trazado 1000180" d="M124.875,49.862a12.071,12.071,0,0,1,1.994-.8" transform="translate(-22.159 -26.712)" fill="none" stroke="#12263f" stroke-linecap="round" stroke-linejoin="round" stroke-width="0.75"/>
          <path id="Trazado_1000181" data-name="Trazado 1000181" d="M160.314,42.476a3.661,3.661,0,0,1,.888-1.654,2.276,2.276,0,0,1,.826-.43,3.48,3.48,0,0,1,3.67.975,1.966,1.966,0,0,1,.531,1.312c-.018.492-.373.984-.819.982" transform="translate(-77.666 -21.9)" fill="none" stroke="#15260d" stroke-linecap="round" stroke-linejoin="round" stroke-width="0.75"/>
          <path id="Trazado_1000182" data-name="Trazado 1000182" d="M173.61,33.792a2.043,2.043,0,1,1,2.033,2.246,2.148,2.148,0,0,1-2.033-2.246" transform="translate(-95.168 -17.175)" fill="#2cbe91"/>
        </g>
      </g>
      <g id="Grupo_1186068" data-name="Grupo 1186068" transform="translate(1136.613 2505.482)">
        <g id="Grupo_1184024" data-name="Grupo 1184024" transform="translate(0 0)">
          <rect id="Rectángulo_455879-2" data-name="Rectángulo 455879" width="56.865" height="54.601" transform="translate(0.428)" fill="#ffb57d"/>
          <path id="Trazado_1000145-2" data-name="Trazado 1000145" d="M57.721,0H56.2a2.49,2.49,0,0,1-2.49,2.49A2.49,2.49,0,0,1,51.221,0H49.087V.005a2.491,2.491,0,0,1-2.493,2.488A2.49,2.49,0,0,1,44.106,0H42.113V.005A2.49,2.49,0,0,1,39.62,2.493,2.491,2.491,0,0,1,37.133,0H35.047V.005a2.491,2.491,0,0,1-2.493,2.488A2.49,2.49,0,0,1,30.066,0h-2.16V.005a2.491,2.491,0,0,1-2.493,2.488A2.49,2.49,0,0,1,22.926,0H20.891A2.49,2.49,0,0,1,18.4,2.49,2.49,2.49,0,0,1,15.91,0h-2.1V.005a2.491,2.491,0,0,1-2.493,2.488A2.491,2.491,0,0,1,8.827,0H6.717V.005A2.491,2.491,0,0,1,4.224,2.493,2.49,2.49,0,0,1,1.737,0H0" transform="translate(0 54.06)" fill="#ffb57d"/>
        </g>
        <path id="Trazado_1026845" data-name="Trazado 1026845" d="M.468,16.211c.287,3.124,2.333,4.9,5.842,3.446a38.982,38.982,0,0,1,4.922-1.536c.344,1.153.69,2.334.943,3.254l.03-.016c.086.31.161.592.222.832.43,1.694,1.7,3.021,3.441,2.861l14.22-1.307c1.74-.16,2.58-1.716,2.861-3.441.149-.911.317-2.418.467-3.921,2.879.156,5.085.314,5.085.314,4.271.694,5.4-1.33,5.115-4.454C43.115,6.8,32.6,1.27,20.948,2.341S-.032,10.77.468,16.211" transform="matrix(-1, -0.017, 0.017, -1, 43.618, 42.206)" fill="#ffb57d" style="mix-blend-mode: multiply;isolation: isolate"/>
      </g>
    </g>
    <g id="mariscos" transform="translate(363.347 3602.86)">
      <g id="Grupo_1187522" data-name="Grupo 1187522" transform="translate(0 46.417)">
        <g id="Grupo_1187521" data-name="Grupo 1187521" transform="translate(0 0)">
          <path id="Trazado_1140055" data-name="Trazado 1140055" d="M98.818,91.507l7.677-7.679a6.623,6.623,0,0,0,0-9.289l-7.678-7.678a36.2,36.2,0,0,0-15.475-9.128L81.924,53.3a9.847,9.847,0,0,0-12.136-6.5L48.607,52.857a1.665,1.665,0,0,0-.907,2.554l5.1,7.306-8.3,5.188a29.6,29.6,0,0,1-11.878,4.273,1.665,1.665,0,1,0,.437,3.3,32.9,32.9,0,0,0,13.206-4.75c12.4-7.75,25.016-14.882,39.908-8.5-5.9,11.257-5.9,22.647,0,33.9a32.515,32.515,0,0,1-30.122-2.382l-9.787-6.117c-8.672-5.419-20.985-7.377-29.8-1.178L4.305,95.007q-.889.342-.972-.607L5.514,80.848h6.824a1.665,1.665,0,1,0,0-3.33H5.514L3.333,63.968a.609.609,0,0,1,.974-.609l12.162,8.547a21.688,21.688,0,0,0,8.853,3.6,1.665,1.665,0,1,0,.529-3.287,17.886,17.886,0,0,1-7.466-3.033L6.221,60.635C3.143,58.473-.445,61.455.045,64.5L2.409,79.184.045,93.87c-.491,3.045,3.113,6.017,6.175,3.861l12.163-8.548c7.7-5.419,18.594-3.424,26.117,1.278l9.787,6.117A36.157,36.157,0,0,0,73.4,102.046c5.4,0,15.827-.433,25.417-10.54ZM55.649,60.98l-3.884-5.561L70.7,50.007a6.532,6.532,0,0,1,8.05,4.308l.813,2.541q-1.058-.186-2.128-.308A36.147,36.147,0,0,0,55.649,60.98ZM89.164,63.7a32.987,32.987,0,0,1,7.3,5.517l7.678,7.678a3.236,3.236,0,0,1,0,4.579l-7.677,7.68a32.987,32.987,0,0,1-7.3,5.516c-5.5-10.4-5.5-20.565,0-30.97Z" transform="translate(0 -46.417)" fill="#2079f3"/>
          <path id="Trazado_1140056" data-name="Trazado 1140056" d="M315.631,127.691a1.665,1.665,0,1,0,0-3.33,5.113,5.113,0,1,0,0,10.226,1.665,1.665,0,1,0,0-3.33,1.783,1.783,0,0,1,0-3.567Z" transform="translate(-241.59 -107.059)" fill="#2079f3"/>
          <path id="Trazado_1140057" data-name="Trazado 1140057" d="M315.631,227.793a1.665,1.665,0,1,0,0-3.33,1.783,1.783,0,0,1,0-3.567,1.665,1.665,0,1,0,0-3.33,5.113,5.113,0,1,0,0,10.226Z" transform="translate(-241.59 -179.576)" fill="#2079f3"/>
          <path id="Trazado_1140058" data-name="Trazado 1140058" d="M272.444,145.381a1.665,1.665,0,0,0,0-3.33,5.113,5.113,0,0,0,0,10.226,1.665,1.665,0,0,0,0-3.33,1.783,1.783,0,0,1,0-3.567Z" transform="translate(-207.99 -120.822)" fill="#2079f3"/>
          <path id="Trazado_1140059" data-name="Trazado 1140059" d="M256.147,207.146a5.119,5.119,0,0,0,5.113,5.113,1.665,1.665,0,0,0,0-3.33,1.783,1.783,0,1,1,0-3.567,1.665,1.665,0,1,0,0-3.33A5.118,5.118,0,0,0,256.147,207.146Z" transform="translate(-199.288 -167.49)" fill="#2079f3"/>
          <path id="Trazado_1140060" data-name="Trazado 1140060" d="M222.425,174.294a1.665,1.665,0,0,0,0-3.33,5.113,5.113,0,1,0,0,10.226,1.665,1.665,0,0,0,0-3.33,1.783,1.783,0,0,1,0-3.567Z" transform="translate(-169.074 -143.317)" fill="#2079f3"/>
          <path id="Trazado_1140061" data-name="Trazado 1140061" d="M376.946,317.02a17.961,17.961,0,0,0-1.918-1.723A1.665,1.665,0,0,0,373,317.939c2.657,2.038,3.9,5.5,1.472,8.331l-4.428,5.169h-3.468l2.27-4.478a1.665,1.665,0,1,0-2.97-1.505l-3.032,5.983h-.71v-8.679a1.665,1.665,0,0,0-3.33,0v8.679h-.719l-3.032-5.983a1.665,1.665,0,1,0-2.97,1.505l2.27,4.478H350.89l-4.4-5.161c-.02-.024-.041-.047-.062-.069a4.685,4.685,0,0,1-.015-6.909c5-5.271,13.955-6.25,20.62-4.3a1.665,1.665,0,1,0,.936-3.2c-7.885-2.31-18.108-.976-23.972,5.2a7.96,7.96,0,0,0-.012,11.465l4.5,5.272a8.573,8.573,0,0,0,8.538,7.921h6.9a8.573,8.573,0,0,0,8.537-7.917l4.525-5.281A7.964,7.964,0,0,0,376.946,317.02Zm-13.032,21.316h-6.9a5.241,5.241,0,0,1-4.96-3.567h16.817A5.242,5.242,0,0,1,363.914,338.335Z" transform="translate(-265.735 -252.068)" fill="#2079f3"/>
          <path id="Trazado_1140062" data-name="Trazado 1140062" d="M102.77,302.009A15.526,15.526,0,0,0,87.262,286.5H80.6a1.665,1.665,0,1,0,0,3.33h5.051v10.562H78.633v-1.783a1.665,1.665,0,0,0-3.33,0v1.783A16.968,16.968,0,0,1,58.551,289.83H73.339a1.665,1.665,0,1,0,0-3.33H53.147a1.734,1.734,0,0,1,0-3.468H73.52a1.665,1.665,0,0,0,0-3.33H53.147a5.064,5.064,0,0,0,0,10.128H55.02A19.984,19.984,0,0,0,56.6,293.5H49.748a1.665,1.665,0,1,0,0,3.33h9.187a19.93,19.93,0,0,0,15.106,6.9H87.278a1.926,1.926,0,0,1,1.818,1.792,1.785,1.785,0,0,1-1.783,1.774H67.351a9.254,9.254,0,0,0-7.188-3.732H53.2q-2.347.532-1.3,2.7l4.834,6.085-4.82,5.9q-1.074,2.174,1.29,2.718h7.128a9.257,9.257,0,0,0,6.988-3.447h19.95A15.7,15.7,0,0,0,102.77,302.009Zm-3.33,0a12.332,12.332,0,0,1-.136,1.833H92.15a5.141,5.141,0,0,0-3.173-3.173V289.951A12.2,12.2,0,0,1,99.441,302.009ZM66.672,314.187H66.59a1.784,1.784,0,0,1,0-3.568h5.27v3.569Zm8.512-3.569H82.2v3.569H75.184ZM56.7,317.634l3.45-4.225a1.665,1.665,0,0,0,.014-2.088l-3.523-4.434h3.518a5.235,5.235,0,0,1,3.5,1.346,5.18,5.18,0,0,0-.653.553,5.111,5.111,0,0,0,.562,7.716,5.179,5.179,0,0,1-3.246,1.132Zm39.169-7.014a12.1,12.1,0,0,1-8.612,3.567H85.529v-3.569h1.784a5.122,5.122,0,0,0,4.834-3.447H98.3a12.2,12.2,0,0,1-2.425,3.449Z" transform="translate(-37.41 -227.919)" fill="#2079f3"/>
        </g>
        <path id="Trazado_1140063" data-name="Trazado 1140063" d="M420.944,176.45a1.665,1.665,0,1,1,1.665-1.665A1.665,1.665,0,0,1,420.944,176.45Z" transform="translate(-326.208 -144.995)" fill="#2079f3"/>
      </g>
      <path id="Trazado_1140064" data-name="Trazado 1140064" d="M141.679,344.948a1.665,1.665,0,1,1,1.665-1.665A1.665,1.665,0,0,1,141.679,344.948Z" transform="translate(-108.934 -229.673)" fill="#2079f3"/>
    </g>
  </g>
</svg>
