<svg xmlns="http://www.w3.org/2000/svg" xmlns:xlink="http://www.w3.org/1999/xlink" width="225.929" height="209.764" viewBox="0 0 225.929 209.764">
  <defs>
    <clipPath id="clip-path">
      <rect id="Rectángulo_455881" data-name="Rectángulo 455881" width="126.616" height="25.513" fill="#2cbe91"/>
    </clipPath>
  </defs>
  <g id="Grupo_1187590" data-name="Grupo 1187590" transform="translate(-1042 -4806.675)">
    <g id="Grupo_1187505" data-name="Grupo 1187505" transform="translate(-43.007 2512.357)">
      <path id="Trazado_1085278" data-name="Trazado 1085278" d="M197.527,18.2V0h-5.916c-.036,5.076-3.881,9.159-8.587,9.12-4.655-.039-8.42-4.1-8.456-9.12H167.35c0,5.076-3.815,9.191-8.521,9.191S150.307,5.076,150.307,0h-7.2c0,5.076-3.815,9.191-8.522,9.191S126.066,5.076,126.066,0h-6.96c0,5.076-3.816,9.192-8.522,9.192S102.061,5.076,102.061,0H94.67c0,5.076-3.815,9.191-8.522,9.191S77.627,5.076,77.627,0H70.483c0,5.076-3.815,9.191-8.522,9.191S53.439,5.076,53.439,0H46.623c0,5.077-3.811,9.194-8.518,9.2S29.581,5.086,29.578.009V0H22.273c0,5.076-3.815,9.191-8.522,9.191S5.229,5.076,5.229,0H0V18.259c4.707,0,8.522,4.115,8.522,9.192S4.707,36.643,0,36.643v7.971c4.707,0,8.522,4.115,8.522,9.192S4.707,63,0,63v7.508H.019c4.706.006,8.518,4.125,8.512,9.2S4.706,88.894,0,88.888v7.76c4.707,0,8.522,4.115,8.522,9.192S4.707,115.032,0,115.032v7.391H.019c4.706.005,8.518,4.125,8.512,9.2S4.706,140.811,0,140.806v18.174H5.2c0-5.076,3.815-9.191,8.522-9.191s8.522,4.115,8.522,9.191h7.3v-.02c.005-5.076,3.825-9.187,8.531-9.181s8.518,4.125,8.512,9.2H53.41v-.02c.005-5.076,3.825-9.187,8.531-9.181s8.518,4.125,8.512,9.2h7.139v-.02c.005-5.076,3.825-9.187,8.531-9.181s8.518,4.125,8.512,9.2h7.392v-.02c.005-5.076,3.825-9.187,8.531-9.181s8.518,4.125,8.512,9.2h6.961c0-5.077,3.816-9.192,8.523-9.192s8.523,4.116,8.523,9.192h7.194v-.02c.005-5.076,3.825-9.187,8.531-9.181s8.518,4.125,8.512,9.2h7.221v-.02c.005-5.076,3.825-9.187,8.531-9.181s8.518,4.125,8.512,9.2h5.945V140.749h-.019c-4.707-.006-8.518-4.125-8.512-9.2s3.825-9.187,8.531-9.181v-7.392c-4.707,0-8.522-4.115-8.522-9.192s3.816-9.192,8.522-9.192v-7.76h-.019c-4.707-.006-8.518-4.126-8.512-9.2s3.825-9.187,8.531-9.181V62.94c-4.707,0-8.523-4.115-8.523-9.192s3.816-9.192,8.523-9.192v-7.97c-4.707,0-8.524-4.111-8.527-9.187s3.811-9.194,8.518-9.2h.009" transform="translate(1136.374 2491.844) rotate(-90)" fill="#bbd6fc"/>
      <g id="Grupo_1184022" data-name="Grupo 1184022" transform="translate(1268.152 2422.254)">
        <g id="Grupo_1183846" data-name="Grupo 1183846" transform="translate(0 0)">
          <rect id="Rectángulo_455879" data-name="Rectángulo 455879" width="42.15" height="40.471" transform="translate(0.318)" fill="#2cbe91"/>
          <path id="Trazado_1000145" data-name="Trazado 1000145" d="M0,1.848H1.126a1.846,1.846,0,0,1,3.692,0H6.4v0a1.846,1.846,0,1,1,3.692,0h1.477v0a1.846,1.846,0,1,1,3.692,0h1.546v0a1.846,1.846,0,1,1,3.692,0h1.6v0a1.846,1.846,0,1,1,3.692,0H27.3a1.846,1.846,0,0,1,3.692,0H32.55v0a1.846,1.846,0,1,1,3.692,0h1.564v0a1.846,1.846,0,1,1,3.692,0h1.287" transform="translate(42.784 41.919) rotate(180)" fill="#2cbe91"/>
        </g>
        <path id="Trazado_1000133" data-name="Trazado 1000133" d="M1.006,18.034c-.06-.1-.124-.19-.186-.286a4.707,4.707,0,0,1-.8-2.109,3.335,3.335,0,0,1,.036-.964,4.9,4.9,0,0,1,.655-1.71c.129-.2.28-.386.432-.6a.2.2,0,0,0,0-.071,3.262,3.262,0,0,1,.128-2.144,4.942,4.942,0,0,1,.862-1.438,5.71,5.71,0,0,1,1.509-1.34c.133-.077.27-.151.413-.23a2.733,2.733,0,0,1,.788-1.787,5.374,5.374,0,0,1,1.31-1.1,4.862,4.862,0,0,1,1.96-.7,1.328,1.328,0,0,0,.07-.137,2.524,2.524,0,0,1,.852-1.094,5.147,5.147,0,0,1,2.472-1.048,4.579,4.579,0,0,1,.965-.014c.113.007.226.008.329.012.076-.066.138-.119.2-.175A4.74,4.74,0,0,1,15.716.024a5.293,5.293,0,0,1,2.392.323c.107.039.215.074.293.1A5.08,5.08,0,0,1,21.725.176a4.978,4.978,0,0,1,2.7,1.879,2.937,2.937,0,0,1,.94.086,4.06,4.06,0,0,1,1.5.73,4.144,4.144,0,0,1,.681.631,2.89,2.89,0,0,1,.671,1.479A2.525,2.525,0,0,1,27.544,7.1a5,5,0,0,1-.882.784,4.352,4.352,0,0,0-.573.526,17.586,17.586,0,0,1-1.554,1.349q-1.079.851-2.171,1.681c-.49.371-1,.718-1.489,1.081-1.628,1.2-3.314,2.309-4.973,3.458-1.4.966-2.824,1.883-4.26,2.786q-1.454.913-2.95,1.759a28.518,28.518,0,0,1-3.163,1.554,1.449,1.449,0,0,1-.206.07.629.629,0,0,0-.3.159.646.646,0,0,1-.179.124,4.023,4.023,0,0,1-1.359.43,2.34,2.34,0,0,1-.739-.026,1.865,1.865,0,0,1-.669-.325A3.413,3.413,0,0,1,.893,21.1a3.285,3.285,0,0,1-.255-1.277c0-.187.012-.374.024-.562a2.632,2.632,0,0,1,.25-.992c.036-.074.066-.151.1-.238" transform="translate(16.543 5.021) rotate(34)" fill="#1b5b5b"/>
      </g>
      <g id="Grupo_1184023" data-name="Grupo 1184023" transform="translate(1085.007 2445.254)">
        <g id="Grupo_1183367" data-name="Grupo 1183367" transform="translate(0 0)" clip-path="url(#clip-path)">
          <path id="Trazado_1000146" data-name="Trazado 1000146" d="M182.129.154a1.24,1.24,0,0,0-1.321.1,3.7,3.7,0,0,0-1.033,1.165,8.437,8.437,0,0,0-.861,1.635,4.724,4.724,0,0,0-.322,1.805,3.282,3.282,0,0,0-.012.4,5.107,5.107,0,0,0,.123.9c.036.166.073.343.123.512a2.337,2.337,0,0,0,.135.5c.022.054.086.019.091-.027,0-.011,0-.023,0-.034a.081.081,0,0,0,.1-.086,3.079,3.079,0,0,0-.15-.747c-.043-.283-.1-.565-.133-.83-.013-.107-.019-.213-.026-.32,0-.041,0-.081,0-.122a2.756,2.756,0,0,1,.68-1.668,5.607,5.607,0,0,1,1.242-1.071,4.323,4.323,0,0,0,1.3-.946c.212-.294.406-.9.058-1.174" transform="translate(-114.836 0)" fill="#ff6a7d"/>
          <path id="Trazado_1000147" data-name="Trazado 1000147" d="M185.163.137a.115.115,0,0,0-.222.035A3.9,3.9,0,0,1,182.4,3.288a6.5,6.5,0,0,0-2.9,1.875,7.892,7.892,0,0,0-1.511,3.543,4.475,4.475,0,0,0-.019,2.055,4.522,4.522,0,0,0,.4,1.263.127.127,0,1,0,.23-.108c-.014-.03-.022-.06-.035-.09a.122.122,0,0,0,.016-.136,4,4,0,0,1-.327-.95,6.209,6.209,0,0,1,.181-2.447,4.558,4.558,0,0,1,.358-.776,6.278,6.278,0,0,1,3.156-2.439,6.659,6.659,0,0,0,2.877-1.914,2.912,2.912,0,0,0,.335-3.027" transform="translate(-114.377 -0.04)" fill="#ffe1cb"/>
          <path id="Trazado_1000148" data-name="Trazado 1000148" d="M183.452,12.209a16.009,16.009,0,0,0-3.929,2.152,4.247,4.247,0,0,0-1.107,1.1,1.974,1.974,0,0,0-.281,1.563" transform="translate(-114.511 -7.851)" fill="none" stroke="#12263f" stroke-linecap="round" stroke-linejoin="round" stroke-width="0.75"/>
          <path id="Trazado_1000149" data-name="Trazado 1000149" d="M194.156,23.565a8.222,8.222,0,0,0-2.1-4.8.236.236,0,0,0-.417.2,17.865,17.865,0,0,1,.04,3.927,2.579,2.579,0,0,1-1.774,1.952,3.05,3.05,0,0,1-2.554-.692,5.756,5.756,0,0,1-.614-.565A4.411,4.411,0,0,0,185.228,21c-1.22-.794-2.911-.272-4.046.469a5.742,5.742,0,0,0-1.6,1.554A3.747,3.747,0,0,0,178.8,25c0,.742.393,1.018,1.013.818a3.871,3.871,0,0,0,1.68-1.392,4.247,4.247,0,0,1,2.12-1.7,2.159,2.159,0,0,1,1.875.379.572.572,0,0,1,.112-.006.62.62,0,0,1,.382.15,2.206,2.206,0,0,1,.528.794,7.385,7.385,0,0,1,.363,1.085c.042.153.079.309.117.464a4.487,4.487,0,0,0,1.876,2.333,3.409,3.409,0,0,0,3.516-.183,4.8,4.8,0,0,0,1.777-4.168" transform="translate(-114.976 -12.006)" fill="#2079f3"/>
          <path id="Trazado_1000150" data-name="Trazado 1000150" d="M201.053,30.7a2.489,2.489,0,0,1-2.844,1.14,10.684,10.684,0,0,1-2.928-1.511,1.979,1.979,0,0,0-1.664-.385" transform="translate(-124.507 -19.208)" fill="none" stroke="#15260d" stroke-linecap="round" stroke-linejoin="round" stroke-width="0.75"/>
          <path id="Trazado_1000151" data-name="Trazado 1000151" d="M206.724,31.474a2.848,2.848,0,0,1-1.25,2.275,3.259,3.259,0,0,1-2.43.434,5.752,5.752,0,0,1-2.293-1.092" transform="translate(-129.095 -20.24)" fill="none" stroke="#12263f" stroke-linecap="round" stroke-linejoin="round" stroke-width="0.75"/>
          <path id="Trazado_1000152" data-name="Trazado 1000152" d="M207.639,39.062a2.661,2.661,0,0,1-2.375,1.228,6.174,6.174,0,0,1-2.615-.82" transform="translate(-130.315 -25.119)" fill="none" stroke="#12263f" stroke-linecap="round" stroke-linejoin="round" stroke-width="0.75"/>
          <path id="Trazado_1000153" data-name="Trazado 1000153" d="M186.052,27.088a7.456,7.456,0,0,0-4.606,3.351" transform="translate(-116.68 -17.419)" fill="none" stroke="#15260d" stroke-linecap="round" stroke-linejoin="round" stroke-width="0.75"/>
          <path id="Trazado_1000154" data-name="Trazado 1000154" d="M191.15,10.321c.024-.1.049-.2.067-.293a.11.11,0,0,0-.142-.123v0c-.021-.107-.153-.083-.151.024s0,.234-.005.35A3.654,3.654,0,0,1,189.841,12a2.633,2.633,0,0,1-2.56.165,6.442,6.442,0,0,0-4.271.313,6.365,6.365,0,0,0-3.089,2.957,7.1,7.1,0,0,0-.7,2.184,7.526,7.526,0,0,0-.092,1.139v.009a2.776,2.776,0,0,0,.18,1.04.183.183,0,0,0,.045.063c.015.03.028.062.045.091.066.11.191.023.2-.082a.173.173,0,0,0,.055-.124c.022-.425-.069-.846-.059-1.274a6.5,6.5,0,0,1,.125-1.116,6.406,6.406,0,0,1,.193-.721,4.643,4.643,0,0,1,.906-1.338,5.151,5.151,0,0,1,4.313-1.346,17.68,17.68,0,0,0,2.54.387,3.52,3.52,0,0,0,1.83-.579,3.713,3.713,0,0,0,1.328-1.553,4.167,4.167,0,0,0,.324-1.051,2.476,2.476,0,0,0,0-.844" transform="translate(-115.191 -6.322)" fill="#ffe76d"/>
          <path id="Trazado_1000155" data-name="Trazado 1000155" d="M200.766,13.6a5.541,5.541,0,0,1-5.808,1.668" transform="translate(-125.369 -8.748)" fill="none" stroke="#12263f" stroke-linecap="round" stroke-linejoin="round" stroke-width="0.75"/>
          <path id="Trazado_1000156" data-name="Trazado 1000156" d="M165.723.154a1.24,1.24,0,0,1,1.321.1,3.7,3.7,0,0,1,1.033,1.165,8.438,8.438,0,0,1,.861,1.635,4.725,4.725,0,0,1,.322,1.805,3.276,3.276,0,0,1,.012.4,5.1,5.1,0,0,1-.123.9c-.036.166-.073.343-.123.512a2.341,2.341,0,0,1-.135.5c-.022.054-.086.019-.091-.027,0-.011,0-.023,0-.034a.081.081,0,0,1-.1-.086,3.083,3.083,0,0,1,.15-.747c.043-.283.1-.565.133-.83.013-.107.019-.213.026-.32,0-.041,0-.081,0-.122a2.755,2.755,0,0,0-.68-1.668,5.605,5.605,0,0,0-1.242-1.071,4.323,4.323,0,0,1-1.3-.946c-.212-.294-.406-.9-.058-1.174" transform="translate(-106.447 0)" fill="#ff6a7d"/>
          <path id="Trazado_1000157" data-name="Trazado 1000157" d="M155.779.137A.115.115,0,0,1,156,.172a3.9,3.9,0,0,0,2.538,3.116,6.5,6.5,0,0,1,2.9,1.875,7.889,7.889,0,0,1,1.512,3.543,4.475,4.475,0,0,1,.019,2.055,4.521,4.521,0,0,1-.4,1.263.127.127,0,1,1-.23-.108c.014-.03.022-.06.036-.09a.122.122,0,0,1-.016-.136,4,4,0,0,0,.327-.95,6.209,6.209,0,0,0-.181-2.447,4.558,4.558,0,0,0-.358-.776,6.278,6.278,0,0,0-3.156-2.439,6.659,6.659,0,0,1-2.877-1.914,2.912,2.912,0,0,1-.335-3.027" transform="translate(-99.995 -0.04)" fill="#ffe1cb"/>
          <path id="Trazado_1000158" data-name="Trazado 1000158" d="M161.451,12.209a16.009,16.009,0,0,1,3.929,2.152,4.246,4.246,0,0,1,1.107,1.1,1.976,1.976,0,0,1,.281,1.563" transform="translate(-103.822 -7.851)" fill="none" stroke="#12263f" stroke-linecap="round" stroke-linejoin="round" stroke-width="0.75"/>
          <path id="Trazado_1000159" data-name="Trazado 1000159" d="M132.758,23.565a8.222,8.222,0,0,1,2.1-4.8.236.236,0,0,1,.417.2,17.864,17.864,0,0,0-.04,3.927,2.58,2.58,0,0,0,1.773,1.952,3.05,3.05,0,0,0,2.554-.692,5.755,5.755,0,0,0,.614-.565A4.411,4.411,0,0,1,141.685,21c1.22-.794,2.911-.272,4.046.469a5.743,5.743,0,0,1,1.6,1.554A3.747,3.747,0,0,1,148.117,25c0,.742-.393,1.018-1.013.818a3.871,3.871,0,0,1-1.68-1.392,4.247,4.247,0,0,0-2.12-1.7,2.159,2.159,0,0,0-1.875.379.572.572,0,0,0-.112-.006.62.62,0,0,0-.382.15,2.205,2.205,0,0,0-.528.794,7.385,7.385,0,0,0-.363,1.085c-.042.153-.079.309-.117.464a4.486,4.486,0,0,1-1.876,2.333,3.409,3.409,0,0,1-3.516-.183,4.8,4.8,0,0,1-1.777-4.168" transform="translate(-85.368 -12.006)" fill="#2079f3"/>
          <path id="Trazado_1000160" data-name="Trazado 1000160" d="M140.143,30.7a2.489,2.489,0,0,0,2.844,1.14,10.682,10.682,0,0,0,2.928-1.511,1.979,1.979,0,0,1,1.664-.385" transform="translate(-90.12 -19.208)" fill="none" stroke="#15260d" stroke-linecap="round" stroke-linejoin="round" stroke-width="0.75"/>
          <path id="Trazado_1000161" data-name="Trazado 1000161" d="M137.11,31.474a2.848,2.848,0,0,0,1.25,2.275,3.259,3.259,0,0,0,2.43.434,5.752,5.752,0,0,0,2.293-1.092" transform="translate(-88.17 -20.24)" fill="none" stroke="#12263f" stroke-linecap="round" stroke-linejoin="round" stroke-width="0.75"/>
          <path id="Trazado_1000162" data-name="Trazado 1000162" d="M137.965,39.062a2.661,2.661,0,0,0,2.375,1.228,6.172,6.172,0,0,0,2.615-.82" transform="translate(-88.72 -25.119)" fill="none" stroke="#12263f" stroke-linecap="round" stroke-linejoin="round" stroke-width="0.75"/>
          <path id="Trazado_1000163" data-name="Trazado 1000163" d="M160.242,27.088a7.457,7.457,0,0,1,4.606,3.351" transform="translate(-103.045 -17.419)" fill="none" stroke="#12263f" stroke-linecap="round" stroke-linejoin="round" stroke-width="0.75"/>
          <path id="Trazado_1000164" data-name="Trazado 1000164" d="M141.662,10.321c-.024-.1-.049-.2-.067-.293a.11.11,0,0,1,.142-.123v0c.021-.107.154-.083.151.024s0,.234.005.35A3.654,3.654,0,0,0,142.972,12a2.633,2.633,0,0,0,2.56.165,6.441,6.441,0,0,1,4.271.313,6.363,6.363,0,0,1,3.089,2.957,7.1,7.1,0,0,1,.7,2.184,7.533,7.533,0,0,1,.092,1.139v.009a2.762,2.762,0,0,1-.18,1.04.183.183,0,0,1-.045.063c-.015.03-.028.062-.045.091-.067.11-.191.023-.2-.082a.173.173,0,0,1-.055-.124c-.022-.425.069-.846.059-1.274a6.158,6.158,0,0,0-.318-1.836,4.631,4.631,0,0,0-.906-1.338,5.151,5.151,0,0,0-4.313-1.346,17.674,17.674,0,0,1-2.54.387,3.519,3.519,0,0,1-1.83-.579,3.714,3.714,0,0,1-1.328-1.553,4.182,4.182,0,0,1-.324-1.051,2.474,2.474,0,0,1,0-.844" transform="translate(-91.053 -6.322)" fill="#ffe76d"/>
          <path id="Trazado_1000165" data-name="Trazado 1000165" d="M143.364,13.6a5.541,5.541,0,0,0,5.808,1.668" transform="translate(-92.192 -8.748)" fill="none" stroke="#12263f" stroke-linecap="round" stroke-linejoin="round" stroke-width="0.75"/>
          <path id="Trazado_1000166" data-name="Trazado 1000166" d="M241.7,4.749a.286.286,0,0,0-.565-.084,44.771,44.771,0,0,1-2.778,7.6c-.075.144-.147.289-.226.432a13.382,13.382,0,0,1-4.374,4.784,18.892,18.892,0,0,1-11.733,2.794,22.607,22.607,0,0,1-6.085-1.32,36.036,36.036,0,0,1-5.716-2.875c-.566-.328-1.139-.652-1.719-.958a13.257,13.257,0,0,0,2.353.352c1.007.085,2.014.186,3.022.246a10.419,10.419,0,0,0,5.141-.858A11.794,11.794,0,0,0,225.133,6.9a39.672,39.672,0,0,0,1-6.486.327.327,0,0,0-.646-.1,20.509,20.509,0,0,1-4.978,8.924,16.7,16.7,0,0,1-8.925,4.9,18.846,18.846,0,0,1-4.383.344,12.935,12.935,0,0,0-2.729-.909,10.635,10.635,0,0,0-6.164.589,6.278,6.278,0,0,0-3.8,3.745c-.018.054-.031.109-.046.164a15.834,15.834,0,0,0-2.428,1.271c-1.714,1.092-3.411,2.451-5.414,2.788a6.118,6.118,0,0,1-5.253-1.743c-1.3-1.3-2.355-3.728-.9-5.377.019-.021.04-.035.06-.056.862-.235,1.584,1,1.983,1.682s.88,1.436,1.643,1.637a1.6,1.6,0,0,0,1.786-.566,1.957,1.957,0,0,0-.524-2.282c-1.187-1.351-3.1-2.585-4.8-1.634-1.555.87-1.962,3.1-1.391,4.784a6.879,6.879,0,0,0,3.841,4,6.8,6.8,0,0,0,5.524-.118c1.845-.827,3.432-2.186,5.227-3.12.148-.077.3-.145.452-.215a6.279,6.279,0,0,0,1.129,4.1c2.1,2.9,6.913,3.261,8.98.113a3.839,3.839,0,0,0-.749-4.927c-1.556-1.395-3.822-1.472-5.727-1.251a12.48,12.48,0,0,0-2.357.512,4.5,4.5,0,0,1,1.2-1.553A8.944,8.944,0,0,1,202.7,14.3a13.647,13.647,0,0,1,6.108,2.025,62.821,62.821,0,0,0,5.568,3,34.246,34.246,0,0,0,11.49,2.917,18.084,18.084,0,0,0,6.027-.771,17.218,17.218,0,0,0,5.511-2.774,9.74,9.74,0,0,0,3.313-5.4,28.976,28.976,0,0,0,.977-8.552m-41.438,13.3a4.678,4.678,0,0,1,2.951,1.179,2.909,2.909,0,0,1,.868,2.727c-.487,1.951-2.641,2.74-4.278,2.663a4.872,4.872,0,0,1-4.359-3.107,5.015,5.015,0,0,1-.242-2.766,11.7,11.7,0,0,1,5.061-.695" transform="translate(-115.096 -0.04)" fill="#2cbe91"/>
          <path id="Trazado_1000167" data-name="Trazado 1000167" d="M258.07,40.5a17.27,17.27,0,0,1-5.113-1.474" transform="translate(-162.666 -25.098)" fill="none" stroke="#12263f" stroke-linecap="round" stroke-linejoin="round" stroke-width="0.75"/>
          <path id="Trazado_1000168" data-name="Trazado 1000168" d="M286.473,15.125a14.622,14.622,0,0,1-11,9.165" transform="translate(-177.144 -9.726)" fill="none" stroke="#12263f" stroke-linecap="round" stroke-linejoin="round" stroke-width="0.75"/>
          <path id="Trazado_1000169" data-name="Trazado 1000169" d="M317.672,23.622c-1.372,4.538-4.133,8.751-8.084,10.709a14.8,14.8,0,0,1-2.467.936,20.606,20.606,0,0,1-8.9.573" transform="translate(-191.777 -15.19)" fill="none" stroke="#15260d" stroke-linecap="round" stroke-linejoin="round" stroke-width="0.75"/>
          <path id="Trazado_1000170" data-name="Trazado 1000170" d="M225.764,45.355a5.565,5.565,0,0,0-1.569,4.523" transform="translate(-144.158 -29.166)" fill="none" stroke="#12263f" stroke-linecap="round" stroke-linejoin="round" stroke-width="0.75"/>
          <path id="Trazado_1000171" data-name="Trazado 1000171" d="M223.076,45.454a6.227,6.227,0,0,0-1.011,3.863" transform="translate(-142.791 -29.23)" fill="none" stroke="#15260d" stroke-linecap="round" stroke-linejoin="round" stroke-width="0.75"/>
          <path id="Trazado_1000172" data-name="Trazado 1000172" d="M225.473,49.689a9.457,9.457,0,0,1,1.562-.626" transform="translate(-144.992 -31.55)" fill="none" stroke="#12263f" stroke-linecap="round" stroke-linejoin="round" stroke-width="0.75"/>
          <path id="Trazado_1000173" data-name="Trazado 1000173" d="M181.423,41.989a2.864,2.864,0,0,1,.7-1.3,1.784,1.784,0,0,1,.647-.337,2.727,2.727,0,0,1,2.876.764,1.54,1.54,0,0,1,.416,1.028c-.014.385-.292.771-.641.77" transform="translate(-116.666 -25.867)" fill="none" stroke="#12263f" stroke-linecap="round" stroke-linejoin="round" stroke-width="0.75"/>
          <path id="Trazado_1000174" data-name="Trazado 1000174" d="M.992,13.3a9.739,9.739,0,0,0,3.313,5.4,17.222,17.222,0,0,0,5.511,2.774,18.094,18.094,0,0,0,6.027.771,34.245,34.245,0,0,0,11.49-2.917,62.909,62.909,0,0,0,5.568-3A13.649,13.649,0,0,1,39.009,14.3a8.944,8.944,0,0,1,5.956,1.819,4.5,4.5,0,0,1,1.2,1.553,12.477,12.477,0,0,0-2.357-.512c-1.9-.221-4.171-.143-5.727,1.251a3.839,3.839,0,0,0-.749,4.927c2.067,3.149,6.882,2.788,8.98-.113a6.279,6.279,0,0,0,1.129-4.1c.151.071.3.138.452.215,1.8.934,3.382,2.293,5.227,3.12a6.8,6.8,0,0,0,5.524.118,6.879,6.879,0,0,0,3.841-4c.571-1.688.164-3.914-1.391-4.784-1.7-.951-3.611.283-4.8,1.634a1.958,1.958,0,0,0-.524,2.282,1.6,1.6,0,0,0,1.786.565c.763-.2,1.242-.949,1.643-1.637s1.121-1.916,1.984-1.681c.019.02.041.034.06.056,1.46,1.649.408,4.077-.9,5.377a6.118,6.118,0,0,1-5.253,1.743c-2-.338-3.7-1.7-5.414-2.788a15.8,15.8,0,0,0-2.428-1.271c-.015-.055-.029-.11-.046-.164a6.28,6.28,0,0,0-3.8-3.745,10.633,10.633,0,0,0-6.164-.589,12.941,12.941,0,0,0-2.729.909,18.867,18.867,0,0,1-4.383-.344A16.7,16.7,0,0,1,21.2,9.24,20.508,20.508,0,0,1,16.226.317a.327.327,0,0,0-.646.1,39.706,39.706,0,0,0,1,6.486A11.793,11.793,0,0,0,22.7,14.865a10.419,10.419,0,0,0,5.141.858c1.008-.06,2.015-.161,3.022-.246a13.252,13.252,0,0,0,2.353-.352c-.581.306-1.154.63-1.719.958a36.037,36.037,0,0,1-5.716,2.875,22.6,22.6,0,0,1-6.085,1.32A18.892,18.892,0,0,1,7.958,17.485,13.384,13.384,0,0,1,3.584,12.7c-.078-.142-.151-.287-.225-.432A44.786,44.786,0,0,1,.58,4.665a.286.286,0,0,0-.564.084A28.96,28.96,0,0,0,.992,13.3M46.514,18.74a5.018,5.018,0,0,1-.242,2.766,4.873,4.873,0,0,1-4.359,3.107c-1.638.077-3.791-.712-4.279-2.663a2.91,2.91,0,0,1,.868-2.727,4.68,4.68,0,0,1,2.951-1.178,11.7,11.7,0,0,1,5.061.695" transform="translate(0 -0.04)" fill="#2cbe91"/>
          <path id="Trazado_1000175" data-name="Trazado 1000175" d="M87.443,40.5a17.27,17.27,0,0,0,5.113-1.474" transform="translate(-56.231 -25.098)" fill="none" stroke="#12263f" stroke-linecap="round" stroke-linejoin="round" stroke-width="0.75"/>
          <path id="Trazado_1000176" data-name="Trazado 1000176" d="M48.43,15.125a14.621,14.621,0,0,0,11,9.165" transform="translate(-31.143 -9.726)" fill="none" stroke="#15260d" stroke-linecap="round" stroke-linejoin="round" stroke-width="0.75"/>
          <path id="Trazado_1000177" data-name="Trazado 1000177" d="M2.019,23.622C3.391,28.16,6.152,32.373,10.1,34.331a14.8,14.8,0,0,0,2.467.936,20.607,20.607,0,0,0,8.9.573" transform="translate(-1.298 -15.19)" fill="none" stroke="#15260d" stroke-linecap="round" stroke-linejoin="round" stroke-width="0.75"/>
          <path id="Trazado_1000178" data-name="Trazado 1000178" d="M126.1,45.355a5.565,5.565,0,0,1,1.569,4.523" transform="translate(-81.09 -29.166)" fill="none" stroke="#15260d" stroke-linecap="round" stroke-linejoin="round" stroke-width="0.75"/>
          <path id="Trazado_1000179" data-name="Trazado 1000179" d="M129.8,45.454a6.227,6.227,0,0,1,1.011,3.863" transform="translate(-83.469 -29.23)" fill="none" stroke="#12263f" stroke-linecap="round" stroke-linejoin="round" stroke-width="0.75"/>
          <path id="Trazado_1000180" data-name="Trazado 1000180" d="M126.437,49.689a9.457,9.457,0,0,0-1.562-.626" transform="translate(-80.302 -31.55)" fill="none" stroke="#12263f" stroke-linecap="round" stroke-linejoin="round" stroke-width="0.75"/>
          <path id="Trazado_1000181" data-name="Trazado 1000181" d="M164.95,41.989a2.869,2.869,0,0,0-.7-1.3,1.784,1.784,0,0,0-.647-.337,2.727,2.727,0,0,0-2.876.764,1.54,1.54,0,0,0-.416,1.028c.014.385.292.771.641.77" transform="translate(-103.091 -25.867)" fill="none" stroke="#15260d" stroke-linecap="round" stroke-linejoin="round" stroke-width="0.75"/>
          <path id="Trazado_1000182" data-name="Trazado 1000182" d="M176.8,33.306a1.6,1.6,0,1,0-1.593,1.76,1.683,1.683,0,0,0,1.593-1.76" transform="translate(-111.641 -20.286)" fill="#2cbe91"/>
        </g>
      </g>
      <g id="Grupo_1186068" data-name="Grupo 1186068" transform="translate(1222.925 2459.771)">
        <g id="Grupo_1184024" data-name="Grupo 1184024" transform="translate(0 0)">
          <rect id="Rectángulo_455879-2" data-name="Rectángulo 455879" width="44.555" height="42.781" transform="translate(0.336)" fill="#ffb57d"/>
          <path id="Trazado_1000145-2" data-name="Trazado 1000145" d="M0,1.953H1.191a1.951,1.951,0,0,1,3.9,0H6.765v0a1.951,1.951,0,1,1,3.9,0h1.561v0a1.951,1.951,0,1,1,3.9,0h1.634v0a1.951,1.951,0,1,1,3.9,0h1.693v0a1.951,1.951,0,1,1,3.9,0h1.594a1.951,1.951,0,0,1,3.9,0h1.647v0a1.951,1.951,0,1,1,3.9,0h1.653v0a1.951,1.951,0,1,1,3.9,0h1.361" transform="translate(45.226 44.311) rotate(180)" fill="#ffb57d"/>
        </g>
        <path id="Trazado_1026845" data-name="Trazado 1026845" d="M33.908,7.348c-.139-2.454-1.693-3.9-4.48-2.858a30.543,30.543,0,0,1-3.9,1.068c-.238-.912-.476-1.847-.649-2.574L24.858,3c-.059-.245-.11-.468-.151-.657A2.642,2.642,0,0,0,22.091,0L10.921.639C9.554.717,8.854,1.912,8.586,3.255c-.141.709-.314,1.885-.473,3.058-2.25-.2-3.973-.385-3.973-.385C.815,5.268-.126,6.821.013,9.275c.243,4.274,8.326,8.894,17.478,8.373s16.659-6.027,16.416-10.3" transform="translate(5.504 13.609) rotate(-1)" fill="#ffb57d" style="mix-blend-mode: multiply;isolation: isolate"/>
      </g>
    </g>
    <g id="mesero" transform="translate(1129.788 4845.59)">
      <path id="Trazado_1140075" data-name="Trazado 1140075" d="M34.04,26.429a1.179,1.179,0,0,0-1.179-1.179H23.429a1.179,1.179,0,0,0-1.179,1.179,5.895,5.895,0,1,0,11.79,0Zm-9.231,1.179h6.672a3.539,3.539,0,0,1-6.672,0Z" transform="translate(10.868 14.3)" fill="#2079f3"/>
      <path id="Trazado_1140076" data-name="Trazado 1140076" d="M20.429,17.25a1.179,1.179,0,0,0-1.179,1.179V20a1.179,1.179,0,0,0,2.358,0V18.429A1.179,1.179,0,0,0,20.429,17.25Z" transform="translate(9.152 9.724)" fill="#2079f3"/>
      <path id="Trazado_1140077" data-name="Trazado 1140077" d="M32.429,21.18A1.179,1.179,0,0,0,33.608,20V18.429a1.179,1.179,0,1,0-2.358,0V20A1.179,1.179,0,0,0,32.429,21.18Z" transform="translate(16.016 9.724)" fill="#2079f3"/>
      <path id="Trazado_1140078" data-name="Trazado 1140078" d="M26.167,25.978a1.179,1.179,0,0,0,1.666-1.666l-.97-.971,1.192-2.385a1.179,1.179,0,0,0-.527-1.581h0a1.179,1.179,0,0,0-1.581.527l-1.572,3.144a1.179,1.179,0,0,0,.222,1.361Z" transform="translate(12.012 10.868)" fill="#2079f3"/>
      <path id="Trazado_1140079" data-name="Trazado 1140079" d="M94.033,85.138H86.566V77.131A7.442,7.442,0,0,0,90.5,70.6V61.165a1.179,1.179,0,0,0-1.179-1.179H76.741a1.179,1.179,0,0,0-1.179,1.179V70.6a7.442,7.442,0,0,0,3.93,6.535v8.006H74.738A29.456,29.456,0,0,0,71.346,72.53a7.351,7.351,0,0,0,.286-1.934V61.165a1.179,1.179,0,0,0-1.179-1.179H58.542a29.31,29.31,0,0,0-5.92-2.212,4.32,4.32,0,0,0-4.57-3.16V50.145A20.893,20.893,0,0,0,57.27,35.62h1.393a5.107,5.107,0,0,0,1.965-9.825V14a9.05,9.05,0,0,0-8.41-9.017A11.744,11.744,0,0,0,42.786.25H31.153A13.771,13.771,0,0,0,17.4,14v11.79a5.107,5.107,0,0,0,1.965,9.825h1.393a20.893,20.893,0,0,0,9.218,14.525v4.469A4.32,4.32,0,0,0,25.4,57.783,29.288,29.288,0,0,0,3.25,86.317V98.893a1.179,1.179,0,0,0,1.179,1.179h70.74a5.9,5.9,0,0,0,5.895-5.895v-.393h6.681a7.476,7.476,0,0,0,7.467-7.467A1.179,1.179,0,0,0,94.033,85.138ZM77.92,62.344H88.138v3.93H77.92Zm0,8.253V68.632H88.138V70.6a5.109,5.109,0,0,1-10.218,0Zm6.288,7.347v7.193H81.85V77.944a5.877,5.877,0,0,0,2.358,0ZM72.38,85.138H67.7V77.131a7.472,7.472,0,0,0,2.317-1.956A27.174,27.174,0,0,1,72.38,85.138ZM59.056,62.344H69.274v3.93H59.056Zm0,6.288H69.274V70.6a5.109,5.109,0,1,1-10.218,0Zm6.288,9.312v7.193H62.986V77.944a5.877,5.877,0,0,0,2.358,0ZM50.41,58.9v4.534a1.965,1.965,0,0,1-2.751,1.8l-4.813-2.106a4.152,4.152,0,0,0,0-3.921L47.659,57.1a1.965,1.965,0,0,1,2.751,1.8Zm-11.4-2.056a4.271,4.271,0,0,0-2.077.555l-4.6-2.014v-3.95a15.827,15.827,0,0,0,13.362,0v3.95l-4.6,2.009A4.271,4.271,0,0,0,39.013,56.842Zm1.965,4.323A1.965,1.965,0,1,1,39.013,59.2a1.965,1.965,0,0,1,1.965,1.965ZM61.414,30.511a2.754,2.754,0,0,1-2.751,2.751h-1.2c0-.132.02-.261.02-.393V27.76h1.179A2.754,2.754,0,0,1,61.414,30.511ZM20.562,33.262h-1.2a2.751,2.751,0,1,1,0-5.5h1.2c0,.132-.02.261-.02.393v4.716C20.542,33,20.559,33.13,20.562,33.262Zm-.806-7.86V14a11.41,11.41,0,0,1,11.4-11.4H42.786A9.394,9.394,0,0,1,50.616,6.8a1.177,1.177,0,0,0,.973.525A6.689,6.689,0,0,1,58.27,14V25.4H56.421l-1.39-.278a9.1,9.1,0,0,1-7.014-6.689,1.181,1.181,0,0,0-1.144-.893H31.153A10.62,10.62,0,0,0,20.916,25.4ZM22.9,32.869V28.153A8.262,8.262,0,0,1,31.153,19.9H45.991a11.476,11.476,0,0,0,8.585,7.536l.556.112v5.321c0,9.256-7.681,17.685-16.113,17.685S22.9,42.125,22.9,32.869ZM27.616,58.9a1.965,1.965,0,0,1,2.751-1.8L35.18,59.2a4.152,4.152,0,0,0,0,3.921l-4.813,2.106a1.965,1.965,0,0,1-2.753-1.8ZM15.04,97.714V84.745a1.179,1.179,0,0,0-2.358,0V97.714H5.608v-11.4a26.938,26.938,0,0,1,19.65-26.053v3.168a4.307,4.307,0,0,0,5.25,4.2l2.507,30.085Zm20.342,0L32.8,66.745l4.136-1.808a4.163,4.163,0,0,0,4.153,0l4.136,1.808L42.644,97.714Zm9.628,0,2.507-30.085a4.307,4.307,0,0,0,5.25-4.2V60.247a26.881,26.881,0,0,1,3.93,1.471V70.6a7.442,7.442,0,0,0,3.93,6.535v8.006H53.161a1.179,1.179,0,0,0-1.179,1.179,7.476,7.476,0,0,0,7.467,7.467h3.537v.393a5.84,5.84,0,0,0,1.209,3.537Zm33.7-3.537a3.54,3.54,0,0,1-3.537,3.537H68.881a3.54,3.54,0,0,1-3.537-3.537v-.393H78.706Zm9.039-2.751h-28.3a5.118,5.118,0,0,1-4.972-3.93h38.24a5.118,5.118,0,0,1-4.972,3.93Z" transform="translate(0 0)" fill="#2079f3"/>
    </g>
  </g>
</svg>
